<?xml version="1.0" encoding="utf-8"?>
<!-- Generator: Adobe Illustrator 27.7.0, SVG Export Plug-In . SVG Version: 6.00 Build 0)  -->
<svg version="1.1" id="Layer_1" xmlns="http://www.w3.org/2000/svg" xmlns:xlink="http://www.w3.org/1999/xlink" x="0px" y="0px"
	 viewBox="0 0 56 56" style="enable-background:new 0 0 56 56;" xml:space="preserve">
<style type="text/css">
	.st0{fill:#040404;}
	.st1{fill:#17306F;}
	.st2{fill:#106C9A;}
	.st3{fill:#050505;}
	.st4{fill:#17316F;}
	.st5{fill:#19326F;}
	.st6{fill:#116C9A;}
	.st7{fill:#126D9A;}
	.st8{fill:#070707;}
	.st9{fill:#18316F;}
	.st10{fill:#080808;}
	.st11{fill:#090909;}
	.st12{fill:#E7E7E7;}
	.st13{fill:#FDFDFD;}
</style>
<path class="st0" d="M0.9,30.9c0-0.8,0-1.5,0-2.3c1.2,0,2.4-0.1,3.5,0c0.7,0.1,1.5,0.3,1.7,1.2c0.3,0.9,0,1.6-0.7,2.2
	c1.1,0.8,1.4,1.6,1.1,2.6C6.1,35.7,4.9,36.2,3,36c0-0.4,0-0.8,0-1.3c0.7-0.3,2.1,0.2,1.8-1.2c-0.2-1.1-1.4-0.5-2.2-0.8
	c0,0.7,0,1.2,0,1.7c0,0.5,0,1,0,1.5c-0.6,0-1.1,0-1.7,0C0.9,34.3,0.9,32.7,0.9,30.9 M4.2,31.4c0.1-0.4,0.3-1,0.3-1
	c-0.5-0.3-1.1-0.4-1.7-0.6c0,0.8,0,1.3,0,1.9C3.2,31.6,3.6,31.5,4.2,31.4z"/>
<path class="st1" d="M43.8,23.5c0.2,0.7-0.2,1-0.8,1.1c-1.5,0.3-3.1,0.5-4.6,0.7c-1.5,0.2-2.6-0.6-3.5-1.7c-0.5-0.7-0.2-1.6,0.6-1.9
	c1.4-0.4,2.8-0.8,4.2-1.2c0.3-0.1,0.8,0,1.1,0.2C41.8,21.7,42.8,22.6,43.8,23.5z"/>
<path class="st2" d="M46.4,15.9c0.6,0.1,1.1,0.4,1,1c-0.1,0.4-0.6,0.7-0.9,0.9c-1.7,0.5-3.4,1-5.1,1.5c-0.4,0.1-1,0-1.4-0.3
	c-0.6-0.3-1.1-0.8-1.5-1.3c-0.3-0.4-0.6-0.9-0.5-1.3c0.1-0.4,0.6-0.8,1-0.9C41.6,14.7,44,15.1,46.4,15.9z"/>
<path class="st2" d="M46.6,36.6c-0.2,0.6-0.6,1-1.1,0.8c-0.4-0.1-0.8-0.5-1-0.8c-0.6-1.2-1-2.5-1.5-3.7c-0.3-0.7-0.1-1.3,0.5-1.6
	c1-0.5,2-1.1,3-1.6c0.4-0.2,1-0.2,1.3,0c0.3,0.2,0.4,0.9,0.3,1.2C47.6,32.9,47.1,34.7,46.6,36.6z"/>
<path class="st3" d="M20.2,35.9c0-1.1,0-2.2,0-3.2c0-1.5,1-2.5,2.4-2.5c1.4,0,2.3,1,2.4,2.5c0,1.1,0,2.2,0,3.3c-0.6,0-1.1,0-1.7,0
	c0-1,0-2,0-3c0-0.5,0-1.1-0.6-1.1c-0.7,0-0.6,0.6-0.6,1c0,1,0,2,0,3.1C21.3,36.1,20.7,36,20.2,35.9z"/>
<path class="st1" d="M55.2,23.8c-0.4,0.3-0.7,0.6-1,0.8c-1.2,0.7-2.5,1.3-3.7,2c-0.6,0.4-1.2,0.4-1.7-0.2c-0.5-0.5-0.9-1.1-1.3-1.6
	c0.6-0.3,1.1-0.7,1.7-0.9c1.5-0.6,3-1.1,4.5-1.6c0.4-0.1,1.1-0.2,1.4,0C55.3,22.6,55.2,23.2,55.2,23.8z"/>
<path class="st0" d="M11.9,31.6c-0.2-0.4-0.2-0.9-0.3-1.5c1.1,0.1,2,0,2.9,0.2c1.1,0.2,1.5,0.9,1.5,1.9c0,1.2,0,2.5,0,3.8
	c-0.6,0-1.1,0-1.7,0c0-0.9,0-1.7,0-2.6c-0.7-0.1-1.5-0.2-1.7,0.6c-0.2,0.9,0.7,0.8,1.3,1c0,0.3,0,0.6,0,0.9
	c-1.4,0.3-2.6-0.3-2.8-1.4c-0.2-1.4,0.5-2,3-2.4C14,31.6,14,31.6,11.9,31.6z"/>
<path class="st2" d="M53.5,20.5c-0.3,0.4-0.5,0.9-0.9,1.1c-1.4,0.6-2.8,1-4.2,1.5c-0.3,0.1-0.6,0-0.9,0c0-0.3,0-0.7,0.1-1
	c0.6-1.1,1.2-2.2,1.8-3.3c0.4-0.7,0.9-0.9,1.6-0.8C52.1,18.2,53.4,19.5,53.5,20.5z"/>
<path class="st2" d="M40.3,25.9c1-0.2,2-0.4,3-0.5c0.3,0,0.8,0,0.9,0.2c0.1,0.2,0,0.7-0.1,0.9c-0.5,1-1,1.9-1.5,2.8
	c-0.5,0.9-1.2,1-2,0.3c-0.5-0.5-1.2-0.9-1.6-1.4c-0.3-0.4-0.7-1-0.6-1.4c0.1-0.3,0.8-0.6,1.2-0.8C39.8,25.9,40.1,26,40.3,25.9z"/>
<path class="st2" d="M54.6,30.3c-0.8,0.3-1.4,0.1-1.9-0.4c-0.5-0.5-1.1-1-1.7-1.5c-0.5-0.4-0.5-0.8,0.1-1.1c1.1-0.6,2.1-1.2,3.2-1.7
	c0.9-0.4,1.6,0,1.7,1C56.1,27.9,55.9,29.3,54.6,30.3z"/>
<path class="st4" d="M44.1,22.5c-0.6-0.5-1.1-0.9-1.6-1.4c-0.6-0.6-0.5-1.1,0.3-1.4c1.3-0.4,2.7-0.7,4-1c0.1,0,0.2-0.2,0.3-0.2
	c0.3,0,0.7,0,0.8,0.1c0.2,0.1,0.2,0.6,0.1,0.8c-0.7,1.3-1.4,2.5-2.1,3.8c-0.1,0.1-0.6,0.2-0.8,0.1C44.8,23.1,44.5,22.8,44.1,22.5z"
	/>
<path class="st5" d="M33.2,30.9c0.3-0.4,0.6-0.7,0.9-1.1c0.8-1.2,0.9-1.2,2.5-0.9c-0.7,1.2-1.4,2.4-2.1,3.8
	c-0.2,0.3-0.3,0.5-0.5,0.8c-0.1,0.1-0.1,0.2-0.1,0.3c0,0,0,0,0,0c-0.3,0.4-0.7,0.7-0.9,1.1c-0.5,1.2-1.4,1.5-2.7,1.2
	c0.7-1.1,1.4-2.2,2-3.3c0.1-0.2,0-0.5,0-0.8C32.6,31.5,32.9,31.2,33.2,30.9z"/>
<path class="st6" d="M35.7,17c1.4,0.2,2.1,1.3,3,2.2c0.1,0.1-0.2,0.8-0.4,0.9c-1.1,0.4-2.3,0.8-3.5,1c-0.7,0.2-1.2-0.2-1.3-0.9
	C33.4,19.1,34.6,17.3,35.7,17z"/>
<path class="st7" d="M51.1,29.7c0.4,0.4,0.8,0.7,1.2,1c0.6,0.6,0.6,1.4-0.2,1.7c-0.7,0.3-1.4,0.5-2.2,0.7c-0.8,0.1-1.3-0.5-1.1-1.3
	c0.2-0.7,0.4-1.4,0.6-2.1c0.3-0.9,0.6-1,1.4-0.4C50.8,29.4,51,29.5,51.1,29.7z"/>
<path class="st8" d="M7.7,34.3c0-0.6,0-1.1,0-1.6c0-1.7,0.9-2.5,2.7-2.5c0,0.4,0,0.9,0,1.4c-1.1-0.3-1.1,0.4-1.1,1.2
	c0,1.1,0,2.1,0,3.2c-0.5,0-1,0-1.6,0C7.7,35.5,7.7,34.9,7.7,34.3z"/>
<path class="st9" d="M47.3,28.3c-0.7,0.4-1.4,0.8-2.1,1.1c-0.3,0.1-0.7,0-1,0c0-0.4-0.1-0.8,0-1c0.4-0.8,0.8-1.6,1.3-2.3
	c0.3-0.5,0.6-0.6,1.1-0.2c0.3,0.3,0.6,0.5,0.9,0.8C48.4,27.4,48.4,27.6,47.3,28.3z"/>
<path d="M19,31.6c0,1.5,0,2.9,0,4.4c-0.5,0-1.1,0-1.6,0c0-1.9,0-3.7,0-5.6c0.5,0,1,0,1.6,0C19,30.8,19,31.2,19,31.6z"/>
<path class="st10" d="M33.9,33.4c0.1-0.2,0.3-0.4,0.5-0.7c0.4,0.4,0.8,0.9,1.2,1.4c0.4,0.6,0.8,1.2,1.2,1.9c-1.8,0.4-2.7-0.2-3-2.1
	c0-0.1,0-0.1,0.1-0.1C33.9,33.6,33.9,33.5,33.9,33.4z"/>
<path class="st8" d="M33.2,30.8c-0.3,0.4-0.6,0.7-1,1c-0.7-1-1.4-2.1-2-3.1C32.1,28.4,33,29,33.2,30.8z"/>
<path d="M27.7,33.7c-0.5,0-0.8,0-1.2,0c0-0.4,0-0.8,0-1.2c0.9,0,1.8,0,2.7,0c0,0.4,0,0.7,0,1.2C28.7,33.7,28.2,33.7,27.7,33.7z"/>
<path class="st11" d="M18.5,27.7c0.6,0.3,0.9,0.8,0.5,1.2c-0.2,0.3-0.8,0.5-1.3,0.4c-0.2,0-0.6-0.6-0.6-0.9
	C17.2,27.8,17.8,27.6,18.5,27.7z"/>
<path class="st12" d="M4.1,31.4c-0.5,0.1-0.9,0.2-1.4,0.2c0-0.6,0-1.1,0-1.9c0.6,0.2,1.2,0.3,1.7,0.6C4.5,30.4,4.2,31,4.1,31.4z"/>
<path class="st13" d="M33.9,33.4c0,0.1,0,0.2-0.1,0.3C33.8,33.7,33.8,33.5,33.9,33.4z"/>
</svg>
