<?xml version="1.0" encoding="utf-8"?>
<!-- Generator: Adobe Illustrator 27.7.0, SVG Export Plug-In . SVG Version: 6.00 Build 0)  -->
<svg version="1.1" id="Layer_1" xmlns="http://www.w3.org/2000/svg" xmlns:xlink="http://www.w3.org/1999/xlink" x="0px" y="0px"
	 viewBox="0 0 56 56" style="enable-background:new 0 0 56 56;" xml:space="preserve">
<style type="text/css">
	.st0{fill:#DC2E27;}
	.st1{fill:#F7DC15;}
	.st2{fill:#F7DB15;}
</style>
<path class="st0" d="M19.3,53.8c-1.5-0.5-2.9-1.1-4.2-1.8c-2.8-1.5-5.3-3.4-7.4-5.8c-2.4-2.6-4.2-5.6-5.4-8.9
	c-0.7-1.8-1.1-3.6-1.4-5.5c-0.1-0.5-0.1-1-0.2-1.5c0-0.3-0.1-0.6-0.1-0.9c0-1,0-2,0-3c0-0.7,0.1-1.5,0.2-2.2c0.2-1.6,0.5-3.2,1-4.8
	c1-3.2,2.5-6.1,4.6-8.7c2-2.5,4.4-4.7,7.1-6.4c2.5-1.6,5.2-2.7,8.1-3.4c0.8-0.2,1.7-0.3,2.5-0.5c0.6-0.1,1.1-0.1,1.7-0.2
	c0.3,0,0.7,0,1-0.1c0.6,0,1.2,0,1.8,0c0.5,0,1.1,0,1.6,0.1c2.8,0.2,5.5,0.8,8.2,1.9c3.9,1.5,7.2,3.8,10,6.9c3.4,3.7,5.6,8,6.7,12.8
	c0.2,0.8,0.3,1.5,0.4,2.3c0.1,0.4,0.1,0.8,0.1,1.3c0.1,1.1,0.1,2.3,0.1,3.5c0,0.7-0.1,1.4-0.2,2.1c-0.2,1.9-0.6,3.7-1.2,5.5
	c-1.1,3.2-2.7,6.1-4.8,8.7c-2.9,3.5-6.5,6.2-10.7,8c-1.7,0.7-3.4,1.2-5.1,1.6c-0.8,0.2-1.6,0.3-2.5,0.4c-0.7,0.1-1.3,0.1-2,0.1
	c-0.6,0-1.3,0-1.9,0c-0.7,0-1.4-0.1-2-0.2c-1.8-0.2-3.5-0.5-5.2-1.1C19.7,54,19.5,53.9,19.3,53.8 M46.8,38C46.8,38,46.9,38,46.8,38
	C46.9,37.9,46.8,37.9,46.8,38c0-0.1,0-0.1,0-0.2c-0.3-0.7-0.5-1.4-0.8-2.1c0-0.1,0-0.2,0.1-0.2c0.6-0.5,1.2-1,1.8-1.4
	c0,0,0.1-0.1,0.1-0.1c-0.1,0-0.1,0-0.1,0c-0.3,0-0.6,0-0.9,0c-0.5,0-1,0-1.4,0c-0.1,0-0.2,0-0.3-0.2c-0.3-0.7-0.5-1.4-0.8-2.1
	c0,0,0-0.1-0.1-0.2c0,0.1,0,0.1-0.1,0.2c-0.2,0.8-0.4,1.5-0.6,2.3c0,0.1,0,0.1-0.1,0.1c-0.4,0-0.9,0-1.3,0.1c-0.4,0-0.8,0-1.1,0
	c0,0,0,0-0.1,0c0.1,0,0.1,0.1,0.1,0.1c0.6,0.4,1.3,0.9,1.9,1.3c0.1,0.1,0.1,0.1,0.1,0.2c-0.2,0.7-0.4,1.4-0.6,2.1
	c0,0.1,0,0.2-0.1,0.3c0.1-0.1,0.1-0.1,0.2-0.1c0.6-0.5,1.2-1,1.8-1.4c0.1-0.1,0.1-0.1,0.2,0c0.4,0.3,0.8,0.6,1.2,0.8
	C46.3,37.6,46.6,37.8,46.8,38 M34.4,40.2C34.4,40.2,34.4,40.2,34.4,40.2C34.4,40.2,34.4,40.2,34.4,40.2c0.4,0.7,0.9,1.4,1.4,2.1
	c0.1,0.1,0.1,0.1,0,0.2c-0.5,0.6-1,1.2-1.4,1.8c0,0-0.1,0.1-0.1,0.2c0.1,0,0.1,0,0.2,0c0.7-0.2,1.5-0.4,2.2-0.6c0.1,0,0.2,0,0.2,0.1
	c0.4,0.7,0.9,1.3,1.3,2c0,0,0.1,0.1,0.1,0.1c0-0.1,0-0.1,0-0.1c0-0.5,0-1,0.1-1.4c0-0.3,0-0.7,0-1c0-0.1,0-0.1,0.1-0.1
	c0.5-0.1,1.1-0.3,1.6-0.4c0.3-0.1,0.5-0.1,0.8-0.2c-0.1,0-0.1-0.1-0.2-0.1c-0.7-0.3-1.5-0.5-2.2-0.8c-0.1,0-0.1-0.1-0.1-0.2
	c0-0.2,0-0.3,0-0.5c0-0.5,0-0.9,0.1-1.4c0-0.2,0-0.4,0-0.6c0,0-0.1,0.1-0.1,0.1c-0.5,0.6-1,1.2-1.5,1.8c-0.1,0.1-0.1,0.1-0.2,0.1
	c-0.3-0.1-0.7-0.3-1-0.4C35.3,40.5,34.9,40.3,34.4,40.2 M12.4,36.6c2.1-1.5,4.2-3.1,6.3-4.6c0.1-0.1,0.2-0.1,0.3,0
	c2.1,1.5,4.1,3,6.2,4.5c0,0,0.1,0.1,0.2,0.1c0-0.1,0-0.1-0.1-0.2c-0.8-2.4-1.6-4.8-2.4-7.3c0-0.1,0-0.2,0.1-0.3
	c2.1-1.5,4.1-3,6.2-4.5c0,0,0.1-0.1,0.1-0.1c-0.1,0-0.2,0-0.2,0c-2.5,0-5.1,0-7.6,0c-0.1,0-0.2,0-0.2-0.1c-0.8-2.5-1.6-4.9-2.4-7.3
	c0,0,0-0.1-0.1-0.1c0,0.1,0,0.1-0.1,0.2c-0.8,2.4-1.6,4.8-2.4,7.3c0,0.1-0.1,0.2-0.3,0.2c-2.5,0-5.1,0-7.6,0c-0.1,0-0.1,0-0.2,0
	c0,0.1,0.1,0.1,0.2,0.2c2.1,1.5,4.1,3,6.2,4.5c0.1,0.1,0.1,0.1,0.1,0.3c-0.8,2.4-1.6,4.9-2.4,7.3C12.4,36.5,12.4,36.6,12.4,36.6
	L12.4,36.6C12.3,36.6,12.3,36.6,12.4,36.6 M38.1,19.7c0.1-0.7,0.1-1.3,0.2-2c0-0.1,0.1-0.2,0.2-0.2c0.8-0.2,1.5-0.3,2.3-0.5
	c0.1,0,0.1,0,0.2-0.1c-0.1,0-0.1-0.1-0.2-0.1c-0.7-0.3-1.4-0.6-2.1-0.9c-0.1,0-0.1-0.1-0.1-0.2c0.1-0.7,0.1-1.4,0.2-2
	c0-0.2,0-0.3,0-0.5c-0.1,0.1-0.1,0.1-0.1,0.1c-0.5,0.6-1,1.2-1.5,1.7c-0.1,0.1-0.1,0.1-0.2,0.1c-0.7-0.3-1.4-0.6-2.1-0.9
	c0,0-0.1,0-0.2-0.1c0,0.1,0.1,0.1,0.1,0.2c0.4,0.7,0.8,1.3,1.2,2c0.1,0.1,0.1,0.2,0,0.3c-0.5,0.6-1,1.1-1.5,1.7c0,0-0.1,0.1-0.1,0.2
	c0.1,0,0.1,0,0.1,0c0.8-0.2,1.6-0.4,2.4-0.5c0.1,0,0.2,0,0.2,0.1c0.4,0.7,0.8,1.3,1.2,2c0,0,0.1,0.1,0.1,0.1c0,0,0,0,0,0
	C38.1,20,38.1,19.9,38.1,19.7 M47.2,25.6c0.2,0,0.4,0.1,0.6,0.1c0-0.1-0.1-0.1-0.1-0.1c-0.5-0.6-1.1-1.1-1.6-1.7
	c-0.1-0.1-0.1-0.1,0-0.2c0.4-0.7,0.7-1.4,1.1-2.1c0,0,0-0.1,0.1-0.2c-0.1,0-0.1,0.1-0.2,0.1c-0.7,0.3-1.4,0.7-2,1
	c-0.1,0.1-0.2,0.1-0.3-0.1c-0.5-0.6-1.1-1.1-1.6-1.6c0,0,0-0.1-0.1-0.1c0,0,0,0-0.1,0c0,0,0,0,0,0.1c0.1,0.8,0.2,1.6,0.3,2.4
	c0,0.1,0,0.2-0.1,0.2c-0.7,0.3-1.4,0.7-2.1,1c0,0-0.1,0-0.1,0.1c0.1,0,0.1,0,0.2,0c0.8,0.1,1.5,0.3,2.3,0.4c0.1,0,0.1,0.1,0.2,0.2
	c0.1,0.6,0.2,1.2,0.2,1.8c0,0.2,0.1,0.5,0.1,0.7c0-0.1,0.1-0.1,0.1-0.2c0.4-0.7,0.7-1.3,1.1-2c0.1-0.1,0.1-0.2,0.3-0.1
	C46,25.4,46.6,25.5,47.2,25.6z"/>
<path class="st1" d="M12.3,36.6c0-0.1,0-0.1,0-0.2c0.8-2.4,1.6-4.9,2.4-7.3c0-0.1,0-0.2-0.1-0.3c-2.1-1.5-4.1-3-6.2-4.5
	c-0.1,0-0.1-0.1-0.2-0.2c0.1,0,0.1,0,0.2,0c2.5,0,5.1,0,7.6,0c0.1,0,0.2,0,0.3-0.2c0.8-2.4,1.6-4.8,2.4-7.3c0,0,0-0.1,0.1-0.2
	c0,0.1,0,0.1,0.1,0.1c0.8,2.4,1.6,4.9,2.4,7.3c0,0.1,0.1,0.1,0.2,0.1c2.5,0,5.1,0,7.6,0c0.1,0,0.1,0,0.2,0c-0.1,0.1-0.1,0.1-0.1,0.1
	c-2.1,1.5-4.1,3-6.2,4.5c-0.1,0.1-0.1,0.1-0.1,0.3c0.8,2.4,1.6,4.8,2.4,7.3c0,0,0,0.1,0.1,0.2c-0.1,0-0.1-0.1-0.2-0.1
	C23.1,35,21,33.5,19,32c-0.1-0.1-0.2-0.1-0.3,0C16.6,33.6,14.5,35.1,12.3,36.6C12.3,36.6,12.3,36.6,12.3,36.6z"/>
<path class="st2" d="M38.1,19.7c0,0.2,0,0.3,0,0.5c0,0,0,0,0,0c0,0-0.1-0.1-0.1-0.1c-0.4-0.7-0.8-1.3-1.2-2C36.7,18,36.7,18,36.5,18
	c-0.8,0.2-1.6,0.4-2.4,0.5c0,0,0,0-0.1,0c0.1-0.1,0.1-0.1,0.1-0.2c0.5-0.6,1-1.2,1.5-1.7c0.1-0.1,0.1-0.2,0-0.3
	c-0.4-0.7-0.8-1.3-1.2-2c0,0,0-0.1-0.1-0.2c0.1,0,0.1,0.1,0.2,0.1c0.7,0.3,1.4,0.6,2.1,0.9c0.1,0,0.2,0,0.2-0.1
	c0.5-0.6,1-1.2,1.5-1.7c0,0,0.1-0.1,0.1-0.1c0,0.2,0,0.3,0,0.5c-0.1,0.7-0.1,1.4-0.2,2c0,0.1,0,0.1,0.1,0.2c0.7,0.3,1.4,0.6,2.1,0.9
	c0.1,0,0.1,0,0.2,0.1c-0.1,0-0.1,0-0.2,0.1c-0.8,0.2-1.5,0.3-2.3,0.5c-0.1,0-0.2,0.1-0.2,0.2C38.2,18.4,38.2,19,38.1,19.7z"/>
<path class="st2" d="M34.4,40.2c0.5,0.2,0.9,0.3,1.4,0.5c0.3,0.1,0.7,0.2,1,0.4c0.1,0,0.1,0,0.2-0.1c0.5-0.6,1-1.2,1.5-1.8
	c0,0,0.1-0.1,0.1-0.1c0,0.2,0,0.4,0,0.6c0,0.5,0,0.9-0.1,1.4c0,0.2,0,0.3,0,0.5c0,0.1,0,0.2,0.1,0.2c0.7,0.3,1.5,0.5,2.2,0.8
	c0,0,0.1,0,0.2,0.1c-0.3,0.1-0.6,0.2-0.8,0.2c-0.5,0.2-1.1,0.3-1.6,0.4c-0.1,0-0.1,0-0.1,0.1c0,0.3,0,0.7,0,1c0,0.5,0,1-0.1,1.4
	c0,0,0,0,0,0.1c0-0.1-0.1-0.1-0.1-0.1c-0.4-0.7-0.9-1.3-1.3-2c-0.1-0.1-0.1-0.1-0.2-0.1c-0.7,0.2-1.5,0.4-2.2,0.6
	c-0.1,0-0.1,0-0.2,0c0.1-0.1,0.1-0.1,0.1-0.2c0.5-0.6,1-1.2,1.4-1.8c0.1-0.1,0.1-0.1,0-0.2C35.3,41.6,34.9,40.9,34.4,40.2
	C34.4,40.2,34.4,40.2,34.4,40.2z"/>
<path class="st2" d="M47.2,25.6c-0.6-0.1-1.2-0.2-1.8-0.3c-0.1,0-0.2,0-0.3,0.1c-0.3,0.7-0.7,1.3-1.1,2c0,0,0,0.1-0.1,0.2
	c0-0.3-0.1-0.5-0.1-0.7c-0.1-0.6-0.2-1.2-0.2-1.8c0-0.1-0.1-0.1-0.2-0.2c-0.8-0.1-1.5-0.3-2.3-0.4c0,0-0.1,0-0.2,0
	c0.1,0,0.1-0.1,0.1-0.1c0.7-0.3,1.4-0.7,2.1-1c0.1,0,0.1-0.1,0.1-0.2c-0.1-0.8-0.2-1.6-0.3-2.4c0,0,0,0,0-0.1c0,0,0,0,0.1,0
	c0,0,0,0.1,0.1,0.1c0.5,0.5,1.1,1.1,1.6,1.6c0.1,0.1,0.2,0.1,0.3,0.1c0.7-0.3,1.3-0.7,2-1c0,0,0.1,0,0.2-0.1c0,0.1-0.1,0.1-0.1,0.2
	c-0.4,0.7-0.7,1.4-1.1,2.1c-0.1,0.1,0,0.2,0,0.2c0.5,0.6,1.1,1.1,1.6,1.7c0,0,0.1,0.1,0.1,0.1C47.6,25.7,47.4,25.7,47.2,25.6z"/>
<path class="st2" d="M46.8,37.9c-0.3-0.2-0.6-0.3-0.8-0.5c-0.4-0.3-0.8-0.6-1.2-0.8c-0.1-0.1-0.1-0.1-0.2,0c-0.6,0.5-1.2,1-1.8,1.4
	c0,0-0.1,0.1-0.2,0.1c0-0.1,0.1-0.2,0.1-0.3c0.2-0.7,0.4-1.4,0.6-2.1c0-0.1,0-0.2-0.1-0.2c-0.6-0.4-1.3-0.9-1.9-1.3
	c0,0-0.1-0.1-0.1-0.1c0,0,0.1,0,0.1,0c0.4,0,0.8,0,1.1,0c0.4,0,0.9,0,1.3-0.1c0.1,0,0.1-0.1,0.1-0.1c0.2-0.8,0.4-1.5,0.6-2.3
	c0,0,0-0.1,0.1-0.2c0,0.1,0,0.1,0.1,0.2c0.3,0.7,0.5,1.4,0.8,2.1c0,0.1,0.1,0.2,0.3,0.2c0.5,0,1,0,1.4,0c0.3,0,0.6,0,0.9,0
	c0,0,0.1,0,0.1,0c-0.1,0.1-0.1,0.1-0.1,0.1c-0.6,0.5-1.2,1-1.8,1.4C46,35.4,46,35.5,46,35.6c0.3,0.7,0.5,1.4,0.8,2.1
	C46.8,37.8,46.8,37.9,46.8,37.9z"/>
<path class="st1" d="M12.3,36.6C12.3,36.6,12.3,36.6,12.3,36.6C12.3,36.6,12.3,36.6,12.3,36.6C12.3,36.6,12.3,36.6,12.3,36.6z"/>
<path class="st2" d="M46.8,37.9C46.8,37.9,46.9,37.9,46.8,37.9C46.9,38,46.8,38,46.8,37.9z"/>
<path class="st2" d="M34.4,40.2C34.4,40.2,34.4,40.2,34.4,40.2C34.4,40.2,34.4,40.2,34.4,40.2C34.4,40.2,34.4,40.2,34.4,40.2z"/>
</svg>
