<?xml version="1.0" encoding="utf-8"?>
<!-- Generator: Adobe Illustrator 27.7.0, SVG Export Plug-In . SVG Version: 6.00 Build 0)  -->
<svg version="1.1" id="Layer_1" xmlns="http://www.w3.org/2000/svg" xmlns:xlink="http://www.w3.org/1999/xlink" x="0px" y="0px"
	 viewBox="0 0 56 56" style="enable-background:new 0 0 56 56;" xml:space="preserve">
<style type="text/css">
	.st0{fill:#1A2F6B;}
	.st1{fill:#FEFEFE;}
	.st2{fill:#FDFDFD;}
	.st3{fill:#FBFCFC;}
	.st4{fill:#101D42;}
	.st5{fill:#142350;}
	.st6{fill:#182C64;}
	.st7{fill:#182B63;}
	.st8{fill:#0D1327;}
	.st9{fill:#0A0D1F;}
	.st10{fill:#0E1837;}
	.st11{fill:#111E45;}
	.st12{fill:#5F6475;}
	.st13{fill:#111C3E;}
	.st14{fill:#0E152C;}
	.st15{fill:#0F1835;}
</style>
<circle class="st0" cx="28.2" cy="27.9" r="27.7"/>
<path class="st1" d="M21.5,19.7c0,0,0-0.1,0.1-0.1c0-0.1,0-0.2,0.1-0.2c0,0,0,0,0,0c0,0,0-0.1,0.1-0.1c0.5-1.2,0.9-2.4,1.4-3.6
	c0.9,0,1.7,0,2.5,0c0,0.1,0,0.3,0,0.4c0,0.1,0,0.2,0,0.3c0,0.1,0,0.1,0,0.2c0.1,1.2,0.2,2.4,0.3,3.5c0.1,1.4,0.3,2.8,0.4,4.2
	c0.1,0.6,0.1,1.2,0.1,1.9c-0.1,0-0.2,0-0.3,0c-0.7,0-1.4,0-2.1,0c0,0,0,0,0,0c0-0.4,0-0.8-0.1-1.2c0-0.2-0.1-0.4-0.1-0.7
	c0-0.1,0-0.1,0-0.2c0-0.2,0-0.4,0-0.6c0-0.1,0-0.1,0-0.2c0-0.2,0-0.3,0-0.5c0-0.1,0-0.2,0-0.2c0-0.2,0-0.4,0-0.6
	c0-0.3,0-0.5-0.1-0.8c0-0.2,0-0.3,0-0.5c0,0,0,0,0-0.1c0-0.2,0-0.5-0.1-0.7c0,0,0,0-0.1,0c-0.2,0.7-0.5,1.4-0.7,2.1
	c0,0.1-0.1,0.2-0.1,0.3c-0.4,1.2-0.9,2.5-1.3,3.7c-0.5,0-0.9,0-1.4,0c0-0.1-0.1-0.2-0.1-0.3c-0.3-0.8-0.6-1.7-0.9-2.5
	c0,0,0-0.1,0-0.1c-0.1-0.3-0.2-0.5-0.3-0.8c0-0.1-0.1-0.2-0.1-0.3c0,0,0,0,0-0.1c-0.1-0.3-0.2-0.6-0.3-1c-0.1-0.2-0.2-0.4-0.3-0.6
	c0,0,0,0,0,0c0-0.1-0.1-0.3-0.1-0.4c0,0-0.1,0-0.1,0c0,0.5-0.1,1-0.1,1.6c0,0,0,0.1,0,0.1c0,0.2,0,0.4-0.1,0.6c0,0,0,0.1,0,0.1
	c-0.1,1-0.2,1.9-0.2,2.9c0,0.3-0.1,0.6-0.1,0.9c-0.8,0-1.6,0-2.3,0c0,0,0,0,0,0c0,0,0-0.1,0-0.1c0-0.1,0-0.1,0-0.2
	c0-0.5,0.1-1,0.1-1.6c0-0.1,0-0.2,0.1-0.3c0-0.2,0-0.3,0-0.5c0-0.3,0.1-0.6,0.1-0.9c0.1-0.9,0.1-1.9,0.2-2.8c0,0,0-0.1,0-0.1
	c0-0.4,0.1-0.7,0.1-1.1c0-0.1,0-0.1,0-0.2c0-0.2,0-0.3,0-0.5c0,0,0-0.1,0-0.1c0-0.2,0-0.3,0-0.5c0,0,0-0.1,0-0.1
	c0-0.4,0.1-0.8,0.1-1.1c0-0.1,0.1-0.2,0.1-0.3c0.9,0,1.7,0,2.5,0c0.1,0.1,0.1,0.3,0.2,0.4c0,0.1,0.1,0.2,0.1,0.4
	c0.7,1.7,1.3,3.5,2,5.2c0.1-0.3,0.2-0.5,0.3-0.7c0-0.1,0.1-0.2,0.1-0.3C21.3,20.4,21.4,20,21.5,19.7z"/>
<path class="st1" d="M40.8,20.2c0.3-0.2,0.6-0.4,0.9-0.5c0.1,0,0.1-0.1,0.1-0.1c0,0,0,0,0,0c0.5,0,1-0.1,1.5-0.1
	c0.6,0.1,1.2,0.3,1.7,0.8c0-0.2,0-0.4,0-0.6c0,0,0,0,0,0c0.8,0,1.5,0,2.2,0c0,0,0,0.1,0,0.1c0,0.1,0,0.2,0,0.4c0,2,0,4,0,6
	c0,0,0,0,0,0c-0.7,0-1.4,0-2.1,0c0,0,0-0.1-0.1-0.1c0-0.2,0-0.3,0-0.4c0-0.1,0-0.1,0-0.2c0,0,0,0.1-0.1,0.1
	c-0.2,0.1-0.4,0.3-0.6,0.4c-1.1,0.6-2.1,0.5-3.2-0.1c-0.1,0-0.1-0.1-0.1-0.1c0,0,0,0,0,0c0,0-0.1-0.1-0.1-0.1c0,0,0,0,0,0
	c0,0-0.1,0-0.1,0c-0.3-0.5-0.6-0.9-0.9-1.4c0-0.1-0.1-0.2-0.1-0.2c0,0,0,0,0-0.1c0-0.1,0-0.1-0.1-0.2c0,0,0,0,0-0.1
	c0-0.1,0-0.2-0.1-0.2c0,0,0-0.1,0-0.1c0-0.3,0-0.5,0-0.8c0.1-0.5,0.3-1,0.5-1.6c0.1-0.2,0.2-0.3,0.3-0.5c0,0,0,0,0,0c0,0,0,0,0,0
	c0,0,0,0,0,0c0,0,0,0,0,0s0,0,0,0c0,0,0,0,0,0c0,0,0,0,0,0C40.7,20.3,40.7,20.3,40.8,20.2C40.7,20.3,40.7,20.3,40.8,20.2
	C40.7,20.3,40.7,20.3,40.8,20.2C40.7,20.3,40.7,20.3,40.8,20.2C40.8,20.2,40.8,20.2,40.8,20.2 M42.5,24.1
	C42.5,24.1,42.5,24.1,42.5,24.1C42.6,24.1,42.6,24.1,42.5,24.1c0.1,0.1,0.1,0.1,0.2,0.2c0.3,0.2,0.7,0.2,1,0.2c0,0,0,0,0.1,0
	c0.1,0,0.1,0,0.2-0.1c0,0,0,0,0,0c0,0,0,0,0,0c0,0,0,0,0.1,0c0.3-0.2,0.6-0.4,0.7-0.8c0,0,0-0.1,0-0.1c0,0,0-0.1,0-0.1
	c0-0.3-0.1-0.6-0.1-1c0,0,0-0.1-0.1-0.1c0,0,0,0,0,0c0,0-0.1-0.1-0.1-0.1c0,0,0,0,0,0c0,0,0,0-0.1-0.1c0,0-0.1,0-0.1-0.1
	c0,0-0.1,0-0.1-0.1c0,0,0,0,0,0c-0.7-0.4-1.5-0.4-2,0.2c-0.5,0.5-0.5,1.4-0.1,2c0,0,0,0,0,0c0,0,0,0,0.1,0.1c0,0,0,0,0,0
	C42.4,24,42.5,24,42.5,24.1C42.5,24.1,42.5,24.1,42.5,24.1z"/>
<path class="st2" d="M27.8,20.8c0.7-0.9,1.7-1.3,2.8-1.3c0.3,0,0.6,0,0.9,0.1c0.1,0,0.2,0,0.3,0.1c0.7,0.2,1.2,0.5,1.7,1
	c0,0,0.1,0.1,0.1,0.1c0,0,0,0,0,0c0,0,0.1,0.1,0.1,0.1c0,0,0,0,0,0c0.4,0.7,0.5,1.5,0.5,2.3c-1.5,0-3,0-4.5,0c-0.1,0-0.1,0-0.2,0.1
	c0,0.2,0.1,0.4,0.1,0.6c0.1,0.1,0.2,0.2,0.3,0.4c0,0,0,0,0,0c0.1,0.1,0.2,0.1,0.4,0.2c0.1,0,0.2,0.1,0.2,0.1c0.7,0.1,1.2,0,1.7-0.5
	c0.1-0.1,0.2-0.1,0.2-0.2c0.3,0.1,0.6,0.3,0.9,0.4c0,0,0,0,0,0c0,0,0.1,0,0.1,0c0,0,0,0,0,0c0.1,0.1,0.2,0.1,0.3,0.2c0,0,0,0,0,0
	c0.1,0,0.2,0.1,0.2,0.1c0,0,0,0,0,0.1c0,0,0,0.1-0.1,0.1c0,0,0,0,0,0c0,0,0,0,0,0.1c-0.1,0.1-0.1,0.1-0.2,0.2
	c-0.4,0.3-0.7,0.6-1.1,0.8c-1.2,0.5-2.5,0.6-3.7,0c-0.1,0-0.1-0.1-0.2-0.1c0,0,0,0-0.1,0c0,0,0,0,0,0c0,0-0.1,0-0.1-0.1c0,0,0,0,0,0
	c0,0-0.1-0.1-0.1-0.1c0,0,0,0,0,0c0,0-0.1,0-0.1-0.1c-0.2-0.3-0.4-0.5-0.7-0.7c0,0,0-0.1-0.1-0.1c0,0,0,0,0,0c0,0,0-0.1-0.1-0.1
	c0,0,0,0,0,0c0,0,0,0,0-0.1c0,0,0,0,0,0C27,23.7,27,22.9,27.2,22c0.1-0.3,0.2-0.5,0.3-0.8c0,0,0,0,0,0c0,0,0,0,0-0.1c0,0,0,0,0,0
	c0,0,0-0.1,0.1-0.1c0,0,0,0,0,0c0,0,0,0,0-0.1c0,0,0,0,0,0C27.7,20.9,27.7,20.9,27.8,20.8C27.7,20.9,27.7,20.9,27.8,20.8
	C27.7,20.8,27.8,20.8,27.8,20.8 M29.6,21.4C29.6,21.4,29.6,21.4,29.6,21.4c-0.1,0.2-0.2,0.4-0.2,0.6c0.9,0,1.7,0,2.5,0
	c0-0.1-0.1-0.2-0.1-0.3c0-0.1-0.1-0.1-0.1-0.2c-0.2-0.1-0.4-0.3-0.7-0.5c-0.2,0-0.4,0-0.6,0c-0.3,0-0.5,0.1-0.7,0.3
	C29.7,21.3,29.7,21.3,29.6,21.4C29.7,21.3,29.7,21.3,29.6,21.4z"/>
<path class="st1" d="M35.5,17.5c0,0,0-0.1,0-0.1c0-0.1,0-0.1,0-0.1c0,0,0,0,0,0c0.8,0,1.5,0,2.2,0c0,0.8,0,1.5,0,2.2c0,0,0,0,0,0.1
	c0,0,0.1,0.1,0.1,0.1c0.2,0,0.5,0,0.7,0c0.1,0,0.1,0,0.2,0c0.1,0,0.2,0,0.3,0c0,0.6,0,1.1,0,1.7c-0.2,0-0.3,0-0.5,0
	c-0.3,0-0.6,0-0.9,0c0,0.8,0,1.5,0,2.2c0,0.2,0.1,0.4,0.2,0.6c0,0,0,0,0.1,0.1c0,0,0,0,0,0c0.1,0,0.2,0,0.4,0c0.1,0,0.1,0,0.1,0
	c0,0,0,0,0,0c0.1,0,0.1-0.1,0.2-0.1c0,0,0,0,0,0c0,0.1,0,0.1,0.1,0.2c0,0,0,0,0,0.1c0,0.2,0.1,0.3,0.1,0.4c0.1,0.4,0.2,0.8,0.3,1.2
	c-0.4,0.1-0.7,0.2-1,0.3c-0.6,0.1-1.1,0-1.7-0.1c0,0-0.1,0-0.1,0c0,0,0,0,0,0c0,0-0.1-0.1-0.1-0.1c0,0,0,0,0,0
	c-0.1,0-0.1-0.1-0.1-0.1c0,0,0,0,0,0c0,0,0,0,0,0c0,0,0,0,0,0c0,0,0,0,0,0c0,0,0,0,0,0c0,0,0,0,0,0c0,0,0,0,0,0c0,0,0,0,0,0
	c-0.1-0.3-0.3-0.5-0.4-0.7c0-0.2-0.1-0.3-0.1-0.5c0-0.1,0-0.3,0-0.4c0-0.7,0-1.3,0-2c0-0.2,0-0.4,0-0.7c-0.3,0-0.6,0-0.9,0
	c0,0,0,0,0,0c0-0.6,0-1.1,0-1.7c0,0,0,0,0,0c0.3,0,0.6,0,0.9,0c0,0,0,0,0-0.1C35.5,18.8,35.5,18.2,35.5,17.5z"/>
<path class="st3" d="M12.9,31.3c0.3,0.1,0.7,0.1,1.1,0.2c0,0,0,0,0,0c-0.1,0.3-0.1,0.7-0.2,1c0,0-0.1,0.1-0.2,0.1c0,0-0.1,0-0.1,0
	c0,0,0,0,0,0c-0.2-0.1-0.3-0.1-0.5-0.1c-0.8-0.1-1.6-0.2-2.3,0.1c-0.9,0.3-1.1,1.3-0.4,2c0,0,0,0,0.1,0c0,0,0,0,0,0c0,0,0,0,0,0
	c0,0,0,0,0,0c0,0,0,0,0,0c0,0,0.1,0.1,0.1,0.1c0,0,0,0,0,0c0,0,0.1,0,0.1,0.1c0,0,0,0,0,0c0,0,0.1,0,0.1,0.1c0.1,0,0.2,0.1,0.2,0.1
	c0,0,0.1,0,0.1,0.1c0.2,0.1,0.3,0.2,0.4,0.2c0,0,0,0,0,0c0,0,0.1,0,0.1,0c0,0,0,0,0,0c0,0,0.1,0,0.1,0c0,0,0,0,0,0c0,0,0.1,0,0.1,0
	c0,0,0,0,0,0c0,0,0.1,0,0.1,0c0,0,0,0,0,0c0.1,0,0.1,0.1,0.2,0.1c0,0,0,0,0,0c0,0,0.1,0,0.1,0.1c0,0,0,0,0,0
	c0.2,0.2,0.4,0.3,0.6,0.5c0,0,0.1,0,0.1,0.1c0,0,0,0,0,0c0,0,0,0,0.1,0c0,0,0,0,0,0c0,0,0,0,0.1,0c0,0,0,0,0,0c0,0,0,0,0.1,0
	c0,0,0,0,0,0c0,0,0,0,0.1,0c0,0,0,0,0,0c0,0,0,0,0.1,0c0,0,0,0,0,0c0,0,0,0,0.1,0c0,0,0,0,0,0c0,0,0.1,0.1,0.1,0.1c0,0,0,0,0,0
	c0,0,0.1,0.1,0.1,0.1c0,0,0,0,0,0c0,0,0,0.1,0,0.1c0,0,0,0,0,0c0,0,0,0.1,0,0.1c0,0,0,0,0,0c0.2,0.6,0.3,1.1,0.1,1.7
	c-0.2,0.8-0.6,1.3-1.4,1.6c-0.3,0.1-0.6,0.2-1,0.3c-0.1,0-0.2,0-0.3,0.1c0,0-0.1,0-0.1,0c-0.6,0-1.2,0-1.8,0c-0.2,0-0.3,0-0.5-0.1
	c-0.1,0-0.2,0-0.2,0c0,0,0,0-0.1,0c-0.2,0-0.3-0.1-0.4-0.1c0,0,0,0,0,0C8,40.2,8,40,8.1,39.8c0.1-0.2,0.1-0.3,0.2-0.5
	c0.1,0,0.3,0.1,0.4,0.1c0.9,0.3,1.7,0.3,2.5,0.2c0,0,0,0,0.1,0c0.2,0,0.3-0.1,0.4-0.1c0.4-0.1,0.8-0.3,0.9-0.8
	c0-0.2,0.1-0.4,0.1-0.7c0-0.4-0.2-0.7-0.5-1c-0.4-0.3-0.7-0.5-1.1-0.7c-0.5-0.3-1-0.6-1.5-0.8c0,0,0,0,0,0c0,0,0,0-0.1,0
	c0,0,0,0,0,0c0,0,0,0-0.1-0.1c0,0,0,0,0,0s0,0,0,0c0,0,0,0,0,0c0,0,0,0,0,0c0,0,0,0,0,0c0,0,0,0,0,0c0,0,0,0,0,0c0,0,0,0-0.1-0.1
	c0,0,0,0,0,0c0,0,0,0-0.1-0.1c0,0,0,0,0,0c0,0,0,0,0-0.1c0,0,0,0,0,0c0,0,0,0,0,0c-0.1-0.3-0.2-0.6-0.3-0.9c0,0,0-0.1,0-0.2
	c0-0.1,0-0.1,0-0.2c0-0.1,0-0.1,0-0.2c0-0.1,0-0.2,0-0.3c0,0,0,0,0,0C8.8,33,8.9,32.9,9,32.7c0,0,0,0,0,0c0,0,0-0.1,0-0.1
	c0,0,0,0,0,0c0,0,0,0,0-0.1c0,0,0,0,0,0c0-0.1,0.1-0.1,0.1-0.2c0,0,0,0,0,0c0,0,0-0.1,0.1-0.1c0,0,0,0,0,0c0,0,0,0,0,0c0,0,0,0,0,0
	c0,0,0,0,0,0c0,0,0,0,0,0c0,0,0,0,0,0c0,0,0,0,0,0c0,0,0,0,0,0c0,0,0,0,0,0s0,0,0,0c0.4-0.2,0.8-0.4,1.2-0.6c0.2,0,0.4-0.1,0.6-0.1
	C11.8,31.3,12.4,31.3,12.9,31.3z"/>
<path class="st3" d="M28.6,39.6c0,0,0.1,0,0.1,0c0.1,0,0.1-0.1,0.1-0.1c0.2-0.1,0.4-0.1,0.5-0.2c0,0,0,0,0,0c0,0,0.1,0,0.1-0.1
	c0,0,0,0,0,0c0,0,0.1,0,0.1-0.1c0,0,0,0,0,0c0,0,0.1,0,0.1-0.1c0,0,0,0,0,0c0,0,0,0,0,0c0,0,0.1,0,0.1,0c0,0.1,0,0.2-0.1,0.3
	c0,0.5-0.2,0.8-0.7,1c-0.2,0-0.3,0.2-0.5,0.2c-0.1,0-0.2,0-0.2,0c-0.6,0.2-1.2,0.1-1.8,0.1c-0.3-0.1-0.6-0.2-0.9-0.3c0,0,0,0,0,0
	c0,0,0,0-0.1-0.1c0,0,0,0,0,0c0,0-0.1,0-0.1-0.1c0,0,0,0,0,0c0,0-0.1-0.1-0.1-0.1c0,0,0,0,0,0c0,0,0,0-0.1,0c0,0,0,0,0,0
	c0,0,0,0-0.1,0c0,0,0,0,0,0c0,0,0,0-0.1,0c0,0,0,0,0,0c0,0,0,0-0.1-0.1c0,0,0,0,0,0c0,0,0,0,0,0c-0.1-0.1-0.2-0.3-0.3-0.4
	c0,0,0,0,0,0c0,0,0,0,0-0.1c0,0,0,0,0,0c0-0.1,0-0.1-0.1-0.1c0,0,0,0,0,0c0,0,0,0-0.1-0.1c0,0,0,0,0,0c-0.1-0.3-0.1-0.7-0.2-1
	c0-0.4,0-0.8,0-1.2c0.1-0.5,0.3-0.9,0.4-1.4c0,0,0,0,0,0c0.1-0.1,0.1-0.2,0.2-0.3c0,0,0,0,0,0c0-0.1,0.1-0.1,0.1-0.1c0,0,0,0,0,0
	c0,0,0.1-0.1,0.1-0.1c0.5-0.6,1.2-1,1.9-1.3c0.1,0,0.1,0,0.1,0c0,0,0.1,0,0.1,0c0.5,0,0.9,0,1.4,0c0.5,0.1,0.8,0.3,1.2,0.6
	c0,0,0,0,0,0c0,0,0,0,0,0c0.1,0.2,0.2,0.4,0.2,0.6c0.1,0.8-0.2,1.5-1.1,1.8c-0.5,0.2-1,0.3-1.5,0.4c-0.1,0-0.2,0-0.3,0
	c0,0-0.1,0-0.1,0c-0.5,0-1,0.1-1.6,0.1c0,0.5,0,1,0.3,1.5c0,0,0,0,0,0c0,0,0,0.1,0.1,0.1c0,0,0,0,0,0c0,0,0,0,0,0.1c0,0,0,0,0,0
	c0,0,0,0.1,0.1,0.1c0,0,0,0,0,0c0,0,0,0,0,0c0.1,0.1,0.2,0.2,0.4,0.3c0,0,0.1,0,0.1,0.1c0.2,0.1,0.3,0.1,0.5,0.1
	C27.7,39.6,28.2,39.6,28.6,39.6 M27.6,36.3c0.4-0.1,0.8-0.1,1.2-0.3c0.2-0.1,0.3-0.2,0.5-0.4c0.3-0.5,0.1-0.9-0.4-1.1
	c-0.4-0.2-0.8-0.2-1.3-0.1c-0.9,0.2-1.7,1.1-1.7,2c0.4,0,0.9-0.1,1.3-0.1C27.3,36.4,27.4,36.3,27.6,36.3z"/>
<path class="st3" d="M44.9,37.4c0,0,0-0.1,0-0.2c0.1-0.6,0.3-1.1,0.4-1.6c0,0,0,0,0,0c0,0,0-0.1,0-0.1c0,0,0,0,0,0c0,0,0-0.1,0-0.1
	c0,0,0,0,0,0c0,0,0.1-0.1,0.1-0.1c0,0,0,0,0,0c0-0.1,0.1-0.1,0.1-0.2c0,0,0,0,0,0c0,0,0.1-0.1,0.1-0.1c0,0,0,0,0,0
	c0,0,0.1-0.1,0.1-0.1c0,0,0,0,0,0c0.1-0.1,0.1-0.2,0.2-0.2c0,0,0,0,0,0c0,0,0,0,0-0.1c0,0,0,0,0,0c0.1-0.1,0.2-0.1,0.2-0.2
	c0,0,0,0,0,0c0,0,0.1-0.1,0.1-0.1c0,0,0,0,0.1,0c0.1-0.1,0.1-0.1,0.2-0.1c0,0,0,0,0,0c0.1,0,0.1-0.1,0.2-0.1c0,0,0,0,0,0
	c0.2-0.1,0.4-0.2,0.6-0.3c0.1,0,0.1,0,0.2-0.1c0.2,0,0.3-0.1,0.4-0.1c0,0,0.1,0,0.1,0c0.7-0.1,1.3,0,1.9,0.3c0,0,0,0,0,0
	c0,0,0.1,0.1,0.1,0.1c0,0,0,0,0,0c0,0,0.1,0,0.1,0.1c0,0,0,0,0,0c0,0,0,0,0,0c0,0,0,0,0,0c0,0,0,0,0,0c0,0,0,0,0,0
	c0,0,0,0.1,0.1,0.1c0,0,0,0,0,0c0,0,0,0,0,0c0,0,0,0,0,0.1c0,0,0,0,0,0c0.4,1,0.1,1.8-0.8,2.2c-0.2,0.1-0.4,0.2-0.6,0.2
	c-0.7,0.1-1.3,0.2-2,0.3c-0.3,0-0.7,0-1,0c0.1,0.4,0.1,0.7,0.1,1c0,0,0,0,0,0.1c0,0.1,0,0.1,0,0.2c0,0,0,0,0,0.1c0,0,0,0.1,0,0.1
	c0.1,0.1,0.1,0.3,0.2,0.4c0,0,0,0,0,0c0,0,0,0,0.1,0.1c0,0,0,0,0,0c0.1,0.1,0.1,0.1,0.2,0.1c0,0,0,0,0,0c0,0,0,0,0.1,0.1
	c0.3,0.1,0.5,0.2,0.8,0.3c0.2,0,0.3,0,0.5,0c0.1,0,0.1,0,0.2,0c0.2,0,0.3-0.1,0.5-0.1c0,0,0,0,0,0c0.1,0,0.1,0,0.1,0
	c0,0,0.1,0,0.1,0c0.1,0,0.1,0,0.1,0c0.4-0.2,0.7-0.3,1.1-0.5c0,0,0,0,0,0.1c0,0.2,0,0.3-0.1,0.4c-0.1,0.2,0,0.5-0.3,0.7
	c-0.6,0.3-1.2,0.5-1.9,0.5c-0.5,0-1-0.1-1.5-0.2c0,0,0,0,0,0c0,0,0,0-0.1,0c-0.3-0.3-0.6-0.6-0.9-0.9c0,0,0,0,0,0c0,0,0,0,0-0.1
	c0,0,0,0,0,0c-0.1-0.3-0.2-0.6-0.3-0.9C45,38.4,45,38.2,45,38c0,0,0-0.1,0-0.1C44.9,37.7,44.9,37.6,44.9,37.4 M46.7,35.3
	C46.7,35.3,46.7,35.3,46.7,35.3C46.7,35.4,46.7,35.3,46.7,35.3c-0.1,0.1-0.1,0.1-0.1,0.1c0,0,0,0,0,0c0,0.1-0.1,0.1-0.1,0.2
	c0,0,0,0,0,0.1c-0.1,0.2-0.2,0.5-0.3,0.8c0.3,0,0.5,0,0.7,0c0.2,0,0.4,0,0.7-0.1c0.1,0,0.3,0,0.5-0.1c0.4-0.1,0.7-0.2,1.1-0.3
	c0,0,0,0,0-0.1c0,0,0,0,0,0c0,0,0.1,0,0.1-0.1c0,0,0.1-0.1,0.1-0.1c0,0,0,0,0-0.1c0,0,0,0,0,0c0.3-0.6,0.1-1-0.5-1.2
	c-0.9-0.2-1.6,0-2.2,0.7C46.8,35.2,46.8,35.2,46.7,35.3C46.8,35.2,46.8,35.2,46.7,35.3C46.8,35.2,46.8,35.3,46.7,35.3
	C46.8,35.3,46.7,35.3,46.7,35.3z"/>
<path class="st3" d="M31.8,37.7c0,0,0-0.1,0-0.2c0-0.2,0-0.3,0-0.4c0,0,0-0.1,0-0.2c0-0.8,0-1.7,0-2.5c0-0.1,0-0.1,0-0.2
	c0-0.2,0-0.3,0-0.4c0.4,0,0.8-0.1,1.2-0.1c0,0.5,0,1,0,1.5c0,0,0,0,0.1,0c0.2-0.3,0.4-0.5,0.6-0.8c0.1-0.1,0.1-0.1,0.2-0.2
	c0,0,0.1-0.1,0.1-0.1c0.3-0.1,0.5-0.3,0.8-0.4c0.7-0.2,1.3-0.2,2,0.2c0,0,0,0,0,0c0,0,0,0,0,0c0,0,0.1,0.1,0.1,0.1
	c0,0,0.1,0.1,0.1,0.1c0,0,0.1,0.1,0.1,0.1c0,0,0,0,0,0c0.1,0.2,0.2,0.5,0.3,0.7c0,0.5,0,1.1,0,1.6c0,0.8-0.1,1.7-0.2,2.5
	c0,0.4,0,0.8-0.1,1.2c0,0.1,0,0.1,0,0.1c-0.3,0-0.7,0-1,0.1c-0.1,0-0.1,0-0.1,0c0,0,0-0.1,0-0.2c0-0.2,0-0.3,0-0.4
	c0-0.1,0-0.1,0.1-0.2c0-0.1,0-0.2,0-0.3c0,0,0-0.1,0.1-0.2c0-0.1,0-0.2,0-0.3c0,0,0-0.1,0.1-0.2c0-0.1,0-0.2,0-0.3c0,0,0,0,0-0.1
	c0-0.3,0.1-0.6,0.1-0.9c0,0,0-0.1,0-0.2c0-0.5,0.1-1.1,0.1-1.6c-0.1-0.8-0.5-1.1-1.2-1.1c-0.4,0-0.7,0.1-0.9,0.4c0,0,0,0-0.1,0.1
	c0,0,0,0,0,0c0,0,0,0,0,0.1c0,0,0,0,0,0c0,0,0,0,0,0.1c0,0,0,0,0,0c0,0,0,0,0,0.1c0,0,0,0,0,0c0,0,0,0-0.1,0.1c0,0,0,0,0,0
	c0,0-0.1,0.1-0.1,0.1c0,0,0,0,0,0c0,0,0,0,0,0.1c0,0,0,0,0,0c0,0,0,0,0,0.1c0,0,0,0,0,0c0,0,0,0.1-0.1,0.1c0,0,0,0,0,0
	c-0.2,0.5-0.5,0.9-0.6,1.4c-0.2,1-0.2,2.1-0.4,3.2c0,0,0,0,0,0.1c0,0.1,0,0.1-0.1,0.2c-0.2,0-0.5,0-0.7,0c-0.1,0-0.3,0-0.4,0
	c0-0.1,0-0.3,0-0.4c0-0.4,0.1-0.7,0.2-1.1c0-0.1,0-0.3,0.1-0.5c0-0.1,0-0.2,0-0.3c0,0,0,0,0-0.1C31.8,38,31.8,37.8,31.8,37.7z"/>
<path class="st3" d="M39,38.6C39,38.6,39,38.5,39,38.6c0-0.2,0-0.3-0.1-0.3c0-0.4,0-0.8,0-1.2c0.1-0.4,0.2-0.8,0.3-1.2c0,0,0,0,0,0
	c0,0,0-0.1,0-0.1c0,0,0,0,0,0c0,0,0-0.1,0-0.1c0,0,0,0,0,0c0.1-0.1,0.1-0.2,0.2-0.3c0,0,0,0,0,0c0-0.1,0.1-0.1,0.1-0.1c0,0,0,0,0,0
	c0.1-0.1,0.1-0.1,0.1-0.2c0,0,0,0,0,0c0,0,0,0,0,0c0.5-0.5,1-0.9,1.7-1.1c0.1,0,0.1,0,0.1,0c0,0,0.1,0,0.1,0c0.8-0.1,1.5-0.1,2.3,0
	c0,0.1,0,0.2-0.1,0.3c-0.1,0.3-0.2,0.5-0.3,0.8c-0.5-0.1-0.9-0.2-1.4-0.2c-0.8,0-1.4,0.4-1.8,1.1c0,0,0,0,0,0s0,0,0,0
	c0,0,0,0.1-0.1,0.1c0,0,0,0,0,0c-0.5,1-0.5,2,0,3c0,0,0,0,0,0c0,0.1,0.1,0.1,0.1,0.1c0,0,0,0,0,0c0,0,0.1,0.1,0.1,0.1c0,0,0,0,0,0
	c0,0,0.1,0.1,0.1,0.1c0,0,0,0,0,0c0,0,0.1,0.1,0.1,0.1c0,0,0,0,0,0c0,0,0,0,0.1,0c0.2,0.1,0.4,0.1,0.6,0.2c0.5,0.1,1,0,1.5-0.2
	c0.2-0.1,0.5-0.2,0.7-0.3c0,0.1,0,0.2-0.1,0.4c0,0.1,0,0.1,0,0.2c0,0,0,0.1,0,0.1c0,0.1-0.1,0.2-0.1,0.3c-1,0.6-2.1,0.7-3.2,0.3
	c0,0,0,0,0,0c0,0-0.1,0-0.1,0c-0.1-0.1-0.1-0.1-0.2-0.2c0,0,0,0-0.1,0c0,0,0,0-0.1-0.1c-0.2-0.3-0.4-0.5-0.6-0.8c0,0,0,0,0,0
	C39.2,39,39.1,38.8,39,38.6z"/>
<path class="st3" d="M15.3,37.4c0,0,0-0.1,0-0.1c0.1-0.4,0.2-0.8,0.2-1.1c0,0,0-0.1,0.1-0.1c0-0.1,0-0.1,0.1-0.2
	c0.1-0.2,0.2-0.4,0.4-0.6c0,0,0,0,0,0s0,0,0,0c0-0.1,0.1-0.1,0.1-0.1c0,0,0,0,0.1,0c0,0,0.1-0.1,0.1-0.1c0,0,0,0,0,0c0,0,0,0,0,0
	c0,0,0,0,0,0c0.1-0.1,0.1-0.1,0.2-0.2c0,0,0,0,0,0c0,0,0,0,0,0c0,0,0,0,0,0c0,0,0,0,0,0c0,0,0,0,0,0c0,0,0.1-0.1,0.1-0.1
	c0,0,0,0,0,0c0.1,0,0.1-0.1,0.1-0.1c0,0,0,0,0,0c0,0,0.1,0,0.1-0.1c0,0,0,0,0,0c0.1-0.1,0.2-0.1,0.3-0.2c0,0,0,0,0,0
	c0,0,0.1,0,0.1-0.1c0,0,0,0,0,0c0.9-0.4,1.9-0.4,2.9-0.3c0.1,0,0.1,0.1,0.2,0.1c0,0,0,0,0,0.1c-0.1,0.3-0.2,0.6-0.3,0.9
	c-0.2-0.1-0.4-0.1-0.6-0.1c-0.7-0.1-1.4-0.1-2,0.3c-0.1,0-0.1,0.1-0.1,0.1c0,0,0,0,0,0c0,0,0,0,0,0c0,0,0,0,0,0c0,0,0,0,0,0
	c0,0,0,0,0,0c0,0,0,0,0,0c0,0,0,0,0,0c0,0,0,0,0,0c0,0,0,0,0,0c0,0,0,0,0,0.1c0,0,0,0,0,0c0,0.1-0.1,0.1-0.1,0.1c0,0,0,0,0,0
	c0,0.1-0.1,0.1-0.1,0.1c0,0,0,0,0,0c-0.1,0.2-0.2,0.3-0.2,0.5c0,0,0,0,0,0.1c0,0.1-0.1,0.2-0.1,0.3c0,0,0,0,0,0.1c0,0.5,0,0.9,0,1.4
	c0,0,0,0.1,0,0.1c0,0,0,0.1,0.1,0.1c0.1,0.3,0.3,0.5,0.4,0.8c0,0,0,0,0.1,0.1c0,0,0,0,0.1,0.1c0,0,0.1,0.1,0.1,0.1c0,0,0,0,0.1,0
	c0.3,0.1,0.6,0.1,0.9,0.2c0.4-0.1,0.7-0.2,1-0.2c0,0,0,0,0,0c0.2-0.1,0.4-0.2,0.6-0.2c0,0,0,0,0.1,0c0,0,0,0,0.1,0c0,0,0,0,0,0
	c0,0,0.1,0,0.1,0c0,0,0,0,0,0c0,0.2-0.1,0.4-0.1,0.6c0,0.2-0.1,0.5-0.3,0.6c-0.8,0.5-1.7,0.5-2.6,0.3c-0.3-0.1-0.5-0.2-0.7-0.4
	c0,0,0,0,0,0c0,0,0,0-0.1-0.1c-0.3-0.4-0.5-0.7-0.8-1.1c0,0,0,0,0,0C15.5,38.5,15.4,37.9,15.3,37.4z"/>
<path class="st3" d="M21.8,37.6c0,0,0-0.1,0.1-0.2c0-0.1,0-0.2,0-0.2c0-0.1,0-0.2,0.1-0.3c0-0.5,0-0.9,0-1.3c0-0.1,0-0.2,0-0.4
	c0-0.3,0-0.5,0-0.7c0,0,0-0.1,0-0.1c0-0.1,0-0.1,0-0.2c0-0.1,0-0.1,0-0.2c0,0,0,0,0,0c0.4-0.1,0.9-0.1,1.3-0.2c0,0.2,0,0.3,0,0.5
	c0,0.2,0,0.4-0.1,0.6c0,0.2-0.1,0.3-0.1,0.5c-0.1,0.9-0.2,1.7-0.3,2.6c-0.1,0.9-0.1,1.8-0.2,2.6c-0.3,0-0.6,0-0.8,0.1
	c-0.1,0-0.2,0-0.3,0c0,0,0,0,0-0.1c0-0.2,0.1-0.4,0.1-0.6c0-0.4,0.1-0.9,0.1-1.3c0-0.1,0-0.2,0.1-0.3c0-0.1,0-0.2,0-0.2
	c0,0,0,0,0-0.1C21.8,37.8,21.8,37.7,21.8,37.6z"/>
<path class="st1" d="M13.6,15.8C13.6,15.8,13.6,15.9,13.6,15.8c0.2,0.2,0.3,0.2,0.3,0.3c0,0,0.1,0.1,0.1,0.1c0,0,0,0,0,0
	c0,0,0,0.1,0,0.1c0,0,0,0,0,0c0.3,1.1-0.4,1.9-1.4,1.8c-0.1,0-0.3,0-0.4-0.1c0,0,0,0,0,0c0,0-0.1-0.1-0.1-0.1c0,0,0,0,0,0
	c0,0,0,0-0.1,0c0,0,0,0,0,0c0,0-0.1,0-0.1-0.1c-0.1-0.1-0.1-0.2-0.2-0.2c0,0,0,0,0,0c0,0-0.1-0.1-0.1-0.1c0,0,0,0,0,0c0,0,0,0,0-0.1
	c0,0,0,0,0,0c-0.1-0.1-0.1-0.2-0.1-0.3c0-0.1,0-0.2-0.1-0.4c0,0,0-0.1,0-0.1c0-0.1,0-0.1,0-0.2c0,0,0,0,0,0c0-0.1,0-0.1,0.1-0.1
	c0,0,0,0,0,0c0,0,0-0.1,0-0.1c0,0,0,0,0,0c0,0,0,0,0.1-0.1c0,0,0,0,0,0c0,0,0-0.1,0.1-0.1c0,0,0,0,0,0c0,0,0,0,0,0c0,0,0,0,0,0
	c0,0,0,0,0,0c0,0,0,0,0,0c0,0,0,0,0,0c0,0,0,0,0,0c0,0,0,0,0,0c0,0,0,0,0,0c0,0,0.1-0.1,0.1-0.1c0,0,0,0,0,0c0,0,0,0,0.1,0
	c0,0,0,0,0,0c0.1,0,0.2-0.1,0.3-0.1c0,0,0,0,0,0c0,0,0.1,0,0.1,0c0,0,0.1,0,0.2,0c0.1,0,0.3,0,0.4,0c0.1,0,0.2,0.1,0.3,0.1
	c0,0,0,0,0,0C13.4,15.8,13.4,15.8,13.6,15.8C13.5,15.8,13.5,15.8,13.6,15.8C13.5,15.8,13.5,15.8,13.6,15.8z"/>
<path class="st3" d="M22.2,32.3c-0.1-0.7,0.1-1.1,0.8-1.3c0.2,0,0.4,0,0.6,0.1c0,0,0,0,0,0c0,0,0,0,0.1,0.1c0,0,0,0,0,0
	c0,0.1,0.1,0.1,0.1,0.2c0.1,0.8-0.3,1.3-1.1,1.2c-0.1,0-0.1,0-0.1,0c0,0,0,0,0,0c0,0,0,0-0.1,0c0,0-0.1-0.1-0.1-0.1
	C22.3,32.4,22.3,32.4,22.2,32.3C22.3,32.3,22.3,32.3,22.2,32.3C22.3,32.3,22.2,32.3,22.2,32.3z"/>
<path class="st4" d="M11.7,26.1c0-0.1-0.1-0.2-0.1-0.3c0-1.8,0-3.6,0-5.5c0-0.2,0-0.4,0.1-0.7c0,0,0,0,0,0
	C11.7,21.8,11.7,24,11.7,26.1z"/>
<path class="st5" d="M15.7,17.2c0-0.3,0-0.6,0-0.9c0-0.1,0-0.1,0-0.2C15.8,16.4,15.8,16.8,15.7,17.2z"/>
<path class="st5" d="M48.1,33.6c-0.1,0-0.2,0.1-0.4,0.1C47.8,33.6,48,33.6,48.1,33.6z"/>
<path class="st6" d="M39.6,35.3c0,0.1-0.1,0.2-0.2,0.3C39.4,35.5,39.5,35.4,39.6,35.3z"/>
<path class="st7" d="M12.4,15.6c-0.1,0-0.1,0.1-0.2,0.1C12.2,15.7,12.3,15.7,12.4,15.6z"/>
<path class="st6" d="M39.8,35c0,0.1-0.1,0.1-0.1,0.2C39.7,35.1,39.8,35,39.8,35z"/>
<path class="st7" d="M11.5,16.6c0,0,0,0.1,0,0.2C11.5,16.7,11.5,16.6,11.5,16.6z"/>
<path class="st6" d="M39.7,35.2c0,0,0,0.1-0.1,0.1C39.6,35.3,39.6,35.2,39.7,35.2z"/>
<path class="st7" d="M18.3,33.6C18.3,33.7,18.3,33.7,18.3,33.6C18.2,33.7,18.3,33.6,18.3,33.6z"/>
<path class="st5" d="M41.7,33.8C41.7,33.8,41.6,33.8,41.7,33.8C41.6,33.8,41.6,33.8,41.7,33.8z"/>
<path class="st7" d="M27.4,33.6C27.4,33.7,27.4,33.7,27.4,33.6C27.4,33.7,27.4,33.6,27.4,33.6z"/>
<path class="st6" d="M41.7,19.6C41.7,19.6,41.7,19.6,41.7,19.6C41.6,19.7,41.7,19.6,41.7,19.6z"/>
<path class="st7" d="M11.6,16.4c0,0,0,0.1,0,0.1C11.5,16.5,11.5,16.4,11.6,16.4z"/>
<path class="st7" d="M11.6,16.3c0,0,0,0.1,0,0.1C11.6,16.4,11.6,16.3,11.6,16.3z"/>
<path class="st7" d="M11.7,16.1C11.7,16.2,11.7,16.2,11.7,16.1C11.7,16.2,11.7,16.2,11.7,16.1z"/>
<path class="st7" d="M12.1,15.8C12.1,15.8,12,15.9,12.1,15.8C12,15.9,12,15.8,12.1,15.8z"/>
<path class="st7" d="M12.5,15.6C12.5,15.6,12.5,15.6,12.5,15.6C12.5,15.6,12.5,15.6,12.5,15.6z"/>
<path class="st6" d="M39.9,34.9C39.9,34.9,39.9,35,39.9,34.9C39.9,34.9,39.9,34.9,39.9,34.9z"/>
<path class="st6" d="M39.3,35.7c0,0,0,0.1,0,0.1C39.3,35.8,39.3,35.8,39.3,35.7z"/>
<path class="st6" d="M39.4,35.6c0,0,0,0.1,0,0.1C39.3,35.7,39.4,35.7,39.4,35.6z"/>
<path class="st7" d="M12.1,15.8C12.1,15.8,12.1,15.8,12.1,15.8C12.1,15.8,12.1,15.8,12.1,15.8z"/>
<path class="st7" d="M12,15.9C12,15.9,12,15.9,12,15.9C11.9,15.9,11.9,15.9,12,15.9z"/>
<path class="st7" d="M11.9,15.9C11.9,16,11.9,16,11.9,15.9C11.9,16,11.9,16,11.9,15.9z"/>
<path class="st7" d="M11.9,16C11.9,16,11.9,16,11.9,16C11.8,16,11.8,16,11.9,16z"/>
<path class="st7" d="M11.8,16.1C11.8,16.1,11.8,16.1,11.8,16.1C11.8,16.1,11.8,16.1,11.8,16.1z"/>
<path class="st7" d="M11.7,16.2C11.7,16.2,11.7,16.2,11.7,16.2C11.6,16.3,11.6,16.2,11.7,16.2z"/>
<path class="st8" d="M23.7,20.7c-0.1-0.1-0.1-0.1-0.2-0.3c-0.1,0.4-0.3,0.8-0.5,1.3c0,0.1-0.1,0.3-0.2,0.4c0.2-0.7,0.5-1.4,0.7-2.1
	c0,0,0,0,0.1,0C23.7,20.2,23.7,20.4,23.7,20.7z"/>
<path class="st5" d="M15,25.9c0-0.1-0.1-0.2-0.1-0.4c0-0.4,0.1-0.8,0.1-1.2C15,24.9,15,25.4,15,25.9z"/>
<path class="st9" d="M20.9,26.2c-0.2,0-0.4,0-0.6,0c-0.1,0-0.2,0-0.2-0.1c0.4,0,0.9,0,1.4-0.1c-0.1,0-0.2,0.1-0.2,0.1
	C21.1,26.2,21,26.2,20.9,26.2z"/>
<path d="M15.7,26.2c-0.1,0-0.2,0-0.4,0c-0.1,0-0.3,0-0.4-0.1c0.7,0,1.5,0,2.3,0c0,0,0,0,0,0c-0.1,0-0.1,0-0.2,0c-0.3,0-0.6,0-0.9,0
	C16,26.2,15.9,26.2,15.7,26.2z"/>
<path class="st5" d="M15.5,19.6c0-0.3,0-0.7,0.1-1C15.5,19,15.5,19.3,15.5,19.6z"/>
<path class="st8" d="M23.8,21.2c0-0.1-0.1-0.3-0.1-0.5C23.7,20.9,23.8,21,23.8,21.2z"/>
<path class="st5" d="M15.1,24c0-0.1,0-0.3,0-0.5C15.2,23.6,15.1,23.8,15.1,24z"/>
<path class="st5" d="M15.6,18.4c0-0.2,0-0.3,0-0.5C15.6,18,15.6,18.2,15.6,18.4z"/>
<path class="st5" d="M15.7,17.8c0-0.1,0-0.3,0-0.4C15.7,17.4,15.7,17.6,15.7,17.8z"/>
<path class="st10" d="M18.7,22.3c0-0.1-0.1-0.1-0.1-0.2C18.6,22.1,18.7,22.2,18.7,22.3z"/>
<path class="st9" d="M26.2,26.2C26.2,26.2,26.2,26.2,26.2,26.2c0.1-0.1,0.2-0.1,0.3-0.1c0,0,0,0,0,0C26.4,26.2,26.3,26.2,26.2,26.2z
	"/>
<path class="st8" d="M17.6,22.3C17.7,22.3,17.7,22.3,17.6,22.3C17.7,22.3,17.7,22.4,17.6,22.3C17.7,22.4,17.7,22.4,17.6,22.3
	C17.6,22.4,17.6,22.3,17.6,22.3z"/>
<path class="st5" d="M15,26.1c0,0-0.1,0-0.1,0C14.9,26.1,14.9,26.1,15,26.1C14.9,26.1,14.9,26.1,15,26.1z"/>
<path class="st5" d="M21.9,34.5c0,0.2,0,0.4,0,0.7C21.9,34.9,21.9,34.7,21.9,34.5z"/>
<path class="st11" d="M36,40c0,0.1,0,0.2,0,0.4C36,40.3,36,40.2,36,40z"/>
<path class="st11" d="M36.1,38.9c0,0.1,0,0.2,0,0.3C36.1,39.2,36.1,39.1,36.1,38.9z"/>
<path class="st11" d="M36,39.5c0,0.1,0,0.2,0,0.3C36,39.7,36,39.6,36,39.5z"/>
<path class="st5" d="M21.7,37.6c0,0.1,0,0.2,0,0.3C21.7,37.8,21.7,37.7,21.7,37.6z"/>
<path class="st11" d="M36.2,38.5c0,0.1,0,0.1,0,0.2C36.2,38.7,36.1,38.6,36.2,38.5z"/>
<path class="st5" d="M21.8,37.2c0,0,0,0.1,0,0.2C21.8,37.4,21.8,37.3,21.8,37.2z"/>
<path d="M45,26.2C45,26.2,45,26.2,45,26.2c0.8-0.1,1.5-0.1,2.2-0.1c-0.1,0-0.2,0.1-0.3,0.1c-0.5,0-1,0-1.5,0
	C45.3,26.2,45.1,26.2,45,26.2z"/>
<path class="st12" d="M45,25.6C45,25.6,45,25.6,45,25.6c-0.1-0.1-0.1-0.1,0-0.2C45,25.5,45,25.5,45,25.6z"/>
<path class="st8" d="M44.9,22.1c0,0-0.1-0.1-0.1-0.1C44.8,22,44.8,22.1,44.9,22.1z"/>
<path class="st8" d="M41,25.9c0,0,0-0.1,0-0.1c0,0,0.1,0,0.1,0.1c0,0,0,0,0,0C41,25.9,41,25.9,41,25.9z"/>
<path class="st8" d="M42.6,24.1C42.6,24.1,42.6,24.1,42.6,24.1c0.1,0,0.1,0,0.1,0.1C42.7,24.2,42.6,24.2,42.6,24.1z"/>
<path class="st8" d="M44.9,22.3c0,0-0.1-0.1-0.1-0.1C44.9,22.2,44.9,22.2,44.9,22.3z"/>
<path class="st8" d="M41,25.8C41,25.8,40.9,25.7,41,25.8C40.9,25.7,41,25.7,41,25.8z"/>
<path class="st8" d="M42.4,24C42.4,24,42.5,24,42.4,24C42.5,24,42.4,24,42.4,24z"/>
<path class="st8" d="M42.3,23.9C42.4,23.9,42.4,23.9,42.3,23.9C42.4,23.9,42.4,23.9,42.3,23.9z"/>
<path class="st8" d="M44.7,22C44.7,22,44.7,21.9,44.7,22C44.7,21.9,44.7,21.9,44.7,22C44.7,22,44.7,22,44.7,22z"/>
<path class="st8" d="M44.6,21.7C44.5,21.7,44.5,21.7,44.6,21.7C44.5,21.7,44.5,21.7,44.6,21.7z"/>
<path class="st8" d="M42.5,24.1C42.5,24.1,42.5,24,42.5,24.1C42.5,24,42.6,24.1,42.5,24.1C42.5,24.1,42.5,24.1,42.5,24.1z"/>
<path class="st8" d="M40.9,25.7C40.9,25.7,40.9,25.7,40.9,25.7C40.8,25.7,40.9,25.7,40.9,25.7z"/>
<path class="st8" d="M29.9,24.2c0.1,0,0.2,0.1,0.4,0.2C30.1,24.4,30,24.3,29.9,24.2z"/>
<path class="st13" d="M33.4,24.3c0.1,0,0.2,0.1,0.3,0.1C33.6,24.4,33.5,24.4,33.4,24.3z"/>
<path class="st8" d="M33.7,25.1c0-0.1,0.1-0.1,0.2-0.2c0,0,0,0,0,0c0,0.1,0,0.1-0.1,0.2C33.8,25.1,33.7,25.1,33.7,25.1
	C33.7,25.2,33.7,25.1,33.7,25.1z"/>
<path class="st13" d="M34,24.6C34,24.6,34,24.6,34,24.6c-0.1,0-0.1,0-0.2-0.1c0,0,0,0,0.1,0C33.9,24.5,34,24.5,34,24.6z"/>
<path class="st14" d="M31.7,21.5c0,0.1,0.1,0.1,0.1,0.2c0,0,0,0,0,0C31.8,21.6,31.7,21.5,31.7,21.5C31.7,21.5,31.7,21.5,31.7,21.5z"
	/>
<path class="st8" d="M28.7,25.8c0.1,0,0.1,0.1,0.2,0.1c0,0,0,0,0,0C28.7,25.9,28.7,25.9,28.7,25.8C28.7,25.8,28.7,25.8,28.7,25.8z"
	/>
<path class="st13" d="M33.5,20.8C33.6,20.8,33.6,20.8,33.5,20.8C33.6,20.8,33.6,20.8,33.5,20.8z"/>
<path class="st8" d="M28.5,25.7c0,0-0.1,0-0.1-0.1C28.4,25.6,28.5,25.6,28.5,25.7z"/>
<path class="st13" d="M29.6,23.2c0,0-0.1,0-0.1,0C29.4,23.2,29.5,23.2,29.6,23.2z"/>
<path class="st15" d="M34,24.7C34,24.7,34,24.8,34,24.7c0,0.1,0,0.1-0.1,0.1C33.9,24.8,34,24.7,34,24.7z"/>
<path class="st13" d="M33.4,20.6C33.5,20.6,33.5,20.7,33.4,20.6C33.5,20.7,33.5,20.7,33.4,20.6z"/>
<path class="st8" d="M28.4,25.6c0,0-0.1,0-0.1,0C28.3,25.6,28.3,25.6,28.4,25.6z"/>
<path class="st8" d="M28.6,25.8C28.6,25.8,28.5,25.7,28.6,25.8C28.5,25.7,28.6,25.7,28.6,25.8z"/>
<path class="st13" d="M33.3,24.3C33.3,24.3,33.4,24.3,33.3,24.3C33.4,24.3,33.3,24.3,33.3,24.3z"/>
<path class="st11" d="M27.6,24.8C27.6,24.8,27.5,24.7,27.6,24.8C27.5,24.7,27.6,24.7,27.6,24.8z"/>
<path class="st11" d="M27.5,24.7C27.5,24.7,27.5,24.6,27.5,24.7C27.5,24.6,27.5,24.6,27.5,24.7z"/>
<path class="st9" d="M29.7,21.3C29.7,21.3,29.7,21.3,29.7,21.3C29.7,21.3,29.7,21.3,29.7,21.3z"/>
<path class="st8" d="M28.6,25.8C28.6,25.8,28.6,25.8,28.6,25.8C28.6,25.8,28.6,25.8,28.6,25.8C28.7,25.8,28.7,25.8,28.6,25.8
	C28.6,25.8,28.6,25.8,28.6,25.8z"/>
<path class="st11" d="M27.5,24.6C27.5,24.6,27.4,24.5,27.5,24.6C27.5,24.5,27.5,24.5,27.5,24.6z"/>
<path class="st8" d="M33.9,24.8C33.9,24.8,33.9,24.8,33.9,24.8C34,24.8,34,24.8,33.9,24.8C34,24.9,33.9,24.9,33.9,24.8
	C33.9,24.8,33.9,24.8,33.9,24.8C33.9,24.8,33.9,24.8,33.9,24.8z"/>
<path class="st8" d="M33.9,24.9C33.9,24.9,33.9,24.9,33.9,24.9C33.9,24.8,33.9,24.8,33.9,24.9C33.9,24.9,33.9,24.9,33.9,24.9
	C33.9,24.9,33.9,24.9,33.9,24.9z"/>
<path class="st8" d="M38.6,21.5C38.6,21.5,38.6,21.4,38.6,21.5c0.1-0.1,0.3-0.1,0.4-0.1c0,0,0,0,0,0C38.9,21.4,38.8,21.5,38.6,21.5z
	"/>
<path class="st13" d="M38.3,24.2c0,0,0.1,0,0.1,0c-0.1,0-0.2,0-0.3,0c0,0,0,0,0,0C38.2,24.2,38.2,24.2,38.3,24.2z"/>
<path class="st13" d="M38.8,24.1c0,0,0.1,0,0.1,0.1c0,0,0,0.1,0,0.1C38.9,24.2,38.8,24.2,38.8,24.1z"/>
<path class="st13" d="M36.4,26c0,0-0.1,0-0.1-0.1C36.3,26,36.4,26,36.4,26z"/>
<path class="st13" d="M36.5,26.1C36.5,26.1,36.5,26.1,36.5,26.1C36.5,26.1,36.5,26.1,36.5,26.1z"/>
<path class="st10" d="M38.6,24.2C38.5,24.2,38.5,24.2,38.6,24.2C38.5,24.2,38.6,24.2,38.6,24.2C38.6,24.2,38.6,24.2,38.6,24.2z"/>
<path class="st13" d="M36.1,25.7C36.1,25.7,36.1,25.7,36.1,25.7C36.1,25.7,36.1,25.7,36.1,25.7z"/>
<path class="st13" d="M36.1,25.8C36.1,25.8,36.1,25.8,36.1,25.8C36.1,25.8,36.1,25.8,36.1,25.8z"/>
<path class="st13" d="M36.2,25.8C36.2,25.9,36.2,25.8,36.2,25.8C36.2,25.8,36.2,25.8,36.2,25.8z"/>
<path class="st13" d="M36.2,25.9C36.2,25.9,36.2,25.9,36.2,25.9C36.2,25.9,36.2,25.9,36.2,25.9C36.2,25.9,36.2,25.9,36.2,25.9z"/>
<path class="st13" d="M38,24.2C38,24.2,38,24.2,38,24.2C37.9,24.2,37.9,24.2,38,24.2C38,24.1,38,24.2,38,24.2
	C38,24.2,38,24.2,38,24.2z"/>
<path class="st13" d="M38,24.3C38,24.3,38,24.3,38,24.3C38,24.2,38,24.2,38,24.3C38,24.2,38.1,24.2,38,24.3
	C38.1,24.2,38,24.2,38,24.3z"/>
<path class="st1" d="M13.9,19.6c0,0.2,0,0.4,0,0.6c0,2,0,4,0,5.9c0,0,0,0,0,0c-0.7,0-1.5,0-2.2,0c0,0,0,0,0,0c0-2.2,0-4.3,0-6.5
	C12.4,19.6,13.1,19.6,13.9,19.6z"/>
<path class="st9" d="M11.9,26.2c0,0-0.1,0-0.1,0c0,0,0,0-0.1-0.1c0.7,0,1.4,0,2.2,0c-0.1,0-0.2,0.1-0.3,0.1c-0.4,0-0.8,0-1.2,0
	c-0.1,0-0.2,0-0.3,0C12,26.2,12,26.2,11.9,26.2z"/>
<path class="st9" d="M11.4,40.6c-0.1,0-0.2,0.1-0.3,0.1C11.2,40.7,11.3,40.7,11.4,40.6z"/>
<path class="st4" d="M12,35.5c0.1,0,0.1,0,0.2,0.1C12.1,35.5,12,35.5,12,35.5z"/>
<path class="st10" d="M13.5,36.6c0,0,0,0.1,0,0.1c0,0-0.1,0-0.1-0.1C13.5,36.6,13.5,36.6,13.5,36.6z"/>
<path class="st15" d="M10.3,34.6c0,0,0.1,0,0.1,0.1C10.4,34.6,10.4,34.6,10.3,34.6z"/>
<path class="st15" d="M13.6,32.5C13.5,32.6,13.5,32.6,13.6,32.5C13.5,32.5,13.5,32.5,13.6,32.5z"/>
<path class="st4" d="M11.7,35.3c0,0,0.1,0,0.1,0C11.8,35.4,11.8,35.4,11.7,35.3z"/>
<path class="st4" d="M11.8,35.4c0,0,0.1,0,0.1,0C11.9,35.4,11.9,35.4,11.8,35.4z"/>
<path class="st10" d="M13.6,36.9C13.6,36.9,13.6,36.9,13.6,36.9C13.6,37,13.6,36.9,13.6,36.9z"/>
<path class="st10" d="M13.5,36.8C13.6,36.8,13.6,36.8,13.5,36.8C13.6,36.9,13.6,36.8,13.5,36.8z"/>
<path class="st10" d="M13.4,36.6C13.4,36.6,13.4,36.6,13.4,36.6C13.4,36.6,13.4,36.6,13.4,36.6z"/>
<path class="st15" d="M10.5,34.6C10.5,34.6,10.5,34.7,10.5,34.6C10.5,34.7,10.5,34.7,10.5,34.6z"/>
<path class="st15" d="M10.6,34.7c0,0,0.1,0,0.1,0C10.6,34.8,10.6,34.8,10.6,34.7z"/>
<path class="st4" d="M11,35c0,0-0.1,0-0.1,0C10.9,34.9,10.9,34.9,11,35C11,34.9,11,34.9,11,35C11,35,11,35,11,35z"/>
<path class="st11" d="M9.5,35.5C9.5,35.5,9.4,35.5,9.5,35.5C9.5,35.5,9.5,35.5,9.5,35.5z"/>
<path class="st4" d="M11.6,35.3c0,0,0.1,0,0.1,0C11.7,35.3,11.7,35.3,11.6,35.3z"/>
<path class="st4" d="M12.2,35.6C12.2,35.6,12.2,35.6,12.2,35.6C12.2,35.6,12.2,35.6,12.2,35.6z"/>
<path class="st4" d="M11.5,35.2c0,0,0.1,0,0.1,0C11.6,35.3,11.5,35.2,11.5,35.2z"/>
<path class="st11" d="M9.2,35.2C9.2,35.2,9.2,35.2,9.2,35.2C9.2,35.2,9.2,35.2,9.2,35.2z"/>
<path class="st11" d="M9.6,35.6C9.6,35.6,9.5,35.6,9.6,35.6C9.5,35.5,9.5,35.5,9.6,35.6z"/>
<path class="st11" d="M9.4,35.4C9.4,35.4,9.4,35.4,9.4,35.4C9.4,35.4,9.4,35.4,9.4,35.4C9.4,35.4,9.4,35.4,9.4,35.4z"/>
<path class="st11" d="M9.3,35.3C9.3,35.3,9.3,35.3,9.3,35.3C9.3,35.3,9.2,35.3,9.3,35.3C9.3,35.3,9.3,35.3,9.3,35.3z"/>
<path class="st11" d="M9.3,35.4C9.3,35.4,9.3,35.4,9.3,35.4C9.3,35.4,9.3,35.4,9.3,35.4C9.3,35.3,9.3,35.4,9.3,35.4z"/>
<path class="st10" d="M13.3,36.5C13.3,36.5,13.4,36.5,13.3,36.5C13.4,36.5,13.3,36.5,13.3,36.5z"/>
<path class="st15" d="M10.3,34.5C10.3,34.5,10.3,34.5,10.3,34.5C10.3,34.5,10.3,34.5,10.3,34.5C10.3,34.5,10.3,34.5,10.3,34.5z"/>
<path class="st15" d="M10.2,34.4C10.2,34.5,10.2,34.4,10.2,34.4C10.2,34.4,10.3,34.4,10.2,34.4C10.2,34.5,10.2,34.4,10.2,34.4z"/>
<path class="st11" d="M9.2,35.2C9.1,35.2,9.1,35.2,9.2,35.2C9.1,35.1,9.1,35.1,9.2,35.2z"/>
<path class="st11" d="M9.1,35.1C9.1,35.1,9.1,35.1,9.1,35.1C9.1,35.1,9.1,35.1,9.1,35.1z"/>
<path class="st11" d="M9.1,35C9,35,9,35,9.1,35C9,35,9.1,35,9.1,35z"/>
<path class="st8" d="M27.8,37.2c-0.1,0-0.2,0.1-0.3,0.1C27.6,37.2,27.7,37.2,27.8,37.2z"/>
<path class="st13" d="M25.6,40.2c0,0-0.1,0-0.1-0.1C25.6,40.1,25.6,40.2,25.6,40.2z"/>
<path class="st7" d="M29.7,39.1C29.7,39.1,29.7,39.1,29.7,39.1C29.7,39.1,29.7,39.1,29.7,39.1z"/>
<path class="st7" d="M29.6,39.2C29.6,39.2,29.6,39.1,29.6,39.2C29.6,39.1,29.6,39.2,29.6,39.2z"/>
<path class="st8" d="M26.2,39C26.2,39,26.2,39.1,26.2,39C26.2,39.1,26.2,39.1,26.2,39z"/>
<path class="st8" d="M26.1,38.8C26.1,38.8,26.1,38.9,26.1,38.8C26.1,38.9,26.1,38.9,26.1,38.8z"/>
<path class="st13" d="M25.7,40.3C25.7,40.3,25.7,40.3,25.7,40.3C25.7,40.2,25.7,40.2,25.7,40.3z"/>
<path class="st13" d="M26.7,39.5c0,0-0.1,0-0.1,0C26.6,39.5,26.6,39.4,26.7,39.5C26.7,39.5,26.7,39.5,26.7,39.5
	C26.8,39.5,26.8,39.5,26.7,39.5z"/>
<path class="st7" d="M29.4,39.2C29.5,39.2,29.5,39.2,29.4,39.2C29.5,39.2,29.5,39.2,29.4,39.2z"/>
<path class="st13" d="M30.1,34.2C30.2,34.2,30.2,34.2,30.1,34.2C30.2,34.3,30.2,34.3,30.1,34.2z"/>
<path class="st13" d="M25.5,40.1C25.5,40.1,25.5,40.1,25.5,40.1C25.5,40.1,25.5,40.1,25.5,40.1z"/>
<path class="st13" d="M25.4,40C25.4,40,25.4,40,25.4,40C25.4,39.9,25.4,40,25.4,40z"/>
<path class="st13" d="M25.5,40C25.4,40,25.4,40,25.5,40C25.4,40,25.4,40,25.5,40z"/>
<path class="st13" d="M25.3,39.9C25.3,39.9,25.3,39.9,25.3,39.9C25.3,39.9,25.3,39.9,25.3,39.9z"/>
<path class="st13" d="M25.3,39.9C25.3,39.9,25.3,39.9,25.3,39.9C25.3,39.8,25.3,39.8,25.3,39.9z"/>
<path class="st13" d="M25.8,40.3C25.8,40.3,25.8,40.3,25.8,40.3C25.8,40.3,25.8,40.3,25.8,40.3z"/>
<path class="st7" d="M29.8,39.1C29.8,39,29.8,39,29.8,39.1C29.8,39,29.8,39,29.8,39.1z"/>
<path class="st8" d="M26.1,38.9C26.1,38.9,26.1,39,26.1,38.9C26.1,39,26.1,39,26.1,38.9z"/>
<path class="st8" d="M26.2,39.1C26.2,39.1,26.3,39.1,26.2,39.1C26.3,39.1,26.2,39.1,26.2,39.1z"/>
<path class="st14" d="M46.4,38.7c0.1,0.1,0.1,0.2,0.2,0.4C46.5,39,46.5,38.9,46.4,38.7C46.4,38.7,46.4,38.7,46.4,38.7z"/>
<path class="st14" d="M46.7,39.2c0.1,0,0.1,0.1,0.2,0.1C46.8,39.3,46.7,39.2,46.7,39.2z"/>
<path class="st8" d="M46.3,38.4c0,0,0.1,0.1,0.1,0.1C46.3,38.5,46.3,38.4,46.3,38.4z"/>
<path class="st15" d="M46.6,35.5c0,0.1,0,0.1-0.1,0.2C46.5,35.6,46.6,35.5,46.6,35.5z"/>
<path class="st5" d="M50.2,33.9c0,0,0.1,0,0.1,0.1C50.2,34,50.2,34,50.2,33.9z"/>
<path class="st14" d="M46.8,39.3C46.9,39.3,46.9,39.4,46.8,39.3C46.9,39.4,46.9,39.4,46.8,39.3z"/>
<path class="st5" d="M50.3,34C50.3,34,50.3,34,50.3,34C50.3,34.1,50.3,34,50.3,34z"/>
<path class="st15" d="M46.7,35.4C46.7,35.4,46.7,35.4,46.7,35.4C46.7,35.4,46.7,35.4,46.7,35.4z"/>
<path class="st5" d="M50.5,34.2C50.5,34.2,50.5,34.2,50.5,34.2C50.6,34.3,50.6,34.3,50.5,34.2C50.5,34.3,50.5,34.2,50.5,34.2z"/>
<path class="st13" d="M50.6,34.3C50.6,34.3,50.6,34.3,50.6,34.3C50.6,34.2,50.6,34.3,50.6,34.3C50.6,34.3,50.6,34.3,50.6,34.3z"/>
<path class="st15" d="M46.8,35.2C46.8,35.2,46.8,35.3,46.8,35.2C46.8,35.3,46.8,35.3,46.8,35.2C46.8,35.3,46.8,35.2,46.8,35.2z"/>
<path class="st15" d="M46.7,35.3C46.7,35.3,46.7,35.3,46.7,35.3C46.7,35.3,46.7,35.3,46.7,35.3z"/>
<path class="st15" d="M46.8,35.2C46.8,35.2,46.9,35.2,46.8,35.2C46.9,35.2,46.8,35.2,46.8,35.2C46.8,35.2,46.8,35.2,46.8,35.2z"/>
<path class="st13" d="M46.5,40.5C46.5,40.5,46.5,40.5,46.5,40.5C46.5,40.5,46.5,40.5,46.5,40.5z"/>
<path class="st13" d="M50.6,34.4C50.6,34.4,50.6,34.4,50.6,34.4C50.6,34.4,50.6,34.4,50.6,34.4z"/>
<path class="st5" d="M50.4,34.1C50.4,34.1,50.5,34.1,50.4,34.1C50.5,34.2,50.5,34.2,50.4,34.1z"/>
<path class="st5" d="M50.4,34.1C50.4,34.1,50.4,34.1,50.4,34.1C50.4,34.1,50.4,34.1,50.4,34.1z"/>
<path class="st14" d="M46.6,39.1C46.6,39.1,46.6,39.1,46.6,39.1C46.6,39.2,46.6,39.1,46.6,39.1z"/>
<path class="st9" d="M32.7,40.3c0,0.1,0,0.1,0,0.2C32.6,40.5,32.6,40.4,32.7,40.3z"/>
<path class="st9" d="M33.9,35.4C33.9,35.4,33.9,35.4,33.9,35.4C33.9,35.4,33.9,35.4,33.9,35.4z"/>
<path class="st9" d="M33.7,35.6C33.7,35.6,33.7,35.6,33.7,35.6C33.7,35.6,33.7,35.6,33.7,35.6z"/>
<path class="st9" d="M33.8,35.5C33.8,35.5,33.8,35.6,33.8,35.5C33.8,35.6,33.8,35.5,33.8,35.5z"/>
<path class="st9" d="M34.1,35.2C34.1,35.2,34.1,35.2,34.1,35.2C34,35.2,34,35.2,34.1,35.2z"/>
<path class="st9" d="M33.8,35.5C33.8,35.5,33.8,35.5,33.8,35.5C33.8,35.5,33.8,35.5,33.8,35.5z"/>
<path class="st9" d="M34,35.2C34,35.2,34,35.3,34,35.2C34,35.3,34,35.3,34,35.2z"/>
<path class="st9" d="M34.2,35.1C34.2,35.1,34.2,35.1,34.2,35.1C34.2,35.1,34.2,35.1,34.2,35.1z"/>
<path class="st9" d="M34.3,35C34.3,35,34.2,35,34.3,35C34.2,35,34.2,35,34.3,35z"/>
<path class="st9" d="M34.1,35.1C34.1,35.1,34.1,35.1,34.1,35.1C34.1,35.2,34.1,35.1,34.1,35.1z"/>
<path class="st8" d="M40.7,39.2c0,0,0.1,0,0.1,0.1C40.8,39.3,40.7,39.3,40.7,39.2z"/>
<path class="st8" d="M40.6,39.1C40.6,39.2,40.7,39.2,40.6,39.1C40.7,39.2,40.7,39.2,40.6,39.1z"/>
<path class="st14" d="M40.4,40.4c0,0-0.1,0-0.1,0C40.3,40.4,40.3,40.4,40.4,40.4z"/>
<path class="st8" d="M40.8,39.3C40.8,39.3,40.9,39.4,40.8,39.3C40.9,39.4,40.8,39.4,40.8,39.3z"/>
<path class="st8" d="M40.5,35.8C40.6,35.8,40.5,35.9,40.5,35.8C40.5,35.9,40.5,35.8,40.5,35.8z"/>
<path class="st8" d="M40.9,39.4C40.9,39.4,40.9,39.4,40.9,39.4C41,39.4,40.9,39.4,40.9,39.4z"/>
<path class="st8" d="M40.6,35.8C40.6,35.8,40.6,35.8,40.6,35.8C40.6,35.8,40.6,35.8,40.6,35.8C40.6,35.8,40.6,35.8,40.6,35.8z"/>
<path class="st15" d="M18.2,39.6C18.2,39.6,18.2,39.6,18.2,39.6c-0.2,0-0.5-0.1-0.8-0.1c0,0,0,0,0,0c0.1,0,0.2,0.1,0.3,0.1
	C17.9,39.6,18,39.6,18.2,39.6z"/>
<path class="st8" d="M16.9,35.8c-0.1,0.1-0.1,0.3-0.2,0.5C16.7,36.1,16.8,36,16.9,35.8z"/>
<path class="st8" d="M16.6,36.4c0,0.1,0,0.2-0.1,0.3C16.6,36.6,16.6,36.5,16.6,36.4z"/>
<path class="st8" d="M17.1,35.5c0,0,0,0.1-0.1,0.1C17.1,35.6,17.1,35.5,17.1,35.5z"/>
<path class="st8" d="M17,35.6c0,0,0,0.1-0.1,0.2C16.9,35.7,17,35.7,17,35.6z"/>
<path class="st8" d="M16.6,38.3C16.6,38.3,16.6,38.4,16.6,38.3C16.6,38.4,16.6,38.3,16.6,38.3z"/>
<path class="st8" d="M17.6,35.1c0,0,0,0.1-0.1,0.1C17.5,35.1,17.5,35.1,17.6,35.1z"/>
<path class="st4" d="M16.4,40.2C16.4,40.2,16.3,40.2,16.4,40.2C16.3,40.2,16.4,40.2,16.4,40.2z"/>
<path class="st15" d="M17.3,39.4C17.2,39.4,17.2,39.4,17.3,39.4C17.2,39.3,17.2,39.3,17.3,39.4C17.2,39.3,17.3,39.4,17.3,39.4
	C17.3,39.4,17.3,39.4,17.3,39.4z"/>
<path class="st8" d="M17.4,35.2C17.4,35.2,17.4,35.2,17.4,35.2C17.4,35.2,17.4,35.2,17.4,35.2z"/>
<path class="st8" d="M17.3,35.3C17.3,35.3,17.3,35.3,17.3,35.3C17.3,35.3,17.3,35.3,17.3,35.3z"/>
<path class="st8" d="M17.2,35.3C17.3,35.4,17.2,35.4,17.2,35.3C17.2,35.4,17.2,35.4,17.2,35.3z"/>
<path class="st8" d="M17.4,35.2C17.4,35.2,17.4,35.3,17.4,35.2C17.3,35.3,17.3,35.2,17.4,35.2z"/>
<path class="st8" d="M17.2,35.4C17.2,35.4,17.2,35.4,17.2,35.4C17.2,35.4,17.2,35.4,17.2,35.4z"/>
<path class="st15" d="M17.3,39.4C17.3,39.5,17.3,39.4,17.3,39.4C17.3,39.4,17.3,39.4,17.3,39.4C17.3,39.4,17.3,39.4,17.3,39.4
	C17.4,39.4,17.3,39.4,17.3,39.4z"/>
<path class="st15" d="M17.2,39.3C17.2,39.3,17.1,39.3,17.2,39.3C17.1,39.3,17.1,39.3,17.2,39.3C17.2,39.3,17.2,39.3,17.2,39.3
	C17.2,39.3,17.2,39.3,17.2,39.3z"/>
<path class="st15" d="M17.1,39.3C17.1,39.3,17.1,39.3,17.1,39.3C17.1,39.2,17.1,39.2,17.1,39.3C17.1,39.2,17.1,39.2,17.1,39.3
	C17.1,39.3,17.1,39.3,17.1,39.3z"/>
<path class="st5" d="M11.5,17.3c0.1,0.1,0.1,0.2,0.2,0.3C11.6,17.5,11.5,17.4,11.5,17.3z"/>
<path class="st5" d="M13.4,15.7c-0.1,0-0.1,0-0.2-0.1C13.2,15.6,13.3,15.7,13.4,15.7z"/>
<path class="st5" d="M11.7,17.7C11.7,17.7,11.7,17.7,11.7,17.7C11.7,17.8,11.7,17.7,11.7,17.7z"/>
<path class="st5" d="M13.5,15.8C13.4,15.8,13.4,15.8,13.5,15.8C13.4,15.7,13.4,15.7,13.5,15.8z"/>
<path class="st5" d="M13.6,15.8C13.5,15.8,13.5,15.8,13.6,15.8C13.5,15.8,13.5,15.8,13.6,15.8z"/>
<path class="st5" d="M11.6,17.6C11.7,17.6,11.7,17.6,11.6,17.6C11.7,17.7,11.7,17.7,11.6,17.6z"/>
<path class="st10" d="M13.9,16.2C13.9,16.2,14,16.2,13.9,16.2C14,16.3,13.9,16.2,13.9,16.2z"/>
<path class="st10" d="M12.1,18.1c0,0-0.1,0-0.1,0C12,18,12,18,12.1,18.1z"/>
<path class="st10" d="M12.3,18.2C12.2,18.2,12.2,18.2,12.3,18.2C12.2,18.1,12.2,18.2,12.3,18.2z"/>
<path class="st10" d="M14,16.3C14,16.3,14,16.3,14,16.3C14,16.4,14,16.3,14,16.3z"/>
<path class="st10" d="M12.1,18.1C12.1,18.1,12.1,18.1,12.1,18.1C12.1,18.1,12.1,18.1,12.1,18.1z"/>
<path class="st8" d="M17.7,22.5c0,0,0,0.1,0,0.2C17.7,22.6,17.7,22.6,17.7,22.5z"/>
<path class="st3" d="M36.3,35.4C36.3,35.4,36.3,35.5,36.3,35.4C36.3,35.5,36.3,35.4,36.3,35.4C36.3,35.4,36.3,35.4,36.3,35.4z"/>
<path class="st15" d="M43.8,35C43.8,35,43.8,35,43.8,35C43.8,35,43.8,35,43.8,35C43.8,35,43.8,35,43.8,35z"/>
</svg>
