<?xml version="1.0" encoding="utf-8"?>
<!-- Generator: Adobe Illustrator 27.7.0, SVG Export Plug-In . SVG Version: 6.00 Build 0)  -->
<svg version="1.1" id="Layer_1" xmlns="http://www.w3.org/2000/svg" xmlns:xlink="http://www.w3.org/1999/xlink" x="0px" y="0px"
	 viewBox="0 0 1125 1200" style="enable-background:new 0 0 1125 1200;" xml:space="preserve">
<style type="text/css">
	.st0{fill:#FFFFFF;}
	.st1{fill:#005D8C;}
	.st2{fill:#005C8D;}
	.st3{fill:#005D8D;}
	.st4{fill:#005B8E;}
</style>
<circle class="st0" cx="563.8" cy="605.5" r="540"/>
<g>
	<path class="st1" d="M1.3,651.4c0-30.3,0-60.7,0.4-91.4c0.8-3.4,1.1-6.4,1.5-9.3c2.1-14.8,3.5-29.8,6.6-44.4
		c5.1-23.9,10.5-47.8,17.4-71.3c5-17.1,11.7-33.9,19-50.2c9.1-20.4,18.7-40.8,29.6-60.3c13.1-23.3,28.3-45.2,45-66.2
		c15.4-19.4,31.6-38.1,49.7-55c10.8-10.1,21.3-20.4,32.7-29.7c13.8-11.4,28-22.3,42.7-32.5c14.1-9.7,28.7-18.7,43.7-27
		c17.5-9.6,35.1-19.2,53.5-26.7c23.4-9.4,47.5-17.6,71.7-24.6c19.8-5.7,40.2-9.5,60.5-13.2c13.3-2.5,27-3.3,40.5-4.9
		c0.7-0.1,1.3-1.2,2-1.8c30.3,0,60.7,0,91.4,0.4c1.7,0.8,2.9,1.3,4.2,1.4c7.4,0.7,14.9,0.9,22.2,2.1c16.9,2.8,33.7,5.9,50.5,9.2
		c25.8,5.1,50.9,12.7,75.4,22c23.8,9.1,47.3,19.2,69.5,31.9c12,6.9,24.4,13.3,35.9,21.1c16.5,11.1,32.5,23,48.3,35.1
		c18.7,14.1,35.9,29.9,51.8,47.1c9.6,10.4,19.5,20.5,28.4,31.4c11.4,14,22.5,28.3,32.8,43.1c9.6,13.9,18.6,28.4,26.7,43.3
		c9.7,17.6,19,35.4,27,53.8c10.1,23.3,18.9,47.2,24.8,72.1c4.7,19.9,9.1,40,12.8,60.1c2.4,13.2,3.3,26.7,4.9,40
		c0.1,0.9,1.2,1.6,1.8,2.5c0,30.3,0,60.7-0.4,91.4c-0.7,1-1.3,1.7-1.4,2.3c-0.7,6.3-1,12.7-2,18.9c-2.7,17.5-5.1,35.1-8.5,52.5
		c-5.3,26.7-12.6,52.9-22.8,78c-9.8,24.3-21.4,48-32.9,71.5c-5.9,12-13.2,23.4-20.4,34.7c-13.1,20.4-27.2,40.1-43.3,58.3
		c-11.3,12.8-22.6,25.6-34.3,38c-6.5,6.8-13.8,12.9-21,19.1c-10.4,9-20.6,18.3-31.6,26.7c-22.1,16.9-45.2,32.2-69.4,45.9
		c-22.6,12.7-45.9,23.8-69.9,33.3c-23.2,9.1-46.9,17.1-71.4,22.2c-15.1,3.2-30.2,6.4-45.3,8.9c-13.1,2.1-26.4,3.2-39.6,4.9
		c-0.9,0.1-1.6,1.2-2.5,1.8c-30.3,0-60.7,0-91.4-0.4c-3.4-0.8-6.4-1.1-9.3-1.6c-13.1-1.8-26.3-3.3-39.4-5.6
		c-15.9-2.9-32-5.6-47.5-10c-21.6-6.2-43-13.4-64.1-21c-26.2-9.5-51.1-22-75.2-35.9c-23.1-13.4-45.1-28.4-66.1-45
		c-19.8-15.7-38.9-32.1-56.1-50.7c-9.6-10.4-19.5-20.5-28.4-31.4c-11.3-13.7-22.2-27.7-32.4-42.3c-20.3-29-37.4-60-51.6-92.5
		c-11-25.3-20.9-51.2-27.6-78c-5-19.9-9-40-12.6-60.2c-2.4-13-3.2-26.3-4.9-39.5C2.9,653,1.9,652.2,1.3,651.4 M1096.4,691.5
		c1.2-9.3,2.8-18.7,3.6-28c1.5-17.1,3-34.3,3.6-51.5c0.5-12.4-0.4-24.9-0.8-37.3c-0.2-4.8-0.3-9.6-1-14.4
		c-2.3-17.3-4.8-34.5-7.4-51.7c-3.6-23.8-9.8-47.1-17.5-69.9c-5.8-17.2-12.9-34-19.7-50.9c-8.9-22.1-20.4-43-33.1-63.1
		c-8.9-14.1-18.1-28.1-28.3-41.2c-13.3-17.2-27.1-34.1-41.9-50c-12.8-13.7-26.9-26.2-41.1-38.5c-13.2-11.3-27.1-22-41.3-32.1
		c-24.7-17.6-50.7-33.2-78.5-45.4c-19.9-8.7-40.2-16.7-60.6-24.1c-29.1-10.5-59.2-17.5-89.9-21.3c-16.2-2-32.5-4.4-48.8-5.4
		c-14.1-0.9-28.2-0.6-42.3-0.1c-15,0.5-30,1.5-45,2.8c-12.4,1.1-24.9,2.6-37.2,4.8c-27.6,5.1-54.8,12-81.3,21.3
		c-24.8,8.7-48.9,19-72.2,31.2c-22.2,11.6-43.5,24.7-64,39.1c-21.7,15.2-42,32.3-61.2,50.6c-10.9,10.4-21.3,21.4-31,32.9
		c-13.1,15.4-26.1,31-37.8,47.5c-20.4,28.8-37.7,59.5-51.9,91.9c-10.8,24.8-20,50.2-27,76.2c-9.8,36.1-15.7,73-17.9,110.4
		c-0.8,14.1-0.4,28.2-0.1,42.4c0.3,12.3,0.8,24.5,1.9,36.7c1.5,15.4,3,30.8,5.8,45.9c5,27.5,11.4,54.6,21.4,80.7
		c8.1,21,16.2,42.1,25.8,62.4c12.3,26,27.5,50.4,44.2,74c15.1,21.2,31.8,41,49.4,60.1c7.3,7.9,15.1,15.3,23.2,22.3
		c13.9,12.1,27.7,24.2,42.2,35.6c29.7,23.2,61.7,42.9,96.1,58.2c21.1,9.4,42.6,18.1,64.5,25.3c20.6,6.7,41.8,12,63.1,16
		c23.2,4.3,46.7,7.2,70.2,9.3c15.2,1.4,30.7,0.6,46.1,0.2c14.6-0.4,29.1-1.4,43.6-2.8c14-1.4,28-3,41.8-5.8
		c26.5-5.3,52.6-12,78-21.2c25.3-9.1,50-19.6,73.8-32.4c20.6-11.1,40.4-23.3,59.5-36.8c24.3-17.2,46.9-36.3,68.1-57.1
		c5.4-5.3,10.6-10.9,15.7-16.6c10.3-11.7,21.3-23,30.5-35.5c13.5-18.4,25.9-37.6,38.3-56.8c15.2-23.3,27.1-48.3,36.9-74.2
		c8.7-22.9,15.6-46.4,22.3-69.9C1091.3,721.3,1093.4,706.7,1096.4,691.5z"/>
	<path class="st1" d="M763.2,356.3c3.4,2.8,6.6,5.1,9.6,7.8c15.7,14,29.8,29.3,42.6,46c12.8,16.8,23.9,34.6,33.1,53.5
		c11.6,23.6,20,48.5,25.3,74.3c2.5,12.4,4,25,4.8,37.6c1,15.7,1.8,31.5,0.8,47.2c-1,15.7-3.2,31.4-6.7,46.7
		c-3.8,16.8-8.5,33.6-15,49.5c-7,17.1-15.8,33.5-25.1,49.5c-14.5,25.3-33.6,47.2-55,66.9c-15.5,14.3-32.5,27-50.7,37.9
		c-19.3,11.5-39.5,21.5-60.8,28.3c-16.5,5.3-33.6,9.3-50.7,12.3c-14.4,2.5-29.2,3.2-43.9,3.9c-35.9,1.9-70.7-3.8-105-14.6
		c-19.1-6-37.3-14-54.9-23.5c-16.3-8.8-31.9-18.8-45.9-31c-11-9.5-22.2-19-32.2-29.6c-10.5-11.3-20.6-23.2-29.2-36
		c-10.4-15.6-20-32-28.2-48.8c-10.8-22.1-17.8-45.6-22.8-69.8c-5.6-27.4-6.7-55.2-5.4-83c1.1-22.7,5.2-45,11.5-66.9
		c5.8-20.1,13.4-39.5,23-58c9.9-19.1,21.4-37.2,35.3-53.6c8.1-9.6,16.1-19.4,25.3-27.9c11.8-10.9,24.1-21.3,37.2-30.6
		c13.4-9.5,27.6-18.1,42.2-25.6c25.1-12.9,51.7-21.9,79.5-27.1c12.7-2.4,25.7-3.8,38.6-4.7c13.7-1,27.4-1.5,41.1-0.9
		c22.1,1.1,43.9,4.6,65.2,10.5c17.1,4.7,33.7,10.9,49.9,18.2c23.1,10.5,44.1,24.1,64.1,39.4C761.7,354.7,762.3,355.5,763.2,356.3
		 M744.7,752.8c2,0.9,4.1,1.5,5.9,2.6c10.2,6.1,12.5,16.4,13.7,27c1,9.1-3.8,12.7-12.8,10.2c-1.3-0.4-2.6-1-3.9-1.5
		c-6.2-2.3-12.4-4.8-18.7-6.9c-7.6-2.5-15-2.9-21,3.8c-6.9,7.7-13.6,15.7-20.6,23.3c-8.4,9.2-16.9,18.2-25.4,27.3
		c-2.5,2.7-3.6,5.6-0.5,8.5c3,2.7,5.3,0.9,7.5-1.5c11-11.7,22-23.2,33-34.9c2.7-2.8,5.2-5.7,7.7-8.7c7.2-8.7,10.7-9.8,21.4-6.2
		c7.5,2.5,14.8,5.3,22.4,7.6c12,3.6,24.2-3.2,21.9-18c-1.1-7.4-3.2-14.8-5.4-22c-1.9-6.3-5.5-12.1-11.6-14.9
		c-5.5-2.5-11.7-3.5-17.5-5.3c-1.9-0.6-4.9-1.4-5.2-2.7c-0.8-3.1-0.5-6.5,0-9.7c0.2-1,2.4-2.3,3.7-2.5c4-0.3,8.1-0.4,12.2-0.1
		c12.4,1.2,18.6-8.8,18.5-18.6c-0.3-71.7-0.2-143.4-0.1-215.1c0-7,0.4-14.2,8.9-17c1.1-0.4,2.2-1.5,2.7-2.5c0.6-1.5,1.2-3.9,0.5-4.8
		c-1-1.2-3.6-2.3-5-1.8c-11.7,3.8-15.6,9.4-15.6,21.7c0,72.2,0,144.4,0,216.5c0,8.8-3,11.6-9.9,12.2c-2.8,0.3-5.5,0.8-8.3,0.8
		c-7.5,0.1-8-0.5-8-7.8c0-94,0-188.1,0-282.2c0-1.1,0.1-2.2,0-3.3c-0.2-2.8,1.1-4,3.9-3.9c4.2,0.1,8.4,0.1,12.7,0
		c9.3-0.3,15.2-6.4,13.2-14.3c-1-3.8-4.1-7.1-6.5-10.4c-4.6-6.3-9.7-12.2-18.1-13.4c-11.9-1.7-23.8-3.4-35.8-4.9
		c-6.8-0.9-12.7-2.5-14.6-10.5c-0.7-2.9-2.4-5.8-4.2-8.2c-1-1.3-3.3-1.6-5.1-2.3c-0.6,1.8-2.2,3.9-1.8,5.2
		c1.9,5.4,4.5,10.5,6.6,15.8c1.8,4.4,5.4,6.5,9.6,7.2c11.3,1.9,22.6,3.3,33.9,4.9c8.4,1.2,17.3,1.6,21.7,10.7
		c1.3,2.6,2.2,5.9,1.6,8.5c-0.3,1.2-4.5,2.2-6.9,2.2c-19.7,0.2-39.4,0.1-59,0.1c-1.8,0-3.8,0.2-5.3,1c-1.3,0.7-2.8,2.5-2.7,3.7
		c0,1.3,1.6,2.8,2.9,3.6c1.2,0.8,2.9,0.9,4.4,0.9c6.6,0.1,13.1,0.2,19.7,0c4.1-0.2,5.8,1.4,5.5,5.4c-0.1,1.6,0,3.1,0,4.7
		c-0.1,2.8-1.3,4.1-4.3,4.1c-5,0-10.1-0.2-14.8,1.1c-5,1.4-10.8,3.3-14.2,6.9c-10,10.5-3.5,30.1,10.6,33.1
		c6.3,1.3,12.9,1.2,19.3,2.1c1.2,0.2,3,1.7,3.2,2.8c0.5,2.7,0.4,5.6,0,8.4c-0.1,1-1.5,2.4-2.5,2.6c-3.7,0.6-7.4,0.8-11.1,1.1
		c-11.2,0.7-21.8-1.9-31.9-6.5c-2.9-1.4-5.1-0.9-6.4,2.2c-1.4,3.4,1.1,4.9,3.4,6.1c2.4,1.3,5,2.5,7.6,3.5c6.7,2.4,7.1,7.8,2.6,12.9
		c-7.7,8.8-14.8,18.4-25.7,24c-3,1.5-3.1,4-0.5,6.3c3.5,3.1,7,0.9,9.2-1.2c9.1-8.8,17.8-17.9,26.4-27.1c6.5-6.9,13.2-12.5,23.6-11.8
		c4,0.3,5.5,1.8,5.5,5.7c-0.1,9.5,0,19.1,0,28.6c0,5.5-0.7,6.1-6.3,6.1c-7,0-14.1,0-21.1,0c-3.1,0-5.2,1.4-5.2,4.6
		c0,3.3,2.5,3.8,5.2,3.8c6.1-0.1,12.2,0,18.3,0c9.1,0,9.4,0.3,9.2,9.5c0,0.5,0,0.9,0,1.4c-0.1,2.8-1.3,4.2-4.4,4.1
		c-6.9-0.2-13.8-0.1-20.6,0c-1.8,0-3.8,0.3-5.3,1.2c-3.3,1.8-3.4,5.1-0.1,6.9c1.5,0.8,3.5,1.2,5.3,1.2c6.7,0.1,13.4,0,20.2,0.1
		c1.2,0,3.4,0.2,3.5,0.5c0.7,3.8,1.5,7.6,1.1,11.3c-0.1,1.2-3.5,2.9-5.4,3c-7,0.4-14,0.2-21.1,0.1c-2.8,0-5.8,0.1-5.8,3.7
		c0,3.8,2.7,4.8,6.1,4.7c6.9-0.1,13.8,0.2,20.6-0.1c4.5-0.1,6.4,1.6,6,6.1c-0.1,1.2-0.1,2.5,0,3.8c0.2,3.8-1.6,5.3-5.4,5.3
		c-7.2-0.1-14.4,0.1-21.6-0.1c-3.4-0.1-5.7,1-5.7,4.4c0,3.2,2.3,4.2,5.5,4.1c5.8-0.2,11.6,0.1,17.3-0.1c10.8-0.3,9.8,0.6,9.8,10.7
		c0,0.2,0,0.3,0,0.5c-0.2,2.8-1.4,4-4.4,4c-7-0.2-14.1,0-21.1-0.1c-3.6-0.1-7.1,0.7-7.1,4.8c0,3.8,3.5,4.6,6.9,4.6
		c5.6,0,11.2,0,16.9,0c9.6,0,9.6,0,8.8,9.7c0,0.3,0.1,0.8-0.1,0.9c-1.3,1.2-2.5,3.1-4,3.3c-4.6,0.7-9.3,0.4-13.9,1.2
		c-11.4,2-17.2,4.1-19.1,15.4c-1.9,11.5,0.7,22.4,15,24.8c5.8,1,11.7,1.5,17.5,1.8c3.5,0.1,4.9,1.3,4.6,4.7c-0.1,1.1,0,2.2,0,3.3
		c0,6.4-0.7,7-7.3,7.1c-6.9,0-13.8-0.2-20.6,0.2c-1.7,0.1-3.2,2.1-4.8,3.2c1.5,1.7,3,3.5,4.6,5c0.5,0.5,1.8,0.1,2.8,0.1
		c6.4,0,12.8,0,19.2,0c5.5,0,6.1,0.7,6.2,6.3c0,0.5,0,0.9,0,1.4c0,7-0.3,7.3-7.1,7.3c-6.6,0-13.1,0.2-19.7-0.1
		c-3.3-0.1-5.8,0.8-5.9,4.2c-0.1,3.5,2.5,4.3,5.8,4.3c17.2-0.1,34.4-0.1,51.5,0C738.4,751.8,741.2,752.4,744.7,752.8 M521.7,651.5
		c-1.6,0.8-4.4,1.5-4.5,2.4c-0.1,1.7,1.2,3.6,2.2,5.2c0.4,0.7,1.3,1.3,2.2,1.7c5.3,2.2,6.6,6.4,6.6,11.6c-0.1,19.8,0,39.7,0,59.5
		c0,29.8-0.4,59.7,0.2,89.5c0.2,12.8,3.2,17.5,13.2,20.8c5.5,1.8,11.3,3,17.1,4.2c4.1,0.8,8.2,1.7,12.3,1.8
		c11.3,0.3,18.2-6.7,18.2-18.1c0-67.8,0-135.6,0-203.4c0-6.2,1.8-7.4,7.7-5.7c2.5,0.7,5.1,1,7.7,1.6c6.8,1.5,14.2-1.8,17-8
		c3.7-8.3,3.2-16.7-1.5-24.4c-5.4-8.6-14.6-11.5-23.8-13.7c-6.1-1.5-7.1-2.2-7.1-8.6c0-22-0.1-44.1,0.1-66.1c0-4.5-2.3-6.5-5.9-7.8
		c-1.6-0.6-3.4-0.6-4.9-1.3c-9.5-3.8-18.4-4.3-25.9,4.3c-1,1.1-2.3,2.1-3.7,2.8c-8.3,4.4-11.2,11.3-10.5,20.4
		c0.2,3.2-0.9,6.9-2.7,9.6c-1.5,2.1-4.7,3.7-7.4,4.2c-3.6,0.6-3.7-3-4.3-5.5c-0.4-1.5-0.4-3.1-0.4-4.6c0-11.9,0.3-23.8-0.3-35.6
		c-0.2-3.3-2.3-7-4.6-9.6c-2-2.3-5.4-3.5-8.3-4.9c-2.5-1.2-5.3-1.9-6.5,1.6c-1.1,2.9,0.3,5,3.2,6.1c6.1,2.3,8.2,6.8,8.1,13.1
		c-0.2,12.3-0.2,24.7,0,37c0.1,10,7.6,16.3,15.4,12.5c4.5-2.2,8.9-5.1,12.5-8.6c2.2-2.1,3.1-5.9,3.8-9.1c0.6-2.8-0.3-6,0.3-8.8
		c0.5-2.7,1.6-5.7,3.4-7.7c2.2-2.6,5.3-4.7,8.2-6.7c1.3-0.9,3.4-1.8,4.5-1.3c1,0.5,1.5,2.8,1.5,4.4c0.1,11.2,0.1,22.5,0.1,33.7
		c0,12.1,0,12.1-12.1,12.1c-4.8,0-9.7-0.1-14.5,0.1c-2.7,0.1-5.4,0.8-5.2,4.5c0.2,3.3,2.4,3.9,5.2,3.9c5-0.1,10-0.1,15,0
		c3.8,0.1,7.6,0.4,11.6,0.6c0,3.1,0,5.2,0,7.4c0,5.7-0.2,6-6.1,6c-7,0-14.1,0-21.1,0c-2.8,0-5,1.2-4.5,4c0.3,1.6,2.2,3.3,3.8,4.2
		c1.2,0.7,3,0.2,4.6,0.2c17.2,0.6,34.5,0.8,51.7,2.1c7.6,0.5,14.6,4,19,11.1c2.8,4.5,3.2,11,0.4,14.4c-3.3,4-7.8,3.2-11.6,1.7
		c-20.1-8.2-41.1-6.8-62.1-6.7c-2.8,0-5.9,0.2-6,4.2c0,3.9,2.7,4.3,5.8,4.2c6.9-0.1,13.8,0.1,20.6,0c3.8-0.1,5.5,1.1,5.5,5.3
		c-0.2,18.9-0.1,37.8-0.1,56.7c0,48.7,0,97.5-0.1,146.2c0,2.7-1.2,5.8-2.9,7.8c-3,3.6-12,4.5-16.6,2.4c-5.4-2.5-7.6-6.7-7.6-12.6
		c0.1-49,0.1-98.1,0-147.2c0-3.9-1-8-2.3-11.7C533.1,655.3,527.3,653.9,521.7,651.5 M420.2,680.5c-1.6,0.6-3.2,1.7-4.8,1.7
		c-7.5,0.2-15-0.1-22.5,0.3c-1.6,0.1-3,2.6-4.5,4c1.5,1.4,2.8,3.4,4.5,4c2.1,0.7,4.6,0.1,7,0.2c15.5,0.6,31.1,1,46.5,2
		c8.1,0.5,15.4,4,20.4,10.7c1.4,1.8,1.6,5.1,1.2,7.5c-0.5,2.9-3,4.6-6.3,4.2c-2.9-0.3-6.1,0-8.7-1.2c-19.2-8.8-39.7-6-59.8-6.2
		c-2.6,0-5,1-4.9,4.4c0.1,3.3,2.3,4,5.1,4c7.2,0,14.4,0.1,21.6-0.1c4.8-0.1,5.1,2.7,5.3,6.3c0.2,4-1.4,5.2-5.2,5
		c-6.2-0.2-12.5-0.1-18.7,0c-1.7,0-3.6,0.1-4.9,0.9c-1.4,0.9-2.8,2.7-2.9,4.2c-0.2,3.9,3,4.2,5.9,4.2c7.2,0.1,14.4,0.1,21.6,0
		c3.3-0.1,4.5,1.3,4.3,4.5c-0.2,3,0.9,6.7-4,6.8c-3.6,0.1-7.2-0.2-10.8,0.1c-6,0.5-12.1,1.2-16.8,5.6c-5.8,5.4-5.9,12.3-5.1,19.6
		c0.8,7,5.3,12.8,12.2,14c6.5,1.1,13.2,1.6,19.8,1.9c5,0.2,4.5,3.4,4.6,6.8c0.1,3.5-1.2,4.7-4.7,4.6c-4.8-0.2-9.7,0.3-14.5-0.1
		c-12.1-1.1-21.6,1.8-26.6,14.2c-1.4,3.3-3,6.2-1.2,9.5c1.9,3.5,5.2,4.5,9,4.5c8.8-0.1,17.6,0.3,26.4-0.1
		c13.4-0.7,24.9,4.9,36.8,9.8c8.4,3.5,16.9,6.7,25.5,9.5c7.7,2.4,14-2.7,13.9-10.8c0-3.7-0.7-7.4-0.9-11.1
		c-0.7-19.6-1.4-39.2-1.8-58.8c-0.1-4.9,1.8-9.5,6.5-12c3-1.6,5.1-3.8,3.1-7c-2.1-3.4-5.4-2.4-8.3-0.8c-5.5,3-9.4,7.6-9.7,13.8
		c-0.5,9.5-0.4,19.2-0.1,28.7c0.5,12.9,1.4,25.7,2.1,38.6c0.4,6.7-1.6,8.9-8.4,8.5c-2-0.1-4-0.6-5.8-1.3c-9-3.6-18-7.2-27-11.1
		c-10.7-4.6-22-4.5-33.2-5.2c-4.5-0.3-9,0.6-13.5,0.8c-3.4,0.1-4.1-2-2.8-4.6c2-3.9,4.8-6.7,9.8-6.6c14.1,0.1,28.1,0,42.2,0
		c7.5,0,7.5,0,7.5-7.3c0-24.1,0-48.1,0-72.2c0-7,1.6-7.9,8.5-6.1c3.9,1,8.2,1.9,12.2,1.4c7.5-0.8,12.8-5.3,13.8-12.9
		c1.1-7.8-1.3-15.2-8.5-19.1c-6.4-3.5-13.5-5.8-20.3-8.5c-2.6-1-5.6-1.4-5.6-5.1c0-23.8,0-47.5,0-71.2c0-3.4,1.5-5.4,5.5-5.3
		c7,0.2,13.8,0.2,20.6-2.4c5.8-2.2,10.6,0.8,11.1,6.4c0.5,5.2,0.3,10.6,0.1,15.9c-0.5,11-1.3,22-1.5,33c0,1.4,2.4,4.1,3.6,4.1
		c1.8-0.1,3.8-1.8,5.3-3.3c0.6-0.7,0.2-2.4,0.3-3.6c0.9-13.8,1.7-27.5,2.8-41.3c0.8-9.1-2.5-17.2-9.7-19.8
		c-3.6-1.2-8.1-1.4-11.8-0.4c-10,2.7-19.9,4-30.1,1.2c-4.8-1.3-9.7-2.5-14.5-2.7c-10.8-0.4-21.6-0.1-32.3-0.2c-3,0-5.5,0.5-5.5,4.1
		c-0.1,3.9,2.5,4.4,5.7,4.4c7-0.1,14.1,0.2,21.1-0.1c4.4-0.2,5.2,1.8,5.1,5.6c-0.1,3.6-0.3,6-4.9,5.8c-4.3-0.2-8.7,0.3-13,0.8
		c-12.9,1.4-16.2,4.5-18.9,17.2c-2.4,11.2,3.8,20.5,15.1,22.1c4.9,0.7,9.9,0.7,14.8,1c5.7,0.3,6.8,1.3,6.8,6.4
		c0,4.8-1.1,5.8-6.8,5.8c-5.9,0-11.9-0.2-17.8,0.2c-1.4,0.1-3.4,1.7-3.9,3c-0.4,1,0.9,3.2,2,4.1c1.2,0.9,3.2,1.1,4.8,1.2
		c4.4,0.2,8.8,0,13.1,0.1C420.7,671.2,420.4,669.8,420.2,680.5 M410.4,385.2c-7.1-0.5-14,0.4-20,4.4c-6.7,4.4-8.8,14.7-5.8,24.4
		c1.5,5,4.5,8.7,9.6,9.6c7.1,1.3,14.3,1.9,21.5,2.9c1.6,0.2,4,1,4.4,2.1c2.1,5.4,0,8.1-5.8,8.1c-1.9,0-3.8,0-5.6,0
		c-15.9-0.4-27.7,7.4-37.6,18.9c-7.1,8.4-12.7,18.4-24.1,22.3c-1.2,0.4-2.7,3.9-2.2,4.8c1,1.6,4,3.8,5.2,3.4c4.7-1.8,9.5-3.8,13.2-7
		c4.4-3.8,8-8.6,11.2-13.5c10-14.8,23.6-21.7,41.5-20.4c4.1,0.3,4.6,2.2,4.4,5.4c-0.2,2.9,0.8,6.1-4.1,6.1c-5.3,0-10.6,0.2-15.8,1
		c-9,1.2-15.8,4.5-16.9,15c-0.7,6.9,0.6,12.7,4.5,17.3c-1.4,3-3,5.3-3.7,7.9c-3.4,12.7,1.4,22.6,14.3,24.2
		c5.4,0.7,10.8,1.1,16.2,0.9c4.3-0.1,5.7,1.3,5.6,5.6c-0.1,4.2-0.5,6.5-5.6,6.8c-10.1,0.7-19.3-2-28.2-6.2c-3-1.4-6-1.2-6.9,1.9
		c-0.5,1.5,1.4,4.5,3,5.8c2.2,1.8,5.3,2.4,7.9,3.7c6,3,7.6,7,3.1,12.1c-5.1,5.8-11.7,10.2-17.6,15.4c-1.3,1.2-2.2,2.8-3.3,4.3
		c1.5,1.1,3.1,3,4.6,3c2.5-0.1,5.5-0.8,7.2-2.4c6.9-6.4,13.2-13.5,20.2-19.8c3.9-3.5,8.7-7.8,13.4-8.2c11.2-1.1,22.6-0.7,33.8,0.3
		c5.7,0.5,11.5,3.7,12.3,10.8c0.3,2.7,0.6,6.7-1,8c-1.9,1.7-5.8,2-8.5,1.5c-5.5-1.2-10.8-3.5-16.3-5.1c-2.2-0.6-4.8-1.3-6.8-0.6
		c-7.8,2.8-15.5,6-23,9.4c-3,1.3-2.6,5.6,0.5,6.7c1.3,0.5,3.2-0.3,4.7-1c11.7-5.7,23.2-8.5,35.9-2.2c4.6,2.3,10.4,2.6,15.7,2.7
		c7,0.1,11.9-6,11-12.9c-0.5-3.3-2.1-6.4-2.8-9.7c-2.3-11.2-12.8-17.9-23.2-17.6c-4,0.1-5.9-1.9-6-5.9c0-5.7,1-7.2,7.1-8
		c11.6-1.6,19.6-7.8,24.1-18.6c4.4-10.4,4.3-27.5-7-35.2c-5.9-4-12.9-6.5-19.6-8.8c-3.1-1.1-4.6-2.5-4.6-5.4
		c-0.1-23.1,0-46.2,0-69.4c0-3,1.4-4.4,4.6-4.4c4.9,0,9.9-0.3,14.8-1c9.6-1.4,16.8-6.8,22.1-14.8c1.8-2.7,2-5.6-0.9-7.7
		c-2.7-2-5-0.7-6.9,1.5c-1.7,2-3.1,4.4-5.2,5.9c-8.1,6.1-17.5,6.7-27.1,5.5c-9.3-1.2-18.4-3.3-27.7-4.1c-8.2-0.7-16.6-0.5-24.8,0
		c-2,0.1-4,2.7-6,4.1c1.6,1.6,3.1,3.4,4.9,4.7c0.9,0.6,2.4,0.3,3.7,0.3c5.1,0,10.3,0,15.5,0c8.9,0,8.9,0,8.5,9
		c0,0.3-0.2,0.6-0.5,1.5C417.1,384.6,414.2,384.9,410.4,385.2 M637.4,398.3c-0.5-5.2-0.9-10.5-1.5-15.7c-0.9-8-5.8-13-13-13.4
		c-9.2-0.5-15.2,3.3-16.8,11.1c-0.7,3.5-1,7-1.1,10.6c-0.1,13.9,0,27.8,0,41.7c0,8.2-3.3,10.5-11.2,7.9c-4.2-1.4-8.3-3.4-12.5-4.7
		c-14.5-4.7-29.5-3.6-44.3-3.9c-2.6,0-5.2-1.5-7.8-2.3c1.9-2.6,3.5-5.6,5.8-7.8c1.1-1,3.5-1,5.3-1c14.4-0.1,28.7-0.2,43.1,0.1
		c4.6,0.1,5.8-1.5,5.8-5.9c-0.2-14.4-0.3-28.7,0-43.1c0.1-5.1-1.9-7.9-6.4-9.4c-1.9-0.6-3.8-1.5-5.7-1.6c-8.8-0.5-17.6-1.2-26.4-0.9
		c-14.1,0.5-20.9,3.2-23.4,18.5c-1.4,8.2,3.5,17.9,11.6,19.8c7.1,1.7,14.6,2.2,22,2.7c4.5,0.3,3.8,3.2,3.8,5.9
		c0,2.6,0.5,5.5-3.7,5.4c-5.2-0.1-10.3-0.1-15.5,0c-4.2,0.1-8.5-0.2-12.6,0.5c-7.3,1.2-10.1,7.3-13.5,12.9
		c-2.1,3.5-3.7,6.5-1.5,10.3c2.3,3.8,6,4.5,10.1,4.4c9.7,0,19.4-0.3,29,0.1c9.1,0.3,18.1,1.5,26.6,5.6c5.4,2.6,11,5,16.7,6.9
		c6.9,2.4,13.1-0.9,13.9-7.9c1-8.8,0.9-17.7,1-26.5c0.2-11.5-0.1-22.9,0.3-34.4c0-1.6,2.1-3.9,3.7-4.4c4.3-1.5,8,1.6,8.2,6.8
		c0.7,13.5,1.3,27,1.9,40.4c0.4,9.5,0.5,19,1.1,28.4c0.2,3,0.8,7.1,5.5,6.5c4-0.5,3.8-3.9,3.7-6.9c-0.2-6.8-0.7-13.6-0.9-20.5
		C638.4,422.8,638,411,637.4,398.3 M356.4,711.3c-2.7-4.3-5.8-4.8-7.2-0.6c-1.6,4.8-3.1,10.3-2.4,15.2c1,7.4,2.3,14.5-0.2,21.9
		c-0.5,1.3,1.5,3.4,2.3,5.2c1.5-0.8,3.9-1.2,4.5-2.5c2.7-5.6,4-11.5,2.7-17.9C354.8,725.8,353.2,718.8,356.4,711.3 M642.5,649.8
		c0.2-5.5,0.5-11.1,0.6-16.7c0.1-5.4,0.3-10.8,0-16.1c-0.1-1.8-1.2-3.7-1.8-5.5c-1.8,1.1-4.4,1.8-5.1,3.4c-1.3,2.8-2,6.2-2.1,9.4
		c-0.3,9.6,4.3,19.2-0.7,28.8c-0.3,0.7,1.5,3.4,2.7,3.6c1.3,0.3,3.3-0.8,4.5-2C641.6,653.8,641.8,652,642.5,649.8 M642.5,559.5
		c0.1-0.5,0-1,0.2-1.4c1.2-2.8,1.1-5.7-1.9-6.5c-1.2-0.3-4.4,2.4-4.8,4.2c-1.1,5-2.4,10.5-1.5,15.4c1.3,7,1.6,13.6-0.5,20.5
		c-0.4,1.5,0.6,4.4,1.9,5.1c2.3,1.3,4.6-0.1,5.2-2.9c0.9-4,2-8.1,2.1-12.2C643.4,574.6,642.8,567.5,642.5,559.5 M374.4,743.7
		c0.2-3.2,0.5-6.4,0.5-9.6c0-7-0.1-14-0.5-21c-0.1-1.6-1.2-3.2-1.8-4.8c-1.6,0.8-4,1.2-4.7,2.5c-2.4,4.9-3.6,10-2.5,15.7
		c0.8,4.1,1.4,8.2,1.4,12.3c0,3-1.4,6-1.5,9c0,1.7,1.5,3.5,2.3,5.2c1.5-0.8,3.6-1.2,4.5-2.5C373.3,748.8,373.6,746.5,374.4,743.7
		 M660.3,551.7c-3.3-1.3-4.5,1.3-5.5,3.4c-2.4,5.5-2.7,11.3-1.3,17.2c1.5,6.1,1.9,12.2-0.7,18.2c-1,2.5-1.2,5.1,1.7,6.3
		c3.3,1.3,5.2-1.4,5.6-3.9c0.9-6.4,1.3-12.8,1.6-19.2c0.2-4.1-0.3-8.2-0.5-12.3C661.1,558.3,661,555.3,660.3,551.7 M660.4,651.9
		c0.5-6,1.6-11.9,1.3-17.8c-0.3-5.7-1.2-11.2,0-16.9c0.4-1.8-1.3-3.9-2-5.9c-1.7,1.3-4,2.4-4.8,4.1c-2.6,5.5-2.8,11.3-1.2,17.2
		c1.6,6.3,1.5,12.5-0.8,18.7c-0.4,1-0.5,2.5,0,3.4c0.6,1,2.5,2.5,2.9,2.2C657.4,655.8,658.8,654.1,660.4,651.9z"/>
	<path class="st2" d="M857.4,424.3c-10.8-14.5-21.1-29-32-43c-5.7-7.3-12.1-14.2-18.7-20.6c-14.5-14-29.7-27.1-46.4-38.5
		c-15.4-10.5-31.2-20.1-47.9-28.1c-27.4-13.1-56-22.8-85.9-27.9c-12.8-2.2-25.7-3.8-38.6-4.6c-14-1-28.1-1.6-42-0.9
		c-26.9,1.4-53.4,5.8-79.2,13.6c-21.6,6.5-42.6,14.8-62.6,25.4c-21,11.1-41,23.9-59.1,39.5c-9,7.8-18.2,15.5-26.6,23.9
		c-13.9,14.1-27.1,28.9-37.6,45.7c-10,16-20.1,31.9-28.6,48.7c-13.5,26.9-22.8,55.3-27.7,85.1c-2.1,12.9-3.8,26-4.6,39.1
		c-0.9,13.8-1.9,27.8-0.8,41.5c1.5,18.7,4.1,37.5,7.7,55.9c5.1,25.5,14,49.8,25.1,73.3c11.4,24.2,25.2,47,42.4,67.6
		c10,12,20.1,24.1,31.3,34.9c20.6,19.9,43.2,37.5,68.7,50.9c16.1,8.5,33,15.5,49.5,23.2c0.8,0.4,1.7,0.8,2.8,1.4
		c-0.8,2.3-1.5,4.6-2.4,7.2c-54.3-19.4-101-50.1-139.4-92.3c-62-68-94.2-148.8-93.8-240.8c0.4-100.4,37.9-186.3,110.7-255.6
		c58.5-55.7,128.8-87.6,209.3-94.8c90.2-8,172.7,14.6,245.1,69.3c69.4,52.4,114.2,121.5,132.6,206.6c18.3,84.4,7.2,165.5-33.7,241.7
		c-42.5,79.2-106.6,134.1-191.2,166c-1-2.7-1.8-4.9-2.7-7.2c100.7-39.7,172-108.9,208-211.4C925,616.6,913,518.1,857.4,424.3z"/>
	<path class="st1" d="M218.8,336.6c-3-6.2-5.3-12.5-9-17.8c-8.4-12-17.8-23.3-26.2-35.3c-3.3-4.7-8-2.2-11.6-4.2
		c-0.8-0.4-2-0.1-2.7-0.5c-1.1-0.7-2.4-1.7-2.7-2.8c-0.2-0.8,0.9-2.5,1.9-2.9c6.7-2.6,13.8-6.2,20.9-3c4.1,1.8,7.6,5.7,10.7,9.2
		c5.9,6.7,11.3,13.7,17.9,21.8c0.8-2.9,1.6-4.6,1.8-6.4c0.5-5.7,0.6-11.5,1-17.2c0.4-5.2,4.8-9.6,8.9-8.5c2.1,0.6,4.2,2.1,5.7,3.7
		c12.4,13.5,24.8,26.9,36.8,40.7c4.5,5.1,8.5,11,11.5,17.1c2.7,5.5-0.9,10-7,10.5c-5.5,0.5-11,1.4-16.5,1.9
		c-1.1,0.1-2.4-0.6-3.6-0.9c0.7-1.1,1-2.7,2-3.4c2.9-2,6.1-3.6,9-5.6c3.2-2.1,2.9-4.3,0.4-7.2c-5.5-6.3-10.6-12.9-15.8-19.3
		c-7.1-8.9-14.2-17.8-21-26.2c0.4,13.3,0.8,27.1,1.2,41.5c4.2-2.4,7.3-4.7,10.7-5.8c2.5-0.8,6.2-1.1,8.1,0.2
		c2.8,1.9,3.3,5.9,1.1,8.7c-1.7,2.2-4.5,3.8-7.2,4.7c-2.8,1-5.9,1-9,1.4c3.6,10.3,7.4,19.9,10.2,29.8c1.4,5.1,1.6,10.8,1.3,16.1
		c-0.2,3.2,0.7,5,2.5,7.3c1.2,1.6,1.4,4,2.1,6.1c-2.1,0.5-4.2,1.5-6.2,1.3c-15-1.7-26.6-10.3-38.1-18.9c-2.6-1.9-5.4-3.6-7.7-5.9
		c-1.4-1.4-1.9-3.7-2.8-5.5c2-0.4,4.1-1.5,5.9-1.1c5.1,0.9,10.2,2.4,15.3,3.7c2.9,0.8,3.8,0.5,3.2-3.1
		C220.4,353,219.7,345,218.8,336.6 M227.6,366.2c3.5,2.2,7,4.4,10.5,6.5c0.2-0.3,0.4-0.6,0.6-0.9c-2.8-6.5-5.5-12.9-8.7-20.6
		C227.9,356.8,225.1,360.7,227.6,366.2z"/>
	<path class="st3" d="M912.7,347.4c6,3.4,11.7,6.7,17.7,9.5c4.1,1.9,8.7,2.9,13.2,4.4c1.5-4.3-0.2-5.9-3.6-6.1
		c-4.8-0.2-9.6-0.2-11.6-6.1c-0.4-1.1-2.3-1.9-3.7-2.5c-5-2.1-10-4-15-6.1c-4.5-1.9-6.5-8.7-3.5-12.6c0.7-0.9,3.2-1.4,4.1-0.9
		c3.6,2.3,7,5,10.5,7.6c2.2,1.6,4.3,3.5,6.8,4.8c0.9,0.5,3.5-0.1,3.7-0.7c0.5-1.5,0.6-3.7-0.2-4.9c-0.8-1.2-2.8-1.7-4.4-2.2
		c-2.8-0.8-5.5-1.9-4.2-5.2c0.5-1.3,3.6-1.9,5.6-2.2c1.5-0.3,3.8,1.8,4.3-1.4c0.5-3.2-1.3-4.3-4-4.2c-5,0.1-9.9,0.7-14.9,0.8
		c-1.8,0-3.6-0.5-5.4-0.9c-3.2-0.6-3.3-3.3-2.6-5.5c0.5-1.5,2.2-3.1,3.8-3.8c3.9-1.6,8.3-2.1,12-4.1c2.5-1.4,3.8-4.7,5.9-6.9
		c1-1,3.4-2.1,4.1-1.6c1.2,0.9,2.5,3.3,2,4.4c-1.3,2.9-3,5.8-5.3,8c-2.1,2-5.1,3.1-7.3,5c15-3,24.3-13.4,32.3-26.4
		c3.3,5.9,5.1,10.7,4.2,16.6c-0.5,3.1-2,4.1-4.6,5c-4.6,1.7-9,3.7-13.5,5.5c0,0.6,0,1.3,0.1,1.9c2.8,0.4,5.6,1.5,8.2,1
		c1.6-0.3,2.7-3.1,4.8-5.7c1,0.6,3.5,1.3,4,2.7c2.5,7.3,8.4,6.3,13.5,5.4c6.2-1,12.1-3.3,18.2-4.8c1.4-0.4,3.4-0.6,4.3,0.1
		c0.8,0.6,0.9,2.9,0.4,4.1c-1.3,3.1-2.7,6.4-5,8.7c-1.5,1.5-4.7,2.1-7,1.9c-3.8-0.5-7.4-2-11.2-3c-4.7-1.2-6.4,0-6.4,3.3
		c5.9,1.7,11.6,3.3,17.3,5.1c4.3,1.4,7.5,4,9.5,8.3c1.2,2.6,0,3.9-2,4.6c-1.7,0.6-3.6,0.9-5.4,1c-9.2,0.4-18.3,0.6-27.5,1
		c-1.7,0.1-3.5,0.6-5.2,1c-0.1,0.5-0.2,1-0.3,1.5c2.2,1.1,4.7,1.8,6.6,3.2c2.6,1.9,5.5,3.9,7,6.6c1.8,3.2-0.5,6.4-4.2,6.3
		c-9.1-0.3-18.3-0.4-26.2-6c-2.1-1.5-3.8-1.5-6.2,0.4c-1.8,1.5-4.8,1.8-7.4,2.1c-3.2,0.3-6.4,0.1-9.7,0.1c-0.3,0.4-0.6,0.8-0.9,1.2
		c1.4,1.5,2.6,3.3,4.2,4.4c2.8,1.9,6.1,3.1,8.8,5.2c2.2,1.7,4.3,4.3,1.9,7.2c-2.3,2.9-5.6,3.5-8.7,1.4c-2.2-1.5-3.8-3.6-5.8-5.4
		c-1.6-1.4-3.3-2.8-5-4.1c-2.5-2-4.6-1.8-6.8,0.8c-2,2.4-4.7,4.2-6.5,6.7c-5,6.7-12,6.4-19.1,5.8c-2.4-0.2-4.5-1.3-4.3-4.4
		c0.4-6,0.6-12.1,1.1-18.1c0.1-0.9,1.2-2.4,1.7-2.3c1,0.2,2.2,1,2.8,1.8c1.8,2.5,2.9,5.6,5,7.6c1.2,1.1,4.5,1.2,6.1,0.4
		c2.5-1.3,4.7-3.6,6.1-6c0.5-0.9-1-4.1-2.3-4.9c-2.8-1.7-6.2-2.6-9.3-3.8c-5.2-2-6.9-4.3-6.3-9.8c0.3-3.3,1.3-6.5,2.1-9.9
		c5.1,4,9.9,7.7,14.6,11.5c2.5,2,4.8,4.5,7.5,6.3c1.3,0.8,3.3,0.9,5,0.7c2.8-0.2,5.7-0.9,8.7-1.5c-0.3-3.9-5.5-6.7-1.9-11.6
		C909,345.6,910.7,346.4,912.7,347.4 M956.4,341.6c-0.4,0.1-0.9,0.2-1.3,0.5c-1,0.7-2,1.4-3,2.1c1.2,0.2,2.5,0.8,3.7,0.7
		c2.4-0.2,5-0.2,7.2-1.1c2.5-1,6.5,0.1,7.1-4.6c-2.4-1.2-4.9-2.4-6.7-3.3C961,337.8,959.1,339.5,956.4,341.6 M952.1,337.3
		c1.5-1.1,3.1-2.3,4.6-3.4c-3.1-0.5-5.8,0.6-7.9-0.1c-4.4-1.5-6.2,0.1-7,4C945.2,340.1,948.3,339.6,952.1,337.3 M939.5,320.5
		c-5.5,2.6-0.7,4.5,0.7,6.3c0.6,0.8,2.6,1.4,3.3,1c1.2-0.6,2.3-2.1,2.6-3.4c0.1-0.8-1.3-2.1-2.4-2.8
		C942.7,321,941.3,320.9,939.5,320.5 M940.7,342.2c-1.6,0.3-3.1,0.6-4.7,0.9c0.1,0.4,0.1,0.9,0.2,1.3c2.6,1,5,4,8.5,0.4
		C943.3,343.7,942.3,343.1,940.7,342.2z"/>
	<path class="st1" d="M412.2,238.6c3.4,4.5,5.4,9.4,3.1,14.9c-3,7.5-5.7,15.2-12.8,20c-1.3,0.9-2.8,1.6-4.2,1.8
		c-1.2,0.1-2.8-0.4-3.7-1.2c-0.4-0.4,0.3-2.2,0.8-3.3c3.3-6.7,6.8-13.4,10-20.2c0.7-1.6,0.8-3.6,0.8-5.4c0.1-3.8-2.2-4.8-5.5-4.4
		c-0.3,0-0.6,0.2-0.9,0.3c-11.2,2.8-14.6-0.7-12.1-12c0.7-3.3,1.7-6.5,2.2-10.1c-6,4.2-9,12-17.1,14.7c-1.3-8.9,8.5-9.5,10-16
		c-1.5-0.2-2.9-0.5-3.5-0.6c7.4-12.8,14.8-25.6,22.5-38.9c0.3-0.8,0.4-1.2,0.4-1.6c-0.4,0.2-0.8,0.4-1.2,0.6
		c-10.1,8.8-16.7,20.2-23.2,31.6c-4.8,8.4-9.1,17.2-13.5,25.8c-2,3.9-11.2,6.4-14.3,3.3c-1.3-1.3-2-4.6-1.3-6.2
		c2-4.4,4.5-8.8,7.6-12.5c4.6-5.6,9.9-10.7,14.9-16c3.9-4.1,3.8-6.7-0.5-10.2c-0.6-0.5-1.6-1.1-1.5-1.6c0.2-11.5-7.3-20.6-9.8-31.4
		c-1.1-4.6-3.1-9.1-4.7-13.6c-1.7-4.8-3.6-5.7-8.4-3.7c-1.9,0.8-3.8,1.7-5.9,2.6c-0.1-3.9,4.2-10.4,7.8-11.5
		c7.7-2.4,15.1-1.8,19.3,6.9c1.7,3.6,2.9,7.5,4.3,11.2c0.5,1.4,1.2,2.8,2,4.8c4-2.1,7.5-3.9,11.5-6c-0.2,2.6-0.4,4.8-0.5,7.1
		c0.5,0.2,1.1,0.3,1.6,0.5c2.6-6.9,5.2-13.8,7.6-20.8c0.9-2.6,5.2-5.6,8.9-5.5c3.4,0.1,3,2.7,3.4,5c1.3,7.4-3.4,12.6-6.9,18
		c-5.6,8.7-11.6,17.1-17.6,25.5c-2.4,3.4-3.7,6.7-1.1,11c3.3-3.7,6.3-7.6,9.7-11.1c4.1-4.2,8.2-8.5,12.9-12.1c1.8-1.4,5-1.2,7.5-1.7
		c0.4,2.9,1.9,6.1,1.1,8.5c-3.5,11.1-10.1,20.4-17.7,29.1c-1.1,1.3-2.4,2.5-3.5,3.7c-0.2,0.2-0.1,0.6-0.2,1c0.2,0.1,0.4,0.5,0.6,0.4
		c7-0.8,8.5,0.9,6.6,7.9c-1.6,5.9-3.5,11.7-5.2,17.5c7.8,2.7,10.6,0.6,11-6.9c0.2-5.5,1.1-11.1,2-16.5c0.4-2.4,0.9-5.6,5-4.4
		c4.2,1.3,6.1,4.3,4.6,8c-1.7,4.1-3.7,8.1-5.6,12.2c-0.7,1.5-1.1,3-1.3,5.1c3.9-4.4,8.5-5.5,13.3-2.9c2.4,1.3,4.5,3.3,6.1,5.4
		c0.8,1,1,3.7,0.2,4.5c-1,1.1-3.3,2-4.8,1.6c-3.3-0.7-6.4-2.3-10-3.7c-0.8-0.3-1.2-0.4-1.6-0.4C411.7,237.8,412,238.2,412.2,238.6
		 M379.6,175c1.1-2.4,2.3-4.9,3.6-7.8c-2.9-0.5-5.1-1-8.3-1.5c0.6,3.8,0.9,6.7,1.5,9.6C376.6,175.6,378.2,175.4,379.6,175
		 M384.4,216.5c-0.3,0.1-0.6,0.2-0.9,0.3C383.8,216.8,384.1,216.9,384.4,216.5z"/>
	<path class="st3" d="M572.8,171.2c0.8-1.6,1.3-3,1.9-4.3c-0.3-0.4-0.6-0.7-0.9-1.1c-6.5,3.9-13.6,7.2-19.5,12
		c-7.3,5.9-13.8,6.4-20.5-0.2c-2.1-2.1-1.4-4.7,1.8-6.2c10.3-4.9,20.7-9.7,31.1-14.6c0.4-0.2,0.9-0.2,1.3-0.4
		c12.7-4.9,14-7.2,14.4-20.9c0.2-8,0.8-16.1,2-24c0.3-2.1,3.5-3.8,5.3-5.6c1.9,2.1,4.9,4,5.5,6.5c1.1,4.8,1.1,9.8,1.1,14.8
		c0,4.9-0.5,9.9-0.7,14.6c7.3-0.2,5.7-5.8,5.5-10.5c0.4-0.2,0.8-0.4,1.1-0.6c2.4,2,6,3.6,6.9,6.2c1.4,3.9-1.6,6.9-5.2,8.8
		c-12.7,6.8-18.1,19.2-24.9,30.8c-3.9,6.6-10.3,11.8-15.6,17.6c-1.6,1.8-3.3,3.4-5,5.1c0.4,0.5,0.8,1,1.3,1.5c1.9-1.4,4-2.6,5.6-4.4
		c8-9.1,17.8-15.5,28.6-20.7c2-0.9,4.3-1.1,7.5-1.8c-1.8,13.2-12.4,19.9-18,30.7c3.8-1.4,6.7-2.3,9.5-3.6c4.3-1.9,11.4,0.3,13.2,4.5
		c0.4,0.9-0.2,3-1,3.6c-8.7,7.1-18.1,12.6-30,11.3c-4.1-0.5-5.7-4.4-3.2-9.6c2.8-5.8,6.2-11.3,9.4-16.9c0.7-1.2,1.4-2.5,2.2-3.7
		c-0.3-0.3-0.6-0.6-1-0.9c-4,3.2-7.6,7-12,9.6c-6.1,3.5-7.9,8.4-6.9,14.9c0.2,1.4,0.4,3.1-0.2,4.1c-1.1,1.7-2.8,3.7-4.5,4
		c-1.3,0.3-3.8-1.4-4.5-2.9c-1.4-2.8-2-6.1-2.8-9.2c-0.2-0.6,0.2-1.4-0.1-1.9c-4.5-8.1,2.6-11.8,6.3-16.8
		C562.7,184.5,567.7,178,572.8,171.2 M584.2,188.3c0.2,0.2,0.3,0.4,0.5,0.6C584.7,188.6,584.7,188.3,584.2,188.3z"/>
	<path class="st1" d="M264.6,923.2c-10.7,4.7-21.5,9.2-32.1,14.4c-3.7,1.8-6,1.8-8-1.9c5.8-12.5,11.6-25.2,17.4-37.8
		c-0.5-0.3-0.9-0.5-1.4-0.8c-7.8,10.2-21.6,14.5-26.6,27.1c-3.5-3.5-7.5-7.6-12-12.2c8.2,3.4,11.4-3.9,16-7.3
		c9-6.8,17.4-14.3,25.8-21.9c2.2-2,3.2-5.2,5.3-8.7c0.9,0.8,2.9,2.3,4.6,4c8.4,8.6,7.8,5.4,2.7,16.2c-4.1,8.8-8.1,17.6-12.6,27.4
		c4-1.7,7.3-2.9,10.4-4.3c7-3.3,14-6.6,20.9-10c3.7-1.9,6.7-2.2,9.7,1.6c2.3,3,5.4,5.4,8,8.5c-9.2-0.4-11.5,7.7-16,12.4
		c-6.9,7.2-13,15.3-19.5,22.9c-3.8,4.4-4.2,5-3.2,10.3c-3.1-0.2-9.3-5.7-15.1-13.2c10.8-1.4,13.2-12.1,20-17.9c2.4-2,4-5,6.4-7.9
		c0.5-0.7,0.5-1,0.6-1.4C265.5,922.8,265.1,923,264.6,923.2z"/>
	<path class="st1" d="M782.2,218.2c2.8,0.4,5.8,1.3,8.5,0.9c3-0.4,5.7-2.1,9.1-3.6c1.7-1.7,2.8-3.1,3.9-4.5c0.2,0,0.4-0.1,1,0
		c0.5,0.3,0.6,0.4,0.8,0.5c0.8,1.3,1.7,2.6,2.4,3.9c3.8,7-0.6,13.5-7.9,12.4c-7.3-1.1-14.7-1.3-22-1.9c-3.6-0.3-7.2-0.4-8.9,4.5
		c1.2,2.4,2.3,4,3.5,5.7c0.7,2.4,1.2,4.9,2,7.3c1.2,3.5,2.7,6.9,4.5,10.7c1.6,1.1,2.8,1.8,4,2.6c2.7,1.7,7.7,0.4,7.1,6.3
		c-1,1-1.7,1.5-2.5,2c-3.8,1.3-7.6,2.6-12,3.8c-2.7-0.4-4.8-0.5-6.8-0.7c-5-1.5-3.2-6.3-4.5-9.6c-0.4-1.1,0-2.5,0.3-4.3
		c2.6-2.6,2.5-4.7,0.5-6.8c0.4-4.1,0.8-8.3,1.3-13.9c-2.7,1.9-4.5,2.9-6,4.2c-9,7.5-19.2,11.8-31,11.6c-7.4-0.1-12.9-5.9-13.1-14.3
		c7.3,2.2,14.2,5.9,22.1,3.3c7.5-2.4,13.8-5.9,18.9-12.3c-7.7,0-14.5-0.6-21.2,0.2c-4.2,0.5-7.6,0.2-9.7-3.3
		c-0.9-1.4-0.6-4.7,0.5-5.9c2.7-2.9,6.6-6.1,10.6-3.8c9.1,5.4,18.5,3.5,27.8,2.1c2.3-0.3,4.3-2.2,7-3.6c1-1.1,1.5-2,2-2.9
		c3.4-5.1,6.8-10.2,10.7-15.7c3.6-1.4,5.3-3.3,4.3-6.8c1.2-2.3,2.5-4.6,4-7.4c0.4-0.7,0.6-0.9,0.8-1.2c1-2.6,2-5.2,3.5-9
		c1.7,2.3,2.9,3.9,4.1,6.1c0.4,1,0.7,1.5,1,2c3.2,3.8,2.9,7.8,0,12.2c-1,1.2-1.5,2-1.9,2.9c-2.4,3.2-4.6,6.5-7.3,9.5
		c-3.1,3.5-6.6,6.8-10.5,10.3c-1.4,1-2.2,1.9-2.9,2.8c0,0.4,0,0.7,0,1.6C781.1,217.2,781.6,217.7,782.2,218.2z"/>
	<path class="st1" d="M835.3,956.4c-4.7-6.9-9.3-13.8-14.2-20.5c-0.7-1-2.6-1.3-4-1.8c-1-0.3-2-0.4-4.3-0.8
		c5.8-4,10.5-7.2,15.2-10.4c0.4,0.2,0.8,0.3,1.2,0.5c-2.7,5.5,1.1,8.9,3.6,12.5c7.7,11,15.4,22,23.4,32.7c1.5,2.1,4.6,3,7.3,4.8
		c-4.4,3.1-9.2,6.5-14.1,9.9c-0.4-3.1-0.4-5.8-1.1-8.2c-1.8-5.6-7.3-4.5-11.3-5.5c-11.1-2.6-22.3-4.6-33.5-6.8
		c-0.4-0.1-0.8,0.2-1.8,0.5c5.6,8,11,15.8,16.4,23.6c0.6,0.9,1.3,1.7,1.8,2.6c2.2,3.6,4.6,7.1,10.1,6c0,0.4,0,0.8,0,1.3
		c-4.7,3.3-9.5,6.7-14.9,10.5c2.5-11-6.4-16-10.4-23.1c-4.1-7.2-9.6-13.6-14.4-20.4c-3.7-5.3-4.5-5.8-10.4-5.2
		c1.4-4.4,9.7-9.9,13.9-9c12.1,2.3,24.2,4.8,36.3,7.1c1.2,0.2,2.5,0.3,4.2,0.7c0.9,0.3,1.3,0.3,1.6,0.4
		C835.8,957.3,835.6,956.9,835.3,956.4z"/>
	<path class="st1" d="M138.6,722.9c6.1-1.5,11.9-2.5,17.4-4.3c2.4-0.8,4.3-3.3,6.9-5.5c1.4,5.5,2.8,10.9,4.1,16.2
		c-0.5,0.3-0.9,0.6-1,0.5c-4.6-4-9.4-1.9-14.3-0.7c-11.5,2.9-23.1,5.5-34.5,8.7c-3.4,0.9-6.4,3.2-10.1,5.2
		c-1.1-4.4-2.5-9.7-4.2-16.2c2,1.1,2.8,1.5,3.7,2c3.9,2.1,7.5,1.3,10-2.5c7.4-11.7,14.8-23.4,22.8-36.2c-5.9,1.4-11,2.6-16.1,3.8
		c-4.2,1-8.3,2.2-12.5,3.2c-5,1.2-10.6,1.2-13.3,7.5c-1.4-5.8-2.9-11.5-4.6-18.4c9.3,7.3,17.1,0.7,24.9-0.5c8.6-1.3,17-4.2,25.6-6.2
		c4.3-1,7.5-2.9,7.3-8.2c0.4,0,0.8-0.1,1.1-0.2c0.6,1.4,1.1,2.9,1.8,4.3c3.7,7.4,1.3,13.5-3.2,19.8c-6.5,9.2-12.2,19-18.9,29.5
		C134.4,724,136.3,723.6,138.6,722.9z"/>
	<path class="st2" d="M119.4,657.1c7.9-0.7,15.8-1,23.6-2.2c2.3-0.3,4.2-2.7,6.9-4.5c0.7,5.9,1.3,11.7,1.9,17.1
		c-3.6-1-7.1-3-10.5-2.8c-11.9,0.7-23.7,2.3-35.5,3.5c-0.3,0-0.6,0.1-0.9,0.1c-5.3-0.2-10.8-0.8-13.2,6.6c-0.4-0.4-0.8-0.8-1.2-1.2
		c-0.5-5.7-0.9-11.3-1.4-17.7c1.5,0.6,2.2,0.7,2.5,1.1c3.7,3.7,6.5,4.1,10.1,0.2c7.9-8.5,15.4-17.3,23.1-26.1c1.8-2,3.4-4.2,5.6-6.8
		c-12.9,1.3-25.2,2.3-37.4,3.9c-2,0.2-3.7,2.7-6.2,4.6c-0.7-6.1-1.4-11.8-2.2-18.9c8,8.4,16.3,3.2,24.2,3c8-0.3,16-1.5,24.1-1.9
		c5.2-0.3,10-0.7,11.4-7c0.1-0.2,0.8-0.3,1.8-0.6c0.5,7.7,3.4,15-3.6,21.8c-8,7.7-14.9,16.5-22.3,24.9c-0.5,0.6-0.7,1.3-1.5,2.4
		c-0.5,0.7-0.5,1.1-0.6,1.4C118.6,657.5,119,657.3,119.4,657.1z"/>
	<path class="st1" d="M385.5,1002.9c0.8-1.8,1.5-3.5,2.8-5.6c1-1.5,1.4-2.6,1.9-3.8c0.9-3.7,1.7-7.4,2.6-11.6
		c0.4-1.1,0.9-1.7,1.3-2.2c4.2,2.1,8.3,4.1,12.7,6.6c-0.1,0.8-0.3,1.3-0.5,1.8c-3.4,1-5.1,3.4-6.6,6.5c-6,12.6-12.4,25.1-18.2,37.8
		c-1.1,2.4-0.6,5.6-0.9,9.3c-4.9-2.3-10.3-4.8-15.1-7c2.7-2.4,5.8-3.9,6.7-6.3c1-2.7,0.3-6.2-0.5-9.1c-3-10.7-6.4-21.2-9.7-31.8
		c-0.4-1.4-1.1-2.8-2.1-5.1c-4.8,10-9.2,19.2-13.6,28.3c-1.9,3.9-5.1,7.6-1.4,12.4c-0.4,0.2-0.7,0.4-1,0.6
		c-5.1-2.4-10.2-4.8-15.4-7.3c0.2-0.7,0.3-1.5,0.5-1.5c5.8-0.2,6.9-5,8.8-8.9c5.2-10.4,10.7-20.7,15.5-31.2
		c3.8-8.3,3.8-6.5-0.7-14.1c1.6,0.1,2.7,0,3.6,0.4c7.3,2.7,12.6,6.8,14.5,15.3c2.4,10.8,6.3,21.3,9.6,31.9c0.2,0.5,0.7,0.9,1.4,1.7
		c0.9-1.7,1.7-3.2,2.9-4.9C385.1,1004,385.3,1003.5,385.5,1002.9z"/>
	<path class="st1" d="M969.4,820.4c2.7,1.6,5,3.5,7.6,4.2c2.5,0.7,5.3,0.2,8.7,0.2c-3,5.9-6,12-9,18c-1.1-8.5-8.9-8.8-13.8-11.7
		c-9.9-6-20.4-11-30.9-16c-2.5-1.2-5.8-0.6-9.3-0.9c0.1-0.3,0.2-1.4,0.7-2.3c3.2-6.4,6.1-12.9,9.6-19.1c3.7-6.6,8.6-12.2,16.1-14.8
		c9.8-3.4,19.5,3.5,19.7,13.9c0.1,2.6,0,5.3,0,7.8c7.1,2,15.3,0.1,33.7-7.8c-2.4,4.9-4.5,8.8-6.2,12.8c-2.3,5.2-6.9,4-11.1,4.3
		c-5.8,0.5-11.7,1.1-17.5,1.5c-3.8,0.2-5.2,2.5-5.9,6.2C964.2,817.8,966.6,819,969.4,820.4 M945.7,808c2.8,1.6,5.5,3.2,9.2,5.3
		c1.9-5.3,4.4-9.9,5-14.7c0.3-2.5-2.2-6.2-4.5-7.8c-1.9-1.4-5.9-1.8-8.1-0.7c-5.4,2.5-8.9,7.3-11,13.2
		C939.3,804.9,942.1,806.4,945.7,808z"/>
	<path class="st1" d="M144.6,828.7c-0.3-0.1-0.5-0.2-0.8-1c-0.8-1.6-1.4-2.7-2-3.7c-0.5-0.8-1.1-1.5-1.6-2.8
		c-0.7-1.6-1.4-2.7-2.1-3.8c-1-1.4-1.9-2.8-2.9-4.1c8.9,2.6,14.1-4,20.1-7.1c9.6-4.9,18.8-10.6,28.7-16c1.4-1,2.1-2,2.9-2.9
		c0,0,0.1-0.4,0.5-0.6c1.4-0.2,2.4-0.2,3.4-0.2c0.6,1,1.2,2.1,1.7,3.7c0.9,1.7,1.8,2.8,2.7,3.8c2.9,6,5.7,12,8.6,18.6
		c0.2,1.7,0.5,2.8,0.8,3.9c-0.4,3.9-0.7,7.8-1.7,12c-3,0.7-4.5,1.7-3,4.3c-9.1,6.3-17.2,3.5-25.6-3.7c-3.9,9.4-7.5,18.2-11.2,27.2
		c-6-1.2-9.6-8-6.6-13.8c3.4-6.4,6.8-12.8,10.4-19c2.1-3.5,0.6-6.1-1.6-9.1c-5.5,3.2-10.9,6.3-16.3,9.7c-1.1,0.7-1.6,2.5-2.8,4.1
		C145.5,828.6,145,828.6,144.6,828.7 M192.7,803c1.4-2.7,0-2.9-2.8-2.4c-4.6,2.5-9.2,4.9-13.6,7.6c-1.4,0.8-3.3,2.7-3.1,3.8
		c0.6,6.1,9.1,12.8,16.1,13c1.4-1,2.8-2,4.3-3.4c0.2-0.2,0.4-0.4,1.3-0.7c4.8-3.2,5-5.3,0.5-8.9C194.4,809.1,193.4,806.2,192.7,803z
		"/>
	<path class="st1" d="M969.7,770.3c-0.7,0-1.4,0.1-2.6-0.1c-1.4-0.3-2.2-0.5-3-0.6c-4.9-1.2-9.8-7-10.2-12.4
		c-0.7-9.6,0.6-18.9,6.5-26.9c2.3-3.2,3.5-6.2-0.1-10.8c8,2.5,14.3,4.4,20.7,6.4c0,0.4,0.1,0.8,0.2,1.3c-1,0.3-2.1,0.7-3.6,0.9
		c-1.3,0.3-2.2,0.8-3,1.2c-5.5,3.9-9.6,9-12.4,15.7c-0.4,1.3-0.5,2.2-0.7,3c0.3,2.2,0.5,4.4,0.8,7.3c1,1.4,1.9,2.2,2.9,3
		c5.3,0.7,8.1-2.8,11.1-6.3c5.2-6.2,10.1-12.8,16.1-18.3c4.2-3.8,10.1-5,15.6-2.1c5.9,3.1,8.2,8.7,8.7,15c0.8,9.7-2.8,18.3-7.4,26.4
		c-1.9,3.3-3.9,6.2-0.6,10c-0.3,0.2-0.6,0.5-0.9,0.7c-6.5-2-12.9-4.1-19.3-6.2c0-0.5,0-0.9,0-1.4c8.9-2.4,14.3-8.5,17.6-16.4
		c1.5-3.4,2-7.5,2-11.2c0-1.8-1.8-4.6-3.4-5.3c-1.6-0.7-4.9,0-6.1,1.3c-3.7,3.7-6.6,8.1-10,12.1c-4.3,5.1-7.8,11.3-15.7,13
		C971.3,769.8,970.5,770.1,969.7,770.3z"/>
	<path class="st1" d="M768.1,1030c-10.4,3.4-21.3-1-26.2-10.9c-3.9-7.9-7.5-15.9-11.3-24.4c-0.4-1-0.7-1.5-1-2
		c-2.4-2.1-4.8-4.2-7.7-6.8c2.1-1,4.6-2.3,7.8-3.5c2.3-1,4-1.9,5.7-2.9c1.2-0.7,2.5-1.3,3.7-2c0.3,0.2,0.7,0.5,1,0.7
		c-0.6,1.8-1.2,3.6-1.8,5.9c0.3,1,0.7,1.5,1,2c3.8,7.7,7.7,15.4,11.4,23.2c3.3,6.8,6.7,13.4,15.8,13.4c10.4,0,17.3-11,12.7-20.3
		c-4-8.2-8.2-16.3-12.3-24.5c-3.1-6.2-3.1-6.2-9.4-9.3c6.5-3.2,12.3-6.2,18.2-9.1c0.3,0.2,0.6,0.5,0.9,0.7c-3.1,5-0.2,9.1,1.8,13.2
		c3.1,6.4,5.9,13,9.6,19.1c8.8,14.6,1.1,29.9-13.1,34.8C772.2,1028.2,770.1,1029.1,768.1,1030z"/>
	<path class="st1" d="M669.6,1061.8c-1.3-3.2-2.5-6.3-4.2-8.9c-0.6-0.9-2.8-1.2-4.2-1c-4.4,0.7-8.8,1.5-13.1,2.8
		c-1.5,0.5-3.3,2.6-3.5,4.1c-0.4,3.7-1.9,8.2,3.9,10.1c-0.2,0.4-0.3,0.8-0.5,1.2c-6.7,1.3-13.4,2.6-20.1,3.8c-0.4-0.5-0.8-1-1.2-1.5
		c8-3.2,6.2-10.3,7.1-16c1.9-12.5,3.3-25.1,4.7-37.6c0.3-2.9,1.6-6.5-3.3-8.6c5.2-1.3,9.5-2.4,13.8-3.3c2.6-0.6,4.1,0.7,5.5,3.1
		c8.4,15.3,16.8,30.5,25.6,45.6c1.4,2.4,4.5,3.8,7.7,6.4c-6.8,1.4-13.1,2.7-19.5,4.1c-0.2-0.4-0.5-0.7-0.7-1.1
		C668.3,1064,668.9,1063.1,669.6,1061.8 M655.5,1034.5c-2-3.6-4.1-7.2-6.7-11.9c-0.7,5-1.2,8.5-1.5,12c-0.3,3.6-0.5,7.3-0.7,11.6
		c4.6-0.9,8.9-1.7,13.8-2.6C658.6,1040.5,657.2,1037.8,655.5,1034.5z"/>
	<path class="st3" d="M325.5,940.2c11.6,8.3,16.4,22.9,11.4,37.5c-3.6,10.5-13.8,17.7-25.1,18.9c-13.9,1.4-24.2-3.9-31.5-15.1
		c-6.3-9.8-6.8-20.8-1.5-31c5.4-10.4,14.4-16,26.6-16C312.8,934.5,319.4,935.6,325.5,940.2 M320.2,945c-7.8-4.7-15.5-4.1-22.5,1.3
		c-5.5,4.2-9.5,9.8-11.6,16.5c-3.2,10.3,2.4,21.7,12.4,25.1c6.9,2.4,12.9,0.2,18.7-3.7c8.5-5.8,14.9-18.7,11.9-27.1
		C327.6,952.7,323.7,949.2,320.2,945z"/>
	<path class="st1" d="M495.2,1072.4c-13.2-0.5-25.5-11.4-28-24.2c-4.3-21.4,12.9-38.7,32.2-37.6c13.9,0.8,23.9,7.9,28.8,21.1
		c4.2,11.4,1.8,22.2-6.1,31C515.3,1070.3,506.2,1073.9,495.2,1072.4 M482.6,1058.3c6.2,7.5,14.5,9.8,22.2,6
		c12.5-6.2,17.6-23.1,11.3-36.4c-5.7-12.1-22.8-14.9-32-3.4C477.3,1032.9,474.7,1046.4,482.6,1058.3z"/>
	<path class="st2" d="M913.2,853.2c2.2,1.5,4.2,2.7,6.7,4.4c3.8-6.4,11.3-10.8,9.5-21.3c4.6,3.2,8.5,5.9,13.5,9.4
		c-10.7,1.5-11.2,11.1-17.2,16c6.7,4.8,13.1,9.3,19.6,14c4.8-6.7,9.8-13,13.8-19.9c1.2-2.1-0.1-5.8-0.3-9.6
		c3.5,2.3,7.3,4.8,11.2,7.3c-9.6,13.7-18.9,26.8-28.1,40c-0.4,0.1-0.9,0.2-1.3,0.3c1.7-8.2-5.1-9.7-9.3-12.8
		c-9.5-7.1-19.5-13.6-29.2-20.5c-3-2.1-5.7-4.5-9.8-0.5c-0.1-0.5-0.2-1.1-0.3-1.6c0.5-1.2,0.8-2.4,1.5-3.5c8-11.4,16-22.7,23.9-34.1
		c1.3-1.9,2.7-2.3,4.5-0.9c2.8,2.1,5.6,4.1,8.4,6.1c-0.7,0.8-1,1.3-1.1,1.3c-5.9-1.7-8.9,1.6-11.7,6.1c-3.2,5.1-6.9,9.8-10.6,15
		C908.9,849.9,911,851.4,913.2,853.2z"/>
	<path class="st2" d="M166.2,736.6c0.4-1.4,0.8-2.4,1.2-3.5c0.4,0,0.7,0,1.1,0c4.2,10.3,8.4,20.7,12.7,31c1.5,3.6,3.1,7,4.6,10.6
		c1,2.3,0.6,4.1-2.1,5c-3.1,1-6.2,2.1-9.9,2.2c0.4-0.7,0.6-1.5,1.2-2c2.3-2.1,3-4.4,1.7-7.5c-3-6.9-5.7-14-8.7-21.3
		c-4.2,1.7-8.3,3.2-12.1,5.1c-0.9,0.5-2,2.5-1.7,3.3c1.6,4.5,3.3,8.9,5.5,13.2c0.8,1.6,3,2.4,5.5,4.4c-4.7,2-8.8,3.7-14.1,6
		c4.1-9.5-2.4-15.4-4.6-23.1c-7.6,3.1-14.7,6-22.2,9.1c3,7.3,5.6,14.7,9.1,21.5c1.2,2.3,4.8,3.5,7.9,5.5c-2.4,3.3-7.6,3.2-11.8,5.4
		c-6-15.1-11.8-29.5-17.6-43.9c-0.2-0.4,0.1-0.9,0.2-1.8c8,4.9,13.9-1.5,20.4-3.7c9.9-3.4,19.5-7.6,29.2-11.7
		C163.5,739.6,164.7,738,166.2,736.6z"/>
	<path class="st1" d="M422.7,996.6c8-2.2,15.5-1.2,22.6,1.8c8.2,3.3,13.9,9.4,17.5,18.2c-4.3,1.9-8.2,3.6-12.2,5.4
		c-0.4-0.2-0.7-0.4-1-0.6c3.3-5.7,2-10.3-2.8-13.7c-6.8-4.7-14.2-6.5-22.2-2.6c-6.9,3.3-14.6,15.2-13.6,22.9
		c1.2,9.8,6.4,18.8,17,21.4c3.4,0.8,7.5,0.4,10.9-0.6c6.1-1.7,7.9-8.6,1.2-12.9c-0.5-0.3-1.1-0.6-3.1-1.8c2.2-0.6,3.5-1.5,4.5-1.2
		c4.2,1.1,8.2,2.6,12.4,3.7c2.6,0.7,3.2,2.1,2.6,4.4c-0.9,3.2-1.2,7.1-3.1,9.6c-2.2,3-5.7,6.6-9.1,7.1c-17.5,2.6-35-1.9-42.7-22.1
		C395.5,1019.3,404.1,1002.7,422.7,996.6z"/>
	<path class="st3" d="M858.8,894c2.2-2.3,4.1-4.3,6-6.3c-0.8,6.6,4.3,7.5,8.1,9.3c7.5,3.5,15.2,6.7,23.6,9.2
		c-3.4-6.3-6.8-12.6-10.2-18.8c-0.5-1-1.2-1.8-1.7-2.8c-2-3.9-3.3-8.5-9.8-8c4.7-5.1,9.3-10.2,14-15.3c0.8,0.6,1.2,0.9,1.2,1
		c-3,7.4,1.7,13,4.7,18.8c5.6,10.8,11.6,21.5,17.4,32.2c1.1,2,2.7,3.9,3.3,6c0.4,1.6-0.2,3.8-1.1,5.2c-0.6,0.8-3,0.9-4.2,0.4
		c-15.9-6.9-31.6-14.1-47.6-20.7c-3.3-1.4-7.5-0.7-11.8-1C851.9,899.5,856,897.4,858.8,894z"/>
	<path class="st1" d="M995.9,588.6c7,3.5,13.6,6.8,20.3,10.2c6.5,3.3,13.4,2.1,20.2,1.7c1.8-0.1,3.5-2.8,6.4-5.3
		c-0.4,7.9-0.8,14.5-1.2,20.9c-9.2-6.6-18.7-5-27.9-1.4c-8.3,3.2-16.4,7.2-24.4,11.2c-3.1,1.6-5.6,4.2-8.7,6.7c0-6.3,0-12.6,0-17.6
		c3.6-0.7,6.5-0.8,9-1.7c5.3-2,10.5-4.4,15.9-6.7c-8.1-6.5-19.3-10.6-24.2-8.5c0-6.6,0-12.9,0-18.9
		C986.1,582.2,990.8,585.3,995.9,588.6z"/>
	<path class="st1" d="M984.7,651.3c-0.8,4.5,1.2,5.5,5,5.9c9.6,1.1,19.2,2.7,28.8,4.2c4.4,0.7,8.8,1.8,13.2,2c1.8,0.1,3.8-2,6.9-3.8
		c-1.1,7.5-2,14.2-3,20.8c-0.4,0.1-0.9,0.1-1.4,0.2c-1.5-4.5-4.8-5.3-8.9-5.8c-13.4-1.7-26.8-4.1-40.2-6.2c-0.9-0.1-1.8,0-3,0
		c-0.1,6.6-5,13.6,3.8,18.5c-0.3,0.3-0.5,0.7-0.8,1c-3.7-0.4-7.4-0.6-11-1.4c-0.8-0.2-1.6-2.6-1.5-3.8c2-14,4.2-28,6.4-42
		c0.2-1.5,0.8-2.9,1.4-4.7c4.2,0.5,8.2,1,12.3,1.5c0.3,0.3,0.7,0.7,1.1,1C987.1,640.4,984.9,645,984.7,651.3z"/>
	<path class="st1" d="M584.7,1076.5c-15.7,0.3-31.2,0.3-47.2,0.3c6.8-8.7,2.8-18.6,3.6-27.8c0.6-6.3,0.2-12.8,0.1-19.2
		c0-4.5,1.3-9.5-3.4-13.2c6.2,0,12.5,0,19.5,0c-6.5,6.5-3.5,14.4-3.8,21.7c-0.4,10.6-0.1,21.1-0.1,32.2c8.3,0,16,0.2,23.8-0.2
		c1.6-0.1,3.2-2,4.5-3.3c0.9-0.8,1.3-2.1,1.9-3.2c0.5,0.1,0.9,0.2,1.3,0.2C585,1068.1,585,1072.1,584.7,1076.5z"/>
	<path class="st2" d="M857.4,943.6c-6.5-7.5-12.6-14.8-19.2-21.8c-1.4-1.5-4.4-1.5-7.6-2.5c5.4-4.7,10.3-8.9,16-13.8
		c-0.1,11.4,9,15.9,14.3,22.8c5.1,6.6,10.6,12.8,16.3,18.9c2,2.1,5.1,3.3,8.6,5.4c-3.7,4.3-8.8,8.5-14.5,13.1
		C871.4,954.8,863,950.4,857.4,943.6z"/>
	<path class="st1" d="M1026.4,722.7c-1,0.3-1.9,0.6-2.5,0.2c-2.1-1.2-4-3.4-6.2-4c-13.7-3.7-27.4-7.2-41.2-10.3
		c-3-0.7-6.5,0.6-10.2,1c1.6-6.1,3.3-12.5,4.9-19c0.5-0.1,0.9-0.3,1.3-0.4c1.6,5.9,6.5,6.1,10.9,7.2c11.2,2.7,22.4,5.5,33.6,8.4
		c4.4,1.2,8.8,3.2,12.8-1.5c0.3,0.3,0.6,0.6,0.8,0.9C1029.3,711,1027.9,716.7,1026.4,722.7z"/>
	<path class="st1" d="M608,1019.6c1.1,14,2.2,27.8,3.6,41.4c0.5,4.4,0,9.6,5.5,12c0,0.4-0.1,0.9-0.1,1.3c-6.6,0.7-13.2,1.4-19.8,2.1
		c-0.3-0.3-0.6-0.6-0.9-0.8c7.9-6.6,2.7-14.7,2.8-22c0.1-8.3-1.9-16.6-2.3-24.9c-0.2-5-0.5-9.5-5-13.5c6.4-0.7,12.9-1.3,20.3-2.1
		C610.3,1015.7,609.2,1017.4,608,1019.6z"/>
	<path class="st1" d="M147.5,599.4c-0.1,2.6-0.1,4.6-3,2c-1.3-1.2-3.1-2.3-4.8-2.4c-15.6-0.5-31.1-0.9-46.7-0.9
		c-2.2,0-4.5,2-7.1,3.3c0-6.4,0-12.7,0-18.4c17.6,5.9,35.8,3.1,53.8,3.5c2.2,0.1,4.5-2.1,7.8-3.7
		C147.5,588.4,147.5,593.7,147.5,599.4z"/>
	<path class="st2" d="M556,964.1c-4.7,11.4-13.6,13.8-26.6,12.1c0-2.2,0-4.4,0-7.1c5.1,1,10.2,3.3,14.7-0.5c1.9-1.6,3.2-3.8,5.8-6.8
		c-3.8,0-6.1,0-8.4,0c-7.7,0-12.8-4.5-13.3-11.2c-0.9-9.9,5.5-14.1,11.8-15.3c10.3-1.9,19.5,7.8,18.2,16.8
		C557.5,956,556.8,959.9,556,964.1 M538.9,942.1c-3.6,3.6-2.8,7.8-0.9,11.6c0.8,1.6,3.7,3.1,5.6,3.1c1.6,0,4.1-2.1,4.6-3.7
		c0.8-2.5,0.7-5.6,0-8.2C547,940.8,543.5,939.7,538.9,942.1z"/>
	<path class="st1" d="M575.4,976.5c-6,0.4-11.1-0.8-15.4-4.9c1.1-3.2,2.6-3.6,5.5-2c4.9,2.7,9.4,2.2,12.4-1c2.4-2.5,3-5.4,1.8-8.9
		c-1.4-3.9-4.6-4.8-7.9-5.3c-2.3-0.4-4.9,0.3-7.7,0.5c0-6.3,0-12.5,0-19.1c7.3,0,14.4,0,21.8,0c0,2.7,0,5.2,0,6.6
		c-5.3-0.6-10.5-1.2-16.2-1.8c0,3.4,0,6,0,7.8c4.3,0.9,8.7,1.1,12.5,2.6c5.2,2.1,7.5,7.5,6.8,13.5c-0.7,5.1-5.4,10-11,11.3
		C577.3,976,576.5,976.2,575.4,976.5z"/>
	<path class="st1" d="M598.8,941.1c-2.7,0.7-4.9,1.4-7.5,2.2c0-2.2,0-4.7,0-7.5c9.1,0,18.1,0,27.8,0c-0.4,1.9-0.5,3.7-1.1,5.3
		c-3.4,10.4-7,20.7-10.4,31c-0.8,2.4-1.7,4.1-4.8,3.7c-2.6-0.3-5.2-0.1-8.9-0.1c5.6-11.8,10.8-22.9,16.3-34.7
		C606.2,941.1,602.7,941.1,598.8,941.1z"/>
	<path class="st1" d="M897.2,310.2c2.2,0.3,3.9,0.7,5.6,1c0.2,5.4-2.2,7-6.8,6.6c-2-0.2-4.1,0.8-6.1,1.2c0,0.4,0,0.9,0,1.3
		c1.9,1.1,3.8,2.2,6.9,4c-3,1.1-4.7,2.1-6.6,2.5c-3.5,0.9-7.3,1.1-10.7,2.2c-3.8,1.2-7,1.2-9.6-2.1c-2.8-3.6-1.1-7.2,0.6-10.4
		c3.6-6.6,7.6-8.2,15.2-7.2C889.4,309.8,893.1,309.9,897.2,310.2z"/>
	<path class="st1" d="M513.8,938.8c2.1-4.6,5.7-3.2,9.7-3c0,10-0.1,20,0.1,29.9c0.1,3.2,0.9,6.4,1.5,9.8c-3.5,0-7.9,0-11.5,0
		c0.5-2.7,1.4-5.2,1.5-7.7c0.2-7.5,0.1-14.9,0.1-22.2c-0.6-0.2-0.9-0.4-1.2-0.3c-1.7,0.1-3.3,0.2-4.9,0.4c0.8-1.7,1.5-3.4,2.5-4.9
		C511.8,939.9,512.8,939.6,513.8,938.8z"/>
	<path class="st3" d="M395.8,258.7c-8.1-1.7-11.1,3-9.5,14.3c-6.4,1.5-9.3-0.1-11.8-6.6c6.7-1.7,9.9-6.2,11.3-12.9
		c1-4.5,5.5-4.4,9.2-4.2c3.7,0.3,5.9,2.6,6.5,6.2C402,259,400.4,259.9,395.8,258.7z"/>
	<path class="st2" d="M357.1,184.3c1.8-1.6,3.4-3,5-4.6c1.2,4.1,2.2,7.6,3.5,11.9c-2.9,1.5-6.6,4.2-11.3,2.4
		c-1.4-0.5-3.2-2.4-3.1-3.5c0.1-1.6,1.6-3.2,2.8-4.6C354.6,185.2,355.8,184.9,357.1,184.3z"/>
	<path class="st2" d="M650.7,947.9c-2.8,3.7-6.1,4-9.3,1.7c-2.5-1.8-3.5-4.4-1.7-7.7c2-3.6,5.4-3.2,8.1-2.4c1.4,0.4,2.2,3.3,3.1,5.2
		C651.2,945.6,650.9,946.6,650.7,947.9z"/>
	<path class="st4" d="M479.8,939.3c6.9,0,10.5,2.9,8.5,7c-1,2.1-3.8,4.1-6,4.6c-1.5,0.3-4.8-1.7-5.2-3.3
		C476.2,944.9,475.2,941.1,479.8,939.3z"/>
	<path class="st1" d="M789.3,186.5c1.3,3.4-0.4,5.2-3.8,6.4C786.5,190.9,787.7,188.8,789.3,186.5z"/>
	<path class="st1" d="M764.9,247.6c2.2,1.9,2.3,4-0.2,6.2C764.6,251.9,764.6,249.9,764.9,247.6z"/>
	<path class="st1" d="M768.5,1030.1c1.7-0.9,3.7-1.9,6-2.7C772.8,1028.3,770.8,1029.2,768.5,1030.1z"/>
	<path class="st1" d="M769.2,268.3c1.9-0.1,3.9,0.1,6.2,0.5C773.6,268.9,771.5,268.7,769.2,268.3z"/>
	<path class="st1" d="M200.1,832.6c-1.7-2.5-0.3-3.5,2.5-3.9C202,829.9,201.2,831.2,200.1,832.6z"/>
	<path class="st1" d="M772.7,235.8c-1.2-1.4-2.4-3-3.6-5.1C770.3,232.1,771.5,233.8,772.7,235.8z"/>
	<path class="st1" d="M190.7,786.1c-0.9,0.3-1.9,0.4-3.3,0.4c-0.4-1.1-0.4-2.3-0.4-5C188.9,783.6,189.8,784.7,190.7,786.1z"/>
	<path class="st1" d="M195.1,793.6c-0.9-0.8-1.8-1.9-2.6-3.2C193.4,791.2,194.2,792.3,195.1,793.6z"/>
	<path class="st1" d="M803.4,210.9c-0.8,1.5-1.9,2.9-3.2,4.4C801,213.9,802,212.4,803.4,210.9z"/>
	<path class="st1" d="M735,979.5c-1.3,0.9-3,1.8-5,2.8C731.3,981.4,732.9,980.5,735,979.5z"/>
	<path class="st1" d="M138.1,817.7c0.6,0.8,1.3,1.9,1.9,3.2C139.3,820.1,138.7,819.1,138.1,817.7z"/>
	<path class="st1" d="M186.6,787.4c-0.5,0.8-1.3,1.8-2.3,2.7C184.8,789.2,185.6,788.4,186.6,787.4z"/>
	<path class="st1" d="M783,256.5c-1-0.5-2.3-1.2-3.6-2.1C780.5,254.8,781.7,255.5,783,256.5z"/>
	<path class="st1" d="M965,758c-0.8-0.5-1.8-1.3-2.7-2.3C963.1,756.2,964,757,965,758z"/>
	<path class="st1" d="M390,993.7c-0.2,1-0.7,2.1-1.4,3.4C388.8,996.2,389.2,995.1,390,993.7z"/>
	<path class="st1" d="M204.6,816.1c-0.4-0.8-0.6-1.9-0.9-3.2C204.1,813.6,204.4,814.7,204.6,816.1z"/>
	<path class="st1" d="M801.3,192c0.2-0.7,0.7-1.6,1.4-2.6C802.5,190.1,802,191,801.3,192z"/>
	<path class="st1" d="M774.3,209c-0.2,0.7-0.7,1.6-1.4,2.6C773.2,210.9,773.6,210,774.3,209z"/>
	<path class="st1" d="M974.7,729.3c0.5-0.4,1.3-0.9,2.3-1.3C976.5,728.5,975.7,728.9,974.7,729.3z"/>
	<path class="st1" d="M970,770.4c0.5-0.3,1.3-0.6,2.3-0.8C971.8,769.9,971.1,770.2,970,770.4z"/>
	<path class="st1" d="M141.8,824.3c0.6,0.8,1.2,1.8,1.8,3.2C143.1,826.7,142.5,825.7,141.8,824.3z"/>
	<path class="st1" d="M780.6,214.5c0.5-0.7,1.3-1.6,2.3-2.6C782.4,212.6,781.7,213.5,780.6,214.5z"/>
	<path class="st1" d="M961.6,747.9c-0.1-0.7,0-1.5,0.2-2.5C962,746,961.9,746.8,961.6,747.9z"/>
	<path class="st1" d="M964.2,769.9c0.7-0.1,1.5,0,2.5,0.3C966,770.3,965.2,770.2,964.2,769.9z"/>
	<path class="st1" d="M788.1,265.1c0.4-0.5,1.1-1.1,2.1-1.7C789.8,263.9,789.1,264.5,788.1,265.1z"/>
	<path class="st1" d="M393.8,979.7c-0.2,0.6-0.6,1.1-1.2,1.9C392.7,981.1,393.1,980.4,393.8,979.7z"/>
	<path class="st1" d="M782.1,218c-0.5-0.2-1.1-0.7-1.7-1.4C780.9,216.8,781.5,217.2,782.1,218z"/>
	<path class="st1" d="M144.6,828.9c0.4-0.3,0.9-0.3,1.6-0.3c0.2,0.5,0,1.1-0.2,1.7C145.6,829.9,145.2,829.6,144.6,828.9z"/>
	<path class="st1" d="M802.9,176.7c-0.3-0.2-0.6-0.7-0.9-1.4C802.3,175.6,802.5,176,802.9,176.7z"/>
	<path class="st1" d="M739.1,985.8c-0.3-0.2-0.6-0.7-0.9-1.4C738.5,984.6,738.8,985.1,739.1,985.8z"/>
	<path class="st1" d="M406.4,988.3c0.1-0.6,0.3-1.1,0.7-1.8C406.9,987,406.7,987.7,406.4,988.3z"/>
	<path class="st1" d="M729.6,993c0.3,0.2,0.6,0.7,0.9,1.4C730.2,994.2,730,993.7,729.6,993z"/>
	<path class="st1" d="M385.3,1003.1c0,0.4-0.2,1-0.6,1.6C384.7,1004.3,384.9,1003.8,385.3,1003.1z"/>
	<path class="st1" d="M794.1,178c0.1,0.1-0.1,0.4-0.4,0.8C793.7,178.6,793.8,178.3,794.1,178z"/>
	<path class="st1" d="M805.5,211.3c-0.2,0.1-0.3,0-0.5-0.3C805.2,210.8,805.4,210.9,805.5,211.3z"/>
	<path d="M412.3,238.4c-0.4-0.2-0.6-0.7-0.8-1.1c0.4,0.1,0.7,0.1,1.2,0.4C412.7,238,412.6,238.2,412.3,238.4z"/>
	<path d="M401.1,177.5c0.2-0.4,0.7-0.6,1.1-0.8c0,0.4-0.1,0.7-0.4,1.2C401.5,177.9,401.4,177.8,401.1,177.5z"/>
	<path d="M384.4,216.7c-0.3,0.2-0.6,0.1-0.9,0C383.8,216.6,384.1,216.6,384.4,216.7z"/>
	<path d="M584.4,188.2c0.2,0.2,0.3,0.5,0.3,0.8C584.6,188.7,584.4,188.5,584.4,188.2z"/>
	<path d="M264.8,923.4c0.3-0.4,0.7-0.6,1.1-0.8c-0.1,0.3-0.2,0.7-0.4,1.1C265.2,923.8,265.1,923.7,264.8,923.4z"/>
	<path d="M835.2,956.6c0.4,0.2,0.6,0.7,0.8,1.1c-0.4,0-0.8-0.1-1.2-0.3C834.7,957,834.9,956.9,835.2,956.6z"/>
	<path d="M119.3,657c-0.3,0.4-0.7,0.6-1.1,0.8c0.1-0.3,0.2-0.7,0.4-1.1C118.9,656.5,119,656.7,119.3,657z"/>
	<path class="st1" d="M194.6,821c0.1-2.4,0.4-5,0.9-7.9C199.9,815.6,199.7,817.6,194.6,821z"/>
	<path class="st1" d="M192.6,803.2c-0.7-0.6-1.2-1.3-1.9-2.3C192.8,800.1,194.1,800.3,192.6,803.2z"/>
	<path class="st1" d="M710.7,468c-0.9,1.1-1.7,2.3-2.4,2.3c-5.9-0.2-11.8-0.1-17.5-1.2c-5.2-1-7.8-7-7-13.6
		c0.6-5.1,5.6-9.1,12.1-9.4c3.4-0.2,6.9,0.1,10.3-0.1c3.5-0.2,4.8,1.5,4.8,4.7C710.9,456.4,710.9,462,710.7,468z"/>
	<path class="st2" d="M683.8,680.9c2-6.8,5.5-9.4,12.9-9.8c3.1-0.2,6.2,0,9.3,0c3.2-0.1,4.9,1.4,4.9,4.7c0,5.1,0,10.3,0,15.4
		c0,3-1.3,4.5-4.6,4.3c-2.9-0.2-5.9,0.2-8.9-0.1C688,694.3,683,692.6,683.8,680.9z"/>
	<path class="st1" d="M394.3,763.5c2.4-5.6,7.5-6.2,12.1-7c3.5-0.6,7.2-0.4,10.7,0c1.1,0.1,3,1.9,3,3c0.3,6.1,0.2,12.2,0,18.3
		c0,1-1.5,2.8-2.3,2.7c-5.8-0.3-11.9-0.2-17.5-1.6C394.1,777.3,392.5,772.5,394.3,763.5z"/>
	<path class="st1" d="M394.6,635.6c-0.5-2.6-1.4-4.9-1.1-7c1.2-7.3,3.5-9.2,11.1-9.9c3.8-0.4,7.7-0.8,11.5-0.9
		c2.7-0.1,4.3,1.2,4.2,4.3c-0.1,5.3-0.1,10.6,0,15.9c0.1,3-1,4.4-4.1,4.2c-4.8-0.3-9.7-0.1-14.3-1.1
		C399.4,640.3,397.2,637.6,394.6,635.6z"/>
	<path class="st1" d="M456.5,470.7c14.2,7.6,13.2,24.2,6.4,33c-3,3.9-8.9,5.8-13.9,7.8c-2.9,1.2-4.1-1.9-4.2-4.2
		c-0.2-11.7-0.2-23.4,0-35.1c0.1-3.2,2-5.1,5.7-3.6C452.4,469.3,454.3,469.9,456.5,470.7z"/>
	<path class="st1" d="M418.9,417.7c-6.5-0.4-12.7-0.7-18.7-1.8c-4.5-0.8-6.9-5-7-10.1c-0.1-4.8,3-10.3,7-10.9
		c5.8-0.9,11.7-0.9,17.5-1.1c0.8,0,2.3,1.1,2.3,1.7C419.9,402.9,419.6,410.2,418.9,417.7z"/>
	<path class="st1" d="M411.8,465.8c1.5,0,2.6,0.1,3.7,0c3.7-0.4,5.1,1.2,4.8,4.8c-0.2,1.5,0,3.1,0,4.7c-0.3,11.5,2.5,10.3-11,10.1
		c-3.3,0-6.6-1.2-9.9-1.8c-4-0.7-5.9-3.8-6-7.2c-0.1-3.4,0.9-7.4,5-8.5C402.6,466.9,407,466.5,411.8,465.8z"/>
	<path class="st1" d="M397.4,511.4c-3.4-2.5-4.7-5.2-3.6-9.4c1.1-4.1,3.7-6.2,7.2-6.8c5-0.9,10.1-1,15.2-1.2c2.4-0.1,4.1,1,4,3.9
		c-0.1,4,0.2,8.1-0.2,12.1c-0.1,1.3-2.1,3.4-3.1,3.4C410.6,513.1,404.2,512.3,397.4,511.4z"/>
	<path class="st3" d="M538.6,374.5c5-5.4,18.5-8.6,24.3-6c0.9,0.4,1.7,1.9,1.7,2.9c0.2,5.9,0.3,11.9-0.1,17.8
		c-0.1,1.2-2.2,3.3-3.3,3.2c-6.1-0.4-12.2-1-18.2-2.4c-3.9-0.9-6.3-7.1-5.4-11.6C537.9,377.3,538.2,376.1,538.6,374.5z"/>
</g>
</svg>
