<?xml version="1.0" encoding="utf-8"?>
<!-- Generator: Adobe Illustrator 27.7.0, SVG Export Plug-In . SVG Version: 6.00 Build 0)  -->
<svg version="1.1" id="Layer_1" xmlns="http://www.w3.org/2000/svg" xmlns:xlink="http://www.w3.org/1999/xlink" x="0px" y="0px"
	 viewBox="0 0 56 56" style="enable-background:new 0 0 56 56;" xml:space="preserve">
<style type="text/css">
	.st0{fill:#1B191D;}
	.st1{fill:#1B191E;}
	.st2{fill:#EE7A11;}
	.st3{fill:#1B1A1E;}
	.st4{fill:#EE7B13;}
	.st5{fill:#19171C;}
	.st6{fill:#29272C;}
	.st7{fill:#010001;}
	.st8{fill:#0E0C11;}
	.st9{fill:#161419;}
	.st10{fill:#D4D4D4;}
	.st11{fill:#010002;}
	.st12{fill:#000001;}
	.st13{fill:#39383B;}
</style>
<path class="st0" d="M22.3,31.4c-0.6,0-1.2,0-1.8,0c-0.2-0.2-0.3-0.3-0.4-0.3c-2.2,1-4.3,0.9-6.2-0.5c-1.9-1.4-2.4-3.4-2-5.6
	c0.3-2.1,1.5-3.8,3.6-4.3c2.2-0.5,4.4-0.5,6.2,1.4c0.1,0.2,0.1,0.2,0.2,0.2c0,0,0,0.1,0,0.1c0,0.1,0,0.2,0,0.2
	c-0.5,0.4-0.9,0.8-1.5,1.1c-0.3-0.1-0.4-0.1-0.6-0.1c-1.6-1.6-4.3-1.1-5.1,1.2c-0.4,1.1,0.1,3,1.2,3.8c1,0.7,3.1,0.7,3.9-0.1
	c0.2-0.2,0.1-0.6,0.1-1c-1.2-0.1-1.3-0.8-1.2-1.7c0-0.1,0-0.2,0-0.3c0,0,0-0.1,0-0.1c1.3,0,2.6,0,3.9,0c0,1.9,0,3.8,0,5.7
	c0,0.1-0.1,0.1-0.2,0.1C22.4,31.3,22.3,31.3,22.3,31.4z"/>
<path class="st1" d="M38,31.4c-0.6,0-1.2,0-1.8-0.1c-0.1-3.5-0.1-6.9-0.1-10.3c0-0.3-0.1-0.6-0.2-1c0.8-0.1,1.6-0.2,2.5-0.3
	c0,0.7,0,1.3,0,1.9c0,0.6,0,1.1,0,1.6c0.9-0.1,1.8-0.4,2.7-0.4c1.9,0,3.5,1.4,3.7,3.7c0.4,4-3.4,6.1-6.2,4.5c-0.1,0-0.2,0-0.4,0.1
	C38.1,31.3,38,31.3,38,31.4 M39.9,29.5c0.3-0.1,0.5-0.1,0.8-0.2c1.1-0.2,1.8-1.3,1.6-2.6c-0.1-1-1.1-1.7-2.2-1.6
	c-1.2,0.1-1.8,0.9-1.8,2.2C38.3,28.3,39,28.9,39.9,29.5z"/>
<path class="st2" d="M8.8,31.6c-0.9,0-1.8,0-2.6-0.2c-1.4-0.4-2.1-1.6-2-3.2c0.8,0,1.6,0,2.3,0c0,0.1-0.1,0.1-0.1,0.2
	c0.4,0.3,0.9,0.7,1.3,0.9c0.3,0.1,0.9-0.3,1-0.6c0.1-0.3-0.1-0.9-0.4-1.1c-0.5-0.4-1.2-0.6-1.8-0.8C4.8,26,4.2,25,4.3,23.1
	c0.1-1.5,1.1-2.5,2.8-2.8C8.9,20,10.4,20.7,11,22c0.6,1.3,0.3,1.7-1.1,1.7c-0.3,0-0.7,0-1,0c-0.1-0.3-0.1-0.5-0.3-0.7
	c-0.3-0.2-0.6-0.5-0.9-0.4C7.4,22.6,7,23,7,23.2c0,0.3,0.2,0.8,0.4,0.9c0.5,0.3,1.1,0.5,1.7,0.8c1.8,0.8,2.5,1.7,2.5,3.5
	C11.5,30,10.6,31,8.8,31.6z"/>
<path class="st3" d="M34.9,29.2c-1.8,2.3-3.6,2.9-5.7,2.1c-1.8-0.7-2.9-2.3-2.8-4.3c0.1-2,1.3-3.6,3.2-4c1.1-0.2,2.4-0.4,3.5,0.3
	c0.9,0.6,1.7,1.2,2,2.3C35.4,26.8,35.4,28,34.9,29.2 M31.1,25.2c-1-0.2-1.8,0.5-2.1,1.4c-0.3,1.1,0.1,2,1,2.6
	c0.2,0.1,0.5,0.4,0.7,0.4c1,0,1.9-0.9,2-1.9C32.9,26.4,32.4,25.6,31.1,25.2z"/>
<path class="st1" d="M51.7,31.4c-0.4,0-0.9,0-1.5,0c-0.1-0.1-0.2-0.1-0.3-0.2c0,0,0,0,0,0c-0.1,0-0.3,0-0.4,0
	c-1.9,0.7-3.5,0.1-4.1-1.2c-0.8-1.7-0.1-3.3,1.8-3.9c0.8,0,1.5,0,2.2-0.1c0.1-0.6-0.2-1.1-0.9-1c-0.8,0.1-1.5,0.5-2.3,0.7
	c-0.1,0-0.3,0-0.5-0.1c-0.2-0.1-0.3-0.1-0.4-0.1c0.3-1.7,0.9-2.2,2.6-2.5c2-0.3,3.1,0.4,3.7,2.1C51.7,27.2,51.7,29.3,51.7,31.4
	 M48.8,27.7c-1,0-1.5,0.5-1.2,1.2c0.1,0.3,0.5,0.7,0.7,0.7c0.4,0,0.9-0.2,1.1-0.5C49.8,28.5,49.4,28,48.8,27.7z"/>
<path class="st4" d="M0.9,30.3c0-3.3,0-6.5,0-9.7c0.9,0,1.7,0,2.6,0c0,3.6,0,7.2,0,10.8c-0.8,0-1.6,0-2.6,0
	C0.9,31,0.9,30.7,0.9,30.3z"/>
<path class="st5" d="M55.1,31.4c-0.6,0-1.3,0-2,0c-0.1-0.1-0.2-0.1-0.2-0.1c0-3.8,0-7.5,0-11.3c0.8,0,1.6,0,2.4,0.1
	c0,0.1,0,0.2,0.1,0.2c0,3.6,0,7.2,0,10.9C55.1,31.3,55.1,31.3,55.1,31.4z"/>
<path class="st5" d="M23.5,31.2c0-3.6,0-7.2,0-10.9c0.1-0.1,0.1-0.2,0.1-0.2c0,0-0.1-0.1-0.1-0.1c0.8-0.1,1.6-0.1,2.4-0.1
	c0,0.1,0,0.2,0.1,0.2c0,3.6,0,7.2,0,10.9c-0.1,0.1-0.1,0.2-0.2,0.2c-0.6,0-1.3,0-2,0C23.6,31.3,23.5,31.2,23.5,31.2z"/>
<path class="st6" d="M51.7,31.4c-0.1-2.1,0-4.2,0-6.4C51.8,27.1,51.8,29.3,51.7,31.4z"/>
<path class="st7" d="M35.9,20.1c0.1,0.2,0.2,0.6,0.2,0.9c0,3.4,0,6.8,0,10.3c-0.1-0.2-0.2-0.4-0.2-0.7
	C35.9,27.2,35.9,23.7,35.9,20.1z"/>
<path class="st8" d="M18.7,25.5c0,0.1,0,0.2,0,0.3c-0.1,0.9,0,1.6,1.1,1.7c-0.4,0.1-0.8,0.1-1.4,0.1c0-0.6,0-1.2,0.1-1.9
	C18.6,25.5,18.7,25.5,18.7,25.5z"/>
<path class="st9" d="M19.9,23.7c0.2,0,0.3,0,0.5,0.1C20.2,23.8,20.1,23.8,19.9,23.7z"/>
<path class="st10" d="M45.4,25.4c0.1,0,0.2,0,0.3,0.1C45.7,25.6,45.5,25.5,45.4,25.4z"/>
<path class="st8" d="M20.1,31.1c0.1,0,0.2,0.1,0.3,0.3C20.3,31.3,20.2,31.2,20.1,31.1z"/>
<path class="st6" d="M49.6,31.2c0,0,0.2,0,0.3,0C49.9,31.2,49.8,31.2,49.6,31.2z"/>
<path class="st11" d="M55.1,31.4c0-0.1,0-0.1,0.1-0.2C55.2,31.3,55.2,31.4,55.1,31.4z"/>
<path class="st11" d="M52.8,31.3c0.1,0,0.1,0,0.2,0.1C52.9,31.4,52.9,31.4,52.8,31.3z"/>
<path class="st6" d="M49.9,31.3c0.1,0,0.1,0,0.2,0.1C50.1,31.4,50,31.4,49.9,31.3z"/>
<path class="st12" d="M23.4,20.1c0,0,0.1,0,0.1,0.1c0,0,0,0-0.1,0.1C23.4,20.2,23.4,20.2,23.4,20.1z"/>
<path class="st7" d="M38.1,31.4c0-0.1,0-0.1,0.1-0.2C38.2,31.3,38.2,31.4,38.1,31.4z"/>
<path class="st12" d="M25.8,31.4c0-0.1,0-0.1,0.1-0.2C25.9,31.3,25.9,31.4,25.8,31.4z"/>
<path class="st12" d="M23.5,31.3c0.1,0,0.1,0,0.2,0.1C23.6,31.4,23.5,31.4,23.5,31.3z"/>
<path class="st13" d="M22.5,31.2c0,0,0.1,0,0.1,0c0,0.1,0,0.1-0.1,0.1C22.5,31.3,22.5,31.2,22.5,31.2z"/>
<path class="st8" d="M22.5,31.2c0,0,0,0.1,0,0.1c0,0.1-0.1,0.1-0.1,0.1C22.3,31.3,22.4,31.3,22.5,31.2z"/>
<path class="st12" d="M25.9,20.2c0,0-0.1-0.1-0.1-0.1C25.9,20.1,25.9,20.1,25.9,20.2z"/>
<path class="st13" d="M18.7,25.5c0,0-0.1,0-0.2,0c0-0.1,0-0.1,0.1-0.2C18.7,25.4,18.7,25.5,18.7,25.5z"/>
<path class="st11" d="M55.3,20.2c0,0-0.1-0.1-0.1-0.1C55.3,20.1,55.3,20.1,55.3,20.2z"/>
<path class="st9" d="M22,22.3c-0.1,0-0.1,0-0.2-0.1C21.8,22.1,21.9,22.2,22,22.3z"/>
<path class="st9" d="M22,22.7c-0.1,0-0.1-0.1,0-0.2C22,22.5,22,22.6,22,22.7z"/>
</svg>
