<?xml version="1.0" encoding="utf-8"?>
<!-- Generator: Adobe Illustrator 27.7.0, SVG Export Plug-In . SVG Version: 6.00 Build 0)  -->
<svg version="1.1" id="Layer_1" xmlns="http://www.w3.org/2000/svg" xmlns:xlink="http://www.w3.org/1999/xlink" x="0px" y="0px"
	 viewBox="0 0 56 56" style="enable-background:new 0 0 56 56;" xml:space="preserve">
<style type="text/css">
	.st0{fill:#6085C7;}
	.st1{fill:#426DAD;}
	.st2{fill:#5BAA38;}
	.st3{fill:#4B73AC;}
	.st4{fill:#3F69A4;}
	.st5{fill:#4C7AA1;}
	.st6{fill:#446BA3;}
	.st7{fill:#B0B0B2;}
	.st8{fill:#479680;}
	.st9{fill:#478F8F;}
	.st10{fill:#51A25B;}
	.st11{fill:#92C59C;}
	.st12{fill:#658BC1;}
	.st13{fill:#73B558;}
	.st14{fill:#438799;}
	.st15{fill:#84BD88;}
	.st16{fill:#798EB1;}
	.st17{fill:#4B9D74;}
	.st18{fill:#BBD8B8;}
	.st19{fill:#4476B9;}
	.st20{fill:#6793B7;}
	.st21{fill:#7AAF93;}
	.st22{fill:#76A1B3;}
	.st23{fill:#73A4A1;}
	.st24{fill:#CBE3C9;}
	.st25{fill:#929293;}
	.st26{fill:#3166B4;}
	.st27{fill:#DCEADD;}
	.st28{fill:#F3F7FA;}
	.st29{fill:#E6EFF7;}
	.st30{fill:#F8FBFA;}
</style>
<path class="st0" d="M33.7,12c0,0.6,0,1.1,0,1.8c-0.1,0.1-0.1,0.1-0.2,0.2c-0.8,0-1.4,0.5-1.7,1.1c-0.2,0.5-0.4,0.6-0.9,0.3
	c0,0.4,0,0.7,0,1.1c0,0.2,0,0.3-0.1,0.4c-0.1-0.2-0.1-0.3-0.2-0.5c-0.2-0.3-0.4-0.5-0.6-0.8c-0.2-0.7-0.1-1.5-0.8-1.7
	c-0.8-0.2-1.3,0.4-1.8,0.9c-0.1,0-0.1,0.1-0.2,0.1c-0.6,0.6-1.2,1.2-1.8,1.7c0-0.4,0-0.7,0-1.1c0,0,0-0.1,0-0.1
	c1.4-1.6,2.8-3.2,4.7-4.4c0.4-0.2,0.8-0.4,1.2-0.6c1.1-0.4,1.8-0.1,2.3,1.1c0,0.1,0,0.1,0,0.1c0,0.1,0.1,0.1,0.1,0.3
	C33.7,11.9,33.7,11.9,33.7,12z"/>
<path class="st1" d="M45.7,40.3c0-1.9,0-1.9,1.8-1.9c0.1,0,0.3,0,0.4,0c0.9,0,1.5,1,1.1,1.8c-0.1,0.1-0.3,0.2-0.5,0.3
	c0-0.5-0.1-0.8-0.1-1.2c-0.7,0-1.3,0-2,0c0,1.3,0,2.5,0,3.8c0.7,0,1.3,0,2,0c0-0.4,0-0.8,0.1-1.2c0.4,0,0.6,0.1,0.6,0.5
	c0,0.3,0,0.5,0,0.8c0,0.6-0.3,0.9-0.9,0.9c-0.4,0-0.9,0-1.3,0c-0.9,0-1-0.2-1-1C45.7,42.1,45.7,41.2,45.7,40.3z"/>
<path class="st1" d="M23,43.6c-0.2,0.1-0.5,0.4-0.7,0.4c-0.8,0.1-1.5,0-2.4,0c0-1.9,0-3.7,0-5.7c0.9,0,1.8,0,2.7,0
	c0.2,0,0.5,0.4,0.5,0.6c0,0.7-0.2,1.4-0.2,2.2c0,0.1,0.1,0.1,0.1,0.1c0,0,0,0,0,0.1C23,42.2,23,42.9,23,43.6 M22.5,39.1
	c-0.6,0-1.2,0-1.8,0.1c-0.1,0-0.1,0.1-0.3,0.2c0,0.4,0.1,0.8,0.2,1.3c0.4,0,0.9,0,1.3,0.1c0.6,0.1,0.8-0.3,0.8-0.8
	C22.6,39.6,22.5,39.4,22.5,39.1 M22.6,42.6c-0.1-0.4-0.2-1-0.4-1.1c-0.5-0.2-1.2-0.1-1.8-0.1c0,0.4,0,0.7,0,0.9c0,0.3,0,0.6,0.2,0.8
	C20.9,43.6,22.4,43.2,22.6,42.6z"/>
<path class="st2" d="M21.9,26.7c0.1-0.7,0.1-1.3,0.2-2.1c0-0.2,0-0.3,0-0.4c0-0.2,0-0.3,0.1-0.5c0.8-1.3,1.5-2.6,2.2-3.8
	c0.2-0.4,0.2-1.1,1-0.9c0,0.6,0,1.2,0,1.8c-0.3,0.5-0.5,0.9-0.7,1.4c-0.4,0.8-0.7,1.6-1.2,2.4c-0.4,0.7-0.9,1.4-1.3,2
	C22.2,26.6,22,26.6,21.9,26.7z"/>
<path class="st3" d="M24.7,43.8c-0.1-0.3-0.3-0.5-0.3-0.8c0-1.2,0-2.5,0-3.7c0-0.8,0.2-1,1.1-1c0.6,0,1.2,0,1.8,0
	c0.5,0,0.8,0.2,0.8,0.7c0,1.4,0,2.8,0,4.2c0,0.3-0.4,0.7-0.6,0.7C26.6,44,25.7,43.9,24.7,43.8c0.2-0.3,0.2-0.5,0.4-0.7
	c0.8,0,1.6,0,2.4,0c0-1.3,0-2.6,0-3.9c-0.7,0-1.4,0-2.1,0c-0.2,0-0.3,0.2-0.5,0.3c-0.1,0.1-0.3,0.2-0.3,0.3c0,0.9,0,1.9,0,2.8
	c0.2-0.1,0.3-0.2,0.4-0.2c0,0.3,0,0.5,0,0.7C24.3,43.1,24.9,43.6,24.7,43.8 M26.1,38.6c-0.4,0.1-0.9-0.2-1.4,0.4c1.1,0,2.1,0,3,0
	c0-0.1,0-0.2,0-0.3C27.3,38.6,26.8,38.6,26.1,38.6 M25.9,43.7c0.4,0,0.9,0,1.5,0c-0.6-0.5-1.6-0.5-2.2-0.1
	C25.4,43.7,25.6,43.7,25.9,43.7 M27.6,43.7C27.6,43.7,27.6,43.7,27.6,43.7z"/>
<path class="st4" d="M5.6,43.9c0-1.1,0-2.2,0-3.3c-0.1,0-0.2,0-0.2-0.1c-0.4,0.9-0.8,1.7-1.2,2.8c-0.5-1.1-0.9-2.1-1.4-3.1
	c0,0-0.1,0-0.1,0c0,1.2,0,2.4-0.1,3.6c-0.2,0.1-0.3,0.1-0.4,0.1c0,0,0-0.1,0-0.1c0-0.1,0-0.2,0-0.2c0-1.4,0-2.9,0-4.4
	c0-0.1,0-0.2,0-0.2c0-0.1,0-0.1,0-0.2c0-0.1,0-0.1,0-0.2c0.3-0.3,0.5-0.2,0.6,0.1c0.4,0.9,0.7,1.7,1.1,2.6c0.1,0.1,0.1,0.2,0.3,0.4
	c0.4-1,0.8-1.8,1.2-2.7c-0.1,0.5,0.1,0.8,0.3,1.2C5.6,41.5,5.6,42.7,5.6,43.9C5.6,43.9,5.6,43.9,5.6,43.9z"/>
<path class="st5" d="M33,20.1c1.8-2.2,3.5-4.3,5.3-6.5c1-1.2,2.1-2.4,3.1-3.7c0.1-0.1,0.3-0.2,0.4-0.3c-3,3.9-6,7.8-9,11.7
	c0-0.3,0-0.6,0-0.9C32.9,20.3,33,20.2,33,20.1z"/>
<path class="st6" d="M7.5,40.5c0-0.7,0-1.4,0-2.2c1,0,1.9,0,2.8,0c0.1,0,0.3,0.3,0.4,0.5c-0.2,0.1-0.3,0.3-0.5,0.3
	c-0.7,0-1.3,0-2.1,0c0,0.5,0,0.9,0,1.4c0.4,0,0.9,0,1.4,0.1c0,0.3,0,0.5,0,0.8c-0.4,0-0.9,0-1.5,0c0,0.5,0,0.9,0,1.3
	c0,0.1,0.3,0.3,0.5,0.3c0.6,0,1.3,0,2,0c0,0.3,0,0.6,0,0.8c-1,0-2,0-3.1,0C7.5,42.8,7.5,41.7,7.5,40.5 M8,39.1
	c0.7-0.1,1.4-0.1,2.1-0.2c0-0.1,0-0.2,0-0.3c-0.7,0-1.4,0-2.1,0C7.9,38.6,7.9,38.9,8,39.1 M8.5,43.5c-0.2,0-0.4-0.1-0.7-0.1
	c0.3,0.5,1.8,0.5,2.5,0.2c-0.3-0.1-0.5-0.2-0.8-0.1C9.2,43.4,8.9,43.4,8.5,43.5 M8.8,41.2c0.2,0,0.3-0.1,0.5-0.1c0-0.1,0-0.1,0-0.2
	c-0.5,0-1,0-1.4,0c0,0.1,0,0.1,0,0.2C8.1,41.2,8.4,41.2,8.8,41.2z"/>
<path class="st1" d="M53.6,41.9c0.1,2.1,0.1,2.1-2,2.1c-1.2,0-1.4-0.2-1.4-1.2c0-0.2,0.2-0.4,0.3-0.6c0.1,0,0.1,0.1,0.2,0.1
	c0,0.2,0.1,0.4,0.1,0.7c0.7,0,1.4,0,2.2,0c0-0.5,0-0.9,0-1.5c-0.5,0-1.1,0.1-1.6,0c-0.4-0.1-0.7-0.3-1-0.6c0.1-0.6,0.1-1.1,0.1-1.5
	c0,0,0.1,0,0.1,0.1c0,0.4,0.1,0.8,0.2,1.2c0.3,0.1,0.6,0.1,0.9,0.1c0.6,0,1.3,0,1.8,0.4c0,0.1,0,0.2,0,0.4
	C53.5,41.8,53.6,41.8,53.6,41.9z"/>
<path class="st7" d="M4.1,54.4c0.7-0.1,0.3-0.7,0.5-1.1c-0.5,0-0.9,0-1.4,0c-0.5,0-0.7-0.2-0.8-0.7c-0.1-1.7,0.2-2.1,2-1.8
	c0.4,0.1,0.7,0.7,0.5,1c-0.1,0.1-0.3,0.1-0.3,0.1c-0.4-0.7-1.1-0.3-1.6-0.4c0,0.4,0,0.6,0,1c0.4,0,0.7,0,1.1,0c0.2,0,0.4,0,0.5,0
	c0.8,0.4,0.4,1.2,0.5,1.8c0,0.4-0.1,0.8-0.6,0.8c-0.4,0-0.9,0-1.3,0c-0.2,0-0.5-0.2-0.6-0.4c-0.1-0.3,0-0.6,0.1-1
	C2.8,54.7,3.5,54.3,4.1,54.4z"/>
<path class="st8" d="M23.1,29.9c-0.3-0.3-0.6-0.5-0.8-0.8c0.4-0.6,0.8-1.2,1.1-1.8c0.1-0.2,0.2-0.4,0.3-0.6c0.2-0.6,0.2-1.3,0.6-1.6
	c0.6-0.4,0.9-1,1.2-1.5c0.1,0.7,0.2,1.4,0.3,2.1C24.4,26.8,23.9,28.5,23.1,29.9z"/>
<path class="st7" d="M13.2,55.1c-0.5,0-0.9,0-1.4,0c-0.6,0-0.9-0.3-0.9-0.8c0-0.9,0-1.9,0-2.8c0-0.5,0.2-0.8,0.8-0.7
	c0.5,0,0.9,0,1.4,0c0.6,0,0.7,0.2,0.7,0.7c0,0.9,0,1.9,0,2.8C13.9,54.7,13.8,55,13.2,55.1 M13.4,51.8c-0.1-0.2-0.3-0.5-0.4-0.5
	c-0.5-0.1-1,0-1.5,0c0,1.1,0,2,0,3c0.7,0,1.2,0,1.9,0C13.4,53.5,13.4,52.7,13.4,51.8z"/>
<path class="st4" d="M30.2,42.9c0.8,0.1,1.5,0.2,2.3,0.3c0,0.2,0,0.5,0,0.8c-1,0-1.9,0-3,0c0-0.3,0-0.6,0-0.9c0-1.4,0-2.8,0-4.2
	c0-0.4,0.1-0.6,0.6-0.4C30.1,39.9,30.1,41.4,30.2,42.9z"/>
<path class="st7" d="M35.1,55c-0.1-0.3-0.2-0.6-0.2-1c0-1.1,0-2.2,0-3.3c0.8,0,1.4,0,2.1,0c0.1,0,0.2,0.2,0.4,0.4
	c-0.1,0.1-0.2,0.3-0.4,0.3c-0.5,0-1,0-1.5,0c0,0.3,0,0.6,0,0.9c0.3,0.4,1-0.2,1,0.5c0,0.7-0.7,0.2-1,0.5c0,0.3,0,0.7,0,1.1
	c0.5,0,0.9,0,1.4,0c0.2,0,0.3,0.2,0.5,0.3C37.2,54.8,37,55,36.9,55C36.3,55.1,35.7,55,35.1,55z"/>
<path class="st6" d="M16,42.6c-0.1,0.3-0.2,0.6-0.4,0.9c-0.1,0.2-0.3,0.3-0.5,0.5C15,44,14.9,44,14.8,43.9c0.3-0.9,0.5-1.7,0.8-2.6
	c0.3-0.9,0.6-1.8,0.9-2.7c0.1-0.2,0.2-0.3,0.4-0.4c0.1,0,0.3,0.2,0.4,0.3c0.5,1.5,0.9,3,1.3,4.5c-0.3-0.5-0.3-1.2-1.1-1.3
	c-0.2-0.8-0.4-1.6-0.6-2.4c-0.1,0-0.1,0-0.2,0c-0.2,0.8-0.4,1.6-0.7,2.5c-0.2,0.2-0.4,0.3-0.5,0.5C15.7,42.5,15.8,42.5,16,42.6z"/>
<path class="st3" d="M12.7,39.4c-0.4-0.1-0.7-0.1-1.1-0.2c-0.2-0.1-0.5-0.3-0.7-0.4c0.2-0.2,0.5-0.4,0.7-0.4c1-0.1,2,0,3,0
	c0,0.3,0,0.6,0,0.9c-0.4,0-0.9,0-1.3,0.1c0,1.6,0,3.1,0,4.7c-0.1,0-0.1,0.1-0.2,0.1c-0.2-0.1-0.3-0.2-0.4-0.4
	c0.1-1.5,0.2-2.9,0.2-4.5C12.8,39.3,12.8,39.4,12.7,39.4z"/>
<path class="st9" d="M23.1,30c0.8-1.5,1.3-3.1,2.7-4.3c0.2,0.2,0.4,0.5,0.6,0.7c-0.2,0.3-0.4,0.4-0.6,0.7c-0.1,0.2-0.1,0.5-0.3,0.8
	c-0.2,0.4-0.5,0.8-0.8,1.1c0.1,0.2,0.3,0.3,0.4,0.4C24.6,29.9,23.9,30.1,23.1,30z"/>
<path class="st7" d="M21.9,51.5c-0.5,0-1,0-1.6,0c0,0.9,0,1.7,0,2.5c0,0.1,0.2,0.3,0.4,0.4c0.8,0.2,1,0,1.4-1
	c0.5,0.4,0.3,0.9,0.2,1.3c0,0.2-0.4,0.4-0.6,0.4c-1.8,0.2-1.9,0.1-1.9-1.7c0-0.7,0-1.4,0-2c0-0.4,0.2-0.6,0.6-0.6c0.4,0,0.8,0,1.3,0
	c0.2,0,0.5,0.2,0.6,0.3c0.1,0.4,0,0.8,0,1.2c-0.1,0-0.2,0-0.3,0C22,52,22,51.8,21.9,51.5z"/>
<path class="st6" d="M41.9,40.5c0-0.1,0-0.2-0.1-0.4c-0.4,1.1-0.8,2-1.3,3.2c-0.5-1.1-0.9-2-1.3-2.9c-0.1,0-0.1,0-0.2,0
	c0,1.1,0,2.1,0,3.2c0,0.4-0.1,0.7-0.4,0.2c0.2-0.2,0.4-0.3,0.4-0.4c0-0.9-0.1-1.7,0-2.6c0-0.3,0.1-0.6,0.2-1
	c0.7,0.1,0.1-0.3,0.2-0.4c0.2,0.4,0.5,0.8,0.7,1.2c0.2,0.4,0.3,0.8,0.6,1.4c0.5-1.2,0.8-2.1,1.2-3.1c0.1-0.3,0.3-0.7,0.7-0.3
	c-0.6,0.3-0.7,0.8-0.5,1.3C41.9,40,41.8,40.3,41.9,40.5z"/>
<path class="st10" d="M21.9,26.7c0.1-0.1,0.3-0.2,0.4-0.3c0.5-0.7,0.9-1.3,1.3-2c0.4-0.8,0.8-1.6,1.2-2.4c0.2-0.4,0.4-0.9,0.7-1.3
	c0,0.7-0.1,1.4-0.2,2.1c-0.3,0.4-0.7,0.8-0.9,1.2c-0.3,0.5-0.6,1-0.9,1.5c-0.5,0.9-1,1.7-1.5,2.6c0,0,0,0-0.1,0
	C21.9,27.7,21.9,27.3,21.9,26.7z"/>
<path class="st11" d="M25.4,15.3c0,0,0,0.1,0,0.1c-0.3,0.3-0.6,0.6-0.8,0.9c-0.5,0.6-1.1,1.2-1.6,1.8c0-0.1,0-0.2,0-0.3
	c0.1-0.1,0.1-0.1,0.1-0.1c0,0,0-0.1-0.1-0.1c0-0.3,0.1-0.7,0.2-1.1c0.4-0.9,0.8-1.6,1.2-2.4c0.1-0.2,0.4-0.4,0.6-0.6
	C25.1,14.2,25.2,14.7,25.4,15.3z"/>
<path class="st12" d="M18.3,24.7c1.4-1.9,2.8-3.8,4.3-5.7c0.1,0.3,0.1,0.6,0.1,0.9c0,0.1,0,0.2,0,0.2c-1.1,1.3-2.1,2.5-3.2,3.8
	c-0.3,0.4-0.6,0.7-1,1.1C18.4,24.9,18.4,24.8,18.3,24.7z"/>
<path class="st13" d="M25.5,18.8c-0.7-0.1-0.7,0.6-1,1c-0.7,1.2-1.5,2.5-2.2,3.8c0-0.4,0-0.7,0.1-1.2c0-0.2,0-0.2,0-0.3
	c0-0.2,0-0.3,0.1-0.5c0.3-0.3,0.6-0.5,0.7-0.8c0.5-0.9,1-1.8,1.5-2.7c0.1-0.2,0.4-0.3,0.7-0.4C25.5,18.1,25.5,18.4,25.5,18.8z"/>
<path class="st14" d="M25.2,29.4c-0.2-0.1-0.3-0.3-0.4-0.4c0.3-0.4,0.5-0.7,0.8-1.1c0.1-0.2,0.1-0.5,0.3-0.8
	c0.1-0.2,0.4-0.4,0.6-0.7c0.1,0,0.2,0,0.3,0c0.3,0.2,0.6,0.3,0.9,0.4c0.3-0.1,0.3-1,0.8-0.2c0,0,0,0-0.1,0c-0.1,0.1-0.1,0.1-0.1,0.2
	c0,0,0,0-0.1,0.1c-0.1,0.1-0.2,0.1-0.2,0.2c0,0,0,0,0,0c-0.2,0.1-0.3,0.3-0.4,0.4c0,0,0,0,0,0c-0.1,0.1-0.1,0.1-0.1,0.1c0,0,0,0,0,0
	c-0.1,0.1-0.2,0.2-0.2,0.3c0,0,0,0,0,0C27.1,28,27,28,27,28.1C26.4,28.5,25.9,29,25.2,29.4z"/>
<path class="st15" d="M33,20c-0.1,0.2-0.1,0.3-0.2,0.5c-0.3,0.4-0.6,0.7-0.8,1c-0.5,0.5-0.8,1.3-1.7,1.2c0-0.4,0-0.8,0-1.2
	c0.3-0.3,0.6-0.6,0.9-0.9c0.2-0.2,0.2-0.5,0.4-0.7c0,0,0,0,0.1,0c0.3,0.1,0.5,0.2,0.9,0.4c-0.2-0.4-0.3-0.7-0.3-0.9c0,0,0,0,0.1,0
	c0.3,0.1,0.6,0.2,0.9,0.3C33,19.7,33,19.8,33,20z"/>
<path class="st16" d="M18.3,24.7c0.1,0.1,0.1,0.2,0.2,0.3c-1.1,1.4-2.3,2.9-3.5,4.3c-0.7,0.9-1.5,1.7-2.3,2.5
	c-0.2,0.3-0.5,0.6-0.7,0.8c-0.1-0.1-0.1-0.1-0.2-0.2C14,29.9,16.1,27.3,18.3,24.7z"/>
<path class="st4" d="M44.3,44c-0.4,0.1-0.5,0-0.5-0.4c0-1.7,0-3.4,0.2-5.3c0.2,0.1,0.5,0.3,0.5,0.4C44.4,40.5,44.4,42.2,44.3,44z"/>
<path class="st7" d="M44.4,52.8c0,0.8,0,1.5,0,2.1c-0.1,0-0.2,0.1-0.3,0.1c-0.1-0.2-0.3-0.4-0.3-0.6c0-1,0-1.9,0-3
	c-0.2,0-0.5,0-0.6-0.1c-0.2-0.1-0.3-0.2-0.5-0.4c0.1-0.1,0.3-0.3,0.4-0.3c0.6,0,1.2,0,1.8,0c0.2,0,0.3,0.2,0.5,0.3
	c-0.2,0.1-0.3,0.3-0.5,0.3c-0.2,0.1-0.4,0-0.6,0.1C44.4,51.9,44.4,52.3,44.4,52.8z"/>
<path class="st7" d="M51.8,51.8c0.1,0.2,0.2,0.3,0.3,0.5c0.6-0.4,0.4-1.4,1.5-1.6c-0.2,0.5-0.3,0.8-0.5,1.2
	c-0.5,0.8-0.8,1.7-0.7,2.7c0,0.2-0.2,0.4-0.2,0.6c-0.1-0.2-0.3-0.4-0.3-0.5c0.1-1-0.2-1.9-0.7-2.7c-0.2-0.3-0.3-0.6-0.5-1.1
	C51.6,50.7,51.5,51.4,51.8,51.8z"/>
<path class="st17" d="M22,28.3C22,28.2,22,28.2,22,28.3c0.6-0.9,1.1-1.8,1.6-2.7c0.3-0.5,0.5-1,0.9-1.5c0.3-0.4,0.6-0.8,0.9-1.1
	c0.1,0.2,0.1,0.4,0.1,0.5c-0.3,0.6-0.5,1.2-1.2,1.6c-0.4,0.3-0.4,1.1-0.6,1.6c-0.1,0.2-0.1,0.4-0.3,0.6c-0.3,0.6-0.7,1.2-1.1,1.7
	C22.1,28.8,22,28.6,22,28.3z"/>
<path class="st5" d="M28.5,26.7c-0.5-0.8-0.6,0.1-0.9,0.2c-0.3-0.1-0.5-0.3-0.8-0.5c0.3-0.2,0.7-0.4,0.9-0.6
	c0.8-0.8,1.6-1.6,2.5-2.3c0.1,0.3,0.1,0.6,0.2,0.9c-0.1,0.1-0.1,0.3-0.1,0.4C29.7,25.4,29.1,26,28.5,26.7z"/>
<path class="st18" d="M24.9,13.6c-0.2,0.2-0.4,0.4-0.6,0.6c-0.4,0.8-0.8,1.6-1.2,2.4c-0.1-0.9-0.1-1.8,0-2.7c0.4-0.6,0.7-1.2,1-1.8
	C24.4,12.6,24.6,13,24.9,13.6z"/>
<path class="st19" d="M34.6,44c-0.1,0-0.2,0-0.3,0c-0.1,0-0.1,0-0.2,0c-0.1,0-0.1,0-0.2-0.1c-0.1-0.3-0.3-0.5-0.3-0.7
	c0-1.3,0-2.6,0-4c0-0.2,0.4-0.6,0.6-0.6c0.6-0.1,1.2-0.1,1.9,0c0.4,0,0.7,0.2,0.7,0.7c-0.1,0-0.2,0-0.2,0c0,0,0,0-0.1,0
	c-0.1,0-0.2,0-0.3-0.1c-0.6,0-1.2,0-1.9,0c-0.1,0-0.2,0-0.3,0c-0.1,0.1-0.2,0.1-0.2,0.3c0,1,0,2,0,3c0,0.2,0.1,0.4,0.2,0.6
	c0.1,0,0.1,0.1,0.2,0.2c0.5,0.1,1,0.1,1.5,0.1c0.2,0,0.4,0.1,0.7,0.2c0,0,0,0.1-0.1,0.1c-0.5,0.1-0.9,0.1-1.4,0.2
	C34.7,43.9,34.6,43.9,34.6,44z"/>
<path class="st20" d="M30.9,16.9c0-0.1,0-0.2,0.1-0.4c0.3-0.2,0.6-0.4,0.9-0.5c0.6-0.4,1.2-0.8,1.8-1.2c0,0.2-0.1,0.5-0.1,0.8
	c-0.2,0.1-0.3,0.2-0.4,0.3c-0.3,0.6-0.6,1.1-1.3,1.3c-0.1,0-0.2,0.2-0.3,0.3c-0.4,0.3-0.7,0.6-1.2,1c0-0.5,0-0.7,0-1
	C30.6,17.2,30.8,17,30.9,16.9z"/>
<path class="st5" d="M22.7,19.8c0-0.3,0-0.6,0-0.9c0.1-0.3,0.2-0.5,0.3-0.8c0.6-0.6,1.1-1.2,1.7-1.8c0.3-0.3,0.5-0.6,0.8-0.9
	c0,0.3,0.1,0.7,0.1,1.1c0,0.2,0,0.3-0.1,0.4c-0.4,0.4-0.8,0.8-1.2,1.1C23.7,18.7,23.2,19.3,22.7,19.8z"/>
<path class="st21" d="M30.4,24.4c-0.1-0.3-0.1-0.6-0.2-0.9c0-0.3,0-0.5,0-0.8c0.9,0,1.2-0.8,1.7-1.3c0.3-0.3,0.5-0.6,0.8-0.9
	c0,0.3,0,0.5,0,0.9c0,0.2-0.1,0.4-0.2,0.6c-0.4,0.5-0.8,1-1.2,1.5C31.1,23.8,30.7,24.1,30.4,24.4z"/>
<path class="st22" d="M30.4,17.4c0,0.3,0,0.5,0,1c0.5-0.4,0.9-0.7,1.2-1c0.1-0.1,0.2-0.2,0.3-0.3c0.7-0.2,1-0.7,1.3-1.3
	c0.1-0.1,0.2-0.2,0.3-0.3c0,0.2,0,0.5-0.1,0.8c-0.5,1.1-1.5,1.8-2.4,2.4c-0.3,0.2-0.5,0.3-0.8,0.4c0-0.8,0-1.5,0-2.2
	C30.3,17.2,30.3,17.3,30.4,17.4z"/>
<path class="st23" d="M30.2,19.3c0.3-0.1,0.6-0.3,0.8-0.4c0.9-0.6,1.9-1.3,2.4-2.4c0,0.5-0.1,1-0.2,1.6c-0.6,0.3-1.1,0.5-1.2,1.2
	c0,0,0,0,0,0c-0.2,0.2-0.4,0.4-0.5,0.6c0,0,0,0-0.1,0c-0.5,0.2-0.9,0.4-1.3,0.5C30.1,19.9,30.2,19.6,30.2,19.3z"/>
<path class="st3" d="M36.8,39.3c0-0.5-0.3-0.7-0.7-0.7c-0.6,0-1.3-0.1-1.9,0c-0.2,0-0.6,0.4-0.6,0.6c-0.1,1.3,0,2.6,0,4
	c0,0.2,0.2,0.4,0.3,0.7c-0.2-0.2-0.5-0.4-0.5-0.6c-0.1-1.4,0-2.7,0-4.1c0-0.6,0.3-0.8,0.9-0.8c0.6,0,1.3,0,1.9,0
	c0.7,0,0.9,0.3,0.9,0.9c0,1.1,0,2.3,0,3.5c0,0,0,0,0,0c0-0.2-0.1-0.3-0.1-0.5c0-0.2,0-0.3,0-0.4c0-0.8,0-1.6-0.1-2.3
	c0,0-0.1,0-0.1,0C36.8,39.3,36.8,39.3,36.8,39.3z"/>
<path class="st1" d="M5.7,40.2c-0.3-0.3-0.5-0.7-0.4-1.2c0.2-0.7,0.2-0.7,0.8-0.6c0,1.7,0,3.5,0,5.2c0,0.1-0.3,0.2-0.5,0.3
	c0-0.1,0-0.1,0-0.1c0.1,0,0.2,0,0.2,0C5.8,42.6,5.8,41.4,5.7,40.2z"/>
<path class="st12" d="M33.7,14.7c-0.6,0.5-1.2,0.9-1.8,1.2c-0.3,0.2-0.6,0.3-0.9,0.5c-0.1-0.3-0.1-0.6-0.1-1.1
	c0.5,0.3,0.7,0.1,0.9-0.3c0.3-0.6,0.9-1.1,1.7-1.1c0.1,0.1,0.1,0.2,0.2,0.2C33.7,14.4,33.7,14.5,33.7,14.7z"/>
<path class="st15" d="M22.7,19.9c0.5-0.6,1-1.2,1.5-1.7c0.4-0.4,0.7-0.8,1.2-1.1c0.1,0.2,0.1,0.4,0.1,0.5c-0.2,0.1-0.5,0.2-0.6,0.4
	c-0.5,0.9-1,1.8-1.5,2.7c-0.2,0.3-0.5,0.5-0.7,0.8c0-0.4,0-0.8,0.1-1.3C22.7,20,22.7,20,22.7,19.9z"/>
<path class="st24" d="M30.4,24.5c0.3-0.4,0.7-0.7,1.1-1c0.3-0.1,0.5-0.2,0.7-0.3c0.2-0.1,0.4-0.2,0.5-0.3c0,0.3-0.1,0.7-0.2,1.1
	c-0.7,0.6-1.4,1.1-2,1.6c-0.1-0.2-0.1-0.4-0.2-0.7C30.3,24.7,30.3,24.6,30.4,24.5z"/>
<path class="st25" d="M33.5,28.1c0.8,0.3,1.4,0,2-0.4c0.6-0.4,1.2-0.8,1.8-1.2c0.1,0,0.1,0,0.1,0.1c-1.1,0.7-2.1,1.5-3.2,2.1
	c-0.4,0.2-1,0.1-1.6,0.1C32.9,28.5,33.2,28.3,33.5,28.1z"/>
<path class="st4" d="M39.2,39.3c-0.1,0.2,0.5,0.6-0.2,0.5c-0.1,0.3-0.2,0.6-0.2,1c0,0.9,0.1,1.7,0,2.6c0,0.1-0.2,0.2-0.4,0.4
	c-0.1-1.5-0.1-3,0-4.6c0.2-0.2,0.4-0.3,0.5-0.3C39.1,39,39.1,39.1,39.2,39.3z"/>
<path class="st26" d="M16,42.6c-0.2-0.1-0.3-0.2-0.5-0.3c0.2-0.2,0.3-0.3,0.6-0.5c0.3,0,0.5,0,0.7,0c0.1,0,0.2,0,0.3,0
	c0.2,0,0.3,0,0.4,0c0.8,0,0.8,0.8,1.1,1.3c0,0,0.1,0.1,0,0.2c0,0.2,0,0.2-0.1,0.3c-0.2-0.3-0.4-0.6-0.6-0.9c0,0,0,0-0.1-0.1
	c-0.5-0.1-1,0-1.6,0C16.3,42.6,16.2,42.6,16,42.6z"/>
<path class="st27" d="M30.5,25.6c0.7-0.6,1.3-1.1,2-1.6c0.1,0.6,0,1.2-0.7,1.7c-0.5,0.2-0.9,0.4-1.3,0.6
	C30.6,26,30.6,25.8,30.5,25.6z"/>
<path class="st1" d="M41.9,40.6c0-0.3,0-0.5-0.1-0.7c-0.2-0.5,0-1,0.5-1.3c0.1,0.1,0.1,0.1,0,0.3c0,0.3,0,0.5,0,0.7
	c0,0.6,0,1.2,0,1.9c-0.2,0.3,0.1,0.9-0.5,0.9C41.9,41.8,41.9,41.2,41.9,40.6z"/>
<path class="st7" d="M28.4,54.2c0-1.2,0-2.3,0-3.5C28.9,51,29,54,28.7,55c-0.1,0-0.1,0-0.2,0C28.5,54.8,28.4,54.5,28.4,54.2z"/>
<path class="st19" d="M53,39.2c-0.7,0-1.4,0-2.1,0c-0.3-0.5-0.1-0.7,0.3-0.7c0.7,0,1.3,0,2,0c0,0,0,0,0,0
	C53.5,38.9,53.2,39.1,53,39.2z"/>
<path class="st18" d="M32.7,26.8c0.1,0.3,0.3,0.6,0.4,0.9c-0.3,0.3-0.6,0.6-1,0.9c-0.5-0.1-0.7-0.4-0.7-1
	C31.9,27.4,32.3,27.1,32.7,26.8z"/>
<path class="st24" d="M24.1,12c-0.3,0.6-0.6,1.2-1,1.8c-0.1-0.2-0.2-0.5-0.3-0.8c0.1-0.6,0.3-1.1,0.8-1.3
	C23.8,11.8,23.9,11.9,24.1,12z"/>
<path class="st27" d="M32.7,26.8c-0.4,0.3-0.9,0.6-1.3,0.9c-0.5-0.1-0.3-0.3-0.1-0.5c0.4-0.4,0.8-0.8,1.4-1.3
	C32.7,26.2,32.7,26.5,32.7,26.8z"/>
<path class="st6" d="M36.8,39.3c0,0,0,0.1,0,0.1c-0.1,1.3-0.1,2.5-0.1,3.7c0,0.2,0,0.3,0,0.4c-0.1,0.1-0.1,0.2-0.1,0.3
	c-0.3,0.1-0.5,0.1-0.8,0.2c-0.2,0-0.5,0-0.8,0c-0.1,0-0.1-0.1-0.1-0.1c0.5-0.1,0.9-0.1,1.4-0.2c0,0,0-0.1,0.1-0.1
	c-0.2-0.1-0.4-0.2-0.7-0.2c-0.5-0.1-1-0.1-1.4-0.1c0.1,0,0.2,0,0.3,0c0.2,0,0.3,0,0.4,0c0.3,0,0.5,0,0.7,0c0.2,0,0.3,0,0.5,0
	c0.1-0.2,0.3-0.4,0.3-0.6c0-1.1,0-2.1,0-3.2c0,0,0-0.1,0-0.1C36.6,39.3,36.7,39.3,36.8,39.3z"/>
<path class="st3" d="M53.2,38.5c-0.6,0.1-1.3,0.1-2,0.1c-0.5,0-0.7,0.2-0.4,0.7c0,0.1,0,0.1,0,0.1c-0.1,0-0.1,0-0.1,0
	c0,0-0.1,0-0.1,0c-0.1,0.3-0.1,0.6-0.2,0.8c0,0,0,0,0-0.1c-0.2-1.7,0-1.9,1.7-1.9C52.4,38.3,52.8,38.4,53.2,38.5z"/>
<path class="st27" d="M23.6,11.6c-0.5,0.3-0.7,0.7-0.8,1.3c-0.2-0.2-0.3-0.5-0.4-0.8c0-0.3,0.1-0.6,0.1-0.8
	C22.9,11.4,23.3,11.5,23.6,11.6z"/>
<path class="st21" d="M32.1,19.2c0-0.7,0.5-0.9,1.1-1.1c0,0.4-0.1,0.9-0.1,1.3C32.7,19.4,32.4,19.3,32.1,19.2z"/>
<path class="st28" d="M22.5,11.3c0,0.2,0,0.5-0.1,0.8c-0.6-0.1-1.1-0.2-1.7-0.3c0,0-0.1-0.1-0.1-0.1C21.2,11.5,21.8,11.4,22.5,11.3z
	"/>
<path class="st3" d="M53.5,41.2c-0.5-0.4-1.2-0.4-1.8-0.4c-0.3,0-0.5-0.1-0.9-0.2c0-0.1,0-0.1,0-0.2c0.6,0,1.2,0.1,1.8,0.1
	C53.1,40.6,53.4,40.7,53.5,41.2z"/>
<path class="st18" d="M32.7,22.8c-0.2,0.2-0.4,0.3-0.6,0.4c-0.2,0.1-0.4,0.2-0.6,0.2c0.3-0.5,0.7-0.9,1.1-1.4
	C32.7,22.3,32.7,22.5,32.7,22.8z"/>
<path class="st7" d="M10.6,34c-0.2,0.2-0.4,0.3-0.5,0.4c0,0-0.1-0.1-0.1-0.1c0.6-0.6,1.2-1.1,1.7-1.7c0.1,0.1,0.1,0.1,0.2,0.2
	C11.5,33.2,11,33.6,10.6,34z"/>
<path class="st6" d="M41.9,42.4c0.6,0,0.3-0.6,0.5-0.9c0,0.7,0,1.5,0,2.3c-0.1,0-0.1-0.1-0.1-0.2c-0.1-0.2-0.2-0.3-0.3-0.5
	C41.9,42.9,41.9,42.7,41.9,42.4z"/>
<path class="st4" d="M12.7,39.5c0.1-0.1,0.1-0.2,0.2-0.3c0,1.5-0.1,2.9-0.2,4.4C12.7,42.3,12.7,40.9,12.7,39.5z"/>
<path class="st7" d="M32.2,28.7c0.3-0.3,0.6-0.6,0.9-0.9c0.1,0.1,0.2,0.2,0.3,0.3c-0.2,0.2-0.5,0.4-0.8,0.7
	C32.5,28.8,32.3,28.7,32.2,28.7z"/>
<path class="st3" d="M53,39.3c0.2-0.2,0.5-0.3,0.2-0.7c0.4,0.4,0.4,0.9-0.2,1.3C53,39.7,53,39.5,53,39.3z"/>
<path class="st25" d="M37.6,26.3c0.4-0.5,0.9-1,1.3-1.5c0.1,0.1,0.2,0.2,0.2,0.2c-0.5,0.4-0.9,0.9-1.4,1.3
	C37.6,26.3,37.6,26.3,37.6,26.3z"/>
<path class="st6" d="M23.1,43.5C23,42.9,23,42.2,23,41.4C23,42.1,23.1,42.8,23.1,43.5z"/>
<path class="st6" d="M18,42.8c0.2,0.2,0.4,0.5,0.6,0.8c0-0.1,0-0.2,0.1-0.3c0.1,0.1,0.2,0.3,0.4,0.5C18.3,44,18.2,43.9,18,42.8z"/>
<path class="st28" d="M30.7,26.3c0.4-0.2,0.8-0.4,1.2-0.6c-0.1,0.2-0.3,0.5-0.6,0.7C31.1,26.4,30.9,26.3,30.7,26.3z"/>
<path class="st6" d="M39,38.8c-0.2,0.1-0.3,0.2-0.5,0.3c0-0.2,0.1-0.5,0.1-0.8C38.8,38.5,38.9,38.6,39,38.8z"/>
<path class="st7" d="M48.8,3.1c0.5-0.3,0.9-0.6,1.4-0.9c0,0.1,0.1,0.1,0.1,0.2c-0.5,0.2-0.9,0.5-1.4,0.7C48.8,3.1,48.8,3.1,48.8,3.1
	z"/>
<path class="st16" d="M44.4,7.1c-0.3,0.4-0.7,0.7-1,1.1c-0.1-0.1-0.1-0.1-0.2-0.2c0.3-0.3,0.7-0.7,1.1-1C44.4,7.1,44.4,7.1,44.4,7.1
	z"/>
<path class="st28" d="M20.3,11.9c-0.2,0.3-0.4,0.6-0.6,0.8c-0.1-0.1-0.1-0.1-0.2-0.2C19.8,12.3,20,12.1,20.3,11.9z"/>
<path class="st1" d="M41.9,43.2c0.1,0.1,0.2,0.3,0.3,0.4c0,0.1,0.1,0.1,0.1,0.2C41.6,44.2,41.9,43.6,41.9,43.2z"/>
<path class="st7" d="M48.8,3.2c-0.3,0.2-0.5,0.5-0.8,0.7c-0.1-0.1-0.1-0.1-0.2-0.2c0.3-0.2,0.6-0.4,0.9-0.6
	C48.8,3.1,48.8,3.1,48.8,3.2z"/>
<path class="st3" d="M36.7,43.5c0-0.1,0-0.2,0-0.4c0.1-0.1,0.2-0.2,0.3-0.3c0,0,0.1,0,0.1,0s0,0,0,0c0,0.3-0.1,0.6-0.1,0.9
	c-0.1,0-0.1,0-0.1-0.1C36.7,43.5,36.7,43.5,36.7,43.5z"/>
<path class="st6" d="M16.4,42.6c0.5,0,1,0,1.5,0C17.4,42.7,16.9,42.7,16.4,42.6z"/>
<path class="st16" d="M46.6,4.8c-0.2,0.2-0.4,0.5-0.7,0.7c-0.1,0-0.1,0-0.1-0.1C46.1,5.3,46.3,5.1,46.6,4.8
	C46.6,4.8,46.6,4.8,46.6,4.8z"/>
<path class="st4" d="M50.3,40.3c0-0.3,0.1-0.6,0.1-0.9c0,0.4,0,0.9-0.1,1.5c0,0,0,0,0,0c0-0.1,0-0.2,0-0.3
	C50.4,40.5,50.3,40.5,50.3,40.3z"/>
<path class="st25" d="M39.4,24.5c0.1-0.1,0.2-0.2,0.3-0.3c0,0,0,0.1,0.1,0.1C39.7,24.4,39.5,24.5,39.4,24.5z"/>
<path class="st4" d="M50.8,40.4c0,0.1,0,0.1,0,0.2c-0.1-0.3-0.1-0.7-0.1-1.1c0-0.1,0.1-0.1,0.1-0.1C50.8,39.7,50.8,40,50.8,40.4z"/>
<path class="st3" d="M35.7,44c0.2-0.1,0.5-0.1,0.8-0.2c0.1,0,0.1,0,0.1,0c0,0.1,0,0.1,0.1,0.1C36.4,43.9,36.1,44,35.7,44z"/>
<path class="st5" d="M27.6,27.5c0.1-0.1,0.2-0.3,0.3-0.4C27.9,27.3,27.8,27.4,27.6,27.5z"/>
<path class="st16" d="M44.7,6.8c0-0.2,0.1-0.4,0.2-0.6c0.1,0,0.1,0.1,0.2,0.1C45,6.5,44.9,6.6,44.7,6.8z"/>
<path class="st6" d="M42.4,39.5c0-0.2-0.1-0.4,0-0.6C42.4,39,42.4,39.2,42.4,39.5z"/>
<path class="st6" d="M36.8,43.8c-0.1,0-0.1,0-0.1-0.1c0-0.1,0.1-0.1,0.1-0.1c0,0,0.1,0,0.1,0.1C36.9,43.7,36.9,43.8,36.8,43.8z"/>
<path class="st5" d="M27.2,27.9c0-0.1,0.1-0.2,0.2-0.3C27.4,27.8,27.3,27.8,27.2,27.9z"/>
<path class="st12" d="M2.2,43.9c0.1,0,0.2-0.1,0.3-0.1C2.5,43.9,2.4,43.9,2.2,43.9z"/>
<path class="st20" d="M33.7,14.2c-0.1,0-0.1-0.1-0.1-0.2c0-0.1,0.1-0.1,0.1-0.2C33.7,13.9,33.7,14,33.7,14.2z"/>
<path class="st16" d="M45.5,6c-0.1,0.1-0.2,0.2-0.3,0.3c0,0-0.1,0-0.1-0.1c0.1-0.1,0.1-0.2,0.2-0.3C45.5,5.9,45.5,6,45.5,6z"/>
<path class="st13" d="M22.1,24.2c0,0.1,0,0.2,0,0.3C22.1,24.5,22.1,24.4,22.1,24.2z"/>
<path class="st3" d="M34.8,43.9C34.8,43.9,34.8,43.9,34.8,43.9c0,0.1-0.1,0.1-0.2,0.1C34.6,43.9,34.7,43.9,34.8,43.9z"/>
<path class="st15" d="M22.4,22.1c0,0,0,0.1,0,0.2C22.4,22.3,22.4,22.2,22.4,22.1z"/>
<path class="st16" d="M44.3,7c0.1-0.1,0.1-0.1,0.2-0.2c0,0.1,0,0.1-0.1,0.2C44.4,7.1,44.4,7.1,44.3,7z"/>
<path class="st5" d="M28.1,27.1c0-0.1,0.1-0.1,0.1-0.2C28.2,27,28.1,27.1,28.1,27.1z"/>
<path class="st25" d="M37.4,26.5c0-0.1,0.1-0.1,0.2-0.2c0.1,0,0.1,0,0.1,0.1c0,0.1-0.1,0.1-0.2,0.2C37.4,26.6,37.4,26.6,37.4,26.5z"
	/>
<path class="st3" d="M50.3,40.6c0,0,0,0.1,0,0.2C50.4,40.8,50.4,40.8,50.3,40.6z"/>
<path class="st3" d="M53.6,41.9c0,0-0.1-0.1,0-0.2C53.6,41.7,53.6,41.8,53.6,41.9z"/>
<path class="st16" d="M45.9,5.5c0,0.1,0,0.1-0.1,0.1c-0.1,0-0.1,0-0.1-0.1c0,0,0-0.1,0.1-0.1C45.8,5.5,45.9,5.5,45.9,5.5z"/>
<path class="st5" d="M27.5,27.7c0,0,0-0.1,0.1-0.1C27.6,27.6,27.5,27.6,27.5,27.7z"/>
<path class="st22" d="M2.1,38.6C2.2,38.6,2.2,38.6,2.1,38.6C2.1,38.7,2.1,38.7,2.1,38.6z"/>
<path class="st16" d="M45.5,5.7c0,0,0.1-0.1,0.1-0.1c0,0,0.1,0,0.1,0.1c0,0.1,0,0.1-0.1,0.1C45.6,5.8,45.5,5.8,45.5,5.7z"/>
<path class="st16" d="M45.6,5.8c0,0.1,0,0.1-0.1,0.2c0,0-0.1,0-0.1-0.1c0-0.1,0-0.1,0.1-0.1C45.5,5.8,45.6,5.8,45.6,5.8z"/>
<path class="st16" d="M46.6,4.8C46.6,4.8,46.6,4.8,46.6,4.8C46.6,4.8,46.6,4.8,46.6,4.8z"/>
<path class="st22" d="M2.1,39C2.2,39,2.2,39.1,2.1,39C2.1,39.1,2.1,39.1,2.1,39z"/>
<path class="st5" d="M27,28.1c0,0,0-0.1,0.1-0.1C27.1,28,27.1,28,27,28.1z"/>
<path class="st3" d="M34.2,44C34.2,43.9,34.2,43.9,34.2,44C34.3,44,34.2,44,34.2,44z"/>
<path class="st22" d="M2.1,43.6c0,0,0,0.1,0,0.1C2.1,43.8,2.1,43.7,2.1,43.6z"/>
<path class="st5" d="M28.3,26.9c0,0,0-0.1,0.1-0.2C28.4,26.7,28.4,26.8,28.3,26.9z"/>
<path class="st12" d="M33.6,11.5C33.6,11.5,33.6,11.5,33.6,11.5C33.6,11.4,33.6,11.4,33.6,11.5z"/>
<path class="st6" d="M23,41.3C23,41.3,22.9,41.3,23,41.3C22.9,41.2,23,41.3,23,41.3z"/>
<path class="st12" d="M33.7,11.9C33.7,11.9,33.7,11.9,33.7,11.9C33.7,11.9,33.7,11.9,33.7,11.9z"/>
<path class="st18" d="M22.9,17.7C23,17.7,23,17.8,22.9,17.7C23,17.8,23,17.8,22.9,17.7C22.9,17.8,22.9,17.8,22.9,17.7z"/>
<path class="st12" d="M30.2,17c-0.1-0.4-0.1-0.9-0.1-1.3c0.2,0.2,0.4,0.4,0.6,0.7c0.1,0.1,0.1,0.3,0.2,0.5c-0.1,0.2-0.3,0.4-0.5,0.6
	C30.3,17.3,30.3,17.2,30.2,17z"/>
<path class="st29" d="M22.6,42.7c-0.3,0.5-1.7,0.9-2,0.5c-0.1-0.2-0.1-0.5-0.2-0.8c0-0.3,0-0.5,0-0.9c0.6,0,1.3-0.1,1.8,0.1
	C22.5,41.6,22.5,42.2,22.6,42.7z"/>
<path class="st29" d="M20.5,39.2c0.1,0,0.1-0.1,0.3-0.1c0.7,0,1.2,0,1.8,0.1c0,0.2,0.1,0.4,0.1,0.6c0.1,0.6-0.1,0.9-0.8,0.8
	c-0.4,0-0.9,0-1.3-0.2C20.5,40,20.5,39.6,20.5,39.2z"/>
<path class="st4" d="M22.5,39.2c-0.5,0-1.1,0-1.7,0C21.3,39.1,21.9,39.1,22.5,39.2z"/>
<path class="st4" d="M20.4,39.3c0.1,0.3,0.1,0.7,0.1,1.2C20.4,40.1,20.4,39.7,20.4,39.3z"/>
<path class="st28" d="M25,39.5c0.1-0.1,0.3-0.3,0.4-0.3c0.7,0,1.3,0,2.1,0c0,1.3,0,2.5,0,3.9c-0.8,0-1.6,0-2.4,0C25,43,25,43,25,43
	c0-0.2,0-0.4,0-0.7c0-0.7,0-1.2,0-1.9c0-0.1,0-0.2,0-0.3C25,39.9,25,39.7,25,39.5z"/>
<path class="st26" d="M26.2,38.6c0.6,0,1.1,0.1,1.6,0.1c0,0.1,0,0.2,0,0.3c-1,0-1.9,0-3,0C25.2,38.3,25.7,38.7,26.2,38.6z"/>
<path class="st26" d="M25,40.5c0,0.6,0,1.1,0,1.8c-0.1,0.2-0.2,0.2-0.4,0.4c0-1,0-1.9,0-2.8c0-0.1,0.2-0.2,0.3-0.3
	c0.1,0.2,0.1,0.4,0,0.7C25,40.3,25,40.4,25,40.5z"/>
<path class="st26" d="M25.8,43.7c-0.2,0-0.4-0.1-0.6-0.1c0.6-0.4,1.5-0.4,2.2,0.1C26.8,43.7,26.3,43.7,25.8,43.7z"/>
<path class="st26" d="M25,43.1c-0.1,0.2-0.1,0.5-0.2,0.7c-0.1,0,0,0-0.1,0C24.9,43.6,24.3,43.1,25,43.1C25,43,25,43,25,43.1z"/>
<path class="st26" d="M27.6,43.7C27.6,43.7,27.6,43.7,27.6,43.7z"/>
<path class="st6" d="M5.7,40.3c0.1,1.2,0.1,2.4,0.1,3.6c0,0-0.1,0-0.2,0C5.6,42.7,5.6,41.5,5.7,40.3z"/>
<path class="st19" d="M7.9,39c0-0.2,0-0.4,0.1-0.4c0.7,0,1.4,0,2.1,0c0,0.1,0,0.2,0,0.3C9.4,39,8.7,39,7.9,39z"/>
<path class="st26" d="M8.6,43.5c0.4,0,0.6-0.1,0.9-0.1c0.3,0,0.5,0,0.8,0.1c-0.7,0.4-2.2,0.3-2.5-0.2C8.1,43.4,8.3,43.4,8.6,43.5z"
	/>
<path class="st26" d="M8.8,41.2c-0.3,0-0.6-0.1-0.9-0.1c0-0.1,0-0.1,0-0.2c0.5,0,1,0,1.4,0c0,0.1,0,0.1,0,0.2
	C9.2,41.2,9,41.2,8.8,41.2z"/>
<path class="st30" d="M13.4,51.9c0,0.8,0,1.6,0,2.4c-0.6,0-1.2,0-1.9,0c0-1,0-1.9,0-3c0.5,0,1,0,1.5,0
	C13.2,51.4,13.3,51.7,13.4,51.9z"/>
<path class="st29" d="M17.5,41.8c-0.2,0-0.3,0-0.4,0c-0.1,0-0.2,0-0.3,0.1c-0.2,0-0.4,0-0.6,0c0.2-0.8,0.4-1.6,0.6-2.5
	c0.1,0,0.1,0,0.2,0C17.2,40.2,17.4,41,17.5,41.8z"/>
<path class="st21" d="M30.2,21.5c-0.1-0.3-0.1-0.7-0.1-1.1c0.4-0.2,0.9-0.4,1.3-0.6c-0.1,0.2-0.2,0.5-0.3,0.7
	C30.9,20.9,30.6,21.2,30.2,21.5z"/>
<path class="st21" d="M31.5,19.8c0.1-0.2,0.3-0.4,0.5-0.6c0.1,0.2,0.2,0.5,0.4,0.9C32,20,31.8,19.9,31.5,19.8z"/>
<path class="st28" d="M34.5,43.2c-0.1,0-0.2,0-0.3,0c-0.1,0-0.1-0.1-0.2-0.2c0-1.2,0-2.4,0-3.6c0-0.1,0-0.1,0.1-0.1
	c0.1,0,0.1,0,0.3,0c0.7,0,1.3,0,1.9,0c0,0,0.1,0,0.2,0.1c0.1,0.1,0.1,0.1,0.1,0.1c0,1.1,0,2.1,0,3.2c0,0.2-0.1,0.4-0.3,0.5
	c-0.2,0-0.4,0-0.6,0c-0.2,0-0.4,0-0.7,0C34.7,43.1,34.6,43.1,34.5,43.2z"/>
<path class="st4" d="M33.9,39.4c0,1.2,0,2.3,0,3.6c-0.1-0.1-0.2-0.3-0.2-0.5c0-1,0-1.9,0-3C33.8,39.4,33.9,39.4,33.9,39.4z"/>
<path class="st3" d="M36.2,39.2c-0.5,0-1.1,0-1.8,0C34.9,39.2,35.5,39.1,36.2,39.2z"/>
<path class="st3" d="M33.9,39.4c-0.1,0-0.1,0-0.2,0c0-0.1,0.1-0.2,0.2-0.2C34,39.2,34,39.3,33.9,39.4z"/>
<path class="st3" d="M36.5,39.4C36.5,39.4,36.5,39.3,36.5,39.4c0-0.1,0-0.1,0-0.1C36.5,39.3,36.5,39.3,36.5,39.4z"/>
<path class="st26" d="M36.9,42.8c-0.1,0.1-0.1,0.2-0.2,0.3c0-1.2,0-2.4,0.1-3.6c0,0,0.1,0,0.1,0c0,0.8,0,1.6,0,2.3
	c0,0.1,0,0.2,0,0.4C36.9,42.5,36.9,42.6,36.9,42.8z"/>
<path class="st6" d="M37,41.7c0-0.7,0-1.5,0-2.3C37,40.2,37,40.9,37,41.7z"/>
<path class="st6" d="M37,42.8c0-0.1,0-0.3,0-0.5C37,42.3,37,42.5,37,42.8C37.1,42.7,37,42.8,37,42.8z"/>
<path class="st6" d="M16.8,41.9c0,0,0.1,0,0.2,0C17,41.9,16.9,41.9,16.8,41.9z"/>
<path class="st26" d="M36.8,43.6c0,0.1-0.1,0.1-0.1,0.2c0,0-0.1,0-0.1,0c0-0.1,0-0.2,0.1-0.3C36.7,43.5,36.7,43.5,36.8,43.6z"/>
<path class="st19" d="M35.7,43.2c0.1,0,0.2,0,0.4,0C36,43.2,35.9,43.2,35.7,43.2z"/>
<path class="st19" d="M34.6,43.2c0,0,0.2,0,0.3,0C34.8,43.2,34.7,43.2,34.6,43.2z"/>
<path class="st3" d="M25,40.5c0,0-0.1-0.1,0-0.2C25,40.3,25,40.4,25,40.5z"/>
</svg>
