<?xml version="1.0" encoding="UTF-8"?>
<svg id="Layer_1" data-name="Layer 1" xmlns="http://www.w3.org/2000/svg" version="1.1" viewBox="0 0 56 56">
  <defs>
    <style>
      .cls-1 {
        fill: #638e8c;
      }

      .cls-1, .cls-2, .cls-3, .cls-4, .cls-5, .cls-6, .cls-7, .cls-8, .cls-9, .cls-10, .cls-11, .cls-12, .cls-13, .cls-14, .cls-15, .cls-16, .cls-17, .cls-18, .cls-19, .cls-20, .cls-21, .cls-22, .cls-23, .cls-24, .cls-25, .cls-26 {
        stroke-width: 0px;
      }

      .cls-2 {
        fill: #e6ab39;
      }

      .cls-3, .cls-13 {
        fill: #5e85a9;
      }

      .cls-4, .cls-5, .cls-6, .cls-7, .cls-9, .cls-12, .cls-13, .cls-14, .cls-16, .cls-18, .cls-19, .cls-20, .cls-21, .cls-22, .cls-24, .cls-25 {
        fill-rule: evenodd;
      }

      .cls-4, .cls-17 {
        fill: #c98e37;
      }

      .cls-5, .cls-26 {
        fill: #231f20;
      }

      .cls-6 {
        fill: #efc283;
      }

      .cls-7 {
        fill: #c08532;
      }

      .cls-8 {
        fill: #d39a3e;
      }

      .cls-9 {
        fill: #b21f2f;
      }

      .cls-10 {
        fill: #0c3c5d;
      }

      .cls-11, .cls-24 {
        fill: #000;
      }

      .cls-12 {
        fill: #162c53;
      }

      .cls-14 {
        fill: #f9e8b6;
      }

      .cls-15 {
        fill: #e01932;
      }

      .cls-16 {
        fill: #ba7f2c;
      }

      .cls-18 {
        fill: #e0bd2d;
      }

      .cls-19, .cls-23 {
        fill: #fff;
      }

      .cls-20 {
        fill: #e5ae4a;
      }

      .cls-21 {
        fill: #85b3da;
      }

      .cls-22 {
        fill: #b96367;
      }

      .cls-25 {
        fill: #e3aa36;
      }
    </style>
  </defs>
  <g id="g4390">
    <path id="path4392" class="cls-26" d="M6.4.2v29.5c0,13.2,16,26.1,21.6,26.1s21.6-12.9,21.6-26.1V.2H6.4"/>
  </g>
  <g id="g4394">
    <path id="path4396" class="cls-23" d="M6.9.8v28.8c0,12.9,15.7,25.5,21.1,25.5s21.1-12.6,21.1-25.5V.8H6.9"/>
  </g>
  <g id="g4398">
    <path id="path4400" class="cls-15" d="M6.9.8h42.3v14.3h-5.9v3h-5.7v-3h-6.8v3h-5.8v-3h-6.7v3h-5.8v-3h-5.6V.8"/>
  </g>
  <g id="g4402">
    <path id="path4404" class="cls-26" d="M43.4,18.4h-6.1v-3h-6.4v3h-6.1v-3h-6.3v3h-6.1v-3h-5.5v-.4h5.8v3h5.4v-3h7v3h5.4v-3h7.1v3h5.4v-3h6.1v.4h-5.8v3"/>
  </g>
  <g id="g4406">
    <path id="path4408" class="cls-23" d="M11.9,3.3h-.2c-.5.4-.3,2.6,1.3,5.5,1.4,2.5,3.1,3.9,3.9,3.9h.2c.2-.2.4-.7.2-1.8-.2-1.1-.7-2.4-1.5-3.7-1.4-2.5-3.1-3.9-3.9-3.9M16.9,13.6c-1.4,0-3.3-2.2-4.6-4.4-1.5-2.7-2.4-5.8-1-6.6.2,0,.4-.1.6-.1,1.4,0,3.3,2.2,4.6,4.4.8,1.4,1.4,2.8,1.6,4,.3,1.7-.1,2.4-.6,2.6-.2,0-.4.1-.6.1"/>
  </g>
  <g id="g4410">
    <path id="path4412" class="cls-23" d="M14.3,6.5c-3.2,0-5.3.9-5.3,1.5,0,.2.4.6,1.4,1,1.1.4,2.5.6,4,.6h.1c3.2,0,5.3-.9,5.3-1.5,0-.2-.4-.6-1.4-1-1.1-.4-2.5-.6-4-.6h-.1ZM14.5,10.4h-.1c-1.6,0-3.1-.2-4.2-.6-1.6-.6-2-1.3-2-1.8,0-1.5,3.1-2.3,6.1-2.3h.1c1.6,0,3.1.2,4.2.6,1.6.6,2,1.3,2,1.8,0,1.5-3.1,2.3-6.1,2.3"/>
  </g>
  <g id="g4414">
    <path id="path4416" class="cls-23" d="M17,3.3c-.8,0-2.4,1.5-3.9,3.9-.7,1.3-1.3,2.6-1.5,3.7-.2,1.1,0,1.6.2,1.7h.2c.8,0,2.4-1.4,3.9-3.9,1.6-2.9,1.9-5.1,1.3-5.5h-.2M11.9,13.6c-.2,0-.4,0-.6-.2-.4-.3-.9-.9-.6-2.6.2-1.2.8-2.6,1.6-4,1.2-2.2,3.1-4.4,4.6-4.4s.4,0,.6.1c1.4.8.5,3.9-1,6.6-1.2,2.2-3.1,4.4-4.6,4.4"/>
  </g>
  <g id="g4418">
    <path id="path4420" class="cls-26" d="M11.9,13.7c-.2,0-.3,0-.5,0-.4-.2-.7-.6-.9-1.3,0,0-.1-.9.3-2.3h0c0-.1,1.1,0,1.1,0v.2s-.3.9-.3,1.4c0,.3,0,.7.2.9h.1s0,0,0,0h0s0,0,0,0c0,0,.4,0,1-.5,0,0,1-.8,1.6-1.7,0,0,1-1.3,1.5-2.4,0,0,.9-1.7,1.2-3.4,0-.3,0-.9-.1-1.1,0,0-.1,0-.3,0,0,0-1.1.4-2.5,2.3,0,0-.9,1.2-1.5,2.4h-.3c.6-1.3,1.5-2.5,1.5-2.5,1.5-2,2.6-2.4,2.7-2.4.3-.1.5,0,.6,0,.4.3.3,1.2.2,1.3-.2,1.8-1.2,3.5-1.2,3.5-.5,1.1-1.4,2.3-1.5,2.4-.6.9-1.6,1.7-1.7,1.8-.7.6-1.1.6-1.2.6-.1,0-.2,0-.3-.1-.3-.3-.2-1-.2-1.1,0-.4.2-1,.2-1.3h-.5c-.3,1.2-.2,1.9-.2,1.9.1.6.3.9.7,1.1.7.3,1.7-.4,1.7-.4,1.1-.7,2.4-2.6,2.4-2.6,1.3-1.7,2.1-4.2,2.1-4.3.3-.9.3-1.7.3-1.7,0-.7-.1-1.2-.4-1.5-.4-.3-.8-.3-.8-.3-2.1.3-4.5,4.6-4.5,4.6h-.3c.1-.3,2.5-4.6,4.7-4.9,0,0,.6,0,1.1.3.4.4.6.9.5,1.7,0,0,0,.8-.3,1.8,0,0-.8,2.6-2.1,4.4,0,0-1.4,2-2.5,2.7,0,0-.7.5-1.5.5"/>
  </g>
  <g id="g4422">
    <path id="path4424" class="cls-26" d="M16,8.1c-.8-1.6-1.7-2.7-1.8-2.7l.2-.2s1,1.2,1.8,2.8h-.3"/>
  </g>
  <g id="g4426">
    <path id="path4428" class="cls-26" d="M16.5,7.2c-.7-1.3-1.7-2.4-1.7-2.4l.2-.2s1,1.2,1.7,2.5h-.3"/>
  </g>
  <g id="g4430">
    <path id="path4432" class="cls-26" d="M12.3,9.6l-.7-1.4c-2-4.5-.8-5.4-.6-5.5,1.5-1.1,3.4,1.2,3.5,1.3l-.2.2s-1.8-2.2-3.1-1.3h0s-1.3.7.7,5.1l.7,1.4h-.3"/>
  </g>
  <g id="g4434">
    <path id="path4436" class="cls-26" d="M13.4,9.7c-2.7-4-2.1-6-2.1-6.1.1-.3.3-.4.5-.4.8-.1,2,1.2,2.1,1.4l-.2.2c-.3-.4-1.3-1.4-1.9-1.3,0,0-.2,0-.3.2,0,0-.6,2,2,5.9l-.2.2"/>
  </g>
  <g id="g4438">
    <path id="path4440" class="cls-26" d="M16.9,13.8c-.7,0-1.6-.5-2.6-1.6l.2-.2c1.5,1.5,2.3,1.6,2.7,1.4.6-.2.7-1,.7-1,.4-1.2-1-4.3-1-4.3h.3c0,0,1.4,3,1,4.4,0,0-.2,1-.9,1.2-.1,0-.2,0-.4,0"/>
  </g>
  <g id="g4442">
    <path id="path4444" class="cls-26" d="M16.9,12.9c-.5,0-1.1-.4-2-1.3l.2-.2c1.3,1.4,1.8,1.3,1.9,1.2.2,0,.3-.5.2-1-.2-1.5-.7-2.4-.7-2.4h.3c0-.1.5.8.7,2.4.1.7,0,1.2-.3,1.3h-.3"/>
  </g>
  <g id="g4446">
    <path id="path4448" class="cls-26" d="M13.8,11.6c-.2-.2-.8-1-.8-1.1l.2-.2c.2.4.6.9.8,1l-.2.2"/>
  </g>
  <g id="g4450">
    <path id="path4452" class="cls-26" d="M11.4,9.3h-.3c0-.2.4-1,.5-1.3h.3c-.2.6-.5,1.2-.5,1.3"/>
  </g>
  <g id="g4454">
    <path id="path4456" class="cls-26" d="M16.4,9.6v-.3s.4,0,.4,0v.3s-.4,0-.4,0"/>
  </g>
  <g id="g4458">
    <path id="path4460" class="cls-26" d="M15.8,10.6c-.2,0-.2,0-.2,0l.2-.2h0c0,0,.7-.1,1.2-.2v.3c-.7.1-1,.2-1.2.2"/>
  </g>
  <g id="g4462">
    <path id="path4464" class="cls-26" d="M14.6,10.6c-.5,0-3,0-4.6-.7-.8-.3-1.9-.9-2-1.7,0-.5.2-1,.9-1.6,0,0,.8-.6,2-.8v.3c-1.1.2-1.8.7-1.8.7-.6.4-.8.9-.8,1.3,0,.5.7,1.1,1.8,1.5,1.7.7,4.5.6,4.6.6v.3s0,0,0,0"/>
  </g>
  <g id="g4466">
    <path id="path4468" class="cls-26" d="M14.5,9.8c-2.1,0-4.8-.5-5.5-1.4-.2-.2-.2-.4-.1-.5.2-.7,2.1-1.1,2.3-1.2v.3c-.7.2-1.9.6-2,1,0,0,0,.1,0,.2.7.8,3.7,1.4,6,1.3v.3c-.2,0-.5,0-.7,0"/>
  </g>
  <g id="g4470">
    <path id="path4472" class="cls-26" d="M12,6.8v-.3c.3,0,.5,0,.6,0v.3h0s-.3,0-.5,0"/>
  </g>
  <g id="g4474">
    <path id="path4476" class="cls-26" d="M11.7,6v-.3s1-.2,1.4-.2v.3c-.4,0-1.4.2-1.4.2"/>
  </g>
  <g id="g4478">
    <path id="path4480" class="cls-26" d="M12.2,9.5h-.3c0-.1.2-.5.2-.5h.3c0,.1-.2.5-.2.5"/>
  </g>
  <g id="g4482">
    <path id="path4484" class="cls-26" d="M15.3,6.7c-.2,0-1.2,0-1.7,0v-.3c.1,0,1.5,0,1.8,0v.3"/>
  </g>
  <g id="g4486">
    <path id="path4488" class="cls-26" d="M14.1,5.9v-.3s.6,0,.6,0v.3s-.6,0-.6,0"/>
  </g>
  <g id="g4490">
    <path id="path4492" class="cls-26" d="M17,6.1c-.6-.2-1.2-.1-1.2-.2v-.3s.7,0,1.3.2v.3"/>
  </g>
  <g id="g4494">
    <path id="path4496" class="cls-26" d="M16.8,6.9h-.5c0-.1,0-.4,0-.4h.5c0,.1,0,.4,0,.4"/>
  </g>
  <g id="g4498">
    <path id="path4500" class="cls-26" d="M17.6,9.5v-.3c1.4-.3,1.8-.8,1.8-.8h0c.2-.2.2-.3.2-.3-.1-.4-1.3-.8-2-1v-.3c.3,0,2.2.5,2.3,1.2,0,.1,0,.4-.3.6,0,0-.6.5-2,.8"/>
  </g>
  <g id="g4502">
    <path id="path4504" class="cls-26" d="M18,10.3v-.3s2.6-.5,2.5-1.9c-.1-1.4-2.6-1.9-2.6-1.9v-.3c.2,0,2.8.5,2.9,2.1.1,1.6-2.7,2.2-2.8,2.2"/>
  </g>
  <g id="g4506">
    <path id="path4508" class="cls-23" d="M11.8,4.9c0,.4-.3.8-.8.8s-.8-.3-.8-.8.3-.8.8-.8.8.3.8.8"/>
  </g>
  <g id="g4510">
    <path id="path4512" class="cls-26" d="M11,4.3c-.3,0-.6.3-.6.6s.3.6.6.6.6-.3.6-.6-.3-.6-.6-.6M11,5.8c-.5,0-.9-.4-.9-.9s.4-.9.9-.9.9.4.9.9-.4.9-.9.9"/>
  </g>
  <g id="g4514">
    <path id="path4516" class="cls-23" d="M15.2,8.1c0,.4-.3.8-.8.8s-.8-.3-.8-.8.3-.8.8-.8.8.3.8.8"/>
  </g>
  <g id="g4518">
    <path id="path4520" class="cls-26" d="M14.4,7.5c-.3,0-.6.3-.6.6s.3.6.6.6.6-.3.6-.6-.3-.6-.6-.6M14.4,9c-.5,0-.9-.4-.9-.9s.4-.9.9-.9.9.4.9.9-.4.9-.9.9"/>
  </g>
  <g id="g4522">
    <path id="path4524" class="cls-23" d="M13.9,12.6c0,.4-.3.8-.8.8s-.8-.3-.8-.8.3-.8.8-.8.8.3.8.8"/>
  </g>
  <g id="g4526">
    <path id="path4528" class="cls-26" d="M13.1,11.9c-.3,0-.6.3-.6.6s.3.6.6.6.6-.3.6-.6-.3-.6-.6-.6M13.1,13.5c-.5,0-.9-.4-.9-.9s.4-.9.9-.9.9.4.9.9-.4.9-.9.9"/>
  </g>
  <g id="g4530">
    <path id="path4532" class="cls-23" d="M20,9.2c0,.4-.3.8-.8.8s-.8-.3-.8-.8.3-.8.8-.8.8.3.8.8"/>
  </g>
  <g id="g4534">
    <path id="path4536" class="cls-26" d="M19.2,8.6c-.3,0-.6.3-.6.6s.3.6.6.6.6-.3.6-.6-.3-.6-.6-.6M19.2,10.1c-.5,0-.9-.4-.9-.9s.4-.9.9-.9.9.4.9.9-.4.9-.9.9"/>
  </g>
  <g id="g4538">
    <path id="path4540" class="cls-23" d="M39,3.4h-.2c-.2.2-.4.7-.2,1.8.2,1.1.7,2.4,1.5,3.7,1.4,2.5,3.1,3.9,3.9,3.9h.2c.2-.2.4-.7.2-1.8-.2-1.1-.7-2.4-1.5-3.7-1.4-2.5-3.1-3.9-3.9-3.9M44,13.6c-1.4,0-3.3-2.2-4.6-4.4-.8-1.4-1.4-2.8-1.6-4-.3-1.7.1-2.4.6-2.6.2,0,.4-.1.6-.1,1.4,0,3.3,2.2,4.6,4.4.8,1.4,1.4,2.8,1.6,4,.3,1.7-.1,2.4-.6,2.6-.2.1-.4.2-.6.2"/>
  </g>
  <g id="g4542">
    <path id="path4544" class="cls-23" d="M41.4,6.5c-3.2,0-5.3.9-5.3,1.5,0,.2.4.6,1.4,1,1.1.4,2.5.6,4,.6h.1c3.2,0,5.3-.9,5.3-1.5,0-.6-2.1-1.6-5.4-1.6h-.1ZM41.6,10.5h-.1c-1.6,0-3.1-.2-4.2-.6-1.6-.6-2-1.3-2-1.8,0-1.5,3.1-2.3,6.1-2.3h.1c3.1,0,6.2.9,6.2,2.4,0,1.5-3.1,2.3-6.1,2.3"/>
  </g>
  <g id="g4546">
    <path id="path4548" class="cls-23" d="M44.1,3.3c-.8,0-2.4,1.5-3.9,3.9-1.6,2.9-1.9,5.1-1.3,5.5h.2c.8,0,2.4-1.4,3.9-3.9,1.6-2.9,1.9-5.1,1.3-5.5h-.2M39.1,13.6c-.2,0-.4,0-.6-.1-1.4-.8-.5-3.9,1-6.6,1.2-2.2,3.1-4.4,4.6-4.4s.4,0,.6.1c1.4.8.5,3.9-1,6.6-1.2,2.2-3.1,4.4-4.6,4.4"/>
  </g>
  <g id="g4550">
    <path id="path4552" class="cls-26" d="M39,13.7c-.2,0-.3,0-.5,0-.4-.2-.7-.6-.9-1.3,0,0-.1-.9.3-2.3h0c0-.1,1.1,0,1.1,0v.2s-.3.9-.3,1.4c0,.3,0,.7.2.9h.1s0,0,0,0h0s.3,0,1-.5c0,0,1-.8,1.6-1.7,0,0,1-1.3,1.5-2.4,0,0,.9-1.7,1.2-3.4,0-.3,0-.9-.1-1.1,0,0-.1,0-.3,0,0,0-1.1.4-2.5,2.3,0,0-.9,1.2-1.5,2.4h-.3c.6-1.3,1.5-2.5,1.5-2.5,1.5-2,2.6-2.4,2.7-2.4.3-.1.5,0,.6,0,.4.3.3,1.2.2,1.3-.2,1.8-1.2,3.5-1.2,3.5-.5,1.1-1.4,2.3-1.5,2.4-.6.9-1.6,1.7-1.7,1.8-.7.6-1.1.6-1.2.6-.1,0-.2,0-.3-.1-.3-.3-.2-1-.2-1.1,0-.4.2-1,.2-1.3h-.5c-.3,1.2-.2,1.9-.2,1.9.1.6.3.9.7,1.1.7.3,1.7-.4,1.7-.4,1.1-.7,2.4-2.6,2.4-2.6,1.3-1.7,2.1-4.2,2.1-4.3.3-.9.3-1.7.3-1.7,0-.7-.1-1.2-.4-1.5-.4-.3-.8-.3-.8-.3-2.1.3-4.5,4.6-4.5,4.6h-.3c.1-.3,2.5-4.6,4.7-4.9,0,0,.6,0,1.1.3.4.4.6.9.5,1.7,0,0,0,.8-.3,1.8,0,0-.8,2.6-2.1,4.4,0,0-1.4,2-2.5,2.7,0,0-.7.5-1.5.5"/>
  </g>
  <g id="g4554">
    <path id="path4556" class="cls-26" d="M43.2,8.2c-.8-1.6-1.7-2.7-1.8-2.7l.2-.2s1,1.2,1.8,2.8h-.3"/>
  </g>
  <g id="g4558">
    <path id="path4560" class="cls-26" d="M43.6,7.2c-.7-1.3-1.7-2.4-1.7-2.4l.2-.2s1,1.2,1.7,2.5h-.3"/>
  </g>
  <g id="g4562">
    <path id="path4564" class="cls-26" d="M39.5,9.6l-.7-1.4c-2-4.5-.8-5.4-.6-5.5,1.5-1.1,3.4,1.2,3.5,1.3l-.2.2s-1.8-2.2-3.1-1.3h0s-1.3.7.7,5.1l.7,1.4h-.3"/>
  </g>
  <g id="g4566">
    <path id="path4568" class="cls-26" d="M40.5,9.7c-2.7-4-2.1-6-2.1-6.1.1-.3.3-.4.5-.4.8-.1,2,1.2,2.1,1.4l-.2.2c-.3-.4-1.3-1.4-1.9-1.3,0,0-.2,0-.3.2,0,0-.6,2,2,5.9l-.2.2"/>
  </g>
  <g id="g4570">
    <path id="path4572" class="cls-26" d="M44.1,13.8c-.7,0-1.6-.5-2.6-1.6l.2-.2c1.5,1.5,2.3,1.6,2.7,1.4.6-.2.7-1,.7-1,.4-1.2-1-4.3-1-4.3h.3c0,0,1.4,3,1,4.4,0,0-.2,1-.9,1.2-.1,0-.2,0-.4,0"/>
  </g>
  <g id="g4574">
    <path id="path4576" class="cls-26" d="M44,12.9c-.5,0-1.1-.4-2-1.3l.2-.2c1.3,1.4,1.8,1.3,1.9,1.2.2,0,.3-.5.2-1-.2-1.5-.7-2.4-.7-2.4h.3c0-.1.5.8.7,2.4.1.7,0,1.2-.3,1.3h-.3"/>
  </g>
  <g id="g4578">
    <path id="path4580" class="cls-26" d="M40.9,11.6c-.2-.2-.8-1-.8-1.1l.2-.2c.2.4.6.9.8,1l-.2.2"/>
  </g>
  <g id="g4582">
    <path id="path4584" class="cls-26" d="M38.5,9.3h-.3c0-.2.4-1,.5-1.3h.3c-.2.6-.5,1.2-.5,1.3"/>
  </g>
  <g id="g4586">
    <path id="path4588" class="cls-26" d="M43.5,9.7v-.3s.4,0,.4,0v.3s-.4,0-.4,0"/>
  </g>
  <g id="g4590">
    <path id="path4592" class="cls-26" d="M43,10.6c-.2,0-.2,0-.2,0l.2-.2h0c0,0,.7-.1,1.2-.2v.3c-.7.1-1,.2-1.2.2"/>
  </g>
  <g id="g4594">
    <path id="path4596" class="cls-26" d="M41.7,10.6c-.5,0-3,0-4.6-.7-.8-.3-1.9-.9-2-1.7,0-.5.2-1,.9-1.6,0,0,.8-.6,2-.8v.3c-1.1.2-1.8.7-1.8.7-.6.4-.8.9-.8,1.3,0,.5.7,1.1,1.8,1.5,1.7.7,4.5.6,4.6.6v.3s0,0,0,0"/>
  </g>
  <g id="g4598">
    <path id="path4600" class="cls-26" d="M41.7,9.8c-2.1,0-4.8-.5-5.5-1.4-.2-.2-.2-.4-.1-.5.2-.7,2.1-1.1,2.3-1.2v.3c-.7.2-1.9.6-2,1,0,0,0,.1,0,.3.7.8,3.7,1.4,6,1.3v.3c-.2,0-.5,0-.7,0"/>
  </g>
  <g id="g4602">
    <path id="path4604" class="cls-26" d="M39.1,6.9v-.3c.3,0,.5,0,.6,0v.3c0,0-.3,0-.6,0"/>
  </g>
  <g id="g4606">
    <path id="path4608" class="cls-26" d="M38.8,6v-.3s1-.2,1.4-.2v.3c-.4,0-1.4.2-1.4.2"/>
  </g>
  <g id="g4610">
    <path id="path4612" class="cls-26" d="M39.3,9.5h-.3c0-.1.2-.5.2-.5h.3c0,.1-.2.5-.2.5"/>
  </g>
  <g id="g4614">
    <path id="path4616" class="cls-26" d="M42.4,6.7c-.2,0-1.2,0-1.7,0v-.3c.1,0,1.5,0,1.8,0v.3"/>
  </g>
  <g id="g4618">
    <path id="path4620" class="cls-26" d="M41.2,5.9v-.3s.6,0,.6,0v.3s-.6,0-.6,0"/>
  </g>
  <g id="g4622">
    <path id="path4624" class="cls-26" d="M44.2,6.1c-.6-.2-1.2-.2-1.2-.2h0v-.3s.7,0,1.3.2v.3"/>
  </g>
  <g id="g4626">
    <path id="path4628" class="cls-26" d="M43.9,6.9h-.5c0-.1,0-.4,0-.4h.5c0,.1,0,.4,0,.4"/>
  </g>
  <g id="g4630">
    <path id="path4632" class="cls-26" d="M44.8,9.5v-.3c1.4-.3,1.8-.8,1.8-.8h0c.2-.2.2-.3.2-.3-.1-.4-1.3-.8-2-1v-.3c.3,0,2.2.5,2.3,1.2,0,.1,0,.4-.3.6,0,0-.6.5-2,.8"/>
  </g>
  <g id="g4634">
    <path id="path4636" class="cls-26" d="M45.1,10.3v-.3s2.6-.5,2.5-1.9c-.1-1.4-2.6-1.9-2.6-1.9v-.3c.2,0,2.8.5,2.9,2.1.1,1.6-2.7,2.1-2.8,2.2"/>
  </g>
  <g id="g4638">
    <path id="path4640" class="cls-23" d="M38.9,4.9c0,.4-.3.8-.8.8s-.8-.3-.8-.8.3-.8.8-.8.8.3.8.8"/>
  </g>
  <g id="g4642">
    <path id="path4644" class="cls-26" d="M38.2,4.3c-.3,0-.6.3-.6.6s.3.6.6.6.6-.3.6-.6-.3-.6-.6-.6M38.2,5.8c-.5,0-.9-.4-.9-.9s.4-.9.9-.9.9.4.9.9-.4.9-.9.9"/>
  </g>
  <g id="g4646">
    <path id="path4648" class="cls-23" d="M42.3,8.1c0,.4-.3.8-.8.8s-.8-.3-.8-.8.3-.8.8-.8.8.3.8.8"/>
  </g>
  <g id="g4650">
    <path id="path4652" class="cls-26" d="M41.6,7.5c-.3,0-.6.3-.6.6s.3.6.6.6.6-.3.6-.6-.3-.6-.6-.6M41.6,9c-.5,0-.9-.4-.9-.9s.4-.9.9-.9.9.4.9.9-.4.9-.9.9"/>
  </g>
  <g id="g4654">
    <path id="path4656" class="cls-23" d="M41,12.6c0,.4-.3.8-.8.8s-.8-.3-.8-.8.3-.8.8-.8.8.3.8.8"/>
  </g>
  <g id="g4658">
    <path id="path4660" class="cls-26" d="M40.2,12c-.3,0-.6.3-.6.6s.3.6.6.6.6-.3.6-.6-.3-.6-.6-.6M40.2,13.5c-.5,0-.9-.4-.9-.9s.4-.9.9-.9.9.4.9.9-.4.9-.9.9"/>
  </g>
  <g id="g4662">
    <path id="path4664" class="cls-23" d="M47.1,9.3c0,.4-.3.8-.8.8s-.8-.3-.8-.8.3-.8.8-.8.8.3.8.8"/>
  </g>
  <g id="g4666">
    <path id="path4668" class="cls-26" d="M46.4,8.6c-.3,0-.6.3-.6.6s.3.6.6.6.6-.3.6-.6-.3-.6-.6-.6M46.4,10.2c-.5,0-.9-.4-.9-.9s.4-.9.9-.9.9.4.9.9-.4.9-.9.9"/>
  </g>
  <g id="g4670">
    <path id="path4672" class="cls-2" d="M27.4,3.5v-1.1s0-.3.4-.5c.4-.1.8.3.8.5,0,.2,0,1.1,0,1.1,0,0,1.2.2,2,.9l.8-.8s.5-.4.9.1c0,0,.4.4,0,.9-.5.5-.7.7-.7.7,0,0,.7,1.1.8,2h1.2s.7.3.4,1c0,0-.1.3-.6.3h-1s-.2,1.3-.8,2l.8.9s.2.4,0,.6c-.2.2-.6.6-1,.2l-.7-.8s-.8.7-2,.9v1.1s-.1.5-.6.5c0,0-.5,0-.6-.5v-1.1s-1.1,0-2.2-.8l-.7.7s-.5.3-.9-.1c-.4-.4,0-.8,0-.8l.6-.6s-.8-.9-.9-2.2h-1s-.6-.2-.4-.9c0,0,.2-.4.6-.4h.9s.2-1.3.9-2.2l-.7-.7s-.3-.6.3-.9c0,0,.4-.3.9.2l.5.5s.9-.7,2.2-.8"/>
  </g>
  <g id="g4674">
    <path id="path4676" class="cls-26" d="M27.6,13.6c0,.4.5.4.5.4.3,0,.5-.3.5-.4v-1.2h.1c1.2-.3,1.9-.9,2-.9h.1c0,0,.8.8.8.8,0,0,.2.1.3.1.2,0,.4-.2.5-.3,0-.1,0-.4,0-.5l-.9-.9h0c.6-.8.8-2,.8-2h0c0-.1,1.1-.1,1.1-.1.4,0,.5-.2.5-.2,0-.2,0-.3,0-.5,0-.2-.3-.3-.3-.3h-1.3s0-.2,0-.2c0-.9-.8-1.9-.8-2h0c0,0,0-.2,0-.2,0,0,.2-.2.7-.7.1-.1.2-.3.2-.4,0-.2-.1-.3-.1-.3-.1-.1-.2-.2-.4-.2s-.3,0-.3.1l-.9.9h-.1c-.8-.8-1.9-1-2-1h-.1s0-.1,0-.1c0,0,0-.9,0-1.1,0,0-.2-.4-.5-.4h-.1c-.3.1-.3.4-.3.4v1.2s-.1,0-.1,0c-1.2.1-2.1.8-2.1.8h-.1c0,0-.6-.5-.6-.5-.2-.2-.3-.3-.5-.3s-.2,0-.2,0c-.4.2-.3.6-.2.7l.8.8h0c-.7,1-.9,2.2-.9,2.2h0c0,.1-1,.1-1,.1-.3,0-.4.3-.4.3-.1.5.2.6.3.7h1.1s0,.1,0,.1c.2,1.2.9,2.1.9,2.1h0c0,.1-.7.8-.7.8,0,0-.2.3,0,.6,0,.1.2.2.4.2s.3,0,.3,0l.8-.8h.1c1,.8,2.1.9,2.1.9h.1v1.2ZM28.1,14.3c-.2,0-.7-.1-.8-.6h0v-1c-.3,0-1.2-.2-2-.8l-.6.6s-.2.1-.5.1-.4,0-.6-.3c-.4-.4-.2-.9,0-1l.6-.5c-.2-.3-.7-1-.9-2h-.9c-.3,0-.7-.4-.6-1.1h0s.2-.5.7-.5h.8c0-.3.3-1.3.9-2l-.6-.7c-.1-.2-.2-.8.3-1.1,0,0,.1,0,.3,0s.4,0,.7.3l.4.4c.3-.2,1-.6,2-.8v-.9s0-.4.5-.6h.2c.4,0,.8.3.8.6,0,.2,0,.7,0,1,.3,0,1.2.3,1.9.8l.7-.7s.2-.2.5-.2.4.1.6.3h0s.2.2.2.5c0,.2-.1.4-.3.6-.3.3-.5.5-.6.6.2.3.7,1.1.8,1.9h1.1s.4.2.5.5c0,.2,0,.4,0,.7,0,0-.2.4-.8.4h-.9c0,.3-.3,1.2-.7,1.8l.8.8s.2.5,0,.8c-.1.2-.4.4-.7.4s-.3,0-.5-.2l-.7-.7c-.2.2-.9.6-1.9.8v1c0,.2-.3.6-.8.6h0"/>
  </g>
  <g id="g4678">
    <path id="path4680" class="cls-23" d="M31.5,8c0,2-1.6,3.6-3.6,3.6s-3.6-1.6-3.6-3.6,1.6-3.6,3.6-3.6,3.6,1.6,3.6,3.6"/>
  </g>
  <g id="g4682">
    <path id="path4684" class="cls-26" d="M27.9,4.6c-1.9,0-3.5,1.5-3.5,3.4s1.5,3.4,3.5,3.4,3.5-1.5,3.5-3.4-1.5-3.4-3.5-3.4M27.9,11.8c-2.1,0-3.7-1.7-3.7-3.7s1.7-3.7,3.7-3.7,3.7,1.7,3.7,3.7-1.7,3.7-3.7,3.7"/>
  </g>
  <g id="g4686">
    <path id="path4688" class="cls-2" d="M30.5,8c0,1.4-1.1,2.5-2.5,2.5s-2.5-1.1-2.5-2.5,1.1-2.5,2.5-2.5,2.5,1.1,2.5,2.5"/>
  </g>
  <g id="g4690">
    <path id="path4692" class="cls-26" d="M28,5.7c-1.3,0-2.4,1.1-2.4,2.4s1.1,2.4,2.4,2.4,2.4-1.1,2.4-2.4-1.1-2.4-2.4-2.4M28,10.7c-1.5,0-2.7-1.2-2.7-2.7s1.2-2.7,2.7-2.7,2.7,1.2,2.7,2.7-1.2,2.7-2.7,2.7"/>
  </g>
  <g id="g4694">
    <path id="path4696" class="cls-23" d="M29.3,8c0,.8-.6,1.4-1.4,1.4s-1.4-.6-1.4-1.4.6-1.4,1.4-1.4,1.4.6,1.4,1.4"/>
  </g>
  <g id="g4698">
    <path id="path4700" class="cls-26" d="M27.9,6.8c-.7,0-1.3.6-1.3,1.3s.6,1.3,1.3,1.3,1.3-.6,1.3-1.3-.6-1.3-1.3-1.3M27.9,9.6c-.9,0-1.5-.7-1.5-1.5s.7-1.5,1.5-1.5,1.5.7,1.5,1.5-.7,1.5-1.5,1.5"/>
  </g>
  <g id="g4702">
    <path id="path4704" class="cls-1" d="M24.4,7.6h1.1c0,0,0-.7.7-1.4l-.9-.6s-.7.6-.9,2"/>
  </g>
  <g id="g4706">
    <path id="path4708" class="cls-26" d="M25.3,5.8c-.2.2-.6.7-.8,1.6h.8c0-.3.2-.7.6-1.2l-.7-.4ZM24.2,7.8v-.2c.3-1.4,1-2,1-2h0c0,0,1.2.7,1.2.7h-.1c-.6.7-.7,1.4-.7,1.4h0c0,.1-1.4.2-1.4.2"/>
  </g>
  <g id="g4710">
    <path id="path4712" class="cls-1" d="M26.8,5.8l-.5-.9s1.1-.6,2.4-.3l-.3,1s-.9-.3-1.7.2"/>
  </g>
  <g id="g4714">
    <path id="path4716" class="cls-26" d="M26.6,4.9l.3.7c.3-.1.6-.2,1-.2s.4,0,.5,0l.2-.7c-.2,0-.4,0-.7,0-.6,0-1.1.2-1.4.3M26.8,6l-.6-1.2h.1c0,0,.7-.5,1.6-.5s.6,0,.9.1h.1s-.3,1.3-.3,1.3h-.1s-.2-.1-.6-.1-.7,0-1,.2h-.1"/>
  </g>
  <g id="g4718">
    <path id="path4720" class="cls-10" d="M26.2,6.2l-.9-.6s.5-.6,1.1-.8l.5.9s-.4.2-.6.5"/>
  </g>
  <g id="g4722">
    <path id="path4724" class="cls-26" d="M25.5,5.6l.7.4c.1-.1.3-.3.5-.3l-.3-.7c-.3.2-.6.4-.8.6M26.2,6.4l-1.2-.7h.1c0-.2.5-.7,1.1-1h.1c0,0,.6,1.1.6,1.1h-.1c-.1.1-.5.3-.6.5h0"/>
  </g>
  <g id="g4726">
    <path id="path4728" class="cls-26" d="M25.6,7.1l-1-.4v-.3c.1,0,1.1.4,1.1.4v.3"/>
  </g>
  <g id="g4730">
    <path id="path4732" class="cls-26" d="M27.5,5.5v-1.1c0,0,.2,0,.2,0v1.1c0,0-.2,0-.2,0"/>
  </g>
  <g id="g4734">
    <path id="path4736" class="cls-26" d="M29.4,6l-.2-.2.6-.9.2.2-.6.9"/>
  </g>
  <g id="g4738">
    <path id="path4740" class="cls-26" d="M24.4,8.8v-.3s1-.2,1-.2v.3s-1,.2-1,.2"/>
  </g>
  <g id="g4742">
    <path id="path4744" class="cls-23" d="M14.2,10.4l.3.4"/>
  </g>
  <g id="g4746">
    <path id="path4748" class="cls-26" d="M14.3,10.9l-.3-.4.2-.2.3.4-.2.2"/>
  </g>
  <g id="g4750">
    <path id="path4752" class="cls-26" d="M41.4,10.9l-.2-.4.2-.2.2.4-.2.2"/>
  </g>
  <g id="g4754">
    <path id="path4756" class="cls-20" d="M30.9,40.4c.2.5.3,1-.1,1.4-.8.7-2.8,1.5-2.8,1.5,0,0-1,.4-.9,1,.2.6.4.5.4.5l.7.3.6.2s.2.1.6,0c.3-.2.4,0,.4,0h.1c0,0,.2.2.5.1.3-.1.6-.5.7-.7.1-.2.4-.5.5-.2.1.3,0,.7,0,.7,0,0,.6-.3.5-.9,0,0,.5.7.3,1.3,0,0,1.3-1,.8-2.2l.5,1.3s.3-.8.5-1c.1-.3.2-1,0-1.3h-.1c0-.1.3-.4.2-.6,0-.3-.9-1.4-.9-2,0,0,0-1.1.6-1.6l-.6-2.3-2.2-.3-1.4.2s-.6,1.4-.5,2c.1.5.5.9.8,1.3.3.4.7.9.9,1.4"/>
  </g>
  <g id="g4758">
    <path id="path4760" class="cls-26" d="M29.9,45.1h.1c0,0,0,.1.2.1h.2c.2-.1.5-.4.6-.7,0,0,.2-.4.5-.4s.2,0,.3.2c0,.1,0,.3,0,.4.1-.1.2-.3.2-.5v-.5s.3.4.3.4c0,0,.3.4.4.9.3-.4.7-1,.5-1.6h0c0-.1.3-.2.3-.2h0c0,.1.3,1,.3,1,.1-.2.2-.5.3-.7.1-.2.1-.9,0-1.2l-.2-.3h.1c0,0,.2-.2.1-.4,0,0-.1-.3-.2-.5-.3-.5-.7-1.1-.6-1.6,0-.1,0-1.2.6-1.7l-.5-2.1-2.1-.3-1.3.2c-.2.4-.5,1.4-.4,1.8.1.4.4.8.7,1.2h0c.3.5.6,1,.9,1.5.3.7.3,1.2-.2,1.6-.8.7-2.7,1.5-2.8,1.6,0,0-.9.3-.8.8,0,.3.2.4.2.4h0s0,0,0,0l.7.3.6.2h.1s.3,0,.3,0c.1,0,.2,0,.3,0,.1,0,.2,0,.3.1M32.1,46.1l.2-.5c.1-.3,0-.6,0-.8-.2.4-.5.6-.5.6l-.3.2v-.3c0,0,.2-.3,0-.6h0s-.1,0-.2.2c-.1.2-.4.6-.8.8h-.3c-.2,0-.3,0-.4,0h-.2c0,0,0-.1,0-.1h0s-.2,0-.2,0c-.1,0-.3,0-.4,0s-.2,0-.3,0l-.6-.2-.7-.3h0c-.2,0-.4-.2-.5-.6-.2-.7.9-1.1,1-1.1,0,0,2-.8,2.7-1.5.4-.3.4-.7.1-1.3-.2-.5-.6-1-.9-1.3h0c-.3-.5-.6-.9-.7-1.4-.1-.6.4-1.9.5-2.1h0c0,0,1.5-.3,1.5-.3h0s2.3.4,2.3.4l.6,2.5h0c-.6.5-.5,1.5-.5,1.5h0c0,.4.3,1,.6,1.4.2.3.3.4.3.5,0,.2,0,.4-.1.6h0c.3.5.2,1.3.1,1.5-.1.2-.4,1-.5,1v.3c-.1,0-.4-.8-.4-.8-.2.8-.9,1.3-.9,1.3l-.5.4"/>
  </g>
  <g id="g4762">
    <path id="path4764" class="cls-7" d="M29.4,37.4s2,0,2.5,1v.3c0,.3,0,.5,0,.8,0,.3,0,.7.2,1,0,.2,0,.4.2.5,0,.1.2.3.2.4,0,.3-.9.8-1.2.9-.8.5-1.7,1-2.6,1.5h.2c.2.2,1.7.3,1.7.1.1-.3.7,0,.9,0,.3,0,2.6-1.9,2.6-2.1-.2-.6-.6-1.1-.8-1.7,0-.3-.1-.6,0-.9,0-.1.4-1.2.5-1.1,0,0,0,0-.2-1-.2-.9-.2-.8-.2-.8,0,0-1.7-.9-3.1-.4,0,0-.7.5-.7.7,0,.2-.2.7-.2.7"/>
  </g>
  <g id="g4766">
    <path id="path4768" class="cls-20" d="M28.3,31.1s2.1.4,3.3,0c1.2-.5,1.8-.3,1.8-.3l2.1.3s.5.2,3.2.5c0,0,3.5.3,4.4-.3,0,0,2.1-.7,1.6-2.8,0,0-.8-2-3.5-1.7-2.7.2-2.7,2.1-2.2,2.5.4.4.8.8.8.8,0,0-.3-.2-.9-.2-.7,0-1,0-1.4-.6s-.2-.8-.2-.8c0,0-.4.9-2.2,1.5,0,0-.5.1-1,.2,0,0,.7-.4.9-1.5,0,0-.3,0-.6.4-.3.3-1,1.2-2.3.8,0,0,0,0-.1,0,0,0,0,0-.1,0,0,0,.4-.2.7-.3.2,0,.5-.3.6-.6.1-.4-.7-.3-.9-.2-.2,0-.5,0-.7.1-.3,0-.6,0-.9,0-.7,0-1.3-.1-1.9-.5-1.1-.6-1.8-1.4-1.6-2.7.2-1.3,2.2-2.1,2.4-2.2.2,0,.9-.2,3.5-.3,0,0,.9.2,1.9-.9,1-1,2.3-.9,2.3-.9,0,0,1.4,0,2.1-1.5,0,0,0,1.2-.4,1.8,0,0,1.3-.7,1.4-.8.2-.1,1.1-.6,2.3-.1s2,.5,2.3,0c0,0-.3.8-2,1,0,0-.9,0-1.8,1-.2.3-.5.4-.8.6.2,0,.4,0,.6,0,.2,0,.4.2.6.3.2.2.6.4.6.7,0,0-.2-.7-2.1.1-1.9.8-2.5.7-3.8.3-1.2-.4-1.7-1-2.8-1,0,0-2.7-.4-4.9.8,0,0-1.6,1-.1,2.4,0,0,1,1.1,4.1.6,3.1-.5,4.6-1.2,5.3-1.3.7,0,3.2-.9,5.3-.5,2,.4,2.7,2.2,2.7,2.2,0,0,.5,1,0,1.9-.4.9-.8,1.3-.8,1.3,0,0,1.3.7.8,2.2,0,0,0-.6-.8-.7-.8,0-1.5-.4-1.5-.5,0,0-1,.4-2.9.5,0,0,.4.5,1.3.9,0,0-2.2.7-2.8-.4,0,0-.2.6.6.8,0,0-1.1.5-1.9-.4,0,0,.3.8.3,2.2,0,1.4,0,2.1,1,2.6,1,.6,1.5.5,1.5.5,0,0,.2.7-.1,1.1,0,0,.2.3,1.2.3,1.1,0,.8,1.4,1.5,1.5,0,0-.2.2-.8-.2-.7-.4-1.1,0-1.1,0,0,0,.9.2.9,1.1,0,.9.1,1.3.1,1.3,0,0-.2-.1-.5-.5-.3-.4-.9-.3-.9-.3,0,0,.6.3.5,1.2,0,0,0,.5.2.6,0,0-.6-.2-.9-.6,0,0-.5.4-.5.8,0,.3,0,1.4-.7,1.5-.8.1-.7-.4-.7-.4,0,0-.1.5-1.2.1,0,0-.9,0-.9-.4,0,0-.6.2-.7-.3,0-.5.6-.6.7-.7.1,0,1-.4,1.1-1.5,0-1.1-.3-2.6-.6-3.1-.3-.5-1-.9-1.9-1.1-.9-.2-1.6-.8-1.8-1.8-.2-1-.3-1.4-.4-1.5-.1,0-1.8-.9-3.2-.4,0,0,.6.4.8.7,0,0-.3-.3-1.1,0-.8.2-1.2-.1-1.2-.1,0,0,0,.7.7.9,0,0-.2,0-.7,0-.5,0-1,0-1.1-.3,0,0,.3.9.9,1.2,0,0-.5-.2-1.2-.3-.7,0-.9-.2-1-.5,0,0,.3.8,0,1.5,0,0,0-.7-.7-.8-.6-.1-.8-.3-.9-.3l.2.8s.1,0-.6.9c0,0,.6.6.6,1.2,0,.6.2,1,.5,1.3,0,0-.3,0-.7-.3-.4-.4-.6-.5-.6-.3,0,.2.4.8.1,1.7,0,0-.2.5,0,.8,0,0-.3-.2-.4-.7-.1-.5-.5-.5-.5-.5,0,0,.4.5.2,1.3-.2.8-.2.9,0,1.1,0,0-.3-.2-.4-.6-.2-.4-.5-.4-.6-.2,0,0,.3,1-.2,1.6,0,0,0-1.4-1.1-.4,0,0-.1.2-.2.6s-.4.3-.6.5c-.2.1-.2.2-.6.2-.3,0-.6-.1-.6-.1,0,0,0,.2-.5.1-.5-.1-.6,0-.6,0,0,0-.2,0-.3-.2,0-.2-.3,0-.4-.2,0-.2-.7-.2-.6-.5,0-.3.2-.5.6-.7.4-.2,1-.4,1.3-.7.3-.3.6-1.1.6-1.1,0,0,.5-1.4.6-2.1,0-.7.4-3.3.3-3.7-.1-.5-.7-1.5-.7-1.5l-1.5.8s-1.5.6-2.1.2c-.6-.4-.7-.7-.9-.7s-.6.3-1.8.1c0,0-.5-.1-.8,0,0,0,.3-.2.7-.4s.6-.7.6-.7c0,0-.7.3-1.5-.2-.8-.5-.9-.6-1.4-.5,0,0,0-.2.7-.3.7-.1,1-.8,1.3-.9,0,0-.8,0-1.3-.4-.6-.3-.8-.5-1.1-.4,0,0,.1-.2.7-.3.6,0,1-.4,1-.8,0-.4-.3-1-.3-1,0,0,0,0-.3-.2-.3-.2-.5-.2-.9-.7,0,0-.7,0-.7-.5,0-.5.4-.7.4-.7l.6.3c.1,0-.1-.4-.4-.7-.3-.3-.4-.6-.2-.7.2-.1.3-.2.3-.2,0,0,.3-.2.5,0s.4.7.5.8c0,0,0-.4,0-.6,0-.1-.4-.7,0-.8.1,0,.2,0,.3,0,0,0,.1,0,.2,0,0,0,.3,0,.4.3,0,.4,0,.6,0,.7,0,0,0-.7.1-.7,0,0,.1,0,.2,0,0,0,0,0,.1,0h.3c0-.2.3,0,.3.4,0,.4-.1,1,0,1.3.1.3.2,1,1.1,2,.9,1,2.2,1.7,2.5,1.8.3.1,8.5-.8,8.5-.8h2.5c0-.1.6-.3.9-.1"/>
  </g>
  <g id="g4770">
    <path id="path4772" class="cls-21" d="M27.2,44.2s.6,0,.3.5c0,0-.5,0-.7.3,0,0-.1-.4.4-.8"/>
  </g>
  <g id="g4774">
    <path id="path4776" class="cls-26" d="M27.2,44.3c-.3.2-.3.4-.3.5.2-.1.5-.2.6-.2v-.3s-.2,0-.2,0M26.8,45.2v-.2c0,0-.2-.5.4-.9h0s0,0,0,0h0c.1,0,.3,0,.4.2,0,.1,0,.3,0,.5h0c0,0,0,0,0,0,0,0-.5,0-.7.3h-.1"/>
  </g>
  <g id="g4778">
    <path id="path4780" class="cls-21" d="M28.1,45.1s.2-.7-.4-.4c0,0-.4.3-.1.7,0,0,.2-.4.6-.3"/>
  </g>
  <g id="g4782">
    <path id="path4784" class="cls-26" d="M27.7,44.8s-.2.2-.2.4c.1-.1.3-.2.5-.2v-.2s-.1,0-.1,0h-.2M27.5,45.6h0c-.2-.5,0-.8.2-1h0c.1,0,.2,0,.3,0,.1,0,.2,0,.2.1.1.2,0,.5,0,.5h0c0,.1-.1,0-.1,0h-.1c-.2,0-.3.2-.3.2h0"/>
  </g>
  <g id="g4786">
    <path id="path4788" class="cls-21" d="M28.8,45.2s0-.7-.5-.2c0,0-.2.2,0,.6,0,0,.3-.2.6-.4"/>
  </g>
  <g id="g4790">
    <path id="path4792" class="cls-26" d="M28.4,45.1s0,0,0,.3c.1,0,.3-.2.4-.3v-.2c0,0,0,0,0,0,0,0-.1,0-.3.2M28.2,45.8v-.2c-.2-.5,0-.7,0-.7.3-.2.5-.3.6-.1.1.1.1.4.1.4h0c0,0,0,0,0,0-.3.1-.6.4-.6.4h-.1"/>
  </g>
  <g id="g4794">
    <path id="path4796" class="cls-21" d="M30,45.3s0-.6-.6-.3c0,0-.3.4,0,.8,0,0,.1-.4.6-.5"/>
  </g>
  <g id="g4798">
    <path id="path4800" class="cls-26" d="M29.5,45c0,0-.1.2-.1.4,0-.1.2-.3.5-.3,0,0,0-.2-.2-.2h-.2M29.4,46v-.2c-.4-.4,0-.8,0-.9h0c.1,0,.2-.1.3-.1.3,0,.4.3.4.5h0c0,0-.1.1-.1.1-.4,0-.5.4-.5.4v.2"/>
  </g>
  <g id="g4802">
    <path id="path4804" class="cls-12" d="M33.9,23.1s-1.3.3,0,.7c0,0,.4.1,1,.4.5.3,1.3.5,1.7.6.4.1,1.2.4,2.3,0,1.2-.4,1.5-.5,1.6-.6.1,0,1-.4,1.5,0h.2c0,0-.2-.3-.7-.6-.6-.3-.7-.4-1.1-.4,0,0,.5-.2.8-.6.3-.3.7-.8,1-.9.3-.1.5-.1.9-.2.4,0,1.2-.2,1.7-.7,0,0-.1,0-1,0-.9,0-1.5-.4-2-.4-.5,0-.8-.2-2.2.7l-.7.3s.3-.3.3-.7c0-.5,0-1,0-1,0,0-.2.8-1.1,1.2,0,0-.5.3-1,.3-.4,0-1.1.2-1.2.3-.2,0-.6.2-1,.7-.4.4-1,.7-1.1.8"/>
  </g>
  <g id="g4806">
    <path id="path4808" class="cls-12" d="M33.1,28.4l6.6-1.4s-1.4.6-.8,2.1l.7.7s0,0-1.1-.2c0,0-1.1,0-1.4-1.2,0,0-.3.5-1.3,1-.2.1-.5.2-.8.3-1.6.5-.8.1-.8.1,0,0,.4-.2.6-.9,0,0,.1-.4.1-.6,0,0-.5,0-.9.5,0,0-.2.2-.7.4-.5.2-.7.4-1.6.2l.8-.3s.8-.6.4-1"/>
  </g>
  <g id="g4810">
    <path id="path4812" class="cls-12" d="M43.8,32.1s1.2-.6,1.3-.8c0,0,1.3.5.9,2.1,0,0,0-.4-.6-.7-.6-.2-.5.2-1.7-.6"/>
  </g>
  <g id="g4814">
    <path id="path4816" class="cls-12" d="M40.6,32.6h-3.1s.2.8,1.1,1.4c0,0,.6.2,1.3,0,0,0-.6.2-.7-.8,0,0,.3.7,2.9.4,0,0-.9-.3-1.5-.9"/>
  </g>
  <g id="g4818">
    <path id="path4820" class="cls-12" d="M24.5,37s4.5-1.4,5.5-1.1l.7.5s-.5,0-1,0c-.5,0-1.2,0-1.4,0,0,0,.3.6.8.9,0,0-.3,0-.8,0-.5.1-.9-.1-1-.2,0,0,.4.7.7,1.1,0,0-1.3-.2-1.6-.3-.2-.1-.5-.2-.5-.3,0,0,.2.7.1,1.1v.4c0,0-.2-.7-.6-.9-.4-.1-.8-.2-1-.4,0,0-.2-.6,0-.8"/>
  </g>
  <g id="g4822">
    <path id="path4824" class="cls-12" d="M24,39.6s-1.8,2.3-2.8,5.4h0c0,.1.6-.3.8.2,0,0,.1.5,0,.6,0,0,.3-.5.1-1.7,0,0,.2-.4.6,0,0,0,.2.7.5.9,0,0,0-.5,0-1.2.1-.9-.2-1.2-.2-1.2,0,0,.5,0,.6.6,0,0,.1.4.3.5,0,0-.1-.2,0-.9.2-.7-.1-1.6-.1-1.6,0,0,0-.2.4,0,.3.2.4.6.8.5,0,0-.3-.3-.4-1,0-.7-.3-1-.7-1.3"/>
  </g>
  <g id="g4826">
    <path id="path4828" class="cls-12" d="M40.6,40l.2,4.6s.3.5.9.6c0,0-.3-.1-.3-.7,0-.5,0-.9-.4-1.2,0,0,.5-.2,1,.3,0,0,.2.2.5.5,0,0-.2-.2-.2-1.1,0-.9-.7-1.1-.9-1.1,0,0,.5-.5,1.1-.2.6.3.7.4.9.3,0,0-.4,0-.6-.6-.2-.6-.5-1-1.3-.9,0,0-.7-.1-.8-.3"/>
  </g>
  <g id="g4830">
    <path id="path4832" class="cls-12" d="M34,42.2s-1.6,1.6-2.4,2c0,0,0,0,0,.3,0,.4,0,.5,0,.5,0,0,.5-.2.4-.7,0,0,.6.4.4,1.1,0,0,1-.7.7-1.9,0,0,.2.2.6,1l.4-.9s.2-.7-.2-1.4"/>
  </g>
  <g id="g4834">
    <path id="path4836" class="cls-12" d="M11.4,30.7l3.3,5.6s0-.3-.6,0c0,0-.7.1-1.4,0-.6-.1-.7,0-.7,0l.8-.4s.4-.6.4-.8c0,0-.8.4-1.4,0-.6-.4-1.1-.8-1.5-.6,0,0,0-.1.4-.2.4,0,.9-.4,1.1-.6.2-.2.3-.4.3-.4,0,0-.6-.1-.9-.3,0,0-.4-.1-.8-.3-.4-.2-.5-.2-.6-.2,0,0,.2-.2.7-.2.4,0,.7,0,.9-.6,0,0,0-.4-.2-.9"/>
  </g>
  <g id="g4838">
    <path id="path4840" class="cls-13" d="M39,20.6s-.3.6-1.4.9c-1.1.2-1.6,0-3.2,1.6,0,0,1.4-1,2.4-1.1,1.1,0,1.9-.8,2.2-1.4"/>
  </g>
  <g id="g4842">
    <path id="path4844" class="cls-13" d="M42.2,20.8c-.5-.2-1.1-.1-1.6,0-.5.2-1,.5-1.4.8-.3.2-.5.3-.9.4-.4,0-.7.1-1.1.2-.8,0-1.8.3-2.7,1.1,1.1-.4,2.4-.8,3.6-.9.5,0,.9,0,1.4-.3.3-.2.5-.5.7-.7.6-.4,1.3-.6,2-.5"/>
  </g>
  <g id="g4846">
    <path id="path4848" class="cls-13" d="M41.3,23.9s-1.1.2-2.5.8c-.5.2-1.9.4-3.2-.5,0,0,1,.6,2.5.3,1.6-.3,1.7-.8,3.2-.6"/>
  </g>
  <g id="g4850">
    <path id="path4852" class="cls-13" d="M43.6,21.4s-1.6-.5-3.4,1.1c0,0,.8-1.2,1.7-1.4.9-.1,1.3,0,1.3,0,0,0-1.3-.3-2.3.2-1,.5-.9,1.2-3,1.3,0,0-1.8.3-3.1.8.4,0,.7-.1,1.1-.2.6,0,1.3-.1,1.9,0,.3,0,.7,0,1,0,.4,0,.8,0,1.1-.2.4-.1.8-.3,1.1-.6.3-.3.5-.6.9-.8.2-.1.4-.2.6-.2.2,0,.3,0,.5,0,.2,0,.4,0,.6,0"/>
  </g>
  <g id="g4854">
    <path id="path4856" class="cls-13" d="M38.7,24.2s-1.8.6-3.2-.2c0,0-.6-.4-1.2-.3,0,0,.4-.3,1.2-.2.8,0,1.6.8,3.2.7"/>
  </g>
  <g id="g4858">
    <path id="path4860" class="cls-13" d="M35.7,23.3c.3,0,.6,0,.9,0,.3,0,.7,0,1,0,.3,0,.5.2.8.2.5,0,1.5,0,1.5,0-.6.2-1.3.4-1.9.4-.2,0-.3,0-.5-.1-.1,0-.2-.1-.4-.2-.1,0-.3,0-.4,0-.3,0-.7,0-1,0"/>
  </g>
  <g id="g4862">
    <path id="path4864" class="cls-3" d="M38.6,32.7h-.8s.2.8.8,1.1c0,0-.5-.5-.4-.8,0,0,.5.8.9.9,0,0-.6-.6-.6-1.2"/>
  </g>
  <g id="g4866">
    <path id="path4868" class="cls-3" d="M39.2,32.6h.3s.3.6.9.7c0,0-.9.1-1.3-.7"/>
  </g>
  <g id="g4870">
    <path id="path4872" class="cls-3" d="M39.9,32.6h.4s.3.7.9.7c0,0-.7,0-1.3-.7"/>
  </g>
  <g id="g4874">
    <path id="path4876" class="cls-3" d="M44,31.9s.3,0,.4-.2c0,0,.7.7,1.1.7,0,0-1.1-.2-1.4-.5"/>
  </g>
  <g id="g4878">
    <path id="path4880" class="cls-3" d="M44.7,31.5h.3c0,0,.7.8.7,1.1,0,0-.6-.8-1-1.1"/>
  </g>
  <g id="g4882">
    <path id="path4884" class="cls-3" d="M33.9,28.3h.5c0,0-.6.9-1.5,1.1,0,0,1-.6,1-1.1"/>
  </g>
  <g id="g4886">
    <path id="path4888" class="cls-3" d="M35.6,28h.6c0-.1-.2.8-1.1,1.5,0,0,.7-1.1.6-1.5"/>
  </g>
  <g id="g4890">
    <path id="path4892" class="cls-3" d="M36.5,27.8s0,1.1-1.1,1.6c0,0,1.5-.6,1.5-1.7h-.5"/>
  </g>
  <g id="g4894">
    <path id="path4896" class="cls-3" d="M39,27.2s-.8,1-.3,1.7c0,0-.4-.3-.3-1.1,0,0-.8.8.3,1.4,0,0-.8,0-.9-1.2,0,0-.5.9.7,1.5,0,0-1.4-.3-1-2l1.5-.3"/>
  </g>
  <g id="g4898">
    <path id="path4900" class="cls-13" d="M23.8,40s.6,0,.7.6c0,0-.2-.3-.6-.3,0,0,.6.1.7,1,0,0-.2-.6-.8-.5,0,0,.7,0,.8.8,0,0-.3-.9-1.4-.4l.7-1.2"/>
  </g>
  <g id="g4902">
    <path id="path4904" class="cls-13" d="M23,41.3s.7-.3.8.8c0,0-.3-.6-.6-.5,0,0,.6.3.7,1.2,0,0,0-.8-.8-.7,0,0,.7.2.6.9,0,0-.1-.9-1.4-.5l.6-1.2"/>
  </g>
  <g id="g4906">
    <path id="path4908" class="cls-13" d="M22.2,42.8s1-.3.9,1.1c0,0-.2-.7-.7-.7,0,0,.7.3.6,1.1,0,0,0-.7-.9-.6,0,0,.7.2.8.7,0,0-.1-.5-1.1-.5l.4-1.1"/>
  </g>
  <g id="g4910">
    <path id="path4912" class="cls-13" d="M21.7,44.1s.4.2.4.8c0,0-.1-.5-.5-.5v-.3"/>
  </g>
  <g id="g4914">
    <path id="path4916" class="cls-13" d="M21.6,44.5s.4,0,.5.5c0,0-.2-.5-.6-.3v-.3"/>
  </g>
  <g id="g4918">
    <path id="path4920" class="cls-13" d="M21.4,44.9s.4-.1.6.2c0,0-.4-.2-.6,0h0"/>
  </g>
  <g id="g4922">
    <path id="path4924" class="cls-13" d="M31.6,44.2l.4-.2s0,.3,0,.6c0,0,0-.2-.3-.4"/>
  </g>
  <g id="g4926">
    <path id="path4928" class="cls-13" d="M32.6,43.5l.2-.2s.4.6.2,1.2c0,0,0-.7-.4-1"/>
  </g>
  <g id="g4930">
    <path id="path4932" class="cls-13" d="M32.3,43.7l.2-.2s.3.7.1,1.2c0,0,0-.7-.4-1"/>
  </g>
  <g id="g4934">
    <path id="path4936" class="cls-13" d="M33.1,43.1l.3-.2s.5.5.4.9c0,0-.2-.6-.7-.7"/>
  </g>
  <g id="g4938">
    <path id="path4940" class="cls-13" d="M33.5,42.7l.3-.2s.2.5.1.9c0,0,0-.4-.4-.7"/>
  </g>
  <g id="g4942">
    <path id="path4944" class="cls-13" d="M40.6,40.3v1.4s1.2-.8,1.8-.3c0,0-.1-.5-1.2-.5,0,0,.8-.2,1.2,0,0,0-.4-.4-1.7-.6"/>
  </g>
  <g id="g4946">
    <path id="path4948" class="cls-13" d="M40.7,41.8v1.1s1-.1,1.3.4c0,0,0-.5-.9-.6,0,0,.6-.3,1,.4,0,0-.2-.8-1-1.1,0,0,.6,0,1,.6,0,0,0-.9-1.5-.9"/>
  </g>
  <g id="g4950">
    <path id="path4952" class="cls-13" d="M40.7,43.3v.6s.3.4.4.6l-.3-.7s.5.6.5.9c0,0,0-1-.6-1.3"/>
  </g>
  <g id="g4954">
    <path id="path4956" class="cls-3" d="M24.8,37.1h.4c0,0,0,.3.3.7.4.4.4.6.4.6,0,0-.4-.6-.8-.8-.4-.1-.4-.5-.4-.5"/>
  </g>
  <g id="g4958">
    <path id="path4960" class="cls-3" d="M25.4,37h.3c0,0,0,.8.2.9,0,0-.5-.6-.5-.9"/>
  </g>
  <g id="g4962">
    <path id="path4964" class="cls-3" d="M25.9,36.8h.3c0-.1.2,1,1,1,0,0-.8,0-1.3-1"/>
  </g>
  <g id="g4966">
    <path id="path4968" class="cls-3" d="M26.2,36.6l.6-.2s0,.7.2.9c0,0-.4-.4-.4-.6,0,0,.2.7.4.9,0,0-.6-.3-.8-1"/>
  </g>
  <g id="g4970">
    <path id="path4972" class="cls-3" d="M27.4,36.4l.7-.2s0,.7.5.9c0,0-.5-.2-.7-.6,0,0-.2.4.6.7,0,0-.8,0-1-.8"/>
  </g>
  <g id="g4974">
    <path id="path4976" class="cls-3" d="M29.2,36h.4c0,0,.2.2.5.2,0,0-.6,0-.8,0,0,0,.3.2.6.2,0,0-.5.1-1.3-.2h.6"/>
  </g>
  <g id="g4978">
    <path id="path4980" class="cls-3" d="M13.8,34.6l.9,1.3s-.4.3-1.1.2c0,0,.5,0,.6-.5,0,0-.6.4-1.4.4,0,0,1-.3,1.2-.7,0,0-.5.4-1.1.5,0,0,.9-.5.9-1.3"/>
  </g>
  <g id="g4982">
    <path id="path4984" class="cls-3" d="M13.2,33.6l.5.9s-.6.9-1.8.4c0,0,1.1.1,1.3-.5,0,0-.9.7-1.9.2,0,0,1.4.1,1.8-.9"/>
  </g>
  <g id="g4986">
    <path id="path4988" class="cls-3" d="M13.1,33.2v.2c.1,0-1.2.6-1.2.6,0,0,.7-.6,1.2-.8"/>
  </g>
  <g id="g4990">
    <path id="path4992" class="cls-3" d="M11.8,31.1s0,1.1-1,1.1c0,0,.7.1,1.4-.5,0,0-.4.9-1.4.6,0,0,.6.4,1.7,0,0,0-.2.5-1.4.4,0,0,.9.5,1.8.1l-1.1-1.8"/>
  </g>
  <g id="g4994">
    <path id="path4996" class="cls-26" d="M24.4,38.1c0-.2-.2-.8-.1-1h.2c0-.1,4.1-1.3,5.9-1.3h0v.3c-1.6,0-5.6,1.1-5.8,1.2,0,0,0,.5.1.8h-.3"/>
  </g>
  <g id="g4998">
    <path id="path5000" class="cls-26" d="M31.5,44.5l-.2-.2s2.6-2.2,2.7-2.3l.2.2c-.1.1-2.6,2.2-2.7,2.3"/>
  </g>
  <g id="g5002">
    <path id="path5004" class="cls-26" d="M40.7,44.7c-.4-3.4-.3-4.7-.3-4.8h.3s-.1,1.4.3,4.7h-.3"/>
  </g>
  <g id="g5006">
    <path id="path5008" class="cls-26" d="M37.9,33.8s-.5-1-.6-1.2h0c0-.1.1-.1.1-.1,0,0,3.8,0,4.3,0v.2c-.4,0-3.4,0-4.2,0,.1.3.5,1.1.5,1.1h-.2"/>
  </g>
  <g id="g5010">
    <path id="path5012" class="cls-20" d="M43.6,32.2s1.5-.7,1.6-1"/>
  </g>
  <g id="g5014">
    <path id="path5016" class="cls-26" d="M43.7,32.3v-.3c.5-.3,1.3-.8,1.4-.9h.3c-.1.4-1.2,1-1.7,1.2"/>
  </g>
  <g id="g5018">
    <path id="path5020" class="cls-26" d="M14.6,36.4c-.3-.5-3.4-5.9-3.4-5.9l.3-.2c.1.2,3.2,5.4,3.5,5.9h-.3"/>
  </g>
  <g id="g5022">
    <path id="path5024" class="cls-4" d="M34.1,31.8c.3.1.7.2,1,.3.3.2.6.4.9.7.8.8,1.1,1.9,1.2,3,.3,3.6,2.5,3.6,2.5,3.6,0,0-1.7-.6-1.7-2.5,0-1,0-2-.3-2.9-.4-1.3-1.1-2-2.4-2.4-.4-.1-.8-.2-1.2-.2-.2,0-.4,0-.3.2l.2.2"/>
  </g>
  <g id="g5026">
    <path id="path5028" class="cls-11" d="M38.8,46.7h0c0,0,0-.2,0-.2v-.3c0,0,.2-.1.2-.1h.1c0-.1.2-.3.2-.3h.2c.1-.2.2-.2.2-.2,0,0,0,0-.1.2,0,.1-.2.2-.4.3l-.2.2v.2c-.2.1-.2.2-.2.2"/>
  </g>
  <g id="g5030">
    <path id="path5032" class="cls-11" d="M37.8,46.6s0,0,0-.2v-.3c0,0,.2-.3.2-.3l.2-.2h.2c.1-.2.2-.2.2-.2,0,0,0,0-.1.2l-.2.2-.2.2c-.1.1-.2.3-.3.4,0,.1,0,.2,0,.2"/>
  </g>
  <g id="g5034">
    <path id="path5036" class="cls-11" d="M36.7,46.5h0s0-.2,0-.2v-.2s.2-.2.2-.2h.2c0-.1.2-.2.2-.2h.2c0,0,0,.1,0,.1h-.1c0,.1-.1.3-.1.3l-.2.3v.2"/>
  </g>
  <g id="g5038">
    <path id="path5040" class="cls-11" d="M29.3,45.3h0c0,0,0-.3,0-.3v-.3c0,0,.2-.1.2-.1h.1c0-.1.3-.3.3-.3h.2c.1-.2.2-.2.2-.2,0,0,0,0-.2.2-.1.1-.3.3-.4.4l-.2.2v.2c-.2.1-.2.2-.2.2"/>
  </g>
  <g id="g5042">
    <path id="path5044" class="cls-11" d="M28.2,45.2s0,0,0-.2v-.2c.1,0,.3-.2.3-.2h.2c0-.1.2-.2.2-.2.1,0,.2,0,.2,0l-.2.2-.2.2-.2.2c-.1,0-.2.2-.3.3v.2"/>
  </g>
  <g id="g5046">
    <path id="path5048" class="cls-11" d="M27.6,45h0c0,0,0-.2,0-.2v-.2c0,0,.3-.2.3-.2h.2c0,0,.2-.2.2-.2.1,0,.2,0,.2,0h-.1c0,.1-.1.3-.1.3h-.2c-.1.2-.2.3-.3.3h-.1"/>
  </g>
  <g id="g5050">
    <path id="path5052" class="cls-11" d="M17.9,46.6h0c0,0,0-.3,0-.3v-.3c.1,0,.3-.1.3-.1h.1c0-.1.3-.3.3-.3h.3c.2-.2.3-.2.3-.2,0,0,0,0-.2.2l-.2.2-.3.2-.2.2-.2.2c0,.1-.1.2-.1.2"/>
  </g>
  <g id="g5054">
    <path id="path5056" class="cls-11" d="M17.1,46.2h0v-.4c0,0,.3-.2.3-.2h.2c0,0,.2-.2.2-.2.1,0,.2,0,.2,0h-.1c0,.1-.1.3-.1.3h-.2c-.1.2-.2.3-.3.3h-.1"/>
  </g>
  <g id="g5058">
    <path id="path5060" class="cls-11" d="M10.7,27.2h.1c0,.1.2.4.2.4v.3c.1,0,.2.1.2.1h0s0,0,0,0h-.1c0-.1-.2-.2-.2-.3,0-.1,0-.2-.1-.3v-.2"/>
  </g>
  <g id="g5062">
    <path id="path5064" class="cls-11" d="M11.8,26.7h0c0,.2,0,.3,0,.5,0,.1,0,.2,0,.3h0c0,.1,0,.2,0,.2h0s0-.1,0-.1c0,0,0-.2-.1-.3,0-.1,0-.2,0-.3v-.2"/>
  </g>
  <g id="g5066">
    <path id="path5068" class="cls-4" d="M40.1,39.5c0,.9,0,1.8,0,2.8,0,.4,0,.9,0,1.3,0,.2,0,.5,0,.7h0s-.4,1.1-.4,1.3c0,0-.3-.4-.6-.4-.2,0-1.2,0-1.2,0l.2-.8s1,0,1.3,0c.3-.2.1-3.7,0-4.2.2-.2.4-.3.4-.6"/>
  </g>
  <g id="g5070">
    <path id="path5072" class="cls-8" d="M37.1,40c-.3-.2-.7-.3-1-.5-.3-.2-.7-.2-1.1-.5-.6-.4-.9-1-1.1-1.6l-.2-1s0,0,0,0h0c.4,0,1,1.1,1,1.1,0,1.2,2.3,2.5,2.3,2.5"/>
  </g>
  <g id="g5074">
    <path id="path5076" class="cls-4" d="M24.2,37.4l.4,1.4s-1.9,2.1-3.5,6.4c0,0-.4.2-.4,1,0,0,0,.1-.3.2,0,0-.2,0-.3.2h-.1c0,0-.2-.2-.3-.3,0,0,.7-.3.8-.7,0,0-.2-.2-1,.2,0,0-.4.2-.4.4,0,0,1-1.5,1.8-2.2,0,0,1.4-3.8,2.6-5.2l.8-1.5"/>
  </g>
  <g id="g5078">
    <path id="path5080" class="cls-4" d="M37.4,32.5s3.9,0,4.4,0c.4,0,3.1-.4,3.7-2,0,0-.4,1.9-8.1,2"/>
  </g>
  <g id="g5082">
    <path id="path5084" class="cls-17" d="M18.3,36.2l-.7.4c-.5.2-1,.4-1.5.3-.2,0-.4,0-.6-.1-.2,0-.4-.2-.6-.5,0-.1-.1-.2-.2-.3-.2-.4-.4-.7-.6-1.1-.3-.4-.5-.9-.8-1.3-.2-.4-.5-.8-.7-1.2-.1-.2-.3-.4-.4-.7h0c0,0-.6-1.4-1.2-1.7-.6-.3-1-1-1-1,0,0,.7.6,1.2.6,0,0-.2-.7-.7-1.6,0,0,1,.9,1.4,1.9,0,0,3.1,5.1,3.9,5.4.8.2,1.5-1,1.5-1l1.1,1.9"/>
  </g>
  <g id="g5086">
    <path id="path5088" class="cls-26" d="M31.8,34.1h.2c0,0,0,0,0,0h0c0,0,.2.2.2.2l.2.2.2.3c.1.2.2.4.4.6,0,.2.2.4.3.7,0,.2.1.4.1.6,0,.2,0,.3,0,.4v.2s0-.2-.2-.6c0-.2-.1-.4-.2-.6,0-.2-.2-.4-.3-.6,0-.1,0-.2-.2-.3l-.2-.3-.2-.3-.2-.2-.2-.2h0c0,0,0-.1,0-.1h-.1"/>
  </g>
  <g id="g5090">
    <path id="path5092" class="cls-4" d="M33.1,36.1s-1.7-1.3-8.7.9c0,0-.4-.7,0-1.8l.5.3s0,.9.9.7c.9-.3,4.5-2.3,5.6-1.9,1.1.5,1.7,1.9,1.7,1.9"/>
  </g>
  <g id="g5094">
    <path id="path5096" class="cls-26" d="M24.3,37.6s0,0,0-.2v-.2s0-.2,0-.2v-.2c0,0,.2-.2.2-.2h.1c0,0,0-.1,0-.1h0c0,0,0,.2,0,.2,0,.1,0,.2,0,.4,0,.1,0,.3,0,.4,0,.1,0,.2,0,.2"/>
  </g>
  <g id="g5098">
    <path id="path5100" class="cls-6" d="M33.6,32s-2.4-.5-1.4,1.4c0,0-.6-1.3,1.4-1.4"/>
  </g>
  <g id="g5102">
    <path id="path5104" class="cls-6" d="M27.6,31.7s2,.2,2.5,0c0,0-2,.6-2.5.6-.5,0-.9-.1-.9-.1l.9-.5"/>
  </g>
  <g id="g5106">
    <path id="path5108" class="cls-6" d="M20.6,40.2l.6-.2s-1.3,4.3-1.7,4.6c0,0-.6.4-.8.3,0,0,1.5-2,1.8-4.7"/>
  </g>
  <g id="g5110">
    <path id="path5112" class="cls-6" d="M12.5,28.3s.6,1.5,1,1.9c0,0-.8-.7-1-1.3v-.6"/>
  </g>
  <g id="g5114">
    <path id="path5116" class="cls-26" d="M45.2,31.2h0c0,.1.1,0,.1,0h0ZM38.8,46.4h.3c0,0,0,.2,0,.2,0,0,.2,0,.5,0,.5,0,.6-.7.6-1.2v-.2c0-.4.5-.8.6-.9h.1c0-.1,0,0,0,0,0,.1.2.3.4.4h0s0,0,0,0c0-.1,0-.2,0-.4,0-.8-.4-1.1-.4-1.1h-.3c0-.1.3-.3.3-.3,0,0,.1,0,.3,0s.5.1.6.3c0,.1.2.2.3.3,0-.2,0-.4,0-.8,0-.8-.8-1-.8-1h-.2c0,0,.1-.2.1-.2,0,0,.3-.3.7-.3s.4,0,.6.2h.3c0,0-.2-.2-.2-.3-.2-.4-.3-.8-.8-.8-1,0-1.3-.3-1.3-.4h0c0,0,0-.2,0-.2,0-.1.2-.5.1-.7h0c0-.1-.1-.1-.1-.1h-.1c-.3,0-.7-.3-1.1-.5-1.1-.6-1.1-1.5-1.1-2.8,0-1.3-.3-2.1-.3-2.1l-.3-.7.5.6c.4.5,1,.6,1.4.6v-.2c-.3-.3-.2-.7-.2-.7v-.3c0,0,.3.3.3.3.2.3.6.5,1.3.5s.7,0,1-.1c-.7-.3-1-.7-1-.7l-.2-.2h.3c1.8-.1,2.8-.5,2.8-.5h.2c0,0,0,0,0,0h0c.1,0,.3.1.5.2.1,0,.2,0,.3,0,.3,0,.7.2,1,.4l.2.2h0s0-.1,0-.1c0-.2,0-.3,0-.5,0-.2-.2-.4-.3-.6,0-.1-.2-.2-.3-.3h0c0,0,0-.2,0-.2h-.1c.3-.4.5-.8.7-1.2.4-.7.2-1.5,0-2,0-.2-.2-.4-.4-.7-.8-1-1.9-1.5-3.5-1.5s-2.9.4-4,.7c-.5.1-1,.2-1.4.4-1.3.3-2.6.7-4,.9-.5,0-.9,0-1.3,0-.8,0-1.5-.1-2.1-.5-.4-.2-.7-.5-.9-.8-.3-.5-.4-.9-.2-1.3.4-1,2.2-1.4,2.9-1.6.6-.1,1.1-.2,1.7-.2.9,0,1.8.1,2.6.4.3.1.5.2.8.3.7.3,1.3.6,2,.6h0c.6,0,1.1-.2,1.7-.4.2,0,.3-.1.5-.2h.2c.2-.2.4-.2.7-.3.3,0,.6,0,.9,0-.3-.4-.8-.5-1.2-.6,0,0-.2,0-.3,0h-.3s-.6-.1-.6-.1l.6-.2c.2,0,.3-.1.4-.2.1,0,.2-.1.4-.2.1,0,.2-.2.4-.3.1-.1.2-.2.3-.3.3-.2.6-.4,1-.5h.3s.1,0,.1,0c.9-.1,1.3-.3,1.6-.6-.2,0-.4,0-.7,0-.4,0-.8,0-1.2-.2-.2,0-.4-.1-.7-.2-.3,0-.6,0-.9,0-.3,0-.6.2-.8.3-.1,0-.3.2-.5.3h-.2c0,.2-.1.3-.3.3h-.1c-.1.1-.3.2-.4.2h-.8c0,0,.7-.3.7-.3.2-.1.3-.3.4-.6h0c0-.2,0-.4.1-.5-.7.9-1.8,1-1.8,1h0c-.3,0-1.3,0-2.1.9-.3.3-.5.5-.8.6-.3.2-.6.2-.9.2-.3,0-.7,0-1.1,0-2,0-4.7.2-5,2.3-.2,1.1.3,1.9,1.6,2.5.7.4,1.6.4,2.2.5h0c.3,0,.6,0,.8-.1.3,0,.6-.1.9-.1h0c0,0,.3,0,.5.2.1.2,0,.5-.3.7-.2.1-.4.3-.7.4.5,0,.9,0,1.3-.3.2-.1.3-.2.5-.4.2-.2.4-.4.7-.5h.2c0,0,0,.1,0,.1,0,.3-.1.7-.2.9,0,.1-.2.3-.3.4.2,0,.3,0,.4-.1h0c.3-.1.5-.2.8-.3.2-.1.5-.3.7-.5h.2c.2-.2.3-.3.4-.5l.2-.2v.3c.3.5.6.8,1,1,.3.1.7.2,1.1.2-.3-.2-.5-.5-.6-.9-.1-.5,0-1,.4-1.4.3-.3.7-.6,1.2-.7,1-.3,2.2-.3,3.2.2.8.4,1.3,1,1.5,1.6.2.7,0,1.4-.5,2-.4.5-1,.8-1.8,1-.5.1-1,.2-1.7.2h-.3c-.3,0-.7,0-1.1,0-1,0-2-.2-3.3-.4-.5,0-1-.2-1.6-.3-.1,0-.2,0-.3,0-.4,0-.8-.1-1.2-.1h-.3c-.4,0-.8.2-1.2.4-.4.2-1,.3-1.7.3s-1.7-.2-1.7-.2h0c0,0-.2,0-.3,0-.2,0-.5,0-.5,0h0s-2.5.1-2.5.1c-.3,0-7.2.8-8.4.8s-.2,0-.2,0c-.4-.2-1.7-.9-2.6-1.9-.8-.9-.9-1.5-1-1.9h0c0-.4,0-.8,0-1.2,0-.1,0-.2,0-.3,0-.2,0-.3-.1-.4-.1,0-.3.1-.3.1h0s-.2,0-.2,0h0c0,0,0,.3,0,.6v.4s-.3-.3-.3-.3c0,0,0-.2,0-.4,0,0,0-.2,0-.3,0-.2-.1-.2-.2-.2,0,0-.2.1-.3.1,0,0,0,0-.2,0h0c0,0,0,.2.2.6,0,.1.2.6,0,.7h0c0,0-.1,0-.1,0h0c0,0,0-.2-.2-.4,0-.2-.2-.4-.3-.5h-.1c0,0-.2,0-.2,0,0,0-.1.1-.3.2h0c0,.2,0,.4.2.5.3.2.6.6.5.8h-.2c0,.1,0,.1,0,.1-.1,0-.4-.1-.6-.3-.1,0-.3.2-.3.5,0,.3.5.4.5.4h0s0,0,0,0c.3.4.5.5.7.6h.2c0,.1.3.3.4.4,0,.1.3.6.3,1,0,.5-.4.9-1.1,1-.2,0-.3,0-.4,0,.2,0,.5.2.8.4.5.3,1.3.4,1.3.4h.3s-.2.2-.2.2c0,0-.6.8-1.4.9h-.3c.2.2.6.3,1,.6.3.2.5.3.8.3s.5,0,.5,0l.3-.2v.3c-.2,0-.4.6-.8.8l-.3.2h.3c.3,0,.5,0,.7,0,.5,0,.7,0,.9-.1h.2c.2,0,.3.1.4.3h0c.2.3.5.5.7.5.5,0,1,0,1.6-.3.1,0,1.4-.7,1.5-.8h0c0,.1,0,.1,0,.1h.1c0,0,.6,1,.8,1.4.2.6-.2,3.8-.3,3.8,0,.7-.6,2-.6,2.1,0,0-.3.9-.6,1.2-.3.3-.7.5-1.1.6h-.2c-.4.3-.5.4-.5.7,0,0,0,0,.3.2.2,0,.3.1.4.3h0c0,0,.2,0,.3.2h.2c.1.1.3.1.6.2h.2s.1,0,.1,0v-.2s.2,0,.2,0c0,0,.3.1.6.1h0c.2,0,.2,0,.4-.1h0s.3-.1.3-.1c.1,0,.2,0,.2-.3,0-.5.2-.7.2-.7h0c.3-.3.5-.4.8-.4s.2,0,.3.1l.2.2c0-.5,0-1,0-1h0s0,0,0,0c0-.2.2-.3.3-.3s.4.1.5.4c0,.1.1.2.2.3,0-.2,0-.4,0-.7,0-.8-.2-1.2-.2-1.2v-.2c-.1,0,.1,0,.1,0,0,0,.5,0,.6.6,0,.1,0,.3.2.4v-.2c0-.2,0-.3,0-.5v-.3c0-.2,0-.4,0-.6,0-.1,0-.3-.1-.4h0c0,0,0-.3,0-.3v-.2c0,0,.2,0,.2,0,0,0,.2,0,.6.4.1.1.2.2.3.2-.2-.3-.3-.6-.3-1.1,0-.5-.6-1.1-.6-1.1h0c0,0,0-.2,0-.2.4-.5.5-.7.5-.8l-.3-1.2.3.3c0,0,.3.2.9.3.3,0,.5.3.6.4,0-.5,0-.9,0-.9l-.3-.8.5.7s.3.3.9.4c.3,0,.6,0,.8.1l-.9-1.3.5.2s.5.2,1,.3c.1,0,.3,0,.4,0-.4-.3-.4-.8-.4-.8v-.2s2,.2,2,.2l-.6-.6h.2c.3-.2.7-.3,1.1-.3,1.1,0,2.1.5,2.3.6.2.1.3.4.5,1.6.2.9.8,1.5,1.7,1.7,1,.3,1.7.7,2,1.2.3.6.7,2,.6,3.1,0,.8-.4,1.3-1.1,1.6h0s-.1,0-.1,0c-.4,0-.6.2-.5.5,0,.1,0,.2.3.2s.2,0,.2,0h.2c0,0,0,.1,0,.1,0,.1.4.2.8.2h0c.3,0,.5.1.6.1.3,0,.3-.1.3-.1M39.4,47c-.2,0-.4,0-.5-.2h0c0,0-.2,0-.4,0s-.4,0-.7-.1c-.2,0-.8,0-1-.3h-.2c-.3,0-.5-.2-.6-.5,0-.6.5-.7.7-.8h0s0,0,0,0c.8-.3.9-.9,1-1.4,0-1.1-.3-2.5-.6-3-.3-.4-.9-.8-1.8-1-1-.3-1.7-1-1.9-1.9-.1-.6-.3-1.3-.4-1.4-.1,0-1.1-.5-2.1-.5s-.5,0-.7,0l.9.8h-1.5c0-.1-1-.2-1-.2,0,.2.2.5.5.6h.3c0,.1-.2.3-.2.3,0,0-.3.2-.8.1-.2,0-.4,0-.6-.1l.9,1.2-.4-.2s-.5-.2-1.2-.2c-.3,0-.6-.1-.8-.2,0,.3,0,.7,0,1.2l-.2.6v-.6c0,0-.2-.6-.6-.7-.3,0-.5-.1-.7-.2v.5c.1.1.1.3-.4.9.2.2.5.7.6,1.2,0,.6.2.9.5,1.2l.2.2h-.2c0,0-.1,0-.1,0-.2,0-.4,0-.8-.4-.1-.1-.2-.2-.3-.3h0c0,.2.1.4.1.5,0,.2,0,.4,0,.6v.3c0,.1-.1.3,0,.4,0,.1,0,.2,0,.3v.4s-.2-.1-.2-.1c0,0-.4-.2-.5-.8v-.2c0,.2,0,.5,0,.9,0,.8,0,1.1,0,1.1v.4s-.2-.3-.2-.3c0,0-.4-.3-.5-.7,0-.2-.2-.2-.3-.2h0c0,.2.2,1.1-.2,1.7l-.3.4v-.5c0-.1,0-.4-.2-.6h-.1c0,0-.3,0-.5.3,0,0-.1.2-.2.6,0,.4-.3.5-.5.5h-.2c0,0,0,0,0,0-.2.1-.3.2-.6.2-.2,0-.4,0-.6,0,0,0-.2.1-.4.1s-.2,0-.3,0c-.4,0-.5,0-.5,0h0s0,0,0,0c-.1,0-.4,0-.5-.3h0c0,0-.3,0-.3-.2h-.2c-.2-.1-.5-.2-.5-.5,0-.4.2-.6.6-.8h.2c.4-.3.8-.5,1-.7.2-.2.5-.8.6-1.1,0,0,.5-1.4.6-2,.1-1.1.4-3.3.3-3.7-.1-.3-.5-1-.7-1.3-.4.3-1.4.7-1.4.7-.7.3-1.3.4-1.8.3-.4,0-.6-.3-.9-.5h-.1c0-.1-.2-.3-.2-.3h0c-.2,0-.5.2-1,.2s-.5,0-.8,0h-1.3c0,0,.4-.3.4-.3,0,0,.3-.2.7-.4.1,0,.3-.2.4-.4,0,0-.2,0-.3,0-.4,0-.7,0-1-.3-.7-.5-1.2-.5-1.3-.5h-.3s.2-.3.2-.3c0,0,.2-.2.7-.3.4,0,.8-.4,1-.6-.3,0-.7-.2-1.1-.3-.5-.3-1-.4-1-.4h-.2c0,0,0-.2,0-.2,0,0,.2-.3.8-.4.5,0,.8-.3.8-.7,0-.4-.3-.9-.3-.9h0c0,0,0,0,0,0,0,0,0,0-.2-.1h-.2c-.2-.2-.4-.3-.8-.7-.2,0-.7-.1-.8-.6,0-.5.5-.8.5-.8h0s0,0,0,0c.1,0,.2.1.3.2,0-.1-.2-.2-.3-.3-.2-.2-.4-.4-.4-.7,0-.1,0-.3.2-.3.1,0,.2-.2.2-.2h0s0,0,0,0c0,0,.2-.1.4-.1s.3,0,.4.2h0c0,0-.1-.3,0-.4l.2-.2c.1,0,.2,0,.3,0h0s0,0,0,0h0s0,0,0,0h.1c0,0,.3,0,.4.3h0s.1,0,.1,0h.2c0,0,0,.1,0,.1h.3c0-.2.2-.1.3,0,0,0,.2.3.2.6,0,0,0,.2,0,.3,0,.3,0,.7,0,.9v.2c.1.3.3.9,1,1.8.8.9,2.1,1.6,2.5,1.8h0c1.2,0,8.3-.8,8.3-.8h2.5c0-.1.3-.2.5-.2s.3,0,.4,0c.1,0,.8.1,1.6.1s1.2,0,1.6-.2c.5-.2.9-.3,1.3-.4.1,0,.2,0,.3,0,.4,0,.8,0,1.2.1.1,0,.2,0,.3,0,.6.1,1.1.2,1.6.3,1.2.2,2.3.3,3.3.4.4,0,.7,0,1,0h.3c.7,0,1.2,0,1.6-.2.5-.1,1.1-.4,1.6-.9.4-.5.6-1.1.5-1.7-.1-.6-.6-1.1-1.3-1.4-.9-.4-2-.5-2.9-.2-.5.2-.8.4-1.1.7-.3.3-.4.8-.3,1.1.1.4.4.7.8,1l.4.3h-.4c-.5,0-1.1,0-1.6-.3-.4-.2-.8-.5-1-.9-.1,0-.2.2-.3.3h-.2c-.2.3-.5.5-.8.6-.3.1-.5.3-.8.3h0c-.2,0-.5.2-.9.2h-.2s-.4,0-.4,0l.4-.2c.3-.1.6-.4.7-.6,0-.2.1-.3.2-.5-.1,0-.3.2-.4.3-.2.1-.4.3-.6.4-.6.3-1.4.4-2,.3h-.4c0-.1.4-.3.4-.3.4-.2.7-.4,1-.6.1,0,.2-.2.2-.3,0,0,0,0-.2,0h0c-.3,0-.5,0-.8.1-.3,0-.6.1-.9.1h0c-.7,0-1.6,0-2.4-.5-1.3-.7-1.9-1.6-1.7-2.8.3-2.4,3.2-2.5,5.3-2.6.4,0,.8,0,1.1,0,.3,0,.5,0,.8-.2.3-.1.5-.3.7-.6.9-.9,2-1,2.3-1h0s1.3-.1,1.9-1.4l.3-.7v.8c0,.4-.2.9-.3,1.2h0s0,.2,0,.2h.2c0-.1.2-.3.2-.3.2-.1.4-.2.5-.3.3-.1.6-.2.9-.3.3,0,.7,0,1,0,.2,0,.5.1.7.2.4.1.7.2,1.1.2.6,0,1.1-.2,1.1-.2h.3c0-.1-.1.2-.1.2,0,0-.3.9-2.1,1.1h-.1s-.2,0-.2,0c-.3,0-.6.2-.9.4l-.3.3c-.1.1-.2.3-.4.4l-.3.2h0c.4.1,1.1.3,1.5.9h0c0,.1.1.4.1.4h-.3c-.3-.1-.7-.2-1.1-.1-.3,0-.4,0-.7.2h-.2c-.2.1-.3.2-.5.3-.6.2-1.2.4-1.8.5h0c-.8,0-1.5-.3-2.1-.6-.3-.1-.5-.2-.8-.3-.8-.3-1.6-.4-2.5-.4s-1.1,0-1.6.2c-1.1.2-2.4.7-2.7,1.4-.1.3,0,.6.2,1,.2.3.4.5.8.7.5.3,1.2.4,2,.4s.8,0,1.2,0c1.3-.2,2.6-.5,3.9-.9.5-.1,1-.3,1.4-.4,1.2-.3,2.7-.7,4.1-.7s2.9.5,3.8,1.6c.2.3.4.5.5.8.2.6.4,1.4,0,2.2-.2.3-.4.7-.6,1,.1,0,.2.2.3.3.1.2.2.4.3.7,0,.2,0,.3,0,.5h0c0,.2,0,.4,0,.6v.3s-.3-.3-.3-.3l-.2-.2-.2-.2c-.2-.2-.6-.3-.9-.3h-.3c-.2-.1-.4-.2-.5-.2h-.2c-.2,0-1.1.3-2.5.4.2.2.5.4,1,.6l.4.2h-.4c0,.1-.7.4-1.5.4s-.9-.1-1.2-.3h0c0,.2.2.3.4.4h.5c0,.1-.5.3-.5.3,0,0-.2,0-.6,0s-.7,0-1.1-.3c0,.4.2,1,.2,1.7,0,1.4,0,2,.9,2.5.4.2.7.4,1,.5h.1s.2,0,.2,0c0,0,.2.1.3.3,0,.3,0,.7-.1.9.1,0,.4.2,1,.2.7,0,.9.5,1.1,1,.1.3.2.6.5.6h.3s-.2.2-.2.2c0,0-.1.1-.3.1s-.4,0-.7-.3c-.1,0-.3-.1-.4-.1h-.3c.3.2.7.6.7,1.2,0,.9,0,1.1,0,1.1v.3c0,0-.2-.2-.2-.2,0,0-.3-.2-.6-.6,0-.1-.2-.2-.3-.2.2.2.4.6.3,1.1,0,.2,0,.4.1.5l.2.3h-.3c-.1,0-.3-.1-.4-.2h0c-.2-.1-.3-.2-.4-.3-.2.2-.3.4-.4.6v.2c0,.4,0,1.3-.9,1.5h-.3"/>
  </g>
  <g id="g5118">
    <path id="path5120" class="cls-12" d="M19.2,23.8c-.3-.2-.4-.3-.5-.4-.2-.1-.3-.2-.5-.4-.2-.2-.3-.4-.3-.6,0,0,.4.5,1.2.3.3,0,.5,0,.8.2-.1-.1-.3-.3-.5-.4-.2-.2-.4-.7-.5-1,.2.3.4.4.5.4.2,0,.4.2.7.2.5,0,1.4.5,1.4,1,0,0,.5-.3.1-1.2,0,0,1.1.2,1.1,1.2,0,0,1.1-.7,1.9.9,0,0,0,0-.6,0,0,0,.7.2,1.1,1.5.4,1.3.9,2.3,1.7,2.2,0,0-.2.3-.8.4,0,0,.3,3.1,2.3,2.9,0,0-1.2.8-2.2.5,0,0,.1.8-.9,1.8,0,0-.6.6-.3,1.4,0,0-.7-.4-.6-1.1l-1.4,2.4s-.4.8,0,1.2c0,0-.7-.2-.4-1.8,0,0-.4.9-1.1,1.9-.3.4-.5.9-.6,1.4l-.2-.3c0-.1-.1-.2-.2-.4-.1-.2-.1-.5-.2-.7,0,.2,0,.4-.1.6,0,.1,0,.2-.1.3v.3c-.2-.2-.1-.4-.2-.6,0-.2-.2-.4-.4-.6-.6-.6-1-.9-1.2-2.1,0,0-.2.8-1,1,0,0,1-.6-.3-2.2l-.2-.2s-.8-.1-1.1-1.5c0-.4,0-.8,0-1.2,0,.1-.2.2-.3.3-.1,0-.2.1-.4.2h-.2s-.3,0-.3,0c.5-.2.8-.6.8-1.1,0-1,.3-1.5.6-1.8,0,0-1,.3-1.7,0,0,0,.9.3,1.4-1.3,0,0-.4,0-.6.4,0,0,.1-1.3,2.2-2.1,0,0-.3,0-.5,0,0,0,.4-.5.7-.6,0,0-.2-.2-.6-.3l.3-.3c.1,0,.2-.2.3-.2.1,0,.3,0,.4-.1h-.2c-.2-.1-.4,0-.6,0h0c.1-.2.2-.3.4-.4.3-.1.6-.2.9-.2.1,0,.3,0,.4,0,.1,0,.4.2.5.2"/>
  </g>
  <g id="g5122">
    <path id="path5124" class="cls-26" d="M20.1,37l.2.5v.3c.1.1.1.3.2.4,0,.1.1.2.2.3.1-.4.3-.7.6-1.2.7-1,1.1-1.9,1.1-1.9l.5-1.1-.3,1.2c-.1.5-.1.9,0,1.1,0-.3.2-.6.2-.6l1.7-3v.7c0,.3,0,.5.2.7,0-.7.4-1.1.4-1.2,1-.9.9-1.6.9-1.7v-.2s.2,0,.2,0c.1,0,.3,0,.4,0,.4,0,.9-.1,1.2-.3-1.7-.3-1.9-2.9-1.9-3v-.2s.1,0,.1,0c.2,0,.4,0,.5-.1-.6-.2-1.1-.9-1.5-2.3-.4-1.2-1-1.4-1-1.4l-1-.3h1.1c.1,0,.2,0,.3,0-.3-.5-.6-.7-1-.7s-.5.1-.5.1h-.2c0,.1,0-.1,0-.1,0-.6-.5-.9-.8-1,.2.8-.3,1.1-.3,1.1h-.2c0,.1,0-.1,0-.1,0-.3-.8-.8-1.3-.9-.2,0-.4,0-.7-.2h0c0,.1.2.3.2.4l.3.2.2.2.6.6-.8-.4c-.2-.1-.4-.2-.6-.2-.3,0-.6,0-.8,0h0c.1.2.3.3.5.4h.2c0,.2.2.2.4.4l.5.3h-.6c-.1,0-.2-.1-.3-.2h-.2c-.1-.1-.3-.1-.4-.1h0c-.3,0-.5,0-.7.2h-.2c0,.1.3.1.3.1h.1c0,0,0,0,0,0h.3c0,.1-.3.3-.3.3h-.2c0,0-.2.1-.2.1l-.3.2h0c0,0,0,.1,0,.1.3,0,.4.2.4.2l.2.2h-.2c-.1.1-.3.3-.4.4.1,0,.2,0,.2,0h.4c0,.1-.4.3-.4.3-1.2.5-1.7,1.1-1.9,1.5.2,0,.3,0,.3,0h.2s0,.2,0,.2c-.2.8-.6,1.2-.9,1.4h.3c.4,0,.8-.1.8-.1l.7-.2-.6.5c-.2.1-.6.6-.5,1.7,0,.4-.1.7-.4,1h.2c.1-.2.2-.3.3-.4l.4-.7-.2.8c0,.3,0,.7,0,1.1.2,1.2.9,1.4.9,1.4h0s.2.3.2.3c.6.6.8,1.2.7,1.7h0c.2-.2.3-.5.3-.5l.2-.6v.6c.3,1,.6,1.3,1.1,1.9h.1c.2.3.3.6.4.8h0s0,0,0,0v-.3c0,0,.1-.3.1-.3v-.5ZM19.7,39.3v-.6c0,0,0-.2,0-.2,0-.1,0-.2,0-.3,0-.2-.2-.4-.3-.5h-.1c-.4-.6-.8-.9-1-1.7-.2.3-.4.6-.9.7l-.9.2.8-.5s.2-.2.3-.5c0-.4-.2-.9-.7-1.5l-.2-.2c-.2,0-.9-.3-1.1-1.6,0-.3,0-.5,0-.8h0c-.1.1-.3.2-.4.2h-.3s0,0,0,0h-.3s-.6-.1-.6-.1l.6-.2c.4-.1.7-.5.7-1,0-.8.2-1.3.4-1.6-.1,0-.3,0-.4,0-.4,0-.7,0-.9-.2l-.9-.6,1.1.4h.1c.2,0,.7,0,1-1,0,0-.2.1-.3.3l-.3.6v-.7c0,0,.2-1.1,1.7-2h-.1s.2-.3.2-.3c0,0,.3-.4.6-.6,0,0-.2,0-.3,0h0c0-.1,0-.3,0-.3l.2-.2h.1c0-.1.2-.3.2-.3h-.2s-.3,0-.3,0l.2-.3h0c.1-.2.2-.3.4-.4.3-.1.6-.2.9-.2h.2s-.3-.2-.3-.2c-.2-.2-.3-.4-.4-.7v-.5c0,0,.3.4.3.4,0,0,.3.3.8.3h.3s.2,0,.2,0c-.2-.2-.4-.7-.5-1.1v-.7c-.1,0,.3.6.3.6.2.2.3.3.4.4.2.1.4.2.6.2.4,0,1.2.4,1.4.9,0-.1.1-.4,0-.8v-.2c0,0,.2,0,.2,0,.4,0,1.1.4,1.2,1.1.1,0,.3,0,.4,0,.4,0,1,.2,1.4,1.1l.3.7-.5-.4c.2.2.5.6.6,1.2.3,1,.8,2.2,1.6,2.1h.3s-.2.2-.2.2c0,0-.3.3-.8.4,0,.6.5,2.6,1.9,2.6h.2s.6,0,.6,0l-.5.3s-.9.6-1.8.6h-.3c0,.3-.2,1-1,1.7,0,0-.5.5-.2,1.3v.4c.1,0-.2-.2-.2-.2,0,0-.5-.3-.6-.8l-1.1,2c0,.2-.3.8,0,1.1l.3.4-.5-.2s-.5-.2-.5-1.2c-.2.3-.5.8-.8,1.2-.3.5-.5.9-.6,1.4v.3c0,0-.3-.2-.3-.2l-.2-.3c0-.1-.1-.2-.2-.4h0s0,0,0,.2v.2c0,0-.1.1-.1.1l-.2.5"/>
  </g>
  <g id="g5126">
    <path id="path5128" class="cls-13" d="M22.4,32.1s.5,1,.2,2.6c0,0,1.1-1.5.1-3.1l-.4.5"/>
  </g>
  <g id="g5130">
    <path id="path5132" class="cls-13" d="M15.2,31.6l.2-.2v-.3c.2-.2.3-.4.3-.6,0-.1,0-.2.1-.4,0-.1.2-.2.3-.3.1-.1.7-.7.9-.4,0,0,0,.4,0,.7h-.3c-.2,0-.4,0-.6.2-.1,0-.2.2-.3.3,0,.1-.1.3-.2.4,0,.1,0,.2-.2.3,0,.1-.2.2-.3.3"/>
  </g>
  <g id="g5134">
    <path id="path5136" class="cls-13" d="M16.9,30.2s-1.9,1-.7,3.5c0,0-.6-2.1.8-2.9v-.6"/>
  </g>
  <g id="g5138">
    <path id="path5140" class="cls-25" d="M19.7,25.5s-.1-.3-.3-.4c0,0,.7,0,.8.3,0,0,0-.5-.2-.7,0,0,.5,0,.6.4v-.3c0,0,.4.2.5.6,0,0,.4-.3,1,0,0,0-.3,0-.4.2,0,0,.7.1.9,1.2.3,1,.2,1.3.2,1.6,0,.3,0,.5.2,1,0,0,.2.4,0,1.1,0,0,0-.2-.1-.3h0c0-.1,0,.4-.1.7-.2.2-.7,1-.7,1,0,0-.7,1-.7,1.2s0,.8,0,1c0,0-.2.4-.5.7,0,0,.2-.2,0-.8,0,0,0,.5-.4.7-.3.2-.4.2-.5.4,0,0-.1-.2-.1-.5,0-.4,0-.5,0-.5,0,0-.2.3-.2.6,0,0-.3-.2-.3-.8,0,0-.3.2-.2.8,0,0-.6,0-.5-1.2,0,0,0,0-.2-.5l-.7-2.2s-.2.5-.1.9c0,0-.3-.3-.3-1.3,0,0-.1.3-.2.5,0,0,0-.4,0-.8-.1-.4.1-1.1.1-1.1,0,0,.4-1,.5-1.3.1-.5.3-1,.5-1.4.3-.5.9-1.1,1.5-.7"/>
  </g>
  <g id="g5142">
    <path id="path5144" class="cls-26" d="M19.9,33.9h.1c0,.2.1.3,0,.7v.2s.1,0,.1,0h.2c.3-.3.4-.8.4-.8v-.6c.1,0,.3.6.3.6,0,.1,0,.2,0,.3,0-.1.1-.2.1-.2h0c0-.1,0-.6,0-.7v-.2c0-.2.4-.9.7-1.3,0,0,.5-.7.7-1,.1-.2.1-.6,0-.7v-.5c0,0,.3.5.3.5,0-.3,0-.5,0-.5-.1-.4-.2-.6-.2-.8v-.3c0-.1,0-.2,0-.4,0-.2,0-.6-.2-1.3-.3-.9-.8-1.1-.8-1.1h-.2s0-.2,0-.2h0c-.3,0-.5,0-.5,0h-.2c0,.1,0,0,0,0,0-.1,0-.2-.2-.3v.8s-.3-.8-.3-.8l-.2-.2c0,.2,0,.4,0,.5v.6s-.3-.5-.3-.5c0,0-.2-.1-.3-.2h0c0,.1.2.6.2.6l-.4-.3c-.1,0-.2-.1-.3-.1-.4,0-.7.4-.9.7-.2.4-.4.9-.5,1.4,0,.3-.4,1.1-.5,1.3,0,.2-.2.7-.1,1v.3c0,0,.4-.6.4-.6v.7c0,.2,0,.4,0,.6,0-.1,0-.2,0-.2l.2-.3.8,2.5c.2.4.2.5.2.6,0,.5,0,.8.2.9h0c0-.4.3-.6.3-.6l.3-.2v.3c0,.2,0,.4,0,.5,0-.2.2-.3.2-.3v-.2ZM20.2,35.5l-.2-.2s-.1-.2-.1-.4h0c0,.1-.2,0-.2,0,0,0-.2-.1-.3-.4v.2s0,.2,0,.2h-.2s-.2,0-.4-.2c-.2-.2-.3-.6-.2-1.1,0,0,0-.1-.1-.4l-.6-1.8c0,.1,0,.3,0,.4v.4c.1,0-.2-.3-.2-.3,0,0-.2-.2-.3-.8l-.3.6v-.8c0,0,0-.4,0-.8-.1-.5.1-1.2.1-1.2.2-.4.4-1.1.4-1.2h0c.1-.5.3-1,.5-1.5.3-.5.7-.9,1.2-.9l-.8-.4h.9c.1.1.4.2.6.3,0-.1,0-.3-.1-.3l-.3-.3h.4c0,0,.3,0,.6.3h0c0-.1.4.1.6.5.1,0,.3,0,.5,0s.3,0,.5,0l.6.2h-.6c0,.1-.1.2-.1.2.2.1.6.5.8,1.2.2.7.2,1.1.2,1.4,0,.1,0,.2,0,.3v.3c0,.2,0,.4.2.7,0,0,.2.5,0,1.2h-.2c0,.1,0,.3-.2.4-.2.2-.7,1-.7,1-.3.4-.7,1-.7,1.1v.2c0,.4,0,.7,0,.9,0,0-.2.5-.6.7l-.2-.2h0s-.2.2-.2.2l-.2.2c-.1,0-.1,0-.2.2v.3"/>
  </g>
  <g id="g5146">
    <path id="path5148" class="cls-20" d="M16.1,26.3l-.2-.4c0-.3,0-.6.2-.8.2-.3.5-.3.8-.2,0,0,.2,0,.4.2,0,0-.3.1-.7.6,0,0,.3,0,.5,0,0,0-.6.2-1,.5"/>
  </g>
  <g id="g5150">
    <path id="path5152" class="cls-11" d="M16.6,25c-.2,0-.3,0-.4.2-.2.2-.2.4-.2.6v.2c.1,0,.3-.1.3-.1h-.1s.2-.3.2-.3c.2-.3.4-.5.6-.6h-.2c0,0-.2,0-.2,0M16.1,26.5c-.2,0-.3-.5-.3-.5,0-.3,0-.6.3-.9.2-.2.4-.3.6-.3s.2,0,.3,0c0,0,.3,0,.5.2l.2.2h-.2c0,0-.2.2-.5.4h.2s.4.2.4.2h-.4c0,.1-.6.4-.9.6h0s0,0,0,0"/>
  </g>
  <g id="g5154">
    <path id="path5156" class="cls-20" d="M23.1,25.9s.8.5,1,.9c0,0,.4-.6,0-1.1-.5-.5-.9,0-.9,0v.2"/>
  </g>
  <g id="g5158">
    <path id="path5160" class="cls-11" d="M23.2,25.8c.2.1.6.4.8.6,0-.2,0-.5-.2-.7,0-.1-.2-.2-.3-.2-.2,0-.4.2-.4.2h0M24.1,27v-.2c-.3-.3-.9-.7-1.1-.8h0s0,0,0,0v-.3c0,0,.3-.3.7-.3s.4,0,.5.3c.4.5.3,1,.1,1.3v.2"/>
  </g>
  <g id="g5162">
    <path id="path5164" class="cls-3" d="M22.1,22.4s.4.9-.1,1.4c-.5.5-.5,1.2-.5,1.2,0,0,.2-.6.6-.8,0,0,.5-.3.4-.9-.2-.5-.3-.8-.3-.8"/>
  </g>
  <g id="g5166">
    <path id="path5168" class="cls-3" d="M22,24.5s.9-1.6,2-.8c0,0-1.1-.3-2,.8"/>
  </g>
  <g id="g5170">
    <path id="path5172" class="cls-3" d="M19.8,22.4s1.5.4,1.4,1.4c0,0,.9-.8.6-1.4,0,0,.3.5-.2,1.3-.4.7-.6,1.2-.6,1.2,0,0,.4-1.7-1.3-2.5"/>
  </g>
  <g id="g5174">
    <path id="path5176" class="cls-3" d="M19.1,22s1.3.8,1.6,1.3c0,0-.5-.6-.9-.7,0,0,1.4.8,1.1,2.1h-.2c0-.1.1-1.2-.6-1.8-.8-.6-.9-1-.9-1"/>
  </g>
  <g id="g5178">
    <path id="path5180" class="cls-3" d="M18.4,23s.4.2.7,0c.4,0,.9.1,1,.9,0,.4,0,.6,0,.6h-.3c0,0,.2-.8-.3-1.2-.5-.3-.9,0-1.2-.4"/>
  </g>
  <g id="g5182">
    <path id="path5184" class="cls-3" d="M17.7,23.8s1.1-.4,1.7.4c.6.8.6.8.6.8h-.3c0,0-.4-.8-.8-1-.5-.2-1.1-.2-1.1-.2"/>
  </g>
  <g id="g5186">
    <path id="path5188" class="cls-3" d="M19.5,24.9s-.4-1.1-1.7-1c0,0,1.1,0,1.4,1h.3"/>
  </g>
  <g id="g5190">
    <path id="path5192" class="cls-3" d="M18.8,25.3h-.2c0,.1-.6-.3-1.5.3,0,0,.7-.7,1.8-.3"/>
  </g>
  <g id="g5194">
    <path id="path5196" class="cls-3" d="M18.4,25.5v.2c-.1,0-.7-.2-1.3,0,0,0,.6-.4,1.3-.1"/>
  </g>
  <g id="g5198">
    <path id="path5200" class="cls-3" d="M18.1,25.9s-.3,0-1,.2c-.6.2-1.3.6-2,1.4,0,0,1.2-1.1,2.2-1.2,0,0-.4.1-1.6.9,0,0,1.4-.8,2-.5l.4-.8"/>
  </g>
  <g id="g5202">
    <path id="path5204" class="cls-3" d="M14.8,29s.5-.2.9-1.1c.4-.9,1.7-1,1.9-.7v.3c0,0-.6-.3-1.2.1-.7.4-.4,1.1-1.5,1.4"/>
  </g>
  <g id="g5206">
    <path id="path5208" class="cls-3" d="M21.7,24.9s1.2-1.4,2.1-.7c.9.7,1.1,1.8,1.1,1.8,0,0,.3,1.4,1.2,1.8,0,0-1.5-.7-1.7-1.7,0,0-.6-2.2-2.2-1.2h-.2c0,.1-.5.1-.5.1v-.2"/>
  </g>
  <g id="g5210">
    <path id="path5212" class="cls-3" d="M22.2,32.3s.6,2.6-.5,4.4c-.8,1.3-1,1.8-1,1.8,0,0-.1-.4.8-2,.9-1.6.4-3.7.4-3.7l.4-.5"/>
  </g>
  <g id="g5214">
    <path id="path5216" class="cls-13" d="M21.6,33.5s.2,1.3-.2,2.4c-.4,1.1-.7,1.2-.8,1.9,0,0,0-.6.5-1.5.4-.9.3-1.8.3-1.8,0,0,.3-.3.3-1"/>
  </g>
  <g id="g5218">
    <path id="path5220" class="cls-13" d="M22.6,25.9l.2.3s.6.2,1,.5c0,0-.3-.6-1.1-.8"/>
  </g>
  <g id="g5222">
    <path id="path5224" class="cls-13" d="M22.8,26.6s.9.4,1.2,1.1c0,0-.4-.3-.5-.4l.3.4-.8-.4-.2-.6"/>
  </g>
  <g id="g5226">
    <path id="path5228" class="cls-13" d="M17.5,27.6c-.1,0-.3,0-.4,0-.4,0-.7.3-.9.5l-.3.3-.2.2c-.1.2-.4.3-.6.3,0,0,.5,0,.9-.3.4-.3,1.2-.9,1.4-.7v-.4c.1,0,.1,0,.1,0"/>
  </g>
  <g id="g5230">
    <path id="path5232" class="cls-13" d="M21.2,34.7s-.8.8-.8,1.8c0,1,0,1.5,0,1.5,0,0,0-1.1.2-1.4v.5s.7-1.6.6-2.5"/>
  </g>
  <g id="g5234">
    <path id="path5236" class="cls-13" d="M18.4,33.7c0,.3,0,.5,0,.8,0,.6,0,1.2.2,1.7.1.3.3.6.6.9.2.3.5.5.6.8,0,0-.2-.9-.8-1.5-.6-.7-.2-1.7-.2-1.7,0,0-.3-.6-.3-.9"/>
  </g>
  <g id="g5238">
    <path id="path5240" class="cls-13" d="M25.9,31.2s.9.2,1.5,0c0,0-.7.4-1.8-1.1-1-1.5-2.4-1.5-2.4-1.5v.5c.1,0,1.8.2,2.3,1.6.5,1.4-.6,2.7-.6,2.7,0,0,1.3-.9,1-2.1"/>
  </g>
  <g id="g5242">
    <path id="path5244" class="cls-13" d="M23.4,29.4s1.8.3,2,1.6c0,.6,0,1.2-.3,1.7-.2.4-.4.7-.5,1.1.1-.6.4-1.2.5-1.9,0-.6-.2-1-.7-1.3-.3-.1-.6-.2-.9-.3,0,0,.1-.6,0-.9"/>
  </g>
  <g id="g5246">
    <path id="path5248" class="cls-13" d="M23.9,30.6s1.4.6.7,2.3c0,0,.2-1.9-.7-2.3"/>
  </g>
  <g id="g5250">
    <path id="path5252" class="cls-13" d="M17.3,28.3s-1.2.6-1.5,1c-.3.5-.3,1.3-.3,1.3,0,0,.3-1.3.9-1.6.6-.3.7-.3.7-.3l.2-.5"/>
  </g>
  <g id="g5254">
    <path id="path5256" class="cls-13" d="M22.9,31.3v.3c.2.3.3.6.3.9.1.9,0,1.9-.4,2.7-.2.3-.2.7-.2,1,.2-.6.4-1.2.8-1.6.6-.5,1.8-3,.1-4,0,0,.7,1.1.5,2.2-.2,1.1-.8,1.7-.8,1.7,0,0,1.2-2,0-3.8l-.3.5"/>
  </g>
  <g id="g5258">
    <path id="path5260" class="cls-13" d="M18.1,32.1s-.7.7-.5,1.8c.3,1.1.3,1.5.2,1.7,0,0,.3-.2.1-1.6,0,0,.2.8.2,1.1,0-.5.1-.9,0-1.4,0-.3,0-.5.2-.7l-.3-.9"/>
  </g>
  <g id="g5262">
    <path id="path5264" class="cls-13" d="M17.3,31.2s-.7.8-.6,1.7c.1.9.8,1.6.9,2.1,0,0-1.1-2.6,0-3.2,0,0-.2-.3-.2-.5"/>
  </g>
  <g id="g5266">
    <path id="path5268" class="cls-13" d="M23.1,27.6s2.1.8,2.7,1.8c.6.9.9,1.4,1.2,1.6,0,0-.5,0-1.1-.7-.6-.8-1-1.4-1.9-1.7l-.9-.3v-.7"/>
  </g>
  <g id="g5270">
    <path id="path5272" class="cls-13" d="M24.2,27.6s1.1.3,1.5,1l.3.7s-.9-1.1-1.5-1.2l-.3-.5"/>
  </g>
  <g id="g5274">
    <path id="path5276" class="cls-14" d="M21.2,29.5s.9.3.7,1c0,0-.2.5-.3.6,0,0-.4,2.1-.8,2.2-.4.2-.6-.6-.8-.7-.2,0-.6.6-.8.5-.2,0-.4-.2-.5-1.1-.2-.9-.2-1.1-.2-1.1,0,0-.8-.9-.2-1.4.6-.5,1.8.2,1.8.2l1.2-.4"/>
  </g>
  <g id="g5278">
    <path id="path5280" class="cls-13" d="M18.9,34.7s-.1.9.2,1.4c.3.5.7,1,.7,1.3v-.2s.4-1.9.9-2.3c0,0-.6.6-.6,1,0,0-1.1-.6-1.2-1.2"/>
  </g>
  <g id="g5282">
    <path id="path5284" class="cls-24" d="M21,30s2.6-1.1,5-.2c0,0-1.8-.7-5,.2"/>
  </g>
  <g id="g5286">
    <path id="path5288" class="cls-24" d="M21.1,30.2s2.7-.3,4.5,1c0,0-1.9-1.1-4.5-1"/>
  </g>
  <g id="g5290">
    <path id="path5292" class="cls-24" d="M21,30.5s2.4.6,3.4,2.1c0,0-1.1-1.2-3.4-2.1"/>
  </g>
  <g id="g5294">
    <path id="path5296" class="cls-24" d="M19.1,29.8s-1.9-1.3-4.2-.9c0,0,1.8-.3,4.2.9"/>
  </g>
  <g id="g5298">
    <path id="path5300" class="cls-24" d="M18.9,30s-1.3-.7-3.5.2c0,0,1.7-.6,3.5-.2"/>
  </g>
  <g id="g5302">
    <path id="path5304" class="cls-24" d="M19.1,30.2s-2.2.5-3.1,1.9c0,0,1.1-1.3,3.1-1.9"/>
  </g>
  <g id="g5306">
    <path id="path5308" class="cls-5" d="M18.7,30.9s.9-.8,1.5-.5c.6.2,1.2.8,1.2.8,0,0,0,.9-.6,2,0,0,0,.2-.5,0-.4-.3-.4-.2-.8,0-.4.2-.5-.5-.5-.5,0,0-.2-.6-.2-1.2,0,0-.1-.3,0-.5"/>
  </g>
  <g id="g5310">
    <path id="path5312" class="cls-19" d="M18.9,30.9s.1-.3.4-.3c0,0,0,.5,0,.7,0,0,0,.1-.4-.4"/>
  </g>
  <g id="g5314">
    <path id="path5316" class="cls-19" d="M21,31.1s-.2.3-.5.3c0,0,.2-.3.2-.5,0,0,0,0,.3.2"/>
  </g>
  <g id="g5318">
    <path id="path5320" class="cls-19" d="M19.4,32.2v.3s.1.3.1.3h-.2c0,.1-.1.1-.1.1v-.3s.1-.2.1-.2h0c0-.1,0-.2,0-.2"/>
  </g>
  <g id="g5322">
    <path id="path5324" class="cls-19" d="M20.4,32.9s.4.3.3,0c0-.3-.2-.6-.2-.6v.6"/>
  </g>
  <g id="g5326">
    <path id="path5328" class="cls-9" d="M19.7,32.7s.4-.1.6,0c0,0,.1-.3.1-.5,0-.1.2-.2.2,0v.2c.1,0,.1-.6-.2-.8-.3-.1-.4,0-.4,0,0,0-.4-.3-.6.3,0,0,0,0,.1.4,0,.3.1.3.1.3"/>
  </g>
  <g id="g5330">
    <path id="path5332" class="cls-16" d="M19.5,27.8s.5,0,.6-.3c0,0,0,.5-.6.7v-.4"/>
  </g>
  <g id="g5334">
    <path id="path5336" class="cls-16" d="M21.1,27.7l-.2.6s-.6-.3-.6-.5c0-.2,0-.4,0-.4,0,0,.3.7.8.3"/>
  </g>
  <g id="g5338">
    <path id="path5340" class="cls-5" d="M18.3,27.5s.4-.2.6-.2c.2,0,.7.3.8.6v.2c-.1,0,0,.2,0,.2,0,0-.6.9-.6,1.2,0,.3.3,0,.5.2.3.2.2.3.4.4.1,0,.2,0,.3-.1.1-.2.3-.3.4-.3.1,0,.4,0,.3-.3,0-.4-.2-.7-.2-1s.2-.5.3-.5c0,0,.6-.3.7-.3.2,0,.6.3.6.3h-.2c0,0-.2,0-.3,0,0,0,0,.4-.3.4-.2,0-.4,0-.6-.1,0,0-.2.2,0,.5,0,.3.2.9.2,1,0,.1-.2.2-.4.2-.2,0-.4.1-.5.2,0,0-.4.3-.7-.1h-.4c0,0-.4-.3-.4-.5s.6-1.1.6-1.1v-.3s0-.1,0-.1c0,0-.2.3-.5.2-.3,0-.5-.3-.4-.6h-.2c0,0-.2,0-.2,0"/>
  </g>
  <g id="g5342">
    <path id="path5344" class="cls-18" d="M18.8,27.5h.2c0,0-.1.2,0,.3.2,0,.2-.1.2-.1h.1c0,.1-.1.4-.4.3-.3-.1-.2-.5-.2-.5"/>
  </g>
  <g id="g5346">
    <path id="path5348" class="cls-18" d="M21.2,27.9h0c0,0,.2,0,.3,0,.1,0,.1-.2.1-.3h.2s0,.2-.1.3c-.2.1-.4,0-.5-.1"/>
  </g>
  <g id="g5350">
    <path id="path5352" class="cls-22" d="M19.1,29.3s1.5-.1,1.9.2h0s0,.3-.3.2c-.3,0-.4.3-.5.3,0,0-.3.2-.4,0-.1-.2-.3-.4-.4-.4-.1,0-.3,0-.3,0,0,0-.2,0-.1-.2h0c0-.1,0-.1,0-.1"/>
  </g>
  <g id="g5354">
    <path id="path5356" class="cls-19" d="M18.8,27.5h.2c0,0,0,.2,0,.2h-.2v-.2"/>
  </g>
  <g id="g5358">
    <path id="path5360" class="cls-19" d="M21.2,27.9h0c0,0,.1,0,.1,0h-.1c0,.1-.1,0-.1,0"/>
  </g>
  <g id="g5362">
    <path id="path5364" class="cls-16" d="M19.6,28.3s.2-.2.4,0c0,0-.2,0-.5.2v-.2"/>
  </g>
  <g id="g5366">
    <path id="path5368" class="cls-6" d="M18.3,26.6s.6-1.1,1.2-.7c0,0-.9,0-1.2.7"/>
  </g>
  <g id="g5370">
    <path id="path5372" class="cls-6" d="M19,27.3s.5.2.7.5h.4c0-.1-.4-.2-.4-.2,0,0-.3-.3-.6-.3"/>
  </g>
  <g id="g5374">
    <path id="path5376" class="cls-3" d="M18.7,25l-.4-.2h.5s-.8-.7-1.6,0c0,0,.8,0,1.5.2"/>
  </g>
  <g id="g5378">
    <path id="path5380" class="cls-3" d="M22.2,25.1l.6.2s.7-.4,1-.1c0,0-.4-.7-1.6,0"/>
  </g>
  <g id="g5382">
    <path id="path5384" class="cls-6" d="M34.6,35s.3,2.2,1.2,3.2c0,0-.8-2-.8-2.5l-.4-.7"/>
  </g>
  <g id="g5386">
    <path id="path5388" class="cls-6" d="M42.7,26.4s2.8.7,2.5,3.1c0,0,1-2.8-2.5-3.1"/>
  </g>
  <g id="g5390">
    <path id="path5392" class="cls-21" d="M12,26.4s.3.2.5,0c0,0,.2-.7-.7-.8,0,0,.4.5.2.8"/>
  </g>
  <g id="g5394">
    <path id="path5396" class="cls-11" d="M12.2,26.4h.1s.1,0,.1,0c0,0,0-.3,0-.4,0,0-.2-.1-.3-.2,0,.2.2.4.1.6M12.3,26.6c-.2,0-.3-.1-.3-.1h0c0,0,0-.1,0-.1.2-.2-.2-.7-.2-.7v-.2c-.1,0,0,0,0,0,.3,0,.5.1.6.3.2.3.1.6.1.6h0s0,0,0,0h-.3"/>
  </g>
  <g id="g5398">
    <path id="path5400" class="cls-21" d="M11,26.4s.3,0,.4-.1c0,0,0-.4-.7-.5,0,0,.3.3.3.7"/>
  </g>
  <g id="g5402">
    <path id="path5404" class="cls-11" d="M11.1,26.3h.2c0-.2,0-.3-.3-.4,0,.1.1.3.1.4M11.1,26.5h-.1s0,0,0,0h0c0-.3-.2-.6-.2-.7l-.2-.2h.3c.8.3.8.7.7.7h0s0,0,0,0c-.1.1-.3.2-.4.2"/>
  </g>
  <g id="g5406">
    <path id="path5408" class="cls-21" d="M9.7,27.2s.4,0,.4-.4c0,0-.5-.5-.8-.2,0,0,.4.2.4.6"/>
  </g>
  <g id="g5410">
    <path id="path5412" class="cls-11" d="M9.5,26.7c.1,0,.3.3.3.5,0,0,.2,0,.2-.2-.1-.1-.4-.3-.5-.3M9.6,27.3h0c0-.3-.3-.5-.4-.6h-.1c0,0,0-.2,0-.2,0,0,.2-.1.3-.1.3,0,.6.3.6.4h0s0,0,0,0c0,.3-.3.4-.5.5h0"/>
  </g>
  <g id="g5414">
    <path id="path5416" class="cls-21" d="M9.7,28.3s0,.2-.2.4c0,0-.5-.2-.4-.8,0,0,.4.4.7.4"/>
  </g>
  <g id="g5418">
    <path id="path5420" class="cls-11" d="M9.1,28.2c0,.3.2.4.3.5v-.2s-.2-.1-.3-.2M9.5,28.9h0c-.2,0-.6-.4-.5-.9v-.2s.2.1.2.1c0,0,.3.3.5.3h0s.1,0,.1,0h0c0,.1,0,.4-.3.6h0"/>
  </g>
  <g id="g5422">
    <path id="path5424" class="cls-21" d="M16.5,45.6s.6-.4.6.4c0,0-.5.2-.6.4,0,0-.2-.2,0-.8"/>
  </g>
  <g id="g5426">
    <path id="path5428" class="cls-26" d="M16.6,45.7c-.1.3-.1.4-.1.6.1-.2.4-.3.5-.3,0-.1,0-.2,0-.3h-.1s-.2,0-.2,0M16.5,46.6h-.1c0-.2-.3-.4,0-1.1h0s0,0,0,0c0,0,.2,0,.4,0s.2,0,.3.1c0,0,.1.3,0,.5h0c0,0,0,0,0,0-.2,0-.5.2-.5.4v.2"/>
  </g>
  <g id="g5430">
    <path id="path5432" class="cls-21" d="M17.7,46.5s0-.6-.5-.4c0,0-.3.3,0,.8,0,0,.2-.4.5-.4"/>
  </g>
  <g id="g5434">
    <path id="path5436" class="cls-26" d="M17.2,46.2c0,0-.2.3,0,.5,0-.1.2-.3.4-.3v-.2c-.1,0-.2,0-.3,0M17.1,47.2v-.2c-.3-.4-.2-.8,0-.9h0s0,0,0,0c.2,0,.4,0,.5,0,.1.2.1.4.1.4h0c0,0,0,0,0,0-.3,0-.5.4-.5.4v.2"/>
  </g>
  <g id="g5438">
    <path id="path5440" class="cls-21" d="M18.6,46.7s0-.6-.5-.4c0,0-.3.3,0,.8,0,0,.2-.4.5-.4"/>
  </g>
  <g id="g5442">
    <path id="path5444" class="cls-26" d="M18.2,46.4c0,0-.2.3,0,.5,0-.1.2-.3.4-.3v-.2c-.1,0-.2,0-.3,0M18.1,47.4v-.2c-.3-.4-.2-.8,0-.9h0s0,0,0,0c.2,0,.4,0,.5,0,.1.2.1.4.1.4h0c0,0,0,0,0,0h0c-.3,0-.5.4-.5.4v.2"/>
  </g>
  <g id="g5446">
    <path id="path5448" class="cls-21" d="M19.1,46.4s.4-.2.6.2c0,0-.4.3-.5.6,0,0-.3,0-.1-.7"/>
  </g>
  <g id="g5450">
    <path id="path5452" class="cls-26" d="M19.2,46.5c0,.3,0,.4,0,.5h0c.1-.2.3-.3.4-.4h-.2c0-.1-.2,0-.2,0M19.3,47.3h0s-.1,0-.2-.1c-.1-.2-.1-.4,0-.7h0s0,0,0,0c0,0,.1,0,.3,0s.3,0,.5.3h0c0,0,0,.1,0,.1,0,0-.4.2-.4.5h0"/>
  </g>
  <g id="g5454">
    <path id="path5456" class="cls-21" d="M36.3,45.8s.7,0,.3.5c0,0-.5,0-.6.3,0,0-.2-.3.3-.8"/>
  </g>
  <g id="g5458">
    <path id="path5460" class="cls-26" d="M36.3,45.9c-.2.2-.3.3-.3.4.2-.1.4-.2.5-.2h0c0-.2-.2-.2-.3-.3M36,46.8h0c0-.1-.3-.5.3-1h0s0,0,0,0c0,0,.4,0,.5.2,0,.1,0,.2,0,.4h0s0,0,0,0c-.1,0-.5,0-.6.3h0"/>
  </g>
  <g id="g5462">
    <path id="path5464" class="cls-21" d="M36.9,46.1s.4,0,.5.4c0,0-.5.2-.6.4,0,0-.2-.2.1-.8"/>
  </g>
  <g id="g5466">
    <path id="path5468" class="cls-26" d="M37,46.2c0,.2-.1.3-.1.4.1-.1.3-.2.4-.2,0-.2-.2-.2-.3-.2M36.8,47.1h-.1c0-.2-.2-.4,0-1h0s0,0,0,0h0c.2,0,.5.1.5.4h0c0,0,0,.1,0,.1-.2,0-.5.2-.5.3v.2"/>
  </g>
  <g id="g5470">
    <path id="path5472" class="cls-21" d="M37.9,46.3s.5-.3.5.3c0,0-.4,0-.6.4,0,0-.2,0,0-.7"/>
  </g>
  <g id="g5474">
    <path id="path5476" class="cls-26" d="M37.9,46.4c0,.2-.1.4-.1.4.2-.2.4-.3.5-.3,0-.2-.1-.2-.2-.2h-.2M37.9,47.2h0s-.1,0-.1,0c0-.1,0-.4.1-.8h0s0,0,0,0c0,0,.1,0,.3,0s.4,0,.4.5h0c0,0,0,.1,0,.1,0,0-.4,0-.5.4h0"/>
  </g>
  <g id="g5478">
    <path id="path5480" class="cls-21" d="M39,46.4s.5-.3.6.2c0,0-.3.1-.4.5,0,0-.3,0-.2-.7"/>
  </g>
  <g id="g5482">
    <path id="path5484" class="cls-26" d="M39.1,46.5c0,.2,0,.4,0,.4,0-.2.3-.3.3-.4,0-.1-.1-.1-.2-.1h-.2M39.3,47.2h0s-.2-.1-.2-.1c-.1-.1-.1-.4,0-.7h0s0,0,0,0c0,0,.2-.1.4-.1s.3,0,.4.4h0c0,0,0,.1,0,.1,0,0-.3.1-.3.4h0"/>
  </g>
  <g id="g5486">
    <path id="path5488" class="cls-26" d="M22.9,25.9c.3.2.7.4,1,.6l.2.2h.1c0,.1.1.2.1.2h0c0,.1,0,.2,0,.2h0c0,.1,0,.3,0,.3l.2.4-.4-.2c-.2-.1-.4-.2-.6-.3h-.3c0-.1-.2-.2-.2-.2h0s0,0,0,0v-.2c.2.1.3.3.5.4.1.2.3.3.4.5l.2.3h0c0,.1,0,.3,0,.3h0c0,.1,0,.3,0,.3v.2s0,.2,0,.2h0c0-.1,0-.3,0-.3h0c0-.1,0-.3,0-.3-.1-.2-.2-.3-.4-.5-.1-.1-.3-.3-.4-.4-.1-.1-.3-.3-.4-.4l-.2-.2h.3s.1,0,.1,0h.1s.2,0,.2,0c.1,0,.2,0,.3.1.2.1.4.2.6.4h-.2c0,.1,0,0,0,0h0c0-.1,0-.2,0-.2h0c-.1-.3-.2-.4-.4-.5-.3-.3-.6-.5-.9-.7"/>
  </g>
  <g id="g5490">
    <path id="path5492" class="cls-26" d="M21.3,45.4h-.3c1-3.2,2.8-5.8,2.8-5.8l.2.2s-1.8,2.5-2.8,5.6"/>
  </g>
  <g id="g5494">
    <path id="path5496" class="cls-26" d="M32.5,28.6v-.2c0,0,8.1-1.8,8.1-1.8v.2c0,0-8.1,1.8-8.1,1.8"/>
  </g>
  <g id="g5498">
    <path id="path5500" class="cls-11" d="M18.9,46.6h0c0,0,0-.3,0-.3v-.3c.1,0,.3-.1.3-.1h.1c0-.1.3-.3.3-.3h.3c.2-.2.3-.2.3-.2,0,0,0,0-.2.2l-.2.2-.3.2-.2.2-.2.2c0,.1-.1.2-.1.2"/>
  </g>
</svg>