<?xml version="1.0" encoding="utf-8"?>
<!-- Generator: Adobe Illustrator 27.7.0, SVG Export Plug-In . SVG Version: 6.00 Build 0)  -->
<svg version="1.1" id="Layer_1" xmlns="http://www.w3.org/2000/svg" xmlns:xlink="http://www.w3.org/1999/xlink" x="0px" y="0px"
	 viewBox="0 0 56 56" style="enable-background:new 0 0 56 56;" xml:space="preserve">
<style type="text/css">
	.st0{fill:#FFFFFF;stroke:#000000;stroke-width:3;stroke-miterlimit:10;}
</style>
<circle class="st0" cx="28.7" cy="28.1" r="25.3"/>
<g>
	<path d="M18.3,17.4c0.5-1.5,1.3-2.7,2.2-3.8c1-1.1,2.1-1.9,3.5-2.5s3-0.9,4.7-0.9c1.6,0,3,0.2,4.3,0.7s2.4,1.1,3.3,2
		c0.9,0.8,1.7,1.9,2.2,3.1c0.5,1.2,0.8,2.6,0.8,4.2c0,1-0.1,2-0.4,2.8c-0.2,0.8-0.6,1.6-1,2.2c-0.4,0.7-0.9,1.3-1.4,1.8
		c-0.5,0.6-1,1.1-1.6,1.7c-0.5,0.5-1.1,1-1.6,1.5c-0.5,0.5-1,1.1-1.4,1.7s-0.8,1.2-1,1.9c-0.2,0.7-0.4,1.5-0.4,2.3v2h-4.2v-2.3
		c0.1-1.4,0.3-2.6,0.8-3.6s1-1.9,1.7-2.6c0.6-0.8,1.3-1.5,2-2.1c0.7-0.6,1.4-1.3,2-2c0.6-0.7,1.1-1.5,1.5-2.4
		c0.4-0.9,0.5-1.9,0.5-3.2c-0.1-1.8-0.7-3.3-1.8-4.3c-1-1-2.5-1.5-4.3-1.5c-1.2,0-2.2,0.2-3.1,0.6c-0.9,0.4-1.6,1-2.2,1.8
		c-0.6,0.7-1,1.6-1.3,2.6c-0.3,1-0.4,2.1-0.4,3.2h-4.2C17.5,20.4,17.8,18.9,18.3,17.4z M31.3,41.1v5.5h-5.5v-5.5H31.3z"/>
</g>
</svg>
