<?xml version="1.0" encoding="utf-8"?>
<!-- Generator: Adobe Illustrator 27.7.0, SVG Export Plug-In . SVG Version: 6.00 Build 0)  -->
<svg version="1.1" id="Layer_1" xmlns="http://www.w3.org/2000/svg" xmlns:xlink="http://www.w3.org/1999/xlink" x="0px" y="0px"
	 viewBox="0 0 56 56" style="enable-background:new 0 0 56 56;" xml:space="preserve">
<style type="text/css">
	.st0{fill:#157F90;}
	.st1{fill:#349098;}
	.st2{fill:#2C8994;}
	.st3{fill:#02798C;}
	.st4{fill:#0A7C8E;}
	.st5{fill:#3A9498;}
	.st6{fill:#1C8392;}
	.st7{fill:#5FBAA8;}
	.st8{fill:#3F9A9B;}
	.st9{fill:#379299;}
	.st10{fill:#298894;}
	.st11{fill:#248593;}
	.st12{fill:#449E9E;}
	.st13{fill:#1D8392;}
	.st14{fill:#47A19F;}
	.st15{fill:#308B95;}
	.st16{fill:#01738A;}
	.st17{fill:#4FA9A1;}
	.st18{fill:#4AA5A1;}
	.st19{fill:#4EA9A1;}
	.st20{fill:#288794;}
	.st21{fill:#359198;}
	.st22{fill:#57B2A7;}
	.st23{fill:#51ADA3;}
	.st24{fill:#469E9E;}
	.st25{fill:#3E969A;}
	.st26{fill:#318B95;}
	.st27{fill:#00363C;}
	.st28{fill:#6BB8AA;}
	.st29{fill:#63A6A2;}
	.st30{fill:#03403E;}
	.st31{fill:#509294;}
	.st32{fill:#2D8D96;}
	.st33{fill:#589EA5;}
	.st34{fill:#348B95;}
	.st35{fill:#EDF9FA;}
	.st36{fill:#E4F3F5;}
	.st37{fill:#3B8B93;}
	.st38{fill:#39848F;}
	.st39{fill:#ADE4E9;}
	.st40{fill:#268B93;}
	.st41{fill:#46848C;}
	.st42{fill:#2B8590;}
	.st43{fill:#34848F;}
	.st44{fill:#479899;}
	.st45{fill:#4A9C99;}
	.st46{fill:#4A8A8F;}
	.st47{fill:#BEEFF1;}
	.st48{fill:#398A92;}
	.st49{fill:#57A0A6;}
	.st50{fill:#68B3AE;}
	.st51{fill:#3E8E94;}
	.st52{fill:#439497;}
	.st53{fill:#5DA2A6;}
	.st54{fill:#5DA5A8;}
	.st55{fill:#61ABAB;}
	.st56{fill:#6DB8AF;}
	.st57{fill:#F0FBFC;}
	.st58{fill:#529BA3;}
	.st59{fill:#EDFAFA;}
	.st60{fill:#70A0A5;}
	.st61{fill:#629DA1;}
	.st62{fill:#6BA2A4;}
	.st63{fill:#599296;}
	.st64{fill:#62ABAB;}
	.st65{fill:#5EA5A9;}
	.st66{fill:#70BEB2;}
	.st67{fill:#69B4AE;}
	.st68{fill:#449394;}
	.st69{fill:#66B1AE;}
	.st70{fill:#65AFAC;}
	.st71{fill:#317D8B;}
	.st72{fill:#F3FBFD;}
	.st73{fill:#FAFDFD;}
	.st74{fill:#D2ECED;}
	.st75{fill:#409A9B;}
	.st76{fill:#2E798A;}
	.st77{fill:#2A7888;}
	.st78{fill:#3B8890;}
	.st79{fill:#418E92;}
	.st80{fill:#79A6A8;}
	.st81{fill:#4BA09E;}
	.st82{fill:#58B3A7;}
	.st83{fill:#5CB6A8;}
	.st84{fill:#4FAAA1;}
	.st85{fill:#54AFA4;}
	.st86{fill:#4BA6A1;}
	.st87{fill:#34818D;}
	.st88{fill:#54AFA5;}
	.st89{fill:#4CA6A1;}
	.st90{fill:#EBF9F9;}
	.st91{fill:#EAF6F7;}
	.st92{fill:#59AEA4;}
	.st93{fill:#E8F9F8;}
	.st94{fill:#64ABA4;}
	.st95{fill:#76B2AB;}
	.st96{fill:#68ABA3;}
	.st97{fill:#E8F8F8;}
	.st98{fill:#63A49E;}
	.st99{fill:#EBFAF9;}
	.st100{fill:#5EA19E;}
	.st101{fill:#439D9C;}
	.st102{fill:#F7FDFD;}
	.st103{fill:#F2FEFE;}
</style>
<path class="st0" d="M0.8,31.5c0-2.1,0-4.3,0-6.4c0.2,0.8,0.3,1.6,0.5,2.5c0,0.2,0.1,0.6,0.2,0.6c0.7,0.1,0.6,0.8,0.8,1.2
	c0.3,0.5,0.6,1,0.9,1.6c0.3,0.6,0.4,1.4,1.1,1.8c0.1,0.1,0.2,0.3,0.3,0.4c0.2,0.3,0.4,0.5,0.5,0.8c0,0,0.1-0.1,0.1-0.1
	c0,0.2,0,0.4,0.1,0.7c0,0.7,0,1.3,0,1.9c0.2,0.1,0.3,0.3,0.5,0.3c0.7,0.1,0.9,0.4,1.1,1.1c0.3,0.9,0.6,1.9,1.5,2.4
	c0.1,0.1,0.2,0.2,0.2,0.3C9,41.2,9.2,42,9.7,42.5c0.8,0.8,0.5,1.9,1.1,2.7c0.4,0.5,0.3,1.5,1.2,1.7c0.1,0,0.2,0.2,0.2,0.4
	c0.1,0.4,0.2,0.9,0.3,1.3c0,0.2,0.1,0.4,0.2,0.4c0.7,0.1,0.9,0.9,1,1.3c0.3,1.3,1.5,1.9,1.8,3.1c0.2,0.7,1.1,1.2,0.9,2.1
	c-1.2,0-2.4,0-3.6-0.1c-0.1-0.8-0.3-1.5-0.8-2.1c-0.2-0.2-0.4-0.5-0.4-0.8c-0.2-0.6-0.1-1.3-0.9-1.6c-0.1-0.1-0.2-0.4-0.2-0.6
	c-0.2-0.5-0.4-1-0.5-1.4c-0.1-0.3-0.3-0.5-0.4-0.7c-0.2-0.5-0.4-1.1-0.7-1.4c-0.3-0.3-0.4-0.5-0.5-0.9C8.1,45.5,8,45,7.7,44.8
	c-0.5-0.4-0.8-0.6-0.5-1.3c0.2-0.4-0.2-1.1-0.5-1c-0.7,0.2-0.7-0.3-0.9-0.7c-0.1-0.4-0.1-0.9-0.3-1.1c-0.5-0.4-0.7-1-0.8-1.6
	c-0.1-0.6-0.4-1-1-1c-0.4,0-0.7-0.2-0.7-0.7C3.1,37.2,3,37,3,36.8c-0.1-0.6-0.3-0.9-1-1c-0.3,0-0.6-0.4-0.7-0.6
	c-0.2-1-0.2-2-0.3-2.9C1,32,0.9,31.8,0.8,31.5z"/>
<path class="st1" d="M0.8,7.5c0-2.1,0-4.2,0-6.4C0.8,1.1,0.9,1,0.9,1c0.3,0,0.6,0,1,0.1c0.2,0.8,0.4,1.6,0.6,2.4
	C2.7,3.8,3.1,4,3.4,4.3c0.3,0.5,0.6,1,0.9,1.6c0.5,1,1,2,1.5,3c0.2,0.5,0.5,1,0.8,1.5c0.5,1.1,1,2.2,1.6,3.3c0,0.1,0.2,0.2,0.3,0.2
	c1.1,0,1.2,1,1.5,1.6c0.6,1,0.5,2.3,1.6,3.1c0.1,0.1,0.2,0.3,0.2,0.4c0,0.5,0,0.9,0.1,1.4c0,0.1,0,0.4,0.1,0.4c0.1,0.1,0.3,0,0.4,0
	c0.9-0.5,1.5-0.1,1.6,1c-0.1,0.2-0.2,0.3-0.3,0.3c-0.1-0.1-0.1-0.2-0.2-0.3c-0.2-0.2-0.3-0.5-0.5-0.7c-0.2,0.2-0.4,0.4-0.7,0.6
	c-0.4,0-0.8,0.1-1.2,0.1c-0.3,0.2-0.6,0.4-1,0.6c-0.1-0.1-0.3-0.2-0.4-0.3c0.1-0.5,0.4-1.1-0.3-1.3c-0.6-0.2-1.2-0.3-1.8-0.5
	c0.2-1,0.2-1.8-0.8-2.3c-0.1,0-0.1-0.1-0.1-0.2c-0.1-1.2-0.8-2-1.3-3C5,14.5,4.5,13.9,4,13.2c-0.2-0.4,0.1-1-0.6-1.2
	c-0.1-0.4-0.3-0.8-0.4-1.2C3,10.3,2.9,9.9,2.5,9.6C2,9.3,1.4,8.9,1.4,8.2C1.4,8,1,7.8,0.8,7.5z"/>
<path class="st2" d="M3.5,12c0.7,0.1,0.3,0.8,0.5,1.2c-0.2,0.4-0.3,0.6-0.5,0.9c-0.1,0.3-0.3,0.6-0.2,0.8c0,0.5,0.1,0.9,0.2,1.4
	c0.1,0.3,0.1,0.5,0.3,0.7c0.4,0.5,0.9,0.9,1.3,1.3c0.1,0.2,0.2,0.4,0.3,0.6c0.1,0.3,0.2,0.7,0.3,1c0.1,0.1,0.2,0.3,0.4,0.3
	c0.4,0.1,0.8,0.2,1.3,0.4c0,0.1,0,0.2,0,0.2C7,21,6.9,21,6.6,21.1c0.3,0.2,0.5,0.4,0.6,0.6c-0.3-0.1-0.5-0.1-0.8-0.2
	c-0.3-0.1-0.6-0.3-0.9-0.4c-0.1,0-0.3,0.1-0.4,0.2c0.1,0.1,0.2,0.3,0.3,0.4C5.9,21.8,6.2,22,6.6,22c0.5,0.1,0.9,0.4,1.5,0
	c-0.3-0.1-0.5-0.2-0.7-0.3c0.1-0.2,0.3-0.4,0.4-0.5c0.3,0.1,0.5,0.2,0.8,0.2c0.4,0.1,0.8,0.1,0.6,0.7c0,0,0.2,0.2,0.3,0.3
	c0.1,0.2,0.3,0.3,0.4,0.4c0.1,0.2,0.2,0.3,0.3,0.5c0,0.4,0.1,0.7,0.1,1.1c0.1,0.2,0.2,0.4,0.3,0.7c0.1,0.2,0.3,0.3,0.4,0.4
	c0,1.6-0.1,3.1-0.1,4.6c0,0.3,0.2,0.5,0.3,0.8c0.1,0.1,0.2,0.1,0.2,0.2c0.2,0.1,0.4,0.2,0.6,0.3c0.1,0,0.2-0.1,0.3-0.2
	c0.1-0.2,0.3-0.5,0.3-0.7c0-0.4,0-0.8,0-1.2c0.3,0,0.6,0.1,0.9,0.2c0,0.2,0.1,0.4,0.1,0.6c-0.5,0.4-0.4,0.7,0.1,1
	c0.1,0.4,0.1,0.8,0.1,1.2c0,0.4-0.1,0.8,0,1.1c0.2,0.5,0,0.9-0.6,0.8c-0.3,0-0.5-0.3-0.8-0.4c-0.2-0.1-0.4-0.1-0.5-0.1
	c-0.5,0.8-1.3,0.5-2,0.4c-0.4,0-0.7,0-1.2,0.1c-0.1,0-0.1,0.1-0.2,0.1c-0.2,0-0.4-0.1-0.6-0.2c0-0.1-0.1-0.1-0.2-0.1
	c-0.2-0.1-0.3-0.1-0.4-0.2C7.7,34,8,34,8.3,34c0.7,0.1,0.9-0.3,0.8-0.9c-0.2-1-0.9-1.7-1.5-2.3C7.3,31,7,31.3,6.7,31.5
	c-0.2-0.1-0.4-0.3-0.6-0.4c0.3,0,0.6,0,0.9,0c0-1.2,0-2.3,0-3.4c0.2,0,0.3,0,0.5-0.1c1.7-0.1,2.6-1.2,2.5-3c-0.1-1.5-1-2.2-2.7-2.2
	c-0.2,0-0.5,0-0.7,0c-0.5,0-0.6,0.2-0.6,0.7c0,2.6,0,5.3,0,7.9C5.3,31,5.3,31,5.6,30.4c0.1-0.2,0-0.5-0.1-0.8c0-0.1-0.1-0.2-0.1-0.3
	c-0.1-0.5-0.2-0.9-0.2-1.3c0.2,0,0.4-0.1,0.6-0.1c0,0.1,0,0.1,0.1,0.1c0,0,0,0,0,0c0-0.3,0-0.5,0-0.8c0-0.2,0-0.3,0-0.5
	c0-0.5,0.1-1.1-0.7-1.1c0-0.8,0-1.6,0-2.4c0-0.1-0.1-0.1-0.1-0.2c-0.2-0.4-0.5-0.7-0.6-1.1c-0.2-1-0.8-1.3-1.7-1.4
	c-0.2,0-0.4-0.3-0.4-0.5c-0.1-0.6-0.1-1.3-0.3-1.9c-0.2-0.5-0.5-1-0.8-1.7c-0.3,0.5-0.4,0.8-0.6,1.1c0-2,0-4,0.1-6.1
	c0.6,0,0.8,0.3,0.9,0.8c0,0.3,0,0.6,0,0.9c0.1,0.2,0.2,0.5,0.4,0.5c0.2,0,0.4-0.2,0.6-0.3c0.1-0.2,0.1-0.5,0.2-0.7
	C3.1,12.4,3.3,12.2,3.5,12 M9.8,31.1c0.2,0,0.3,0,0.5,0.1c0-0.1,0.1-0.2,0.1-0.3c-0.3-0.1-0.5-0.3-0.8-0.4
	C9.7,30.7,9.7,30.9,9.8,31.1 M5.7,24c0,0,0.1,0,0.1,0c0,0,0,0,0-0.1C5.8,23.9,5.8,23.9,5.7,24 M8.8,22.2C8.8,22.2,8.8,22.2,8.8,22.2
	 M5.9,22.9C5.9,22.9,5.9,22.9,5.9,22.9z"/>
<path class="st3" d="M0.8,43.5c0-2.4,0-4.7,0-7.1c0.1,0.3,0.3,0.7,0.4,1.1c0.2,1.2,0.1,2.4,0.9,3.4c0.4,0.5,0.8,0.9,1.1,1.4
	c0.2,0.3,0.5,0.7,0.6,1.1c0.1,0.5,0.1,1,0.7,1.1c0.1,0,0.3,0.2,0.3,0.4c0.1,1.3,1,2.2,1.5,3.3c0.3,0.7,0.7,1.3,1.1,2
	c0.1,0.3,0.2,0.6,0.4,0.7c0.8,0.4,0.9,1.3,1.3,1.9c0.3,0.4,0.5,1,0.8,1.5c0.2,0.4,0.3,0.8,0.5,1.2c-1.5,0-3,0-4.6-0.1
	c0-0.5-0.1-0.9-0.6-1.2c-0.3-0.2-0.5-0.5-0.5-0.8c-0.1-0.5,0-1.1-0.7-1.3c-0.1,0-0.1-0.3-0.2-0.4c-0.4-0.7-0.7-1.4-1.1-1.9
	c-0.3-0.3-0.5-0.6-0.5-1c0-0.4,0-0.8-0.6-0.9c-0.1,0-0.3-0.3-0.3-0.4c-0.1-0.5-0.1-1-0.2-1.5c0-0.2-0.2-0.4-0.3-0.6
	c0-0.1,0-0.1,0-0.3C1.1,44.5,1.2,44,0.8,43.5z"/>
<path class="st4" d="M10.4,55.5c-0.2-0.4-0.3-0.8-0.5-1.2c-0.2-0.5-0.5-1-0.8-1.5c-0.5-0.6-0.5-1.5-1.3-1.9
	c-0.2-0.1-0.3-0.5-0.4-0.7c-0.4-0.7-0.8-1.3-1.1-2c-0.5-1.1-1.4-2-1.5-3.3c0-0.1-0.2-0.3-0.3-0.4c-0.6-0.2-0.6-0.6-0.7-1.1
	c0-0.4-0.3-0.7-0.6-1.1c-0.3-0.5-0.7-1-1.1-1.4c-0.8-1-0.7-2.2-0.9-3.4c-0.1-0.4-0.2-0.8-0.4-1.2c0-1.6,0-3.1,0-4.7
	C0.9,31.8,1,32,1,32.3c0.1,1,0.2,2,0.3,2.9c0,0.2,0.4,0.6,0.7,0.6c0.6,0.1,0.9,0.4,1,1c0,0.2,0.1,0.4,0.1,0.6c0,0.4,0.2,0.6,0.7,0.7
	c0.6,0,0.9,0.4,1,1c0.1,0.6,0.2,1.2,0.8,1.6c0.3,0.2,0.2,0.8,0.3,1.1c0.1,0.4,0.1,0.9,0.9,0.7c0.3-0.1,0.7,0.5,0.5,1
	c-0.3,0.6,0,0.9,0.5,1.3C8,45,8.1,45.5,8.2,46c0.1,0.4,0.2,0.6,0.5,0.9c0.4,0.3,0.5,0.9,0.7,1.4c0.1,0.2,0.3,0.5,0.4,0.7
	c0.2,0.5,0.4,1,0.5,1.4c0.1,0.2,0.1,0.5,0.2,0.6c0.7,0.3,0.7,1,0.9,1.6c0.1,0.3,0.2,0.5,0.4,0.8c0.6,0.6,0.8,1.2,0.8,2.1
	C12,55.5,11.2,55.5,10.4,55.5z"/>
<path class="st5" d="M4.4,1c0.9,0,1.8,0,2.8,0.1c0.1,0.3,0.1,0.6,0.2,0.8C8,2.6,8.7,3.4,9.3,4.2c0.1,0.2,0.3,0.3,0.4,0.5
	c0.6,1.2,1.1,2.3,1.6,3.5c0.1,0.2,0.3,0.2,0.4,0.4c0.2,0.5,0.5,0.9,0.7,1.4c0.1,0.2,0.1,0.6,0.3,0.6c0.8,0.3,0.6,0.9,0.8,1.5
	c0.1,0.3,0.1,0.7,0.3,0.8c0.6,0.3,0.6,0.8,0.8,1.3c0.1,0.2,0.2,0.5,0.4,0.6c0.5,0.2,0.7,0.5,0.7,1c0,0.4,0.1,0.7,0.5,0.8
	c0,0.1,0,0.2-0.1,0.2c-0.4,0.1-0.4,0.4-0.2,0.7c-0.5,1.3-1,2.5-1.5,3.7c0-1.2,0.4-2.4-0.6-3.3c-0.1,0,0-0.2-0.1-0.3
	c-0.3-0.5-0.5-1.2-1-1.5c-0.7-0.4-1-1-1.2-1.7c-0.1-0.3-0.3-0.4-0.5-0.7c-0.2-0.3-0.5-0.5-0.5-0.8c-0.1-1.1-0.8-1.8-1.2-2.7
	C9.2,10.2,8.8,10,8.6,9.7C8.4,9.4,8.2,9.1,8.1,8.8c-0.2-0.4-0.2-1-0.4-1.2C7.3,7.2,7.2,6.9,7.2,6.4c0-0.5,0-0.9-0.6-1.1
	C6.1,5.2,6,4.9,5.9,4.5C5.8,4.1,5.8,3.6,5.5,3.3C4.9,2.6,4.6,1.9,4.4,1z"/>
<path class="st6" d="M16.5,55.5c0.1-0.9-0.8-1.3-1-2.1c-0.3-1.2-1.5-1.8-1.8-3.1c-0.1-0.4-0.3-1.2-1-1.3c-0.1,0-0.2-0.3-0.2-0.4
	c-0.1-0.4-0.2-0.9-0.3-1.3c0-0.1-0.1-0.4-0.2-0.4c-0.9-0.3-0.7-1.2-1.2-1.7c-0.6-0.8-0.3-1.9-1.1-2.7C9.2,42,9,41.2,8.6,40.6
	c-0.1-0.1-0.1-0.3-0.2-0.3c-1-0.5-1.3-1.5-1.5-2.4c-0.2-0.6-0.5-1-1.1-1.1c-0.2,0-0.3-0.2-0.4-0.3c0.9,0.1,1.8,0.2,2.6,0.2
	c0.7,0.1,1.3,0.1,1.9,0.8c0.6,0.6,0.6,1.3,0.8,2c0.1,0.4,0.3,0.7,0.7,0.8c0.4,0.1,0.6,0.4,0.6,0.8c0.1,0.5,0.3,1.1,0.6,1.3
	c1.1,0.8,1.1,2.1,1.8,3.1c0,0,0,0.1,0,0.2c0.1,0.5,0.2,0.9,0.7,1.3c0.3,0.2,0.4,0.7,0.5,1c0.2,0.3,0.3,0.8,0.6,0.9
	c0.4,0.2,0.6,0.6,0.6,1c0,0.6,0.1,1.2,0.7,1.5c0.2,0.1,0.3,0.4,0.3,0.6c0.1,0.6,0.1,1.1,0.8,1.4c0.1,0,0.2,0.3,0.2,0.5
	c0.1,0.5,0.1,1,0.1,1.6C18.2,55.5,17.4,55.5,16.5,55.5z"/>
<path class="st7" d="M36.9,1c5.9,0,11.8,0,17.8,0.1c0,2.3,0,4.6-0.1,6.9c-0.7-0.4-1.3-0.8-2-1.3c-1.4-0.7-2.7-1.6-4.2-2.1
	c-3.3-1.4-6.7-1.7-10.2-1.8c0.2-0.1,0.4-0.2,0.5-0.2c0.2-0.1,0.4-0.3,0.6-0.4c-0.2-0.1-0.4-0.3-0.6-0.4c-0.3-0.1-0.6-0.1-0.9-0.2
	C37.4,1.3,37.2,1.2,36.9,1z"/>
<path class="st8" d="M16.2,16.7c-0.5-0.1-0.6-0.4-0.6-0.8c0-0.5-0.2-0.8-0.7-1c-0.2-0.1-0.4-0.4-0.4-0.6c-0.1-0.5-0.1-1-0.8-1.3
	c-0.2-0.1-0.3-0.5-0.3-0.8c-0.1-0.6,0-1.2-0.8-1.5c-0.1-0.1-0.2-0.4-0.3-0.6c-0.2-0.5-0.4-0.9-0.7-1.4c-0.1-0.2-0.3-0.2-0.4-0.4
	c-0.6-1.2-1.1-2.3-1.6-3.5C9.6,4.5,9.4,4.4,9.3,4.2C8.7,3.4,8,2.6,7.5,1.8C7.3,1.7,7.4,1.4,7.3,1.1c1.5-0.1,2.9-0.1,4.4,0
	c0.4,0.9,0,2.2,1.2,2.7c0.1,0,0.1,0.2,0.1,0.3c0.2,0.8,0.2,1.6,1,2c0,0,0.1,0.1,0.1,0.1c0,1,0.9,1.6,1.3,2.4
	c0.6,1.1,1.3,2.2,1.9,3.3c0.1,0.1,0.1,0.2,0.1,0.3c0.1,0.4,0.2,0.7,0.4,1.1c0,0.2,0,0.4-0.1,0.7C17.3,15,16.7,15.9,16.2,16.7z"/>
<path class="st9" d="M4.4,1c0.2,0.9,0.5,1.6,1.1,2.3c0.3,0.3,0.3,0.8,0.4,1.2C6,4.9,6.1,5.2,6.6,5.3c0.6,0.1,0.6,0.6,0.6,1.1
	c0,0.5,0.1,0.8,0.5,1.2c0.3,0.3,0.3,0.8,0.4,1.2c0.1,0.3,0.3,0.6,0.5,0.9c0.2,0.3,0.6,0.5,0.7,0.8c0.4,0.9,1.1,1.7,1.2,2.7
	c0,0.3,0.4,0.5,0.5,0.8c0.2,0.2,0.4,0.4,0.5,0.7c0.2,0.7,0.5,1.3,1.2,1.7c0.5,0.3,0.7,1,1,1.5c0,0.1,0,0.2,0.1,0.3
	c1,0.9,0.7,2.1,0.6,3.3c0,0.1,0,0.2,0,0.3c-0.2,0-0.3,0.1-0.5,0.1c-0.1-1.1-0.7-1.5-1.6-1c-0.1,0.1-0.3,0.1-0.4,0
	c-0.1-0.1-0.1-0.3-0.1-0.4c0-0.5,0-0.9-0.1-1.4c0-0.1-0.1-0.3-0.2-0.4c-1.1-0.7-1-2.1-1.6-3.1c-0.4-0.7-0.4-1.6-1.5-1.6
	c-0.1,0-0.3-0.1-0.3-0.2c-0.5-1.1-1-2.2-1.6-3.3C6.3,9.8,6,9.4,5.7,8.9c-0.5-1-1-2-1.5-3C4,5.3,3.7,4.8,3.4,4.3
	C3.1,4,2.7,3.8,2.6,3.5C2.3,2.7,2.2,1.9,2,1.1C2.8,1,3.5,1,4.4,1z"/>
<path class="st10" d="M24.2,55.5c-0.9,0-1.7,0-2.7-0.1c-0.1-1.2-0.6-1.7-1.6-1.5c0.1-0.3,0.2-0.5,0.2-0.7c0-0.3,0-0.8-0.2-0.8
	c-0.7-0.3-0.8-0.9-0.8-1.6c0-0.5-0.2-0.8-0.7-0.8c-0.5,0-0.6-0.2-0.7-0.6c-0.2-0.7-0.3-1.5-0.6-2.2c-0.2-0.5-0.6-1-0.9-1.4
	c-0.2-0.2-0.5-0.3-0.5-0.5c-0.2-0.5-0.2-1-0.3-1.5c-0.2-0.7-0.4-1.4-1.3-1.6c-0.5-0.1-0.8-0.4-0.7-0.9c0.1-0.8-0.3-1.4-0.8-2
	c-0.3-0.4-0.6-0.8-0.7-1.2c-0.2-0.8-0.3-1.5-1.2-1.7c-0.1,0-0.1-0.2-0.2-0.3c0.1-0.1,0.1-0.2,0.2-0.3c0.2-0.1,0.3-0.3,0.5-0.4
	c0,0,0.1,0,0.1,0c0.1,0.2,0.2,0.3,0.3,0.5c0,0,0,0,0,0c0.3,0.8,0.7,1,1.5,0.9c1.3-0.1,1.7,0.2,2,1.5c0,0.2,0.1,0.5,0.2,0.7
	c0.3,0.7,0.7,1.4,1.1,2.1c0.1,0.1,0.2,0.2,0.3,0.3c0.1,0.3,0.3,0.6,0.4,1c0,0.2-0.1,0.4-0.1,0.7c0.1,0.3,0.2,0.5,0.2,0.7
	c0.1,0.6,0.4,0.9,1,0.9c0.1,0.3,0.3,0.6,0.4,0.9c0.1,0.2,0.1,0.5,0.3,0.6c0.1,0.2,0.4,0.4,0.6,0.6c0.2,0.3,0.3,0.5,0.4,0.8
	c0.1,0.6,0.2,1.1,1,1.3c0.5,0.1,0.8,0.5,0.8,1.1c0,0.3,0.1,0.6,0.3,0.7c0.8,0.5,0.7,1.3,0.8,2c0,0.2,0.1,0.5,0.3,0.5
	C23.8,53.7,24.2,54.5,24.2,55.5z"/>
<path class="st11" d="M10.4,36c0.1,0.1,0.1,0.3,0.2,0.3c0.9,0.2,1.1,1,1.2,1.7c0.1,0.4,0.4,0.8,0.7,1.2c0.4,0.6,0.9,1.2,0.8,2
	c-0.1,0.5,0.2,0.8,0.7,0.9c0.9,0.1,1.1,0.8,1.3,1.6c0.1,0.5,0.2,1,0.3,1.5c0.1,0.2,0.4,0.3,0.5,0.5c0.3,0.5,0.7,0.9,0.9,1.4
	c0.3,0.7,0.4,1.5,0.6,2.2c0.1,0.4,0.2,0.6,0.7,0.6c0.5,0,0.7,0.3,0.7,0.8c0,0.6,0.1,1.2,0.8,1.6c0.2,0.1,0.2,0.5,0.2,0.8
	c0,0.2-0.1,0.5-0.2,0.7c0.9-0.2,1.4,0.3,1.5,1.5c-0.8,0.1-1.5,0.1-2.4,0.1C19,55,19,54.5,18.9,54c0-0.2-0.1-0.4-0.2-0.5
	c-0.7-0.3-0.7-0.8-0.8-1.4c0-0.2-0.1-0.6-0.3-0.6c-0.7-0.3-0.7-0.8-0.7-1.5c0-0.5-0.2-0.8-0.6-1c-0.3-0.2-0.4-0.6-0.6-0.9
	c-0.2-0.3-0.3-0.8-0.5-1c-0.4-0.3-0.6-0.8-0.7-1.3c0-0.1,0-0.2,0-0.2c-0.7-1-0.8-2.3-1.8-3.1c-0.3-0.3-0.5-0.9-0.6-1.3
	c-0.1-0.4-0.2-0.8-0.6-0.8c-0.5-0.1-0.6-0.4-0.7-0.8c-0.2-0.7-0.2-1.4-0.8-2c-0.6-0.6-1.2-0.7-1.9-0.8c-0.9-0.1-1.7-0.2-2.6-0.3
	c-0.1-0.6,0-1.2,0-1.9c0.4-0.3,0.7-0.7,1-0.8c0.8-0.2,1-0.3,0.8-1.2c-0.1-0.4-0.2-0.7-0.4-1.1C7,31.3,7.3,31,7.6,30.8
	c0.6,0.6,1.3,1.3,1.5,2.3c0.1,0.6-0.1,1-0.8,0.9c-0.3,0-0.6,0-1,0.1c-0.2,0.1-0.4,0.2-0.5,0.2c-0.5-0.3-0.7-0.1-0.7,0.4
	c0,0.2,0,0.4,0,0.6c-0.1,0.6,0.2,0.8,0.8,0.5c0.1,0,0.1,0,0.2,0c0.2,0,0.4,0.1,0.7,0.1c0.3,0,0.6-0.1,0.8-0.1c0.4,0,0.8,0,1.2,0
	C10.1,35.9,10.3,36,10.4,36z"/>
<path class="st12" d="M17.8,14.1c0-0.3,0.1-0.5,0.1-0.7c-0.1-0.4-0.2-0.8-0.4-1.1c0-0.1,0-0.2-0.1-0.3c-0.6-1.1-1.3-2.2-1.9-3.3
	c-0.5-0.8-1.3-1.4-1.3-2.4c0,0,0-0.1-0.1-0.1c-0.8-0.4-0.8-1.3-1-2C13.1,4,13,3.8,13,3.8c-1.2-0.5-0.8-1.8-1.2-2.7
	c1-0.1,1.9-0.1,2.9,0c0,0.6,0.2,0.9,0.8,1.1c0.1,0,0.3,0.1,0.4,0.3c0.3,0.7,0.5,1.4,0.8,2C16.8,4.7,17,5,17.2,5.2
	c0.3,0.3,0.6,0.5,1,0.7c0,0,0.1-0.2,0.2-0.3c0.6,1.3,1.1,2.5,1.7,3.7c0.2,0.5,0.3,1,0.5,1.5c-0.4,0.5-0.8,1-1.2,1.5
	C18.8,13,18.3,13.5,17.8,14.1z"/>
<path class="st13" d="M6.7,31.5c0.2,0.4,0.4,0.7,0.4,1.1c0.1,0.8,0,0.9-0.8,1.2c-0.4,0.1-0.7,0.5-1,0.7c-0.1-0.2-0.1-0.4-0.1-0.6
	c0,0-0.1,0.1-0.1,0.1c-0.2-0.3-0.4-0.5-0.5-0.8c-0.1-0.1-0.1-0.4-0.3-0.4c-0.7-0.4-0.8-1.1-1.1-1.8c-0.2-0.5-0.6-1.1-0.9-1.6
	c-0.2-0.4-0.1-1.1-0.8-1.2c-0.1,0-0.1-0.4-0.2-0.6C1.2,26.7,1,25.9,0.8,25c0-0.3,0-0.7,0-1.1c0.3-0.4,0.3-0.7,0-1c0-0.7,0-1.5,0-2.2
	C0.9,21.1,1,21.5,1,22c0,0.5,0.1,0.8,0.7,0.7c1-0.1,1.2,0.2,1.3,1.2c0,0.3,0.1,0.7,0.3,0.8c0.5,0.4,0.6,0.9,0.7,1.5
	c0,0.3,0.3,0.7,0.6,0.8C5,27.3,5.1,27.6,5.1,28c0.1,0.4,0.2,0.8,0.2,1.3c0,0.1,0.1,0.2,0.2,0.3c0,0.3,0.2,0.6,0.1,0.8
	C5.3,31,5.3,31,6,31.1c0,0,0.1,0,0.1,0C6.3,31.2,6.5,31.4,6.7,31.5z"/>
<path class="st14" d="M20.5,10.8c-0.2-0.5-0.3-1-0.5-1.5c-0.5-1.2-1.1-2.5-1.7-3.7c-0.1,0.1-0.2,0.2-0.2,0.3c-0.3-0.3-0.7-0.5-1-0.7
	C17,5,16.8,4.7,16.7,4.4c-0.3-0.7-0.5-1.4-0.8-2c-0.1-0.1-0.2-0.2-0.4-0.3C15,2,14.8,1.6,14.8,1.1C15.9,1,17.1,1,18.3,1
	c0.1,0.1,0.2,0.2,0.3,0.2c0.7,0.4,1.2,0.9,1.1,1.9c0,0.2,0.2,0.4,0.3,0.5c0.4,0.5,1,0.9,0.7,1.7c0,0.1,0.2,0.3,0.3,0.5
	c0.3,0.5,0.6,1,1,1.5c-0.4,0.1-0.6,0.1-0.8,0.2C21,7.7,20.8,8,20.9,8.1c0.3,0.5,0.3,1.2,1,1.4C21.4,10,21,10.4,20.5,10.8z"/>
<path class="st15" d="M24.3,55.5c-0.1-1-0.4-1.8-1.4-2.2c-0.2-0.1-0.3-0.3-0.3-0.5c-0.1-0.7,0-1.6-0.8-2c-0.2-0.1-0.2-0.5-0.3-0.7
	c0-0.6-0.3-1-0.8-1.1c-0.8-0.1-0.9-0.7-1-1.3c0-0.3-0.2-0.5-0.3-0.8c0.1-0.2,0.3-0.4,0.5-0.5c0,0.4,0.1,0.7,0.6,0.5
	c0.3,0.1,0.6,0.2,0.7,0.4c0.3,0.9,0.9,1,1.7,1c0.1,0,0.1,0,0.1,0.1c0.1,0.1,0.2,0.2,0.3,0.2c0.7,0.5,1.3,1,1.9,1.5
	c0.3,1.1,0.6,2.1,0.9,3c0,0.1,0.1,0.2,0.2,0.2c0.7,0.6,0.9,1.4,0.9,2.3C26.2,55.5,25.3,55.5,24.3,55.5 M23.2,49.4c0-0.1,0-0.2,0-0.3
	c-0.1-0.4-0.3-0.7-0.7-0.5c-0.1,0-0.1,0.5-0.1,0.7c0,0.1,0,0.2,0.1,0.3c0.1,0.2,0.3,0.4,0.4,0.6C23,49.9,23.1,49.8,23.2,49.4z"/>
<path class="st16" d="M0.8,45.4C0.9,45.5,1,45.7,1,45.9c0.1,0.5,0.1,1,0.2,1.5c0,0.2,0.2,0.4,0.3,0.4c0.6,0,0.6,0.4,0.6,0.9
	c0,0.4,0.2,0.7,0.5,1c0.5,0.6,0.8,1.3,1.1,1.9c0.1,0.1,0.1,0.4,0.2,0.4c0.7,0.2,0.6,0.8,0.7,1.3c0.1,0.3,0.3,0.6,0.5,0.8
	c0.4,0.3,0.5,0.7,0.5,1.2c-1.6,0.1-3.3,0.1-4.9,0.1C0.8,52.1,0.8,48.8,0.8,45.4z"/>
<path class="st17" d="M54.9,55.5c-1,0-2,0-3.1-0.1c-0.1-1.3-0.6-1.8-1.7-2.1c-0.1,0-0.2-0.2-0.4-0.3c0.1-0.1,0.2-0.3,0.3-0.4
	c0.1-0.1,0.3-0.2,0.5-0.2c0-0.1,0-0.1,0-0.2c-0.2,0-0.4,0-0.5,0c-0.3,0-0.7-0.1-1-0.1c0.3-0.2,0.5-0.3,0.8-0.4
	c1.3-0.7,2.6-1.4,3.9-2.1c0.3-0.2,0.7-0.4,1-0.6c0.1,0.3,0.1,0.6,0.1,0.9C54.9,51.7,54.9,53.6,54.9,55.5z"/>
<path class="st18" d="M21.9,9.5c-0.7-0.2-0.7-0.8-1-1.3c0-0.1,0.2-0.4,0.3-0.5c0.1-0.1,0.4-0.1,0.8-0.2c-0.4-0.6-0.7-1-1-1.5
	c-0.1-0.2-0.3-0.4-0.3-0.5C21,4.6,20.4,4.2,20,3.7c-0.1-0.2-0.4-0.4-0.3-0.5c0.1-0.9-0.4-1.4-1.1-1.9c-0.1,0-0.1-0.1-0.2-0.2
	c1.1,0,2.3,0,3.5,0c-0.1,1.2,0.8,2,1.1,2.9c0.1,0.3,0.2,0.8,0.5,0.9c0.9,0.6,0.9,1.6,0.9,2.5c-0.2,0.2-0.5,0.4-0.7,0.6
	c-0.4,0.3-0.7,0.7-1.1,1C22.3,9.2,22.1,9.3,21.9,9.5z"/>
<path class="st19" d="M24.3,7.4c-0.1-0.9-0.1-1.8-0.9-2.5C23.2,4.7,23,4.3,22.9,4c-0.3-1-1.2-1.7-1-2.9c1.2-0.1,2.4-0.1,3.6,0
	c0,0.5,0.1,0.9,0.6,1.1c0.2,0.1,0.3,0.3,0.4,0.5c0.2,0.5,0.3,1.2,0.6,1.5c0.6,0.5,0.5,0.9,0,1.3C27,5.5,27,5.7,26.9,5.8
	c-0.4,0.3-0.7,0.5-1.1,0.8C25.3,6.9,24.8,7.2,24.3,7.4z"/>
<path class="st20" d="M5.2,28c0-0.4-0.1-0.6-0.6-0.8c-0.3-0.1-0.5-0.5-0.6-0.8c-0.1-0.6-0.2-1.1-0.7-1.5c-0.2-0.2-0.3-0.6-0.3-0.8
	c-0.1-1-0.3-1.3-1.3-1.2C1.2,22.8,1,22.5,1,22c0-0.4-0.1-0.9-0.2-1.3c0-1,0-2,0-3.1c0.1-0.3,0.3-0.6,0.6-1.1
	c0.3,0.6,0.6,1.1,0.8,1.7c0.2,0.6,0.2,1.3,0.3,1.9c0,0.2,0.3,0.5,0.4,0.5c0.9,0.1,1.5,0.4,1.7,1.4c0.1,0.4,0.4,0.8,0.6,1.1
	c0,0.1,0.1,0.1,0.1,0.2c0,0.8,0,1.5,0,2.4c-0.3,0.8,0.1,1,0.7,1.1c0,0.1,0,0.3,0,0.5c-0.1,0.3-0.1,0.5-0.1,0.7
	C5.6,27.9,5.4,27.9,5.2,28z"/>
<path class="st21" d="M35,55.5c-2.1,0-4.3,0-6.5-0.1c-0.2-0.4-0.2-0.8-0.4-1.1c-0.2-0.3-0.6-0.5-0.9-0.8c-0.2-0.2-0.3-0.4-0.4-0.6
	c0.2-0.1,0.4-0.3,0.5-0.3c0.3-0.1,0.7-0.1,1.2-0.1c-0.3-0.3-0.5-0.4-0.7-0.6c-0.2-0.2-0.5-0.5-0.6-0.8c0.2,0,0.3,0,0.5,0
	c1.5,0.6,2.9,1.2,4.4,1.7c0.1,0.1,0.3,0.1,0.4,0.2c0.1,0.1,0.3,0.1,0.4,0.1c0.2,0,0.3,0,0.4,0.1c0.2,0.3,0.4,0.6,0.6,0.9
	C34.3,54.6,34.6,55,35,55.5z"/>
<path class="st22" d="M36.8,1c0.4,0.2,0.6,0.3,0.9,0.5c0.3,0.1,0.6,0.1,0.9,0.2c0.2,0.1,0.4,0.3,0.6,0.4c-0.2,0.1-0.4,0.3-0.6,0.4
	c-0.1,0.1-0.3,0.1-0.6,0.3C37,2.9,36,3.1,34.9,3.2c-1.6,0.4-3.2,0.8-4.7,1.2c0-0.2,0-0.4,0.1-0.5c0.2-0.2,0.4-0.4,0.7-0.5
	c0.5-0.3,0.3-0.6-0.1-0.8c-0.8-0.3-1-0.8-0.9-1.6C32.2,1,34.5,1,36.8,1z"/>
<path class="st23" d="M29.9,1c0,0.8,0.2,1.3,1,1.6C31.3,2.8,31.4,3,31,3.4c-0.2,0.2-0.5,0.3-0.7,0.5c-0.1,0.1-0.1,0.3-0.1,0.5
	c0,0,0,0.1,0,0.1c-0.3,0.1-0.6,0.2-0.8,0.3c-0.8,0.3-1.6,0.6-2.4,1C27,5.7,27,5.5,27.1,5.4c0.5-0.4,0.6-0.7,0-1.3
	c-0.4-0.3-0.4-1-0.6-1.5c-0.1-0.2-0.2-0.4-0.4-0.5c-0.5-0.2-0.6-0.6-0.6-1.1C27,1,28.4,1,29.9,1z"/>
<path class="st24" d="M47.6,55.5c-2.5,0-5,0-7.6,0c0.1-0.2,0.2-0.4,0.3-0.6c0.1-0.1,0.2-0.3,0.2-0.4c0-0.1-0.2-0.2-0.3-0.2
	c-0.1,0-0.3,0-0.5,0c-0.6-0.1-1.2-0.3-1.8-0.4c0.2,0,0.3,0,0.6,0c1.5-0.1,3-0.1,4.4-0.3c1.1-0.1,2.2-0.4,3.3-0.5
	c0.2,0.3,0.4,0.7,0.7,0.9C47.7,54.3,47.8,54.8,47.6,55.5z"/>
<path class="st18" d="M47.7,55.5c0.1-0.7,0-1.2-0.7-1.6c-0.3-0.2-0.4-0.5-0.7-0.9c0.1-0.1,0.1-0.2,0.3-0.3c0.8-0.2,1.6-0.5,2.4-0.7
	c0.3,0,0.7,0.1,1,0.1c0.2,0,0.4,0,0.5,0c0,0.1,0,0.1,0,0.2c-0.2,0.1-0.3,0.1-0.5,0.2c-0.1,0.1-0.2,0.3-0.3,0.4
	c0.1,0.1,0.2,0.2,0.4,0.3c1.1,0.3,1.5,0.9,1.6,2.1C50.4,55.5,49.1,55.5,47.7,55.5z"/>
<path class="st25" d="M38,53.9c0.6,0.1,1.2,0.3,1.8,0.4c0.2,0,0.3,0,0.5,0c0.1,0,0.3,0.1,0.3,0.2c0,0.1-0.1,0.3-0.2,0.4
	c-0.1,0.2-0.3,0.3-0.4,0.6c-1.6,0-3.3,0-5,0c-0.4-0.5-0.7-0.9-1.1-1.4c-0.2-0.3-0.4-0.5-0.6-0.9c0.1,0,0.3,0,0.4,0.1
	C35.2,53.5,36.6,53.7,38,53.9z"/>
<path class="st26" d="M3.5,12c-0.2,0.2-0.4,0.4-0.5,0.6c-0.1,0.2-0.1,0.5-0.2,0.7c-0.1,0.2-0.4,0.4-0.6,0.3c-0.2,0-0.4-0.3-0.4-0.5
	c-0.1-0.3,0-0.6,0-0.9c-0.1-0.5-0.3-0.9-0.9-0.9c-0.1-1.2-0.1-2.5-0.1-3.8C1,7.8,1.4,8,1.4,8.2c0,0.8,0.6,1.1,1.1,1.5
	c0.5,0.3,0.6,0.6,0.6,1.1C3.1,11.2,3.3,11.6,3.5,12z"/>
<path class="st1" d="M27.2,51.1c0.2,0.3,0.5,0.5,0.7,0.8c0.2,0.2,0.4,0.4,0.7,0.6c-0.5,0-0.9,0-1.2,0.1c-0.2,0-0.4,0.2-0.5,0.3
	c0.1,0.2,0.2,0.4,0.4,0.6c0.3,0.3,0.7,0.5,0.9,0.8c0.2,0.3,0.2,0.7,0.3,1.1c-0.4,0.1-0.7,0.1-1.2,0.1c-0.1-0.9-0.3-1.7-1-2.3
	c-0.1-0.1-0.1-0.1-0.2-0.2c-0.3-1-0.6-2-0.9-3c0.1,0,0.2,0,0.2,0.1c0.1,1.1,0.9,0.8,1.5,0.9C27.1,51.1,27.1,51.1,27.2,51.1z"/>
<path class="st27" d="M55.3,8.4c0,12.4,0,24.7,0,37.1c0,0.1-0.1,0.1-0.1,0c0-1.4,0-2.8,0-4.1c0-4.7,0-9.5,0-14.3c0-2.2,0-4.3,0-6.5
	c0-4.1,0-8.2,0-12.2C55.1,8.4,55.1,8.4,55.3,8.4C55.2,8.4,55.3,8.4,55.3,8.4z"/>
<path class="st28" d="M54.6,7.9c0-2.3,0.1-4.5,0.1-6.9c0.1-0.1,0.2-0.1,0.4,0c0.1,2.5,0.1,4.9,0.1,7.3c0,0,0,0-0.1,0
	c-0.1,0-0.2-0.1-0.3-0.1C54.7,8.1,54.7,8,54.6,7.9z"/>
<path class="st29" d="M54.9,55.5c0-1.9,0-3.8-0.1-5.7c0-0.3-0.1-0.6-0.1-1c0-0.1,0-0.1,0-0.2c0.1-0.1,0.2-0.1,0.4-0.1
	c0,2.3,0,4.6,0,6.9C55.1,55.5,55,55.5,54.9,55.5z"/>
<path class="st30" d="M55.2,55.5c-0.1-2.3-0.1-4.6-0.1-7c0-1,0-1.9,0-2.9c0-0.1,0-0.1,0-0.1c0,0,0,0,0.1,0
	C55.3,48.9,55.3,52.2,55.2,55.5z"/>
<path class="st30" d="M55.2,8.4c0-2.4,0-4.8,0-7.3c0,0.1,0.1,0.3,0.1,0.4C55.3,3.7,55.3,6,55.2,8.4C55.3,8.4,55.2,8.4,55.2,8.4z"/>
<path class="st16" d="M0.8,43.6c0.4,0.4,0.3,0.9,0,1.4C0.8,44.6,0.8,44.1,0.8,43.6z"/>
<path class="st0" d="M0.8,23c0.4,0.2,0.4,0.5,0,0.9C0.8,23.6,0.8,23.3,0.8,23z"/>
<path class="st2" d="M0.8,1c0,0,0,0.1,0,0.1C0.8,1.1,0.8,1.1,0.8,1z"/>
<path class="st26" d="M7.3,20.6c-0.4-0.1-0.9-0.2-1.3-0.4c-0.1,0-0.3-0.2-0.4-0.3c-0.1-0.3-0.2-0.7-0.3-1c-0.1-0.2-0.2-0.4-0.3-0.6
	c-0.4-0.4-0.9-0.8-1.3-1.3c-0.2-0.2-0.2-0.5-0.3-0.7c-0.1-0.5-0.2-0.9-0.2-1.4c0-0.3,0.1-0.6,0.2-0.8c0.1-0.3,0.3-0.5,0.5-0.8
	c0.4,0.6,0.9,1.1,1.3,1.8c0.6,0.9,1.3,1.8,1.3,3c0,0.1,0,0.1,0.1,0.2c1,0.5,1,1.4,0.7,2.3C7.4,20.6,7.4,20.6,7.3,20.6z"/>
<path class="st9" d="M12.2,21.9c0.2-0.2,0.4-0.4,0.6-0.6c0.2,0.2,0.3,0.5,0.5,0.7c0.1,0.1,0.1,0.1,0.2,0.3c-0.3,0.6-0.2,0.9,0.3,1.1
	c-0.1,0.3-0.1,0.5-0.2,0.8c-0.2,0.1-0.4,0.2-0.5,0.3c-0.1,0.1-0.3,0.2-0.4,0.1c-0.1-0.1-0.2-0.2-0.2-0.4c0-0.2,0.1-0.4,0.1-0.7
	C12.6,23,12.7,22.3,12.2,21.9z"/>
<path class="st31" d="M12.2,21.9c0.6,0.5,0.5,1.1,0.4,1.7c0,0.2-0.1,0.4-0.1,0.7c0,0.1,0.1,0.3,0.2,0.4c0.1,0,0.3,0,0.4-0.1
	c0.2-0.1,0.3-0.2,0.6-0.3c0.1,0.2,0.1,0.4,0.1,0.6c-0.6,0-1.1,0-1.4,0.6c-0.1-0.1-0.2-0.3-0.2-0.4c0-0.6,0-1.3,0-1.9
	c0-0.8,0-0.9-1-0.7c0,0.3-0.1,0.7-0.1,1c-0.1,0-0.1,0-0.1-0.1c0-0.5,0-0.9,0-1.3C11.4,21.9,11.7,21.9,12.2,21.9z"/>
<path class="st32" d="M10.9,22c0,0.4,0,0.8,0,1.3c0,0.5,0,0.9,0,1.2c-0.2,0-0.4-0.1-0.6-0.1c0-0.3-0.1-0.7-0.1-1.1
	c0-0.2-0.1-0.4-0.1-0.6c0,0,0-0.1,0-0.1C10.3,22.5,10.6,22.2,10.9,22z"/>
<path class="st32" d="M7.3,20.7c0.1,0,0.1,0,0.2,0c0.6,0.1,1.2,0.2,1.8,0.4c0.7,0.2,0.4,0.8,0.3,1.3c0,0.1-0.1,0.1-0.1,0.1
	c-0.1-0.1-0.3-0.2-0.3-0.3c0.2-0.6-0.1-0.6-0.6-0.7c-0.2,0-0.5-0.1-0.8-0.3c-0.2-0.1-0.4-0.2-0.6-0.3C7.3,20.8,7.3,20.8,7.3,20.7z"
	/>
<path class="st5" d="M13.9,23.4c-0.5-0.2-0.6-0.5-0.3-1.1c0.1-0.1,0.2-0.3,0.3-0.4c0.2-0.1,0.3-0.1,0.5-0.1c0.1,0.1,0.1,0.2,0.2,0.3
	c0,0.2,0,0.3,0,0.4C14.3,22.8,14.1,23.1,13.9,23.4z"/>
<path class="st26" d="M9.5,22.4C9.5,22.4,9.6,22.4,9.5,22.4c0.2,0,0.4,0.1,0.5,0.2c0,0,0,0.1,0,0.1c-0.1,0-0.1,0-0.1,0
	C9.8,22.7,9.6,22.6,9.5,22.4z"/>
<path class="st33" d="M13.9,23.4c0.2-0.4,0.4-0.7,0.7-1c0.2,0.1,0.4,0.1,0.5,0.2c0.2,0.1,0.5,0.3,0.6,0.5c0.2,1,0.6,1.7,1.5,2.2
	c-1.1,1.5-1.1,3.2-0.4,4.8c0.3,0.8,1.1,1.1,2,1.1c0.2,0,0.5,0,0.8,0c0.8,0.3,1.1,0.9,1.4,1.5c0.2,0.3,0.3,0.7,0.4,1.1
	c-0.1,0.1-0.2,0.2-0.3,0.4c0,0.1-0.1,0.2-0.1,0.3c-0.7,0.5-0.6-0.2-0.8-0.4c-0.3,0-0.6,0-1,0.1c-0.1,0.6-0.1,1.2-0.1,1.9
	c0.3-0.1,0.5-0.2,0.8-0.3c0.3,0,0.6,0,0.9,0c0.2,0,0.3,0,0.5,0c0.5,0.1,0.8,0.1,1.3,0.2c0.1,0.2,0.2,0.4,0.2,0.5
	c-0.4,0.1-0.9,0.1-1.3,0.3c-0.3,0.1-0.8,0.4-0.8,0.7c0,0.4,0.2,1.1,0.4,1.1c1.1,0.1,1.3,1.1,1.6,1.7c0.6,1.4,1.1,2.9,1.3,4.5
	c0,0.3,0.4,0.6,0.7,0.8c0.5,0.4,1.2,0.6,1.6,1.1c0.6,0.7,0.9,1.6,1.4,2.4c0.1,0.3,0.3,0.5,0.5,0.8c0.1,0.2,0.2,0.5,0.3,0.9
	c0,0-0.2,0.2-0.3,0.4c-0.1,0-0.3,0-0.5,0c-0.1,0-0.2-0.1-0.3-0.1c0-0.1,0-0.1,0-0.1c0-0.2,0-0.3-0.1-0.4c-0.4-0.3-0.7-0.6-1.1-0.9
	c-0.4-0.3-0.8-0.5-1.2-0.7c-0.1-0.2-0.3-0.3-0.4-0.4c-0.1,0-0.2-0.1-0.2-0.2c-0.1-0.1-0.2-0.2-0.3-0.3c-0.1-0.1-0.1-0.2-0.1-0.3
	c0.1-0.4,0.3-0.9,0.2-1c-0.7-0.8-1.1-1.8-1.6-2.8c-0.3-0.6-0.7-1.3-1.2-1.8c-0.3-0.3-0.6-0.5-0.5-0.9c0-0.1-0.1-0.4-0.2-0.4
	c-0.5-0.2-0.6-0.6-0.6-1c0-0.1-0.1-0.3-0.2-0.4c-0.4-0.3-0.5-0.5-0.3-1c0.1-0.2-0.1-0.6-0.3-0.7c-0.6-0.4-1.2-0.7-1.8-1.1
	c0.1-0.2,0.1-0.3,0.2-0.6c0-0.1,0-0.1,0.1-0.1c0.1-0.6,0.2-1.1,0.2-1.7c-0.6,0.1-1.2,0.2-1.8,0.3c-0.2,0-0.3,0-0.4,0
	c0,0-0.1-0.1-0.1-0.1c0,0,0,0,0-0.1c-0.1-0.4-0.3-0.4-0.6-0.1c-0.2,0-0.4,0-0.5-0.1c-0.1-0.6-0.3-1.2-0.4-1.7c0-0.4-0.1-0.8-0.1-1.2
	c0-0.4-0.1-0.7-0.1-0.9c0-0.2-0.1-0.4-0.1-0.7c0-0.2,0-0.2,0-0.3c0,0,0-0.1,0-0.2c0-0.2,0-0.3,0-0.4c0-0.6,0-1.1,0-1.6
	c0-0.3,0-0.5,0.1-0.8c0-0.2,0.1-0.3,0.2-0.4c0.2,0.4,0.3,0.8,0.3,1.2c0,1.1,0,2.2,0,3.3c0,0.8,0.1,0.9,0.9,0.6c0-1.6,0-3.2,0-4.8
	c0-0.6-0.4-1.1-1.1-1.4c0-0.2-0.1-0.4-0.1-0.6C13.8,23.9,13.8,23.7,13.9,23.4z"/>
<path class="st34" d="M13.7,32.5c0.2,0.5,0.3,1.1,0.4,1.7c-0.1,0.3-0.3,0.6-0.3,0.9c-0.1,0.6,0.2,0.9,0.8,0.8
	c0.1,0.1,0.2,0.1,0.2,0.2c0.1,0.4,0.2,0.8,0.3,1.1c1.3,3.4,3.3,6.4,5.8,9c0.3,0.3,0.7,0.5,1,0.9c0.3,0.4,0.6,0.7,0.9,1
	c-0.8,0.1-1.4-0.1-1.7-1c-0.1-0.2-0.4-0.3-0.7-0.4c-0.1-0.4-0.1-0.7-0.6-0.5c-0.2,0.2-0.3,0.3-0.5,0.5c-0.2-0.1-0.4-0.3-0.5-0.5
	c-0.1-0.2-0.1-0.4-0.2-0.7c0-0.4,0-0.7,0.1-1c-0.1-0.1-0.3-0.1-0.4-0.1c-0.1,0-0.1,0.1-0.1,0.1c-0.6,0-0.9-0.3-1-0.9
	c0-0.2-0.1-0.5-0.2-0.7c0.2,0,0.4,0,0.6,0c0-0.1,0.1-0.1,0.1-0.2c-0.2-0.2-0.4-0.4-0.7-0.5c-0.1-0.3-0.2-0.6-0.4-1
	c-0.1-0.1-0.2-0.2-0.3-0.3c-0.3-0.7-0.7-1.4-1-2.1c-0.1-0.2-0.2-0.5-0.2-0.7c-0.2-1.2-0.7-1.6-2-1.5c-0.8,0.1-1.2-0.1-1.4-0.9
	c0.1-0.1,0.2-0.1,0.3-0.2c0.1,0,0.1,0,0.2,0c0.1,0.1,0.2,0.1,0.3,0.1c0.1-0.1,0.2-0.1,0.3-0.2c0.1-0.1,0.3-0.3,0.3-0.4
	c-0.1-0.2-0.2-0.3-0.4-0.4c0,0,0,0,0,0c-0.1-0.1-0.3-0.1-0.4-0.2c-0.1,0-0.2,0-0.2,0c-0.1,0.4-0.1,0.8-0.2,1.2
	c-0.1-0.1-0.2-0.3-0.3-0.5c-0.1-0.1-0.3-0.1-0.4-0.2c-0.4-0.2-0.7-0.3-1.1-0.5c-0.1,0-0.2,0.1-0.3,0.1c0,0,0,0,0,0
	c-0.1,0.1-0.1,0.2-0.2,0.4c-0.1-0.3-0.2-0.6-0.3-0.8c0.4,0,0.7-0.1,1.1,0c0.7,0,1.4,0.3,2-0.4c0-0.1,0.3,0,0.5,0.1
	c0.3,0.1,0.5,0.3,0.8,0.4c0.6,0.1,0.8-0.2,0.6-0.8C13.6,33.3,13.7,32.9,13.7,32.5z"/>
<path class="st35" d="M6.1,31.1c0-2.6,0-5.3,0-7.9c0-0.5,0.1-0.7,0.6-0.7c0.2,0,0.5,0,0.7,0c1.7,0,2.6,0.7,2.7,2.2
	c0.1,1.8-0.8,2.8-2.5,3c-0.1,0-0.3,0-0.5,0.1c0,1.1,0,2.3,0,3.4C6.7,31.1,6.5,31.1,6.1,31.1C6.1,31.1,6.1,31.1,6.1,31.1 M7.3,23.3
	c-0.1,0.1-0.2,0.1-0.2,0.2c0,1,0,2,0,3c0,0.1,0.4,0.3,0.5,0.3c1-0.1,1.5-0.8,1.4-2C9,23.8,8.6,23.3,7.3,23.3z"/>
<path class="st36" d="M11.1,23.4c0-0.3,0.1-0.7,0.1-1c0.9-0.2,1-0.1,1,0.7c0,0.6,0,1.3,0,1.9c0,0.2,0.1,0.3,0.2,0.5
	c0.2,0.1,0.3,0.2,0.4,0.3c-0.6,0.4-0.7,0.9-0.7,1.5c0,1.3,0,2.6,0,3.9c-0.3,0-0.6,0.1-0.8,0.1c-0.1,0-0.1-0.1-0.2-0.2
	C11.2,28.4,11.1,25.9,11.1,23.4z"/>
<path class="st34" d="M13.5,26.4c0,0.2,0,0.5-0.1,0.8c0,0.6,0,1.1,0,1.6c0,0.1,0,0.2,0,0.4c0,0.1,0,0.1,0,0.2c0,0.1,0,0.1,0,0.2
	c-0.3,0-0.6-0.1-0.9-0.2c0-0.8-0.1-1.5,0-2.3C12.5,26.4,12.8,26.2,13.5,26.4z"/>
<path class="st37" d="M13.5,26.3c-0.6-0.1-0.9,0.1-1,0.8c0,0.7,0,1.5,0,2.3c0,0.5,0.1,0.9,0.1,1.2c0,0.2-0.2,0.4-0.3,0.7
	c-0.1,0.1-0.2,0.1-0.3,0.1c-0.2-0.1-0.4-0.2-0.5-0.3c0.2-0.1,0.5-0.1,0.8-0.1c0-1.3,0-2.6,0-3.9c0-0.6,0.1-1.1,0.7-1.5
	c0.3,0,0.5,0.1,0.7,0.2C13.6,26,13.5,26.2,13.5,26.3z"/>
<path class="st38" d="M11.1,23.3c0,2.5,0.1,5,0.1,7.6c-0.1-0.2-0.3-0.5-0.3-0.8c0-1.5,0.1-3,0.1-4.6c0-0.2,0-0.3,0-0.4
	c0-0.1,0-0.1,0-0.2c0-0.2,0-0.3,0-0.4c0-0.4,0-0.8,0-1.2C11,23.3,11,23.3,11.1,23.3z"/>
<path class="st39" d="M8.7,34.4c0.1,0.2,0.2,0.5,0.4,0.8c0.1-0.2,0.1-0.3,0.3-0.3c0.1,0.3,0.1,0.6,0.1,0.8c0.4-0.4,0.3-0.7-0.1-0.9
	c0.1,0,0.2-0.1,0.4-0.1c0.1,0.4,0.1,0.8,0.1,1.2c-0.4,0-0.8,0-1.2-0.1c-0.1-0.5-0.1-0.9-0.1-1.3C8.6,34.5,8.7,34.5,8.7,34.4z"/>
<path class="st40" d="M7.4,21.7c0.2,0.1,0.4,0.2,0.7,0.3c-0.6,0.4-1.1,0.1-1.5,0c-0.4-0.1-0.7-0.2-1.1-0.4c-0.1-0.1-0.2-0.2-0.3-0.4
	c0.1-0.1,0.3-0.2,0.4-0.2c0.3,0.1,0.6,0.3,0.9,0.4c0.2,0.1,0.5,0.2,0.8,0.2C7.4,21.7,7.4,21.7,7.4,21.7z"/>
<path class="st41" d="M6.8,34.4c0.2-0.1,0.3-0.1,0.5-0.2c0.1,0,0.3,0,0.4,0.1c-0.5,0.4-0.9,0.8-0.6,1.6c0,0-0.1,0-0.2,0
	c-0.6-0.2-0.7-0.4-0.3-0.8c-0.1-0.1-0.2-0.3-0.3-0.4C6.5,34.6,6.6,34.5,6.8,34.4z"/>
<path class="st39" d="M7.1,35.9c-0.4-0.7,0.1-1.1,0.6-1.6c0.1,0,0.1,0,0.1,0.1c0,0.6-0.1,1.1-0.1,1.5C7.6,35.9,7.4,35.9,7.1,35.9z"
	/>
<path class="st41" d="M7.8,36c0-0.5,0-1,0-1.5c0.2,0,0.4,0,0.6,0.1c0.1,0.4,0.1,0.8,0.1,1.3C8.4,35.9,8.1,35.9,7.8,36z"/>
<path class="st42" d="M5.9,26.6c-0.5-0.1-1-0.2-0.7-1C6.1,25.5,5.9,26,5.9,26.6z"/>
<path class="st26" d="M7.5,21.7c0,0-0.1,0-0.1,0c-0.2-0.2-0.4-0.3-0.7-0.6C6.9,21,7,21,7.3,20.9c0.2,0.1,0.4,0.2,0.6,0.2
	C7.7,21.3,7.6,21.5,7.5,21.7z"/>
<path class="st15" d="M9.8,31.1c-0.1-0.2-0.1-0.4-0.1-0.6c0.3,0.1,0.5,0.3,0.8,0.4c0,0.1-0.1,0.2-0.1,0.3
	C10.2,31.2,10,31.1,9.8,31.1z"/>
<path class="st34" d="M13.5,30.3c0.1,0.3,0.1,0.5,0.1,0.9C13.1,31,13,30.7,13.5,30.3z"/>
<path class="st26" d="M10.9,24.6c0.1,0.1,0.1,0.2,0,0.4c-0.1,0.1-0.1,0.1-0.2,0.2c-0.1,0-0.2,0-0.2,0c-0.1-0.2-0.2-0.4-0.3-0.6
	C10.5,24.5,10.7,24.5,10.9,24.6z"/>
<path class="st32" d="M10.6,25.2c0.1,0,0.1,0,0.3,0c0.1,0,0.1,0,0.1,0c0,0.1,0,0.2,0,0.4C10.9,25.4,10.7,25.3,10.6,25.2z"/>
<path class="st42" d="M5.8,27.9c0-0.2,0.1-0.4,0.1-0.7c0,0.2,0,0.5,0,0.8c0,0,0,0,0,0C5.9,28,5.8,27.9,5.8,27.9z"/>
<path class="st42" d="M5.7,24c0,0,0.1-0.1,0.1-0.1c0,0,0,0.1,0,0.1C5.8,24,5.8,24,5.7,24z"/>
<path class="st1" d="M9.9,22.9c0,0,0,0,0.1,0c0.1,0.2,0.1,0.3,0.2,0.5C10.1,23.2,10,23.1,9.9,22.9z"/>
<path class="st20" d="M5.5,29.6c-0.1,0-0.1-0.1-0.2-0.2C5.4,29.4,5.5,29.5,5.5,29.6z"/>
<path class="st34" d="M12,31.6c0.1-0.1,0.1-0.1,0.2-0.1C12.1,31.5,12,31.5,12,31.6z"/>
<path class="st26" d="M8.8,22.2C8.8,22.2,8.8,22.2,8.8,22.2z"/>
<path class="st42" d="M5.9,22.9C5.9,22.9,5.9,22.9,5.9,22.9z"/>
<path class="st43" d="M14.5,22c0-0.1-0.1-0.1-0.1-0.2c0-0.1,0-0.2,0-0.3c0.5-1.3,1-2.5,1.5-3.8c0.1-0.3,0.2-0.5,0.3-0.7
	c0-0.1,0-0.1,0-0.2c0.5-0.9,1.1-1.7,1.6-2.6c0.5-0.6,1-1.2,1.5-1.8c0.2,0.4,0.4,0.9,0.5,1.3c0,0,0,0-0.1,0c-0.2,0.1-0.3,0.3-0.5,0.4
	c0,0,0,0,0,0c-0.2,0.2-0.3,0.4-0.4,0.6c0,0.1,0,0.1,0,0.1c-1.5,1.6-2.7,3.3-3.5,5.3C15,20.8,14.8,21.4,14.5,22z"/>
<path class="st8" d="M16.1,17c0,0.2-0.1,0.4-0.2,0.6C15.7,17.4,15.7,17.1,16.1,17z"/>
<path class="st44" d="M54.6,7.9c0.1,0.1,0.2,0.2,0.3,0.3c0,0.9-0.1,1.7-0.1,2.6c-0.7,0.1-0.7,0.5-0.6,1c0.1,0.4,0.1,0.8-0.3,0.9
	c-0.4-0.1-0.8-0.1-1.1-0.1c-0.2,0-0.4,0.1-0.6,0.2c-0.4,0.2-0.7,0.2-1-0.2c-0.4-0.4-0.8-0.3-1.2,0c-0.6,0.5-1.3,0.8-2.1,0.7
	c-0.2-0.1-0.4-0.1-0.4-0.1c-0.2-0.3-0.2-0.7-0.4-0.8c-0.3-0.1-0.7,0.1-1.1,0.1c-0.2-0.1-0.3-0.2-0.4-0.3c-2-1.5-4.3-2.5-6.8-3.2
	c-2.6-0.7-5.2-0.9-7.9-0.4c-1.5,0.1-3,0.5-4.4,1.2c-0.7,0.3-1.3,0.6-2,0.8c-0.2,0.1-0.4,0.3-0.6,0.4c-0.7,0.3-1.3,0.6-1.8,0.8
	c0.2-0.2,0.4-0.3,0.7-0.5c1.3-0.8,2.6-1.6,4.1-2c2.2-0.8,4.3-1.2,6.6-1.2c0.7,0,1.2-0.4,1.2-1.1c0.1-0.9-0.2-1.1-1-0.7
	c-0.1,0.1-0.3,0.2-0.4,0.1c-0.2-0.1-0.5-0.3-0.7-0.5c0.2-0.2,0.3-0.4,0.5-0.6c0.2-0.1,0.4-0.2,0.6-0.2c0-0.1,0-0.2,0-0.3
	c-0.5,0-1,0-1.5,0.1c-0.6,0.1-1.1,0.4-1.4-0.5c0,0-0.2-0.1-0.2-0.1c0,0,0-0.1,0-0.1c1.6-0.4,3.1-0.8,4.7-1.2c0.6,0.3,1,1.1,1.8,0.4
	c0.1-0.1,0.3,0,0.4,0c0.7,0.5,1.3,1,2,1.4c0.3,0.2,0.7,0.3,1,0.5c0.6,0.2,1.2,0.5,1.8,0.7c0.2,0.1,0.3,0.1,0.5,0.2
	c0.5,0.1,1,0.2,1.5,0.4c0.9,0.3,1.7,0.8,2.8,0.4c0.3-0.1,1,0.2,1.2,0.6c0.5,0.6,0.8,0.8,1.6,0.5c1.1-0.4,2.1-0.8,3.2-1.1
	c-0.1-0.2-0.2-0.4-0.4-0.6C53.2,7.1,53.9,7.5,54.6,7.9z"/>
<path class="st45" d="M52.5,6.7c0.1,0.2,0.3,0.4,0.4,0.6c-1.1,0.4-2.2,0.7-3.2,1.1c-0.8,0.3-1.1,0.2-1.6-0.5
	c-0.2-0.3-0.9-0.7-1.2-0.6c-1.1,0.3-1.9-0.1-2.8-0.4c-0.5-0.2-1-0.3-1.5-0.4c-0.2,0-0.3-0.1-0.5-0.2c-0.6-0.2-1.2-0.5-1.8-0.7
	c-0.4-0.1-0.7-0.3-1-0.5c-0.7-0.5-1.3-1-2-1.4c-0.1-0.1-0.4-0.1-0.4,0C36,4.3,35.5,3.6,35,3.2c1-0.2,2-0.3,3.1-0.4
	c3.6,0,7,0.4,10.3,1.7C49.8,5.1,51.1,5.9,52.5,6.7z"/>
<path class="st46" d="M9.9,35.9c-0.1-0.4-0.1-0.8-0.1-1.2c0.3,0.1,0.7,0.2,1,0.4c0,0.1-0.1,0.1-0.1,0.2c-0.1,0.2-0.1,0.3-0.1,0.4
	c0,0.1-0.1,0.1-0.1,0.2C10.3,36,10.1,35.9,9.9,35.9z"/>
<path class="st15" d="M18.6,44.6c0,0.3,0,0.6-0.1,0.9c-0.2-0.3-0.3-0.5-0.4-0.9c0-0.1,0-0.1,0.1-0.1C18.4,44.5,18.5,44.6,18.6,44.6z
	"/>
<path class="st15" d="M17,42.3c0.2,0.1,0.4,0.3,0.7,0.5c0,0.1-0.1,0.1-0.1,0.2c-0.2,0-0.4,0-0.7,0C16.9,42.8,16.9,42.6,17,42.3z"/>
<path class="st34" d="M10.6,35.7c0-0.1,0-0.2,0.1-0.4c0.2,0,0.3,0,0.4,0C11,35.5,10.8,35.6,10.6,35.7z"/>
<path class="st15" d="M16.3,41.1c0.1,0,0.1,0.1,0.2,0.2C16.5,41.3,16.4,41.2,16.3,41.1z"/>
<path class="st47" d="M11.2,35.4c-0.1,0-0.2,0-0.4,0c0,0,0-0.1,0-0.1C11,35.2,11.1,35.2,11.2,35.4C11.3,35.3,11.2,35.3,11.2,35.4z"
	/>
<path class="st39" d="M6.8,34.4c-0.1,0.1-0.3,0.2-0.4,0.3c0.1,0.1,0.2,0.3,0.3,0.4c-0.4,0.4-0.4,0.6,0.2,0.8
	c-0.5,0.3-0.8,0.1-0.7-0.5c0-0.2,0-0.4,0-0.6C6.1,34.2,6.3,34.1,6.8,34.4z"/>
<path class="st48" d="M22.4,11.5c-0.2,0.2-0.4,0.3-0.7,0.5c-0.7,0.6-1.3,1.1-1.9,1.7c-0.2-0.4-0.3-0.9-0.5-1.3
	c0.4-0.5,0.7-1,1.2-1.5c0.5-0.5,0.9-0.9,1.4-1.4c0.2-0.2,0.4-0.3,0.7-0.4C22,9.9,22.4,10.7,22.4,11.5z"/>
<path class="st49" d="M22.9,48.2c-0.3-0.3-0.6-0.7-0.9-1c0.5,0.2,1.1,0.4,1.6,0.6c0,0.1,0.1,0.1,0.1,0.3c0.1,0.1,0.2,0.2,0.3,0.3
	c0.1,0,0.1,0.1,0.2,0.2c0.2,0.2,0.3,0.3,0.4,0.4c0.4,0.2,0.8,0.4,1.1,0.7c0.4,0.3,0.8,0.6,1.1,0.9c0.1,0.1,0.1,0.3,0.1,0.4
	c-0.6-0.3-1-0.5-1.5-0.8c-0.1,0-0.1-0.1-0.2-0.1c-0.6-0.5-1.3-1-1.9-1.5c-0.1-0.1-0.2-0.2-0.3-0.2C23,48.2,22.9,48.2,22.9,48.2z"/>
<path class="st32" d="M23.2,49.5c-0.1,0.3-0.3,0.4-0.4,0.6c-0.1-0.2-0.3-0.4-0.4-0.6c0-0.1-0.1-0.2-0.1-0.3c0-0.2,0-0.7,0.1-0.7
	c0.4-0.1,0.7,0.1,0.7,0.5C23.2,49.3,23.2,49.4,23.2,49.5z"/>
<path class="st10" d="M19.8,46.3c0.5-0.3,0.5,0.1,0.5,0.4C19.9,47,19.8,46.7,19.8,46.3z"/>
<path class="st34" d="M23,48.2c0.1,0,0.1,0.1,0.2,0.2C23.2,48.4,23.1,48.3,23,48.2z"/>
<path class="st50" d="M54.7,48.7c0,0,0,0,0,0.1c-0.3,0.3-0.7,0.5-1,0.7c-1.3,0.7-2.6,1.4-3.9,2.1c-0.3,0.1-0.5,0.3-0.8,0.4
	c-0.8,0.3-1.6,0.5-2.4,0.7C46,52.2,46,51.5,46,50.8c0-0.2-0.2-0.5-0.4-0.7c-0.5-0.4-0.8-1.3-0.5-1.9c0.2,0,0.3,0,0.4,0
	c0.8-0.1,1.6-0.1,2.4-0.2c2.3-0.3,4.5-1.1,6.6-2.1C54.6,46.9,54.6,47.8,54.7,48.7z"/>
<path class="st51" d="M22.5,11.5c-0.1-0.8-0.5-1.6,0.1-2.4c0.4-0.4,0.7-0.7,1.1-1c0.2-0.2,0.5-0.4,0.7-0.6c0.5-0.3,1-0.6,1.5-0.8
	c0.4,0.3,0.7,0.6,1,0.7c0.6,0.2,1.2,0.2,1.8,0.2c0.1,0,0.2,0.2,0.3,0.2c-0.1,0.1-0.1,0.2-0.3,0.3c-0.4,0.2-0.8,0.3-1.1,0.5
	c-0.4,0.2-1,0.3-1,0.9C25,9.8,23.8,10.7,22.5,11.5z"/>
<path class="st52" d="M26.6,9.4c0-0.6,0.6-0.7,1-0.9c0.4-0.2,0.7-0.3,1.1-0.5c0.1,0,0.2-0.2,0.3-0.3c-0.1-0.1-0.2-0.2-0.3-0.2
	c-0.6-0.1-1.2-0.1-1.8-0.2c-0.4-0.1-0.7-0.4-1-0.7c0.3-0.3,0.7-0.5,1.1-0.8c0.8-0.4,1.6-0.7,2.4-1c0.2-0.1,0.5-0.2,0.8-0.3
	c0.1,0,0.3,0,0.3,0.1c0.2,0.9,0.8,0.6,1.4,0.5C32.3,5,32.8,5,33.3,5c0,0.1,0,0.2,0,0.3c-0.2,0.1-0.4,0.1-0.6,0.2
	c-0.2,0.2-0.3,0.4-0.5,0.6c0.2,0.2,0.4,0.4,0.7,0.5c0.1,0,0.3-0.1,0.4-0.1c0.8-0.4,1.1-0.2,1,0.7c0,0.7-0.5,1.1-1.2,1.1
	C30.9,8.2,28.7,8.6,26.6,9.4z"/>
<path class="st53" d="M14.5,22c0.3-0.7,0.5-1.3,0.8-1.9c0.1,0.1,0.2,0.2,0.3,0.3c-0.6,0.4-0.1,0.6,0.1,0.9c0.1-0.2,0.2-0.5,0.3-0.6
	c0,0,0.3,0,0.3,0.1c0.2,0.5,0.6,1.1,0.4,1.5c-0.3,0.8,0.1,1,0.7,1.2c0.3,0.1,0.5,0.4,0.7,0.5c0.1,0.1,0.3,0.3,0.5,0.2
	c0.6-0.1,0.9,0.1,1.1,0.7c0.1,0.4,0.4,0.8,0.9,0.2c0.1-0.1,0.3-0.1,0.5-0.1c0,0.2,0,0.4,0,0.6c0,0.2,0,0.4,0,0.7c0,0.3,0,0.6,0,1
	c0,0.9,0,1.7,0,2.6c0,0.5,0,1,0,1.4c1-0.2,1-0.2,1-0.9c0-0.5,0-1,0-1.5c0-0.2,0-0.3,0-0.5c0-0.4,0-0.8,0-1.2c0-0.1,0-0.1,0-0.2
	c0-0.1,0-0.2,0-0.3c0-0.1,0-0.1,0-0.1c0-0.1,0-0.2,0-0.2c0-0.1,0-0.1,0.1-0.2c0.3-0.2,0.5-0.4,0.7-0.5c0.2,0,0.3,0,0.4,0.1
	c0.2,0.5,0.5,0.9,0.5,1.3c0.1,1.3,0,2.7,0,4c0.3,0,0.5,0.1,0.7,0.1c0,0.1,0.1,0.1,0.1,0.2c-0.3,0-0.6,0.1-0.9,0.1
	c-0.1,0-0.3-0.2-0.3-0.3c0-0.4,0-0.9,0-1.3c0.1-1,0.1-2,0.1-3c0-0.2-0.3-0.5-0.5-0.7c-0.1-0.1-0.4,0-0.4,0.1c0,0.2,0,0.5,0,0.6
	c-0.1,0.4-0.3,0.8-0.3,1.1c0,0.5,0.2,1.1,0.1,1.6c-0.1,0.6,0.2,1.4-0.4,1.9c-0.2,0.2-0.3,0.4-0.5,0.7c0.3,0.2,0.5,0.4,0.8,0.4
	c0.7,0,1,0.4,1,1.1c0,0.4,0.2,0.9,0.4,1c0.6,0.3,0.7,0.7,0.6,1.3c0,0.4,0.1,0.8,0.6,0.9c0.2,0,0.3,0.2,0.4,0.4
	c0.3,0.6,0.6,1.2,1,1.8c0,0.1,0.1,0.1,0.1,0.1c0.3-0.1,0.5-0.3,0.7-0.3c0.1,0,0.3,0.4,0.3,0.4c-0.1,0.2-0.4,0.3-0.5,0.5
	c-0.1,0.1-0.3,0.3-0.3,0.5c0,0.2,0.2,0.4,0.3,0.6c0.2,0.2,0.7,0.2,0.3,0.6c-0.4,0.5-0.3,0.6,0.3,0.9c0.3,0.1,0.6,0.3,0.7,0.5
	c0.3,0.7,0.3,1.6,1.2,1.9c0.1,0,0.2,0.4,0.2,0.6c-0.1,1.1,1.1,1.5,1.2,2.5c0,0.1,0.2,0.1,0.3,0.1c0.1,0.1,0.3,0.2,0.4,0.4
	c0.1,0.3,0.2,0.6,0.2,0.9c0.1,0.5,0.1,0.8,0.7,1c0.4,0.2,0.6,1.2,0.3,1.6c1,0.1,0.8,0.8,0.8,1.4c-0.1,0-0.2-0.1-0.4-0.1
	c-0.1,0-0.2,0-0.4-0.1c-0.2-0.1-0.3-0.1-0.4-0.1c-0.1,0-0.2-0.1-0.4-0.2c-0.2-0.2-0.3-0.4-0.4-0.4c-0.5-0.3-0.8-0.7-0.6-1.3
	c0.1-0.2-0.1-0.5-0.2-0.7c-0.5-0.9-1.1-1.7-1.6-2.6c-0.2-0.3-0.2-0.6-0.4-0.9c-0.8-1-1.4-2.2-1.9-3.4c-0.4-0.8-0.8-1.7-1.2-2.5
	c-0.4-0.8-0.8-1.6-1.3-2.2c-0.4-0.4-0.7-0.8-0.8-1.4c-0.1-0.6-0.4-0.9-1.1-0.9c-0.1-0.2-0.2-0.3-0.2-0.5c0-0.4-0.1-0.8,0-1
	c0.3-0.4,0.1-0.6-0.2-0.6c-0.3,0-0.6,0-0.9,0c0,0,0,0,0-0.1c0-0.2,0-0.4,0-0.5c-0.1-0.4-0.2-0.8-0.4-1.1c-0.4-0.6-0.7-1.3-1.4-1.6
	c0.5-0.2,0.4-0.5,0.2-0.8c-2.1,0.5-2.4-0.7-2.3-2.2c0.5,0,1.1,0,1.6,0c1.3,0,1.3,0,1.1-1.3c-0.2-1.8-1.4-2.4-2.9-1.5
	c-0.9-0.5-1.3-1.2-1.5-2.2c0-0.2-0.4-0.3-0.6-0.5c-0.1-0.1-0.3-0.1-0.5-0.2C14.5,22.3,14.5,22.2,14.5,22 M20.5,26.3
	c0,0.2-0.1,0.4-0.1,0.7c0.1,0,0.2,0,0.3,0C20.6,26.8,20.6,26.6,20.5,26.3z"/>
<path class="st49" d="M22.5,36.6c0.7-0.1,1,0.2,1.1,0.8c0.1,0.6,0.4,1,0.8,1.4c0.6,0.6,0.9,1.4,1.3,2.2c0.4,0.8,0.8,1.7,1.2,2.5
	c0.6,1.2,1.1,2.3,1.9,3.4c0.2,0.3,0.3,0.6,0.4,0.9c0.5,0.9,1.1,1.7,1.6,2.6c0.1,0.2,0.2,0.5,0.2,0.7c-0.2,0.7,0.1,1,0.6,1.3
	c0.1,0.1,0.2,0.3,0.4,0.4c-1.4-0.5-2.8-1.1-4.3-1.7c0.1-0.2,0.3-0.4,0.3-0.4c-0.1-0.4-0.2-0.6-0.3-0.9c-0.1-0.3-0.3-0.5-0.5-0.8
	c-0.4-0.8-0.8-1.7-1.4-2.4c-0.4-0.5-1.1-0.7-1.6-1.1c-0.3-0.2-0.6-0.5-0.7-0.8c-0.1-1.6-0.6-3.1-1.3-4.5c-0.3-0.6-0.5-1.6-1.6-1.7
	c-0.2,0-0.4-0.7-0.4-1.1c0-0.3,0.5-0.5,0.8-0.7C21.6,36.7,22.1,36.7,22.5,36.6z"/>
<path class="st25" d="M32.5,53.1c0.1,0,0.2,0,0.4,0.1C32.8,53.2,32.7,53.2,32.5,53.1z"/>
<path class="st54" d="M33.8,53.3c-0.1-0.6,0.1-1.4-0.9-1.4c0.3-0.4,0.1-1.4-0.3-1.6c-0.5-0.2-0.6-0.6-0.7-1c0-0.3-0.1-0.6-0.2-0.9
	c-0.1-0.2-0.2-0.3-0.4-0.4c-0.1-0.1-0.3-0.1-0.3-0.1c-0.1-1-1.3-1.4-1.2-2.5c0-0.2-0.1-0.5-0.2-0.6c-0.9-0.3-0.9-1.2-1.2-1.9
	c-0.1-0.2-0.5-0.4-0.7-0.5c-0.6-0.2-0.7-0.4-0.3-0.9c0.3-0.5-0.1-0.5-0.3-0.6c-0.2-0.1-0.3-0.4-0.3-0.6c0-0.2,0.2-0.4,0.3-0.5
	c0.2-0.2,0.4-0.3,0.5-0.5c0,0-0.2-0.4-0.3-0.4c-0.2,0-0.4,0.2-0.7,0.3c0,0-0.1,0-0.1-0.1c-0.3-0.6-0.6-1.2-1-1.8
	c-0.1-0.2-0.3-0.4-0.4-0.4c-0.6-0.1-0.6-0.4-0.6-0.9c0-0.5,0-1-0.6-1.3c-0.3-0.1-0.4-0.7-0.4-1c0-0.7-0.3-1-1-1.1
	c-0.3,0-0.5-0.3-0.8-0.4c0.2-0.2,0.3-0.5,0.5-0.7c0.6-0.5,0.4-1.3,0.4-1.9c0.1-0.5-0.1-1.1-0.1-1.6c0-0.3,0.2-0.6,0.3-1.1
	c0-0.1-0.1-0.3,0-0.6c0-0.1,0.3-0.2,0.4-0.1c0.2,0.2,0.5,0.4,0.5,0.7c0,1-0.1,2-0.1,3c0,0.4-0.1,0.9,0,1.3c0,0.1,0.2,0.3,0.3,0.3
	c0.3,0,0.6,0,1-0.1c0.2,0,0.3,0,0.4,0c0.3,0.8,0.5,1.5,0.7,2.3c0.6,1.6,1.1,3.1,1.9,4.5c1.3,2.4,3.1,4.5,5.5,6.1
	c0.7,0.5,1.4,1,2,1.5c0.4,0.3,0.8,0.7,1.2,1c0.3,0.2,0.5,0.3,0.6,0.7c0.1,0.5,0.4,1,0.7,1.4c0.6,0.6,1.3,1.2,1.2,2.2
	c0,0.2,0.1,0.4,0.3,0.5c0.5,0.4,0.3,0.9,0.3,1.4c0,0.7-0.5,0.7-1,0.8c-0.1,0-0.1,0.1-0.2,0.1c-0.1,0-0.3,0-0.5,0
	C36.6,53.7,35.2,53.5,33.8,53.3z"/>
<path class="st55" d="M38.6,53.9c0,0,0.1-0.1,0.1-0.1c0.5,0,1-0.1,1-0.8c0-0.5,0.2-1-0.3-1.4c-0.1-0.1-0.3-0.3-0.3-0.5
	c0-1-0.7-1.5-1.2-2.2c-0.4-0.4-0.6-0.9-0.7-1.4c-0.1-0.4-0.2-0.6-0.6-0.7c-0.4-0.3-0.8-0.6-1.2-0.9c0.5,0.2,0.9,0.4,1.4,0.7
	c0.6,0.2,1.1,0.4,1.7,0.6c0.2,0.1,0.3,0.1,0.5,0.2c0.1,0,0.2,0.1,0.3,0.1c0.1,0,0.2,0,0.3,0.1c1,0.2,2,0.4,3,0.6c0.1,0,0.2,0,0.3,0
	c0.6,0,1.1,0.1,1.6,0.1c0.2,0,0.4,0,0.6,0c-0.3,0.6,0,1.5,0.5,1.9c0.2,0.2,0.4,0.4,0.4,0.7c0,0.7,0.1,1.3,0.6,1.9
	c-0.1,0.1-0.1,0.2-0.2,0.3c-1.1,0.2-2.2,0.5-3.3,0.6C41.6,53.8,40.1,53.8,38.6,53.9z"/>
<path class="st21" d="M25.4,50.1c0.5,0.2,1,0.5,1.5,0.7c0,0.1,0,0.1,0,0.1C26.3,50.9,25.5,51.2,25.4,50.1z"/>
<path class="st41" d="M55.2,45.5c0,0.1,0,0.1-0.1,0.2c-0.2,0-0.3,0-0.4,0c0-1.5,0-2.9,0-4.3c0-1.1,0.1-2.3,0.1-3.4
	c0-1-0.2-2-0.2-3.1c0.1-0.4,0.1-0.7,0.1-1c0-2.2,0-4.5,0.1-6.7c0.1,0,0.2,0,0.3,0c0,4.7,0,9.5,0,14.2C55.1,42.7,55.1,44.1,55.2,45.5
	z"/>
<path class="st31" d="M54.7,10.8c0-0.8,0.1-1.7,0.1-2.5c0.1,0,0.1,0,0.2,0.1c0,4.1,0,8.1,0,12.2c-0.1,0-0.2-0.1-0.2-0.2
	c-0.1-0.2-0.2-0.3-0.3-0.4c0-0.5,0-1,0-1.5c0.1-1.3,0.1-2.5,0.1-3.8C54.7,13.3,54.7,12,54.7,10.8z"/>
<path class="st46" d="M54.9,20.4c0.1,0.1,0.1,0.2,0.2,0.3c0,2.2,0,4.3,0,6.5c-0.1,0.1-0.2,0.1-0.3,0c0-0.4,0-0.7,0-1.1
	c0-1.9,0-3.8,0-5.7C54.8,20.4,54.8,20.4,54.9,20.4z"/>
<path class="st56" d="M54.7,45.7c0.1,0,0.2,0,0.4,0c0,0.9,0,1.8,0,2.8c-0.1,0.1-0.2,0.1-0.4,0.2c-0.1-0.9-0.2-1.7-0.3-2.7
	C54.6,45.8,54.6,45.8,54.7,45.7z"/>
<path class="st57" d="M13.6,26c-0.2-0.1-0.4-0.2-0.7-0.3c-0.2-0.1-0.3-0.2-0.5-0.3c0.3-0.5,0.8-0.5,1.3-0.6c0.7,0.3,1.1,0.7,1.1,1.4
	c0.1,1.6,0,3.2,0,4.8c-0.8,0.2-0.9,0.2-0.9-0.6c0-1.1,0-2.2,0-3.3C14,26.7,13.8,26.4,13.6,26z"/>
<path class="st58" d="M23.5,47.7c-0.5-0.2-1-0.4-1.6-0.6c-0.4-0.3-0.8-0.5-1-0.8c-2.5-2.6-4.5-5.6-5.8-9c-0.1-0.3-0.2-0.7-0.3-1.1
	c0.1-0.2,0.3-0.3,0.4-0.4c0.3,0.6,0.8,0.3,1.2,0.2c0.2,0,0.3,0,0.5,0.1c0.1,0,0.2,0,0.3,0.1c-0.1,0.2-0.2,0.4-0.2,0.5
	c0.6,0.4,1.3,0.7,1.8,1.1c0.2,0.1,0.4,0.5,0.3,0.7c-0.2,0.4-0.1,0.7,0.3,1c0.1,0.1,0.2,0.3,0.2,0.4c0,0.5,0.1,0.8,0.6,1
	c0.1,0,0.2,0.3,0.2,0.4c-0.1,0.5,0.2,0.6,0.5,0.9c0.5,0.5,0.9,1.2,1.2,1.8c0.5,1,0.8,2,1.6,2.8C23.9,46.8,23.6,47.3,23.5,47.7z"/>
<path class="st59" d="M17,25.3c1.5-0.9,2.7-0.3,2.9,1.5c0.2,1.3,0.2,1.3-1.1,1.3c-0.5,0-1.1,0-1.6,0c-0.1,1.4,0.3,2.6,2.3,2.2
	c0.2,0.3,0.3,0.6-0.2,0.8c-0.3,0.1-0.5,0.1-0.8,0.1c-0.9,0-1.6-0.3-2-1.1C15.9,28.5,15.9,26.9,17,25.3 M17.9,27.4c0.4,0,0.7,0,1.1,0
	c0.1-0.7,0-1.2-0.4-1.6c-0.2-0.1-0.5-0.2-0.7-0.1c-0.6,0.3-0.7,1-0.7,1.6C17.4,27.4,17.6,27.4,17.9,27.4z"/>
<path class="st60" d="M16.4,35.9c-0.4,0.1-0.9,0.4-1.2-0.3c-0.5-0.3-0.6-0.7-0.5-1.2c0,0,0.1-0.1,0.1-0.1c0,0-0.1-0.1-0.1-0.1
	c0.2-0.3,0.4-0.3,0.5,0.1c0,0.2,0,0.3,0,0.4c0.2-0.1,0.4-0.1,0.6-0.2c0.6-0.1,1.2-0.2,1.7-0.3c-0.1,0.6-0.2,1.1-0.2,1.7
	c0,0,0,0,0,0.1c-0.1,0-0.2,0-0.3-0.1c-0.2-0.2-0.3-0.3-0.4-0.4c0.2-0.2,0.3-0.4,0.4-0.6c0,0-0.3-0.3-0.3-0.3
	c-0.2,0.2-0.4,0.3-0.5,0.6C16.1,35.4,16.3,35.7,16.4,35.9 M16.1,34.6C16.1,34.6,16.1,34.6,16.1,34.6z"/>
<path class="st61" d="M20.5,35.9c-0.3,0-0.6,0-0.9,0c-0.2-0.2-0.4-0.4-0.4-0.6c-0.1-0.4-0.1-0.7-0.1-1.1c0.3,0,0.6,0,0.9-0.1
	c0.2,0.2,0.1,0.9,0.8,0.5C20.7,35.1,20.6,35.5,20.5,35.9z"/>
<path class="st62" d="M21.2,34.4c0.3,0,0.6-0.1,0.9,0c0.4,0.1,0.5,0.2,0.2,0.6c-0.1,0.2,0,0.6,0,1c-0.4,0-0.8-0.1-1.2-0.2
	C21.5,35.4,21.2,34.9,21.2,34.4z"/>
<path class="st39" d="M14.6,34.2c0.1,0,0.1,0.1,0.1,0.1c0,0,0,0-0.1,0.1c-0.2,0.2-0.5,0.4-0.5,0.5c0,0.3,0.2,0.6,0.4,1
	c-0.6,0-0.8-0.2-0.8-0.8c0-0.3,0.2-0.5,0.3-0.8C14.3,34.2,14.4,34.2,14.6,34.2z"/>
<path class="st47" d="M21.2,34.4c0,0.5,0.3,1-0.2,1.4c-0.2,0.1-0.3,0.1-0.5,0.1c0.1-0.4,0.2-0.8,0.3-1.3c0-0.1,0-0.2,0.1-0.3
	C21.1,34.3,21.1,34.3,21.2,34.4C21.2,34.4,21.2,34.4,21.2,34.4z"/>
<path class="st47" d="M19,34.2c0.1,0.3,0.1,0.7,0.2,1.1c0,0.2,0.2,0.4,0.4,0.6c-0.2,0.1-0.4,0.2-0.7,0.3
	C18.9,35.5,18.9,34.9,19,34.2z"/>
<path class="st47" d="M17.3,35.9c0-0.5,0.1-1.1,0.2-1.6C17.5,34.8,17.4,35.3,17.3,35.9z"/>
<path class="st61" d="M15.7,34.5c-0.2,0.1-0.4,0.1-0.6,0.2c0-0.1,0-0.2,0-0.3c0,0,0,0,0.1,0c0,0,0.1,0.1,0.1,0.1
	C15.4,34.5,15.5,34.5,15.7,34.5z"/>
<path class="st37" d="M13.4,28.7c0-0.4,0-1,0-1.5C13.4,27.7,13.4,28.2,13.4,28.7z"/>
<path class="st62" d="M21.2,34.3c-0.1,0-0.1-0.1-0.2-0.1c0-0.1,0.1-0.2,0.2-0.4C21.2,34,21.2,34.1,21.2,34.3z"/>
<path class="st58" d="M24.6,48.8c-0.1-0.1-0.2-0.2-0.4-0.3C24.3,48.5,24.5,48.6,24.6,48.8z"/>
<path class="st58" d="M23.9,48.3c-0.1,0-0.1-0.1-0.2-0.2C23.7,48.1,23.8,48.1,23.9,48.3z"/>
<path class="st37" d="M13.4,29.3C13.4,29.3,13.4,29.3,13.4,29.3C13.4,29.2,13.4,29.3,13.4,29.3z"/>
<path class="st60" d="M15.3,34.5C15.3,34.5,15.3,34.5,15.3,34.5C15.2,34.4,15.3,34.4,15.3,34.5z"/>
<path class="st61" d="M14.6,35.9c-0.2-0.3-0.4-0.7-0.4-1c0-0.2,0.3-0.3,0.4-0.5c0,0.5,0.1,0.9,0.6,1.2c-0.1,0.2-0.2,0.3-0.4,0.4
	C14.7,36,14.7,36,14.6,35.9z"/>
<path class="st47" d="M12.4,34.9c0.1,0.1,0.3,0.2,0.4,0.4c0,0.1-0.1,0.3-0.2,0.3C12.5,35.4,12.5,35.1,12.4,34.9z"/>
<path class="st47" d="M12.3,35.9c-0.1,0-0.1-0.1-0.2-0.2c-0.1-0.3-0.2-0.6-0.2-0.8c0,0,0,0,0.1,0c0.1-0.1,0.1-0.1,0.2-0.2
	c0.1,0,0.2,0.1,0.3,0.2C12.3,35.3,12.3,35.6,12.3,35.9z"/>
<path class="st39" d="M11.8,34.9C11.8,34.9,11.8,34.9,11.8,34.9c0,0.4,0,0.7,0,0.9c-0.1,0-0.1,0.1-0.2,0.1c0,0-0.1,0,0,0
	c0.1-0.4,0.1-0.8,0.2-1.1C11.8,34.8,11.8,34.8,11.8,34.9z"/>
<path class="st41" d="M12.3,35.9c0-0.3,0-0.6,0.1-0.9c0,0,0.1,0,0.1,0c0,0.2,0.1,0.4,0.1,0.7C12.5,35.8,12.4,35.8,12.3,35.9z"/>
<path class="st10" d="M18.6,44.6c-0.1,0-0.2,0-0.4-0.1C18.3,44.5,18.5,44.5,18.6,44.6z"/>
<path class="st41" d="M11.9,35.8c-0.1-0.2-0.1-0.5-0.1-0.8c0.1,0.2,0.2,0.4,0.2,0.7C12,35.7,12,35.7,11.9,35.8z"/>
<path class="st41" d="M11.9,34.9c-0.1,0-0.1-0.1-0.1-0.2c0,0,0.1,0,0.2,0C12,34.8,12,34.8,11.9,34.9z"/>
<path class="st63" d="M7.4,23.3c1.2,0,1.7,0.4,1.7,1.5c0.1,1.2-0.5,1.9-1.4,2c-0.2,0-0.5-0.2-0.5-0.3c0-1,0-2,0-3
	C7.1,23.5,7.2,23.4,7.4,23.3 M7.5,23.7c0,0.8-0.1,1.7-0.1,2.5c0,0.1,0.3,0.3,0.4,0.3c0.6-0.1,1.1-1,1-1.9C8.7,24,8.3,23.6,7.5,23.7z
	"/>
<path class="st2" d="M11,25.1c0,0-0.1,0-0.1,0C10.9,25.1,10.9,25.1,11,25.1C11,25,11,25,11,25.1z"/>
<path class="st46" d="M9.4,34.8c0.3,0.2,0.5,0.5,0.1,0.9C9.5,35.4,9.5,35.1,9.4,34.8C9.4,34.8,9.4,34.8,9.4,34.8z"/>
<path class="st64" d="M19.8,13.7c0.6-0.5,1.2-1.1,1.9-1.6c0.6-0.3,1.2-0.6,1.9-0.8c0,0.1,0,0.1,0,0.2c0,0-0.1,0-0.1,0.1
	c0.1,0.5,0.3,1,0.4,1.5c0.1,0.6,0.2,1.1,0.9,1.3c0.1,0,0.2,0.2,0.3,0.3c0.7,1.3,1.4,2.6,2.1,4c0.2,0.4,0.4,0.8,0.5,1.2
	c-0.1,0.2-0.2,0.4-0.3,0.6c-1.1,1.6-1.9,3.3-2.2,5.3c0,0.3-0.1,0.6-0.2,0.9c-0.1,0-0.1,0-0.2,0c-0.1-0.3-0.2-0.5-0.2-0.8
	c-0.1-0.1-0.1-0.2-0.2-0.3c-0.1-0.1-0.1-0.2-0.1-0.3c0-0.4,0.6-0.7,0-1c-0.6-0.3-0.7-0.1-0.7,0.8c0,0,0,0,0,0c-0.2,0-0.3,0-0.4-0.1
	c0.1-1.8-0.1-3.5-1.5-4.8c-0.4-0.4-0.7-0.8-0.7-1.4c0-0.2-0.3-0.6-0.5-0.6c-0.5,0-0.6-0.2-0.7-0.6c0-0.4-0.1-0.8-0.1-1.3
	c0-0.4,0-0.8-0.5-0.9c-0.2,0-0.3-0.3-0.4-0.5c0,0,0,0,0-0.1c0.2-0.2,0.3-0.4,0.4-0.6c0,0,0,0,0,0C19.5,13.9,19.7,13.8,19.8,13.7
	C19.8,13.7,19.8,13.7,19.8,13.7z"/>
<path class="st65" d="M18.9,14.8c0.2,0.2,0.3,0.4,0.5,0.5c0.5,0.1,0.5,0.5,0.5,0.9c0,0.4,0,0.8,0.1,1.3c0,0.4,0.2,0.6,0.7,0.6
	c0.2,0,0.5,0.4,0.5,0.6c0,0.6,0.3,1,0.7,1.4c1.4,1.3,1.6,3,1.5,4.8c-0.1,0.1-0.1,0.1-0.2,0.2c-0.2,0.1-0.3,0.1-0.5,0.2
	c-0.5,0-1-0.1-1.4-0.2c-0.2,0.1-0.4,0.1-0.5,0.2c-0.5,0.6-0.7,0.2-0.9-0.2c-0.2-0.6-0.5-0.8-1.1-0.7c-0.1,0-0.3-0.1-0.5-0.2
	c-0.2-0.2-0.4-0.4-0.7-0.5c-0.5-0.3-0.9-0.4-0.7-1.2c0.1-0.4-0.2-1-0.4-1.5c0-0.1-0.3-0.2-0.3-0.1c-0.1,0.2-0.2,0.4-0.3,0.6
	c-0.1-0.3-0.7-0.5-0.1-0.9c-0.1-0.1-0.1-0.2-0.2-0.3C16.2,18.1,17.3,16.4,18.9,14.8z"/>
<path class="st48" d="M19.3,14.1c-0.1,0.2-0.2,0.3-0.3,0.5C19,14.5,19.1,14.3,19.3,14.1z"/>
<path class="st48" d="M19.8,13.7c-0.1,0.1-0.2,0.3-0.4,0.4C19.5,14,19.6,13.8,19.8,13.7z"/>
<path class="st66" d="M38.5,9.2c2.4,0.7,4.7,1.6,6.7,3.1c0.1,0.1,0.3,0.2,0.5,0.3c0.3,0.3,0.6,0.5,0.8,0.7c2.1,1.9,3.8,4.2,5.1,6.8
	c0.5,1.5,0.9,2.9,1.4,4.4c0,0.1,0,0.2,0,0.2c-0.1-0.1-0.3-0.2-0.3-0.4c-0.8-2.7-2.1-4.9-4.2-6.7c-0.9-0.7-1.7-1.6-3-1.9
	c-0.4-0.2-0.7-0.5-1-0.6c-1.5-0.4-3-0.7-4.5-1.1c0.2-0.5,0.1-0.7-0.4-0.8c-0.2,0-0.4-0.3-0.5-0.5c-0.1-0.3,0-0.6,0.1-0.9
	c0.2-0.6,0-0.9-0.6-0.9c-0.2,0-0.4,0-0.6-0.1c-0.2-0.1-0.6-0.3-0.6-0.5c0-0.2,0.2-0.5,0.4-0.6C38,9.5,38.2,9.4,38.5,9.2z"/>
<path class="st67" d="M26.2,10c1.3-0.7,2.8-1.1,4.3-1.2c0.4,0.1,0.8,0.3,1.1,0.3c0.9,0.2,0.9,0.2,0.6,0.8c0.2,0.5,0.3,0.9,0.6,1.3
	c0.2,0.3,0.5,0.5,0.7,0.8c0.2,0.2,0.4,0.3,0.5,0.5c0.4,0.7,0.8,1.4,1.2,2.1c-0.1,0.1-0.3,0.2-0.4,0.3c-0.8,0.3-1.5,0.5-2.2,0.8
	c-0.8,0.4-1.6,1-2.4,1.5c0,0-0.1,0-0.1,0c-0.4-0.1-0.9-0.1-0.6-0.7c0.4-0.8,0-1.7-0.6-2.4c-0.5-0.5-0.9-1.1-1.2-1.7
	c-0.3-0.6-0.3-1.3-1-1.8C26.4,10.5,26.4,10.2,26.2,10z"/>
<path class="st56" d="M35.2,14.6c-0.4-0.7-0.8-1.4-1.2-2.1c-0.1-0.2-0.4-0.4-0.5-0.5c-0.2-0.3-0.5-0.5-0.7-0.8
	c-0.2-0.4-0.3-0.8-0.6-1.3c0.3-0.6,0.3-0.6-0.6-0.8c-0.3-0.1-0.7-0.2-1-0.3c2.6-0.5,5.2-0.3,7.8,0.3c-0.2,0.2-0.5,0.4-0.7,0.6
	c-0.2,0.2-0.4,0.4-0.4,0.6c0,0.2,0.4,0.4,0.6,0.5c0.2,0.1,0.4,0,0.6,0.1c0.6,0.1,0.8,0.3,0.6,0.9c-0.1,0.3-0.1,0.6-0.1,0.9
	c0,0.2,0.3,0.5,0.5,0.5c0.5,0.1,0.6,0.3,0.4,0.8c-0.4,0.1-0.7,0.1-1.1,0.1C37.5,14.3,36.4,14.5,35.2,14.6z"/>
<path class="st68" d="M51.6,20.1c-1.3-2.6-2.9-4.8-5.1-6.7c-0.3-0.2-0.5-0.4-0.8-0.7c0.3-0.1,0.7-0.2,1-0.2c0.2,0,0.2,0.5,0.4,0.8
	c0,0,0.2,0.1,0.4,0.2c0.3,0.3,0.5,0.5,0.8,0.7c0.1,0.1,0.4,0.1,0.5,0.2c0.6,0.8,1.3,0.8,2.1,0.6c0.3-0.1,0.7,0,0.8,0.2
	c0.3,0.4,0.5,0.5,1,0.5c0.2,0,0.3,0.2,0.5,0.3c0.2,0.1,0.5,0.3,0.6,0.2c0.2-0.1,0.3-0.4,0.4-0.6c0.1-0.3,0.3-0.6,0.4-0.9
	c0,1.2-0.1,2.5-0.2,3.8c-0.3,0.5-0.5,0.9-0.7,1.3c-0.3-0.1-0.7-0.2-0.7-0.1C52.7,20,52.1,20,51.6,20.1z"/>
<path class="st52" d="M54.7,14.6c-0.1,0.4-0.3,0.7-0.4,1c-0.1,0.2-0.2,0.5-0.4,0.6c-0.2,0.1-0.4-0.1-0.6-0.2
	c-0.2-0.1-0.3-0.3-0.5-0.3c-0.4,0-0.7-0.1-1-0.5C51.7,15,51.3,14.9,51,15c-0.9,0.2-1.6,0.2-2.1-0.6c-0.1-0.1-0.3-0.1-0.5-0.2
	c-0.3-0.2-0.5-0.4-0.8-0.7c0.8,0,1.5-0.3,2.1-0.8c0.4-0.3,0.9-0.4,1.2,0c0.3,0.4,0.6,0.4,1,0.2c0.2-0.1,0.4-0.2,0.6-0.2
	c0.4,0,0.7,0,1.1,0.1c0.4-0.1,0.4-0.5,0.3-0.9c-0.1-0.4-0.1-0.9,0.6-1C54.7,12,54.7,13.3,54.7,14.6 M54,14.3
	c-0.1-0.1-0.3-0.1-0.4-0.2c0,0.2,0,0.3,0,0.5C53.7,14.5,53.9,14.5,54,14.3z"/>
<path class="st69" d="M26.2,10c0.2,0.2,0.2,0.5,0.4,0.6c0.6,0.4,0.7,1.2,1,1.8c0.3,0.6,0.7,1.2,1.2,1.7c0.7,0.6,1,1.6,0.6,2.4
	c-0.3,0.6,0.2,0.6,0.6,0.8c-0.3,0.4-0.6,0.8-0.9,1.2c-0.3,0.2-0.5,0.4-0.8,0.5c0-0.2-0.1-0.4-0.1-0.5c-0.3-0.9-0.5-1.9-0.9-2.8
	c-0.2-0.5-0.4-0.9-0.7-1.4c-0.5-0.8-1-1.6-1.5-2.5c-0.2-0.4-0.1-0.9-0.8-0.7c0,0-0.1-0.2-0.2-0.3C24.8,10.5,25.5,10.3,26.2,10z"/>
<path class="st70" d="M24.2,10.8c0.1,0.1,0.2,0.3,0.3,0.3c0.7-0.2,0.6,0.3,0.8,0.7c0.4,0.9,1,1.6,1.5,2.5c0.3,0.4,0.5,0.9,0.7,1.4
	c0.3,0.9,0.6,1.9,0.9,2.8c0,0.2,0.1,0.3,0.1,0.5c0,0.1-0.1,0.1-0.1,0.2c0,0.1,0,0.1,0,0.2c-0.1,0.2-0.3,0.3-0.4,0.4
	c-0.2-0.4-0.3-0.8-0.5-1.2c-0.7-1.3-1.4-2.6-2.1-4c-0.1-0.1-0.2-0.3-0.3-0.3c-0.7-0.2-0.8-0.7-0.9-1.3c-0.1-0.5-0.3-0.9-0.4-1.5
	c0-0.1,0.1-0.1,0.1-0.1c0,0,0-0.1,0-0.1C23.8,11.1,24,11,24.2,10.8z"/>
<path class="st38" d="M54.7,45.6c-0.1,0.1-0.2,0.2-0.3,0.3c-2.1,1-4.3,1.8-6.6,2.2c-0.8,0.1-1.5,0.1-2.3,0.2
	c0.2-0.1,0.4-0.2,0.6-0.2c0.5-0.1,1.1-0.2,1.7-0.3c0.8-0.2,1.6-0.3,2.4-0.5c0.7-0.1,1.3-0.4,1.4-1.2c0-0.1,0.1-0.2,0.1-0.2
	c0.5-0.3,0.4-0.7,0.2-1.2c-0.1-0.3-0.1-0.5-0.1-0.8c0-0.6,0.1-1.2-0.7-1.4c-0.1,0-0.2-0.2-0.3-0.4c-0.2-1-1.1-1.8-0.9-3
	c0.1-0.3,0.1-0.6,0.2-0.9c0-0.2,0-0.4,0.1-0.7c0.5-0.7,0.9-1.4,1.4-2.2c0.4-0.9,0.8-1.8,1.3-2.7c0.5,0.1,1,1.3,1,2
	c-0.1,1.2-0.1,2.4-0.1,3.7c0,0.2,0.1,0.4,0.2,0.7c0.1,0,0.1,0,0.2,0c0.1-0.2,0.2-0.5,0.2-0.7c0-0.7-0.1-1.5,0-2.2
	c0-0.3,0.2-0.7,0.3-1c0.1,1,0.2,2,0.2,3c0,1.1-0.1,2.3-0.1,3.4C54.7,42.8,54.7,44.2,54.7,45.6 M52.6,36.9c0.1-0.2,0.3-0.3,0.3-0.5
	c0-0.8,0-1.7,0-2.6c-0.3,0.5-0.5,0.9-0.7,1.3c-0.6,1-0.6,1,0.1,1.8C52.4,36.9,52.5,36.9,52.6,36.9z"/>
<path class="st71" d="M47.8,47.7c-0.5,0.1-1.1,0.2-1.6,0.3c-0.2,0-0.4,0.1-0.6,0.2c-0.1,0-0.2,0.1-0.4,0.1c-0.2,0-0.4,0-0.7-0.1
	c-0.6-0.1-1.1-0.1-1.7-0.1c-0.1,0-0.1,0-0.2,0c-0.6-0.2-1-0.3-1.5-0.5c0.1-0.2,0.1-0.4,0.1-0.8c0.3-0.2,0.3-0.6,0-1.2
	c-0.6-1-1.1-2.1-1.6-3.1c0.6-0.1,1.1-0.1,1.6-0.2c1.1-0.3,2.2-0.5,3.3-0.8c0.3-0.1,0.5-0.1,0.8-0.1c0.3,0.8,0.5,1.6,0.3,2.4
	c-0.3,1.4-0.1,1.4,0.9,2c0.1-0.4,0.2-0.8,0.3-1.1c0.1,0,0.1,0,0.2,0C47.4,45.8,47.9,46.7,47.8,47.7z"/>
<path class="st72" d="M22.6,25.1c0.1-0.1,0.3-0.1,0.5-0.2c0.3,0,0.4,0,0.6-0.1c0,0,0,0,0,0c0.2,0.1,0.4,0.2,0.6,0.3
	c0,0.1,0.1,0.1,0.1,0.3c0.1,0.1,0.2,0.2,0.2,0.3c0.1,0.2,0.1,0.5,0.2,0.8c0,1,0.1,1.8,0.1,2.8c0,0.5,0,1,0,1.5
	c-0.1,0.2-0.2,0.3-0.3,0.4c-0.2,0-0.4,0-0.7-0.1c0-1.3,0-2.7,0-4c0-0.4-0.3-0.9-0.5-1.3c-0.2-0.1-0.3-0.1-0.4-0.1
	c-0.2,0.2-0.4,0.3-0.7,0.5c-0.1,0.1-0.1,0.1-0.1,0.2c0,0.1,0,0.1,0,0.2c0,0-0.1,0-0.1,0c0-0.3,0-0.6,0.1-0.9
	C22.3,25.5,22.4,25.3,22.6,25.1z"/>
<path class="st73" d="M22,25.7c0,0.3,0,0.6,0,0.9c0.1,0.1,0.1,0.1,0.1,0.1c0,0.1,0,0.1,0,0.2c0,0.1,0,0.1,0,0.2c0,0.4,0,0.7,0,1.2
	c0,0.3,0,0.4,0,0.6c0,0.5,0,0.9,0,1.5c-0.6,0.5-0.7,0.5-0.8-0.2c0-0.2-0.1-0.3-0.2-0.5c0-0.8,0-1.6,0-2.5c0-0.4,0-0.7,0-1
	c0-0.2,0-0.4,0-0.6C21.5,25.6,21.7,25.6,22,25.7z"/>
<path class="st74" d="M22.1,25.7c-0.3,0-0.6-0.1-0.9-0.1c-0.1-0.1-0.1-0.3-0.1-0.5c0.5,0,0.9,0.1,1.4,0.1
	C22.4,25.3,22.3,25.5,22.1,25.7z"/>
<path class="st74" d="M21.1,29.8c0.1,0.1,0.2,0.3,0.2,0.4c0.1,0.6,0.2,0.7,0.8,0.2c0.1,0.6,0.1,0.6-1,0.8
	C21.1,30.8,21.1,30.3,21.1,29.8z"/>
<path class="st65" d="M20.5,26.3c0.1,0.2,0.1,0.4,0.1,0.7c-0.1,0-0.2,0-0.3,0C20.4,26.8,20.4,26.5,20.5,26.3z"/>
<path class="st74" d="M21.1,26.3c0,0.2,0.1,0.6,0.1,0.9C21.1,26.9,21.1,26.6,21.1,26.3z"/>
<path class="st64" d="M24.6,31.2c0.1-0.2,0.2-0.3,0.4-0.4c0.1,0.2,0.1,0.4,0.2,0.6c-0.1,0-0.2,0-0.4,0
	C24.7,31.3,24.7,31.3,24.6,31.2z"/>
<path class="st74" d="M23,25.7c0.1,0,0.2,0,0.3,0C23.3,25.7,23.2,25.7,23,25.7z"/>
<path class="st74" d="M22.1,28.9c0-0.1,0-0.3,0-0.5C22.1,28.5,22.1,28.7,22.1,28.9z"/>
<path class="st74" d="M22.2,26.4c0,0,0-0.1,0-0.1C22.2,26.3,22.2,26.3,22.2,26.4z"/>
<path class="st74" d="M22.2,26.7C22.1,26.7,22.1,26.7,22.2,26.7c-0.1-0.1,0-0.1,0-0.1C22.2,26.6,22.2,26.7,22.2,26.7z"/>
<path class="st74" d="M22.1,27.1C22.1,27.1,22.1,27.1,22.1,27.1C22.1,27.1,22.1,27.1,22.1,27.1z"/>
<path class="st75" d="M25.2,31.4c-0.1-0.3-0.1-0.5-0.2-0.7c0-0.5,0-0.9,0-1.5c0.1-0.6,0.1-1,0.2-1.5c0-0.2,0.2-0.4,0.4-0.5
	c0.1,0.2,0.4,0.4,0.4,0.5c0,0.6,0,1.3,0,1.9c0,0.5,0.2,0.9,0.8,0.9c1,1,1.3,0.8,2.3,0.5c0.2,0.1,0.4,0.2,0.6,0.3
	c-0.2,0.7-0.5,0.2-0.8,0.1c-0.1,0.4-0.4,0.8,0.4,0.9c0.2,0,0.4,0.4,0.4,0.6c0.1,0.5,0.2,1,0.3,1.6c0.2-0.1,0.4-0.2,0.7-0.3
	c0.1,0.7,0.2,1.3,0.3,1.9c0,0.2,0.3,0.6,0.3,0.6c0.7-0.2,0.6,0.3,0.7,0.7c0,0.2,0.1,0.4,0.2,0.5c0.4,0.5,0.9,1,1.2,1.6
	c0.2,0.3,0.1,0.7,0,1c0,0.1-0.6,0.1-0.9,0c-0.3,0-0.6-0.2-0.9-0.3c-0.9-0.7-1.9-1.4-2.6-2.2c-1.1-1.1-2-2.4-2.6-4
	c-0.1-0.2-0.2-0.3-0.3-0.4C25.7,33,25.4,32.2,25.2,31.4z"/>
<path class="st76" d="M39.5,42.6c0.5,1,1.1,2.1,1.7,3.1c0.3,0.5,0.3,0.9,0,1.2c0,0.4-0.1,0.6-0.2,0.7c-0.6,0-1-0.1-1.5-0.1
	c-0.1,0-0.1,0-0.2-0.1c-0.1,0-0.2-0.1-0.3-0.1c-0.2,0-0.3-0.1-0.5-0.2c-0.6-0.2-1.1-0.4-1.7-0.6c-0.4-0.2-0.9-0.4-1.3-0.7
	c-0.7-0.5-1.4-1-2-1.5c0.3,0,0.6,0,0.9,0c0.3,0,0.8,0,0.9,0.2c0.3,0.6,0.9,0.7,1.4,0.7c0.3,0,0.6-0.1,0.9-0.2
	c-0.3-0.1-0.5-0.3-0.8-0.4c-0.5-0.1-1.1-0.1-1.2-0.9c0-0.1-0.3-0.2-0.5-0.4c-0.1-0.1-0.4-0.3-0.4-0.4c0-0.2,0.2-0.4,0.4-0.5
	c0.3-0.1,0.6-0.2,0.9-0.3c0.4,0,0.8,0.1,1.2,0.2C38,42.5,38.7,42.5,39.5,42.6z"/>
<path class="st77" d="M35.9,42.3c-0.3,0.1-0.6,0.2-0.9,0.3c-0.2,0.1-0.4,0.3-0.4,0.5c0,0.1,0.2,0.3,0.4,0.4c0.2,0.1,0.5,0.2,0.5,0.4
	c0.1,0.7,0.6,0.8,1.2,0.9c0.3,0.1,0.6,0.3,0.8,0.4c-0.3,0.1-0.6,0.2-0.9,0.2c-0.5-0.1-1.1-0.1-1.4-0.7c-0.1-0.2-0.6-0.1-0.9-0.2
	c-0.3,0-0.6,0-0.9,0c-2.4-1.6-4.2-3.6-5.5-6c-0.8-1.4-1.3-3-1.9-4.5c0.1,0.1,0.2,0.2,0.3,0.4c0.6,1.5,1.5,2.8,2.6,4
	c0.8,0.8,1.7,1.4,2.7,2.2C32.8,41.4,34.4,41.9,35.9,42.3z"/>
<path class="st78" d="M39.5,47.5c0.4,0,0.9,0.1,1.4,0.1c0.5,0.1,1,0.3,1.5,0.5C41.5,47.9,40.5,47.7,39.5,47.5z"/>
<path class="st78" d="M36.8,46.5c0.5,0.2,1,0.3,1.6,0.6C37.9,47,37.3,46.8,36.8,46.5z"/>
<path class="st78" d="M42.8,48.1c0.5,0,1,0,1.6,0.1C43.9,48.2,43.4,48.2,42.8,48.1z"/>
<path class="st78" d="M39,47.3c0.1,0,0.1,0,0.2,0C39.1,47.4,39.1,47.4,39,47.3z"/>
<path class="st78" d="M54.6,34.9c-0.1,0.4-0.3,0.7-0.3,1.1c0,0.7,0,1.4,0,2.2c0,0.2-0.1,0.5-0.2,0.7c-0.1,0-0.1,0-0.2,0
	c-0.1-0.2-0.2-0.4-0.2-0.7c0-1.2,0.1-2.4,0.1-3.7c0-0.6-0.5-1.8-1-2c0.1-0.7,0.2-1.3,0.3-2.1c0-0.3,0-0.6,0-0.8c0.3-1.7,0-3.4-0.3-5
	c0-0.1,0-0.1,0.1-0.2c0.4,0.4,1.1,0.6,1.4,1.3c0,0.1,0.2,0.2,0.3,0.3c0,0.3,0,0.6,0,1c0,2.3,0,4.5,0,6.8
	C54.7,34.2,54.7,34.5,54.6,34.9z"/>
<path class="st79" d="M54.7,26c-0.1,0-0.3-0.1-0.3-0.3c-0.2-0.7-0.9-0.8-1.4-1.3c-0.5-1.4-1-2.9-1.4-4.3c0.5-0.2,1.1-0.1,1.5-0.6
	c0.1-0.1,0.4,0.1,0.7,0.1c0.2-0.4,0.4-0.8,0.7-1.2c0,0.4,0,0.9,0.1,1.5c0,0.2,0.1,0.3,0.1,0.4C54.7,22.2,54.7,24.1,54.7,26z"/>
<path class="st68" d="M54.8,20.4c-0.1-0.1-0.1-0.2-0.2-0.4C54.7,20.1,54.8,20.2,54.8,20.4C54.8,20.4,54.8,20.4,54.8,20.4z"/>
<path class="st47" d="M16.5,35.9c-0.1-0.2-0.3-0.5-0.3-0.6c0.1-0.2,0.3-0.4,0.5-0.6c0,0,0.3,0.2,0.3,0.3c-0.1,0.2-0.2,0.3-0.4,0.6
	c0.1,0.1,0.2,0.2,0.3,0.3C16.8,35.9,16.6,35.9,16.5,35.9z"/>
<path class="st80" d="M17.8,27.4c-0.3,0-0.4,0-0.7-0.1c0-0.7,0.1-1.3,0.7-1.6c0.2-0.1,0.5,0,0.7,0.1c0.5,0.4,0.5,0.9,0.4,1.6
	C18.6,27.4,18.3,27.4,17.8,27.4 M17.8,26.2c0,0.3-0.1,0.6-0.1,0.9c0.2,0,0.6,0.1,0.7-0.1c0.1-0.2,0.1-0.5,0-0.8
	C18.4,26.2,18.1,26.2,17.8,26.2z"/>
<path class="st33" d="M16.1,34.6C16.1,34.6,16.1,34.6,16.1,34.6z"/>
<path class="st2" d="M7.5,23.7c0.8-0.1,1.2,0.2,1.3,0.9c0.1,0.9-0.4,1.8-1,1.9c-0.1,0-0.4-0.2-0.4-0.3C7.4,25.4,7.4,24.6,7.5,23.7z"
	/>
<path class="st81" d="M29.7,31.4c-0.2-0.1-0.4-0.2-0.6-0.3c1.2-1.2,1.6-3.8,0.6-5.3c-0.8-1.2-2.2-1.2-3,0c-0.2,0.2-0.3,0.5-0.4,0.7
	c-0.2-0.5-0.3-1-0.9-0.9c0.3-1.9,1.1-3.6,2.1-5.2c0.1-0.2,0.2-0.4,0.3-0.6c0.1-0.2,0.3-0.3,0.4-0.5c0-0.1,0-0.1,0-0.1
	c0,0,0.1-0.1,0.1-0.1c0.3-0.2,0.5-0.4,0.8-0.5c0,0.3,0,0.5,0.1,0.7c0.3,0.6,0.1,1.4,1,1.7c0.1,0,0.1,0.2,0.1,0.3
	c0.4,0.8,0.8,1.6,1.3,2.3c0.3,0.5,0.8,0.9,1.5,0.9c-0.3,0.2-0.6,0.3-1,0.5c-0.1,0-0.2,0-0.2-0.1c-0.2-0.4-0.3-0.3-0.5,0.1
	c-0.1,0.3-0.1,0.6-0.1,0.9c0,1.7,0,3.4-0.1,5.1C30.6,30.9,30.1,31,29.7,31.4 M30.6,29.9c0,0-0.1,0-0.1,0c0,0,0,0,0,0.1
	C30.5,29.9,30.6,29.9,30.6,29.9z"/>
<path class="st81" d="M26.7,30.5c-0.6,0-0.8-0.4-0.8-0.9c0-0.6,0-1.3,0-1.9c0-0.2-0.3-0.4-0.4-0.5c-0.1,0.2-0.3,0.3-0.4,0.5
	c-0.1,0.5-0.1,0.9-0.2,1.4c-0.1-0.8-0.1-1.7-0.1-2.6c0.1-0.1,0.1-0.1,0.2,0c0.4,0.1,0.7,0.3,1,0.5C26,28.3,26.1,29.4,26.7,30.5z"/>
<path class="st75" d="M26.2,26.9c-0.3-0.1-0.6-0.3-1-0.4c0-0.3,0-0.6,0.1-0.9c0.7-0.1,0.7,0.4,0.9,0.9
	C26.2,26.7,26.2,26.8,26.2,26.9z"/>
<path class="st65" d="M24.4,25.1c-0.2,0-0.4-0.1-0.7-0.2c0-0.9,0.1-1.1,0.7-0.8C25,24.4,24.4,24.7,24.4,25.1z"/>
<path class="st74" d="M23.6,24.9c-0.1,0-0.3,0.1-0.5,0.1c0,0,0-0.1,0.1-0.1C23.4,24.8,23.5,24.8,23.6,24.9z"/>
<path class="st74" d="M24.7,25.6c-0.1,0-0.1-0.1-0.2-0.2C24.5,25.5,24.6,25.5,24.7,25.6z"/>
<path class="st44" d="M23.6,11.4C23.6,11.4,23.6,11.4,23.6,11.4C23.5,11.5,23.6,11.4,23.6,11.4z"/>
<path class="st82" d="M53.2,30.6c-0.1,0.6-0.3,1.3-0.4,2c-0.4,0.9-0.8,1.8-1.3,2.7c-0.8-0.1-1.5-0.4-1.6-1.4c0-0.4-0.2-0.8-0.5-1
	c-0.6-0.6-0.6-1.3-0.9-2.1c0-0.2-0.1-0.3-0.1-0.4c0-0.4,0.1-0.7,0.1-1.1c0-1-0.5-1.7-1.5-1.9c0,0,0,0,0,0c-0.6-1.1-0.5-1.3,0.6-1.3
	c0.2,0,0.4,0,0.6,0c0,0,0.1,0,0.1,0c0,0,0-0.1,0-0.2c0-0.1,0-0.2,0-0.2c0-0.1,0-0.1,0-0.2c-0.1-0.1-0.1-0.2-0.1-0.3c0,0,0-0.1,0-0.1
	c0-0.2,0-0.5,0-0.5c-0.5-0.1-1-0.4-1.4-0.3c-0.6,0.1-1.2,0.5-1.7,0.8c-0.1-0.2-0.2-0.3-0.2-0.5c0.1-0.6-0.1-0.9-0.6-1.2
	c-0.2-0.2-0.5-0.4-0.6-0.6c-0.5-1.1-1-2.2-1.5-3.2c-0.6-1.2-1.2-2.3-1.8-3.4c-0.1-0.2-0.1-0.5-0.2-0.6c-0.2-0.3-0.5-0.8-0.8-0.8
	c-0.5,0-0.6-0.3-0.5-0.6c0.3,0,0.6,0,1,0c1.6,0.3,3.1,0.7,4.6,1c0.4,0.1,0.7,0.3,1.1,0.6c0.3,0.3,0.5,0.5,0.7,0.7
	c0.2,0.2,0.5,0.4,0.6,0.6c0.5,0.8,1,1.7,1.4,2.5c0.5,1,0.9,2,1.4,3c0.3,0.5,0.5,1.2,0.9,1.4c0.6,0.3,0.8,0.7,1,1.3
	c0.1,0.2,0.1,0.5,0.2,0.7c0.7,1.2,1.3,2.5,1.3,4C53,30.2,53.1,30.4,53.2,30.6z"/>
<path class="st83" d="M53.2,30.5C53.1,30.4,53,30.2,53,30c0.1-1.5-0.6-2.7-1.3-4c-0.1-0.2-0.2-0.5-0.2-0.7c-0.1-0.6-0.3-1-1-1.3
	c-0.4-0.2-0.7-0.9-0.9-1.4c-0.5-1-0.9-2-1.4-3c-0.4-0.9-0.9-1.7-1.4-2.5c-0.1-0.2-0.4-0.4-0.6-0.6c-0.2-0.2-0.4-0.4-0.7-0.7
	c1.2,0.2,2,1.1,2.9,1.9c2.1,1.8,3.5,4.1,4.2,6.7c0,0.2,0.2,0.3,0.3,0.4c0.4,1.6,0.6,3.3,0.3,5C53.2,30,53.2,30.2,53.2,30.5z"/>
<path class="st84" d="M30.2,17.2c0.8-0.5,1.6-1,2.4-1.5c0.7-0.3,1.4-0.6,2.2-0.8c0.2,1.1,0.7,0.2,1.2,0.1c-0.1,0.5-0.4,1,0,1.5
	c0.3,0.4,0.3,0.9,0.9,0.9c0.1,0,0.2,0.2,0.2,0.4c0.3,0.7,0.4,1.5,1,2.1c0.3,0.3,0.6,0.8,0.2,1.3c-0.1,0.1,0,0.4,0.1,0.6
	c0.1,0.2,0.3,0.3,0.4,0.5c0,0.8-0.4,1.6,0.5,2c-1,0.8-0.6,1.7-0.6,2.6c0,0.6,0.1,1.3,0.2,1.9c0,0.2-0.2,0.3-0.4,0.4
	c-0.2-0.1-0.4-0.2-0.5-0.3c0-0.3,0-0.6,0-0.9c0-0.2,0-0.4,0-0.7c0-0.6,0-1.1-0.1-1.7c-0.2-1-1.4-1.6-2.3-1.1
	c-0.2,0.1-0.3,0.1-0.5,0.2c-0.4-0.6-0.8-1.2-1.2-1.9c0.2-0.1,0.4-0.2,0.5-0.4c0.1-0.1,0.2-0.4,0.1-0.5c-0.2-0.5-0.5-1-0.8-1.4
	c-0.4-0.9-0.8-1.7-1.3-2.6c-0.2-0.3-0.5-0.5-0.8-0.6C31.3,17.2,30.7,17.3,30.2,17.2z"/>
<path class="st85" d="M38.9,22.3c-0.1-0.1-0.3-0.3-0.4-0.4c-0.1-0.2-0.2-0.5-0.1-0.6c0.4-0.5,0.1-1-0.2-1.3c-0.6-0.6-0.7-1.4-1-2.1
	c-0.1-0.1-0.2-0.4-0.2-0.4c-0.6,0-0.7-0.6-0.9-0.9c-0.4-0.5-0.2-0.9,0-1.5c-0.5,0.1-1,0.9-1.2-0.2c0.1-0.1,0.2-0.2,0.4-0.3
	c1.2-0.2,2.3-0.4,3.5-0.6c0.1,0.4,0.1,0.6,0.6,0.6c0.3,0,0.6,0.5,0.8,0.8c0.1,0.2,0.1,0.4,0.2,0.6c0.6,1.1,1.2,2.3,1.8,3.4
	c0.5,1.1,1,2.2,1.5,3.2c0.1,0.2,0.4,0.4,0.6,0.6c0.4,0.3,0.7,0.6,0.5,1.1c-0.6-0.4-1.3-0.3-1.9,0.1c-0.4,0.3-0.8,0.5-1.3,0.7
	c-0.2-0.1-0.4-0.3-0.7-0.4c-0.4-0.2-0.7-0.3-1.1-0.5c1.3-0.8,1.3-1.1,0.4-1.6c-0.1,0-0.1-0.1-0.2-0.2C39.8,21.8,39.3,22.3,38.9,22.3
	z"/>
<path class="st86" d="M30.2,17.2c0.6,0,1.1,0,1.7,0.2c0.3,0.1,0.6,0.3,0.8,0.6c0.5,0.8,0.9,1.7,1.3,2.6c0.2,0.5,0.5,0.9,0.8,1.4
	c0.1,0.1,0,0.4-0.1,0.5c-0.1,0.2-0.3,0.3-0.5,0.4c0.4,0.6,0.8,1.2,1.1,1.9c-0.2,0.1-0.4,0-0.6,0c-0.2-0.8-0.6-0.9-1.3-0.4
	c-0.1,0-0.2,0-0.2,0c-0.7,0-1.2-0.4-1.5-0.9c-0.5-0.7-0.9-1.5-1.3-2.3c-0.1-0.1-0.1-0.3-0.1-0.3c-0.8-0.3-0.6-1.2-1-1.7
	c-0.1-0.2,0-0.4,0-0.7c0.3-0.4,0.6-0.8,0.9-1.2C30.1,17.2,30.1,17.2,30.2,17.2z"/>
<path class="st44" d="M54,14.4c-0.1,0.1-0.3,0.2-0.4,0.3c0-0.2,0-0.3,0-0.5C53.8,14.2,53.9,14.2,54,14.4z"/>
<path class="st69" d="M28.2,19.1C28.2,19.1,28.2,19.2,28.2,19.1C28.1,19.2,28.1,19.2,28.2,19.1z"/>
<path class="st87" d="M47.8,47.7c0-1.1-0.5-2-0.9-2.9c-0.1,0-0.1,0-0.2,0c-0.1,0.4-0.2,0.8-0.3,1.1c-1.1-0.5-1.2-0.6-0.9-2
	c0.2-0.9,0-1.6-0.3-2.5c0.7-0.6,1.4-1.1,2.2-1.6c1-0.8,1.9-1.6,2.8-2.3c0,0.2,0,0.5,0,0.7c0,0.3-0.1,0.6-0.2,0.9
	c-0.2,1.2,0.7,2,0.9,3c0,0.1,0.1,0.3,0.3,0.4c0.8,0.2,0.7,0.8,0.7,1.4c0,0.3,0.1,0.5,0.1,0.8c0.1,0.4,0.3,0.9-0.2,1.2
	c-0.1,0-0.1,0.1-0.1,0.2c0,0.9-0.7,1.1-1.4,1.2C49.5,47.4,48.7,47.6,47.8,47.7z"/>
<path class="st88" d="M50.2,37.5c-0.9,0.8-1.8,1.6-2.8,2.3c0.2-0.7,1.2-1.1,0.9-2.1c-0.2-0.7-0.3-1.1-1-1.3
	c-0.2-0.1-0.2-0.4-0.3-0.6c-0.1-0.3,0-0.6-0.1-0.8c-0.1-0.3-0.3-0.5-0.5-0.8c-0.3-0.4-0.5-1-0.9-1.3c-0.5-0.4-0.6-0.8-0.5-1.4
	c0.2-0.1,0.5-0.2,0.7-0.2c0.1,0,0.2,0,0.2,0.1c0.9,0.4,1.3,0.3,1.8-0.3c0.1,0,0.3-0.1,0.4-0.1c0.2,0,0.3,0,0.4,0
	c0.3,0.7,0.3,1.5,0.9,2c0.3,0.2,0.4,0.7,0.5,1c0.1,1,0.7,1.3,1.6,1.4C51.1,36,50.7,36.7,50.2,37.5z"/>
<path class="st78" d="M52.6,36.9c-0.1,0-0.1,0-0.2-0.1c-0.8-0.8-0.7-0.8-0.1-1.8c0.2-0.4,0.4-0.8,0.7-1.3c0,0.9,0,1.8,0,2.6
	C52.9,36.6,52.7,36.7,52.6,36.9z"/>
<path class="st89" d="M38.1,29.1c0.2,0.1,0.3,0.2,0.5,0.3c0,0.2,0,0.3,0.1,0.4c0.1,0.1,0.3,0.1,0.4,0.1c-0.1,0.3-0.2,0.5-0.3,0.8
	c-0.2,0.5,0,0.6,0.5,0.5c0.4,0.1,0.7,0.2,1.1,0.3c0.2,0.4,0.4,0.7,0.6,1c0.2,0.3,0.4,0.5,0.5,0.8c0.2,0.4,0.4,0.9,0.6,1.3
	c0.1,0.3,0.4,0.5,0.5,0.8c0.2,0.6,0.2,1.4,1.1,1.6c0.1,0,0.2,0.3,0.3,0.4c0.1,0.1,0.2,0.4,0.3,0.4c0.5,0.3,0.5,0.6,0.4,1.1
	c-0.1,0.4-0.1,0.9,0,1.3c0,0.2,0.5,0.2,0.7,0.2c-0.3,0.3-0.5,0.6-0.8,1c-1.1,0.3-2.1,0.5-3.2,0.8c-0.1-0.3-0.1-0.6-0.1-0.8
	c0.2-0.5,0-0.8-0.3-1.1c-0.4-0.3-0.5-0.7-0.4-1.1c0.1-0.5-0.2-0.8-0.5-1.1c-0.3-0.3-0.6-0.6-0.8-1c-0.4-0.8-1-1.5-1.1-2.4
	c0-0.1-0.1-0.3-0.2-0.3c-0.5-0.4-0.6-0.9-0.9-1.5c-0.4-0.8-1.1-1.4-1.7-2.1c0-0.1,0-0.2,0.1-0.2c0.1-0.2,0.2-0.4,0.2-0.6
	c0-1,0-2,0-2.9c0-0.3,0.1-0.6,0.2-0.8c0.1-0.2,0.4-0.3,0.6-0.3c0.2,0,0.4,0.3,0.4,0.5c0.1,0.3,0,0.6,0,0.9c0,0.9,0,1.9,0,2.8
	c0,0.3,0.3,0.7,0.5,0.9c0.1,0.1,0.4-0.2,0.7-0.3c0-0.2,0.1-0.4,0.1-0.6c0-0.2,0-0.4,0-0.7c0-0.2,0-0.3,0-0.5
	C38,29.2,38.1,29.1,38.1,29.1z"/>
<path class="st84" d="M44.4,41.6c0.2-0.3,0.5-0.7,0.8-1c-0.2-0.1-0.7-0.1-0.7-0.2c-0.1-0.4-0.1-0.9,0-1.3c0.2-0.5,0.1-0.9-0.4-1.1
	c-0.1-0.1-0.2-0.3-0.3-0.4c-0.1-0.1-0.2-0.4-0.3-0.4c-0.9-0.2-0.8-1-1.1-1.6c-0.1-0.3-0.4-0.5-0.5-0.8c-0.2-0.4-0.4-0.9-0.6-1.3
	c-0.1-0.3-0.3-0.5-0.5-0.8c-0.2-0.3-0.4-0.7-0.6-1.1c0-0.2,0-0.3,0-0.4c0,0,0,0,0.1,0c0.3-0.1,0.5-0.3,0.8-0.4c-1-1-0.3-2.2-0.5-3.3
	c0-0.1,0-0.1,0.1-0.2c0.6-0.5,0.5-1,0-1.6c-0.2-0.3-0.2-0.6,0.2-0.6c0.2,0.1,0.4,0.2,0.6,0.4c0,0.6,0,1.1,0,1.6c0,0.1,0,0.1-0.1,0.2
	c-0.1,0.7-0.2,1.5-0.1,2.2c0.1,1.1,0.9,2.2,2.3,2.1c0.5,0,1,0,1.4,0c0,0.5,0.1,1,0.6,1.3c0.4,0.3,0.6,0.9,0.9,1.3
	c0.2,0.3,0.4,0.5,0.5,0.8c0.1,0.2,0,0.5,0.1,0.8c0,0.2,0.1,0.6,0.3,0.6c0.6,0.2,0.8,0.7,1,1.3c0.3,1-0.7,1.4-0.9,2.1
	c-0.7,0.6-1.4,1.1-2.2,1.6C44.9,41.5,44.7,41.5,44.4,41.6z"/>
<path class="st14" d="M35.1,31.1c0.6,0.7,1.3,1.3,1.7,2.1c0.3,0.5,0.4,1.1,0.9,1.5c0.1,0.1,0.2,0.2,0.2,0.3c0.1,0.9,0.7,1.6,1.1,2.4
	c0.2,0.4,0.5,0.7,0.8,1c0.4,0.3,0.6,0.5,0.5,1.1c-0.1,0.4,0,0.8,0.4,1.1c0.4,0.2,0.5,0.6,0.3,1.1c-0.1,0.2,0,0.5,0,0.8
	c-0.5,0.1-1,0.1-1.6,0.2c-0.8,0-1.5-0.1-2.3-0.2c0.1-0.5,0.2-0.9,0.3-1.4c0-0.2-0.1-0.5-0.2-0.7c-0.2-0.3-0.4-0.5-0.6-0.8
	c-0.1-0.1-0.2-0.3-0.4-0.3c-0.7-0.4-0.7-0.5-0.4-1.2c0.2-0.4,0.3-1-0.2-1.1c-1.1-0.1-1-1-1.2-1.6c-0.1-0.2-0.2-0.5-0.3-0.6
	c-0.5-0.2-0.5-0.5-0.3-1c0.1-0.4,0.2-0.9-0.3-1c-0.7-0.2-0.7-0.6-0.5-1.2c0.1-0.4,0.2-0.8-0.3-1c0-1.2,0-2.4,0-3.6
	c0-0.2,0.2-0.5,0.4-0.7c0.3-0.2,0.8,0,0.8,0.4c0,1.3,0,2.6,0,3.9c0,0.2-0.1,0.4,0,0.5c0.2,0.2,0.4,0.3,0.7,0.4
	C34.7,31.5,34.8,31.3,35.1,31.1C35,31.1,35.1,31.1,35.1,31.1z"/>
<path class="st12" d="M32.6,30.6c0.5,0.2,0.4,0.6,0.3,1c-0.2,0.6-0.2,1,0.5,1.2c0.5,0.2,0.5,0.7,0.3,1c-0.2,0.5-0.2,0.7,0.3,1
	c0.2,0.1,0.3,0.4,0.3,0.6c0.2,0.7,0.1,1.5,1.2,1.6c0.5,0.1,0.5,0.6,0.2,1.1c-0.4,0.7-0.3,0.8,0.4,1.2c0.2,0.1,0.3,0.2,0.4,0.3
	c0.2,0.3,0.4,0.5,0.6,0.8c0.1,0.2,0.2,0.5,0.2,0.7c-0.1,0.4-0.2,0.9-0.3,1.4c-0.4,0-0.8,0-1.2-0.1c-1.6-0.4-3.1-0.9-4.4-2
	c0.2,0.1,0.5,0.2,0.8,0.3c0.3,0,0.8,0.1,0.9,0c0.1-0.3,0.2-0.8,0-1c-0.3-0.6-0.8-1.1-1.2-1.6c-0.1-0.1-0.2-0.3-0.2-0.5
	c-0.1-0.4,0-0.9-0.7-0.7c0,0-0.3-0.4-0.3-0.6c-0.1-0.6-0.2-1.2-0.3-1.9c-0.3,0.1-0.5,0.2-0.7,0.3c-0.1-0.6-0.1-1.1-0.3-1.6
	c-0.1-0.2-0.3-0.6-0.4-0.6c-0.7-0.1-0.5-0.5-0.4-0.9c0.3,0.1,0.6,0.6,0.8-0.1c0.5-0.4,1-0.5,1.6-0.4c0.1,0.1,0.2,0.1,0.3,0.2
	c0.4,0.4,0.6,0.4,0.8-0.2c0,0,0-0.1,0.1-0.1C32.5,30.8,32.6,30.7,32.6,30.6z"/>
<path class="st90" d="M26.2,27c0-0.2,0.1-0.3,0.1-0.4c0.1-0.3,0.3-0.6,0.4-0.8c0.8-1.2,2.2-1.2,3,0c1,1.5,0.6,4.1-0.7,5.3
	c-0.9,0.4-1.2,0.6-2.2-0.5C26.1,29.4,26,28.3,26.2,27 M29,26.7c0,0,0-0.1,0-0.2c-0.1-0.5-0.4-0.9-0.9-0.8c-0.3,0.1-0.7,0.5-0.8,0.9
	c-0.1,0.8-0.1,1.7-0.1,2.6c0,0.1,0,0.1,0,0.3c0.1,0.5,0.3,1.1,1,1c0.6-0.1,0.8-0.6,0.8-1.1C29.1,28.5,29,27.7,29,26.7z"/>
<path class="st53" d="M17.9,26.2c0.2,0,0.6,0,0.6,0.1c0.1,0.2,0.1,0.6,0,0.8c-0.1,0.1-0.4,0-0.7,0.1C17.8,26.8,17.8,26.5,17.9,26.2z
	"/>
<path class="st91" d="M31.6,31.2c-0.1,0-0.1-0.1-0.2-0.2c0-1.8,0-3.5,0-5.2c0-0.3,0-0.5,0.1-0.8c0.2,0,0.3,0,0.4-0.1
	c0.1,0,0.1,0,0.2,0.1c0.2,0.2-0.1,0.7,0.4,0.4c0.1,0.2,0.1,0.4,0.1,0.6c-0.1,1.7-0.2,3.4-0.2,5c0,0,0,0.1-0.1,0.1
	C32,31.1,31.8,31.2,31.6,31.2z"/>
<path class="st29" d="M32.5,25.4c-0.5,0.4-0.3-0.2-0.4-0.4c0.3-0.2,0.6-0.3,0.9-0.5c0.1,0,0.1,0,0.3,0c0.5,0.1,0.8,0.3,1.2,0.4
	c0.2,0,0.4,0,0.6,0c0.2-0.1,0.4-0.1,0.5-0.2c0.9-0.5,2.2,0.1,2.3,1.1c0.1,0.5,0,1.1,0.1,1.7c0,0.3,0,0.5,0,0.7c0,0.3,0,0.6,0,0.9
	c0,0.1-0.1,0.2-0.1,0.2c-0.1-0.9-0.1-1.8-0.1-2.7c0-0.7-0.3-1.4-1.1-1.7c-0.8-0.2-1.4,0.1-1.9,0.8c-0.4-0.8-1-0.8-1.8-0.7
	C32.9,25.1,32.7,25.2,32.5,25.4z"/>
<path class="st29" d="M31.8,24.9c-0.1,0-0.2,0.1-0.4,0.1C31.5,24.6,31.6,24.5,31.8,24.9z"/>
<path class="st12" d="M30.6,29.9c-0.1,0-0.1,0-0.1,0c0,0,0,0,0-0.1C30.5,29.9,30.6,29.9,30.6,29.9z"/>
<path class="st92" d="M45,25.1c0.6-0.3,1.1-0.7,1.7-0.8c0.4-0.1,1,0.2,1.4,0.3c0.1,0,0,0.3,0,0.5c-0.9-0.5-2-0.3-2.5,0.5
	c-0.4,0.7-0.4,1.5,0.2,2.1c0.3,0.4,0.8,0.6,1.1,1c0.4,0.4,0.5,0.9,0.3,1.3c-0.3,0.5-0.8,0.5-1.3,0.3c-0.2-0.1-0.4,0-0.7,0
	c-0.3,0-0.5,0-0.7,0c0,0,0,0,0,0c-0.1-0.1-0.2-0.1-0.3-0.2c-0.8-0.1-1.4-0.6-1.6-1.4c-0.2-1.4,0.2-2.2,1.4-2.9c0.1,0,0.2,0,0.2,0.1
	c0.1,0,0.2,0,0.2-0.1c0,0,0,0,0,0c0.1-0.1,0.2-0.3,0.3-0.4C45,25.3,45,25.2,45,25.1z"/>
<path class="st93" d="M45.4,30.3c0.2,0,0.4-0.1,0.6,0c0.5,0.1,1,0.2,1.3-0.3c0.3-0.5,0.1-1-0.3-1.3c-0.4-0.3-0.8-0.6-1.1-1
	c-0.6-0.6-0.6-1.4-0.2-2.1c0.5-0.8,1.6-1.1,2.5-0.5c0,0,0,0.1,0,0.2c-0.1,0.5-0.4,0.5-0.8,0.4c-0.3,0-0.8,0.1-0.9,0.4
	c-0.1,0.2,0,0.7,0.1,1c0.1,0.2,0.3,0.3,0.5,0.4c0,0,0,0,0,0c1.4,1.1,1.6,2.1,0.6,3.3c-0.6,0.2-1.2,0.3-1.7,0.4c-0.1,0-0.1,0-0.2-0.1
	c-0.2-0.2-0.4-0.3-0.5-0.4C45.3,30.7,45.3,30.5,45.4,30.3z"/>
<path class="st94" d="M45,25.1c0,0.1,0,0.2-0.1,0.3c-0.1,0-0.1-0.1-0.1-0.1c-0.4-0.1-0.8-0.3-1.2-0.3c-1.2,0.1-1.7,1.1-2,2.1
	c0-0.5,0-1,0-1.5c0.4-0.3,0.9-0.5,1.3-0.8c0.5-0.4,1.2-0.5,1.9-0.1C44.9,24.7,44.9,24.9,45,25.1z"/>
<path class="st95" d="M47.1,27.4c-0.2-0.1-0.4-0.2-0.5-0.3c-0.1-0.3-0.3-0.8-0.1-1c0.2-0.2,0.6-0.4,0.9-0.4c0.4,0,0.7,0.1,0.8-0.4
	c0.1,0,0.1,0.1,0.2,0.2c0,0.1,0,0.1,0,0.1c0,0.1,0,0.1,0,0.3c0,0.1,0,0.1,0,0.1s-0.1,0-0.1,0c-0.2,0-0.4,0-0.5,0
	C46.5,26.1,46.5,26.3,47.1,27.4z"/>
<path class="st95" d="M47.8,30.8c0.9-1.2,0.8-2.2-0.7-3.3c0.9,0.2,1.5,0.9,1.5,1.8c0,0.3-0.1,0.7-0.2,1.1c-0.1,0.2-0.2,0.3-0.2,0.4
	c-0.1,0-0.2,0.1-0.4,0.1C47.8,30.9,47.8,30.8,47.8,30.8z"/>
<path class="st92" d="M48.2,30.8c0-0.1,0.1-0.2,0.2-0.4c0.1,0.1,0.1,0.2,0.2,0.3C48.5,30.8,48.4,30.8,48.2,30.8z"/>
<path class="st92" d="M47.7,26.1c0.1,0,0.3,0,0.5,0C48,26.1,47.8,26.1,47.7,26.1z"/>
<path class="st92" d="M48.3,26.1C48.3,26.1,48.3,26,48.3,26.1C48.3,26,48.3,26,48.3,26.1z"/>
<path class="st92" d="M48.3,25.7C48.3,25.6,48.3,25.6,48.3,25.7C48.3,25.6,48.4,25.6,48.3,25.7z"/>
<path class="st94" d="M40.9,24.9c-0.4,0.1-0.4,0.4-0.2,0.7c0.4,0.6,0.6,1.1,0,1.6c0,0-0.1,0.1-0.1,0.2c0.2,1.1-0.4,2.3,0.5,3.3
	c-0.3,0.2-0.5,0.3-0.8,0.3c0-2,0-4,0-6c-0.4,0-0.6,0-0.9,0c0,2,0,4,0,6.1c0.3,0,0.6,0,0.9,0c0,0.1,0,0.2,0,0.3
	c-0.3,0-0.7-0.1-1.1-0.2c-0.2-0.2-0.3-0.4-0.4-0.5c0.1-0.2,0.2-0.5,0.3-0.8c-0.2-0.1-0.3-0.1-0.4-0.2c0-0.1,0-0.2,0-0.4
	c0.1-0.2,0.4-0.4,0.4-0.5c0-0.6-0.2-1.3-0.2-1.9c0-0.9-0.4-1.9,0.6-2.6c-0.9-0.5-0.5-1.3-0.5-2c0.4,0,0.9-0.5,1,0.3
	c-0.6,0.1-0.8,0.4-0.6,0.9c0.1,0.2,0.5,0.4,0.7,0.3c0.5-0.1,0.5-0.5,0.3-1c0,0,0-0.1,0-0.1c0.9,0.5,0.9,0.8-0.4,1.6
	C40.3,24.6,40.6,24.8,40.9,24.9z"/>
<path class="st89" d="M38.1,28.1c0-0.2,0-0.4,0-0.6C38.1,27.7,38.2,27.9,38.1,28.1z"/>
<path class="st36" d="M40.2,22.8c0.1,0,0.1,0.1,0.1,0.1c0.2,0.4,0.2,0.8-0.3,1c-0.2,0.1-0.6-0.2-0.7-0.3c-0.2-0.5,0.1-0.8,0.6-0.9
	C40,22.7,40.1,22.8,40.2,22.8z"/>
<path class="st81" d="M34.5,24.8c-0.4-0.1-0.7-0.2-1.2-0.4C33.9,23.9,34.3,24.1,34.5,24.8z"/>
<path class="st96" d="M45.3,30.3c0,0.2,0,0.3-0.1,0.5c0.2,0.1,0.3,0.2,0.5,0.4c-0.2,0.1-0.4,0.2-0.6,0.3c-0.5,0-1,0-1.5,0
	c-1.4,0-2.2-1.1-2.3-2.1c-0.1-0.7,0.1-1.4,0.1-2.1c0.1,0.9,0.1,1.8,0.4,2.6c0.4,1.3,1.8,1.7,2.9,1c0-0.2,0-0.4-0.1-0.6
	C44.8,30.3,45.1,30.3,45.3,30.3z"/>
<path class="st92" d="M47.7,30.8c0,0,0,0,0.1,0.1c-0.4,0.6-0.9,0.7-1.7,0.4C46.6,31.1,47.1,31,47.7,30.8z"/>
<path class="st97" d="M35,25.7c0.4-0.7,1-1,1.8-0.8c0.8,0.2,1,0.9,1.1,1.7c0,0.9,0,1.8,0.1,2.7c0,0.2,0,0.4,0,0.6c0,0.3,0,0.5,0,0.7
	c0,0.2-0.1,0.3-0.2,0.5c-0.8,0.2-0.9-0.1-0.9-0.8c0.1-1,0-2,0-3c0-0.4,0-0.7-0.1-1.1c-0.2-0.6-0.9-0.8-1.3-0.2
	c-0.2,0.2-0.3,0.6-0.3,0.9c0,1.3,0,2.6,0,3.9c0,0.1,0,0.1,0,0.2c0,0-0.1,0-0.2,0.1c-0.3,0-0.5,0-0.8-0.1c0-1.3,0-2.6,0-3.8
	c0.1,1,0.1,1.9,0.1,2.8c0,0.2,0.3,0.4,0.4,0.6c0.1-0.2,0.2-0.4,0.2-0.6C35,28.6,35,27.2,35,25.7z"/>
<path class="st98" d="M35.2,30.8c0-1.3-0.1-2.6,0-3.9c0-0.3,0.1-0.6,0.3-0.9c0.4-0.6,1.1-0.4,1.3,0.2c0.1,0.3,0.1,0.7,0.1,1.1
	c0,1,0,2,0,3c0,0.6,0.1,1,0.9,0.8c-0.2,0.1-0.5,0.3-0.6,0.3c-0.2-0.3-0.5-0.6-0.5-0.9c-0.1-0.9,0-1.9,0-2.8c0-0.3,0-0.6,0-0.9
	c-0.1-0.2-0.2-0.5-0.4-0.5c-0.2,0-0.5,0.1-0.6,0.3c-0.1,0.2-0.2,0.5-0.2,0.8c0,1,0,1.9,0,2.9C35.4,30.4,35.3,30.6,35.2,30.8z"/>
<path class="st84" d="M38.8,30.7c0.2,0.1,0.3,0.3,0.4,0.5C38.8,31.4,38.5,31.3,38.8,30.7z"/>
<path class="st84" d="M38.7,29.8c0.1,0,0.2,0,0.4,0.1C38.9,29.9,38.8,29.8,38.7,29.8z"/>
<path class="st29" d="M38,30.5c0-0.2,0-0.3,0-0.6C38,30.1,38,30.3,38,30.5z"/>
<path class="st99" d="M44.6,30.3c0,0.2,0,0.4,0.1,0.6c-1.1,0.7-2.4,0.2-2.9-1c-0.3-0.8-0.2-1.7-0.3-2.7c0-0.1,0-0.1,0.1-0.2
	c0.4-1,0.8-2,2-2.1c0.4,0,0.8,0.2,1.2,0.3c0,0.2-0.1,0.4-0.1,0.5c0,0,0,0,0,0c-0.1,0-0.2,0-0.2,0c-0.1,0-0.1,0-0.3-0.1
	c-0.8-0.1-1.2,0.3-1.4,0.9c-0.1,0.6-0.3,1.2-0.2,1.8C42.5,30,43.2,30.5,44.6,30.3C44.6,30.3,44.6,30.3,44.6,30.3z"/>
<path class="st100" d="M34.2,27.2c0,1.3,0,2.6,0,3.9c0.3,0,0.5,0,0.8,0.1c-0.1,0.1-0.2,0.4-0.3,0.4c-0.2-0.1-0.5-0.2-0.7-0.4
	c-0.1-0.1,0-0.3,0-0.5c0-1.3,0-2.6,0-3.9c0-0.4-0.5-0.7-0.8-0.4c-0.2,0.2-0.4,0.4-0.4,0.7c0,1.2,0,2.3,0,3.6
	c-0.1,0.2-0.1,0.3-0.2,0.5c0-1.6,0.1-3.3,0.2-5c0.3-0.1,0.6-0.2,0.8-0.3c0.2,0.1,0.3,0.3,0.5,0.4c0,0.2,0.1,0.4,0.1,0.7
	C34.1,27,34.1,27.1,34.2,27.2z"/>
<path class="st100" d="M31.6,31.2c0.2-0.1,0.4-0.1,0.7-0.1C32.2,31.6,31.9,31.6,31.6,31.2z"/>
<path class="st101" d="M29,26.6c0,0,0,0.1,0,0.2c0,0.2,0,0.4,0,0.5c-0.1,0.7-0.1,1.4-0.2,2.1c-0.1,0.3-0.4,0.5-0.6,0.6
	c-0.1,0-0.4-0.3-0.6-0.4c-0.1-0.1-0.2-0.2-0.3-0.3c0-0.1,0-0.1,0-0.3c0-0.2,0.1-0.3,0.1-0.4c0.1-0.7,0.1-1.4,0.2-2
	c0.1-0.7,0.6-0.8,1-0.3C28.7,26.4,28.8,26.5,29,26.6z"/>
<path class="st62" d="M27.2,29.4c0.1,0.1,0.2,0.2,0.3,0.3c0.2,0.2,0.5,0.5,0.6,0.4c0.3-0.1,0.6-0.4,0.6-0.6c0.1-0.7,0.2-1.4,0.2-2.1
	c0-0.1,0-0.3,0-0.5c0,0.8,0.1,1.6,0,2.5c0,0.5-0.2,1-0.8,1.1C27.5,30.5,27.4,29.9,27.2,29.4z"/>
<path class="st62" d="M29,26.6c-0.1,0-0.3-0.1-0.4-0.3c-0.5-0.5-0.9-0.4-1,0.3c-0.1,0.7-0.1,1.3-0.2,2c0,0.1,0,0.2-0.1,0.4
	c0-0.8-0.1-1.7,0.1-2.5c0.1-0.3,0.5-0.8,0.8-0.9C28.6,25.6,28.9,26,29,26.6z"/>
<path class="st36" d="M33.5,25.7c-0.2,0.1-0.5,0.2-0.8,0.2c-0.1-0.1-0.1-0.3-0.2-0.5c0.2-0.2,0.4-0.3,0.6-0.4
	C33.3,25.3,33.4,25.5,33.5,25.7z"/>
<path class="st102" d="M33.5,25.7c-0.1-0.2-0.2-0.4-0.3-0.6c0.7-0.1,1.3-0.2,1.7,0.6c0,1.5,0.1,2.9,0,4.4c0,0.2-0.1,0.4-0.2,0.6
	c-0.1-0.2-0.4-0.4-0.4-0.6c-0.1-0.9-0.1-1.8-0.1-2.8c0-0.2,0-0.3,0-0.4c0-0.3-0.1-0.5-0.2-0.7C33.8,26,33.7,25.8,33.5,25.7z"/>
<path class="st96" d="M44.6,30.3c-1.5,0.2-2.1-0.3-2.1-1.8c0-0.6,0.1-1.2,0.2-1.8c0.2-0.6,0.6-1,1.3-0.9c-1.1,0.7-1.5,1.6-1.3,3
	c0.1,0.8,0.7,1.4,1.6,1.4C44.4,30.1,44.5,30.2,44.6,30.3z"/>
<path class="st96" d="M44.7,25.8c0-0.1,0-0.3,0.1-0.5c0.1,0,0.1,0,0.1,0.1C44.8,25.5,44.8,25.6,44.7,25.8z"/>
<path class="st96" d="M44.4,25.8c0,0,0.1,0,0.2-0.1C44.5,25.8,44.5,25.8,44.4,25.8z"/>
<path class="st103" d="M40.3,31.1c-0.3,0-0.6,0-0.9,0c0-2.1,0-4,0-6.1c0.3,0,0.6,0,0.9,0C40.3,27,40.3,29,40.3,31.1
	C40.3,31.1,40.3,31.1,40.3,31.1z"/>
<path class="st36" d="M34,26.1c0.1,0.2,0.1,0.4,0.2,0.6C34.1,26.6,34,26.4,34,26.1z"/>
</svg>
