<?xml version="1.0" encoding="utf-8"?>
<!-- Generator: Adobe Illustrator 27.7.0, SVG Export Plug-In . SVG Version: 6.00 Build 0)  -->
<svg version="1.1" id="Layer_1" xmlns="http://www.w3.org/2000/svg" xmlns:xlink="http://www.w3.org/1999/xlink" x="0px" y="0px"
	 viewBox="0 0 56 56" style="enable-background:new 0 0 56 56;" xml:space="preserve">
<style type="text/css">
	.st0{fill:#A80533;}
	.st1{fill:#FFFFFF;}
	.st2{fill:#FCDA00;}
</style>
<g>
	<path class="st0" d="M53.64,39.24h-19c-1.15,0-2.08-0.94-2.08-2.08V19.97c0-1.15,0.94-2.08,2.08-2.08h19
		c1.15,0,2.08,0.94,2.08,2.08v17.19C55.72,38.3,54.79,39.24,53.64,39.24z"/>
	<g>
		<path class="st1" d="M33.34,22.01H38c2.99,0,5.4,1.07,5.4,4.37c0,3.19-2.44,4.6-5.31,4.6H36.4v4.61h-3.07V22.01z M37.9,28.54
			c1.69,0,2.49-0.75,2.49-2.17c0-1.42-0.91-1.93-2.57-1.93H36.4v4.1H37.9z"/>
		<path class="st1" d="M47.23,22.01h3.67l4.26,13.57h-3.25l-1.78-6.87c-0.38-1.36-0.74-2.96-1.1-4.38h-0.08
			c-0.33,1.43-0.69,3.02-1.07,4.38l-1.78,6.87h-3.14L47.23,22.01z M45.78,29.96h6.53v2.38h-6.53V29.96z"/>
	</g>
	<path class="st0" d="M29.68,39.24H18.57c-1.15,0-2.08-0.94-2.08-2.08V19.97c0-1.15,0.94-2.08,2.08-2.08h11.11
		c1.15,0,2.08,0.94,2.08,2.08v17.19C31.76,38.3,30.83,39.24,29.68,39.24z"/>
	<g>
		<path class="st2" d="M18.68,28.87c0-4.5,2.98-7.12,6.41-7.12c1.75,0,3.17,0.83,4.08,1.76l-1.62,1.97
			c-0.68-0.64-1.41-1.08-2.4-1.08c-1.86,0-3.33,1.64-3.33,4.36c0,2.79,1.3,4.41,3.28,4.41c1.11,0,1.99-0.55,2.66-1.27l1.62,1.93
			c-1.13,1.31-2.63,1.99-4.38,1.99C21.55,35.83,18.68,33.44,18.68,28.87z"/>
	</g>
	<path class="st0" d="M13.64,39.24H2.53c-1.15,0-2.08-0.94-2.08-2.08V19.97c0-1.15,0.94-2.08,2.08-2.08h11.11
		c1.15,0,2.08,0.94,2.08,2.08v17.19C15.72,38.3,14.78,39.24,13.64,39.24z"/>
	<g>
		<path class="st1" d="M3.09,33.87l1.76-2.11c0.96,0.84,2.22,1.42,3.33,1.42c1.28,0,1.91-0.51,1.91-1.31c0-0.85-0.77-1.13-1.96-1.62
			L6.38,29.5c-1.41-0.57-2.74-1.73-2.74-3.7c0-2.25,2.01-4.05,4.84-4.05c1.56,0,3.2,0.62,4.37,1.78l-1.55,1.93
			c-0.89-0.69-1.74-1.06-2.82-1.06c-1.06,0-1.73,0.44-1.73,1.22c0,0.83,0.89,1.14,2.07,1.61l1.73,0.7c1.66,0.67,2.69,1.77,2.69,3.69
			c0,2.25-1.88,4.21-5.11,4.21C6.36,35.83,4.48,35.16,3.09,33.87z"/>
	</g>
</g>
</svg>
