<?xml version="1.0" encoding="utf-8"?>
<!-- Generator: Adobe Illustrator 27.7.0, SVG Export Plug-In . SVG Version: 6.00 Build 0)  -->
<svg version="1.1" id="Layer_1" xmlns="http://www.w3.org/2000/svg" xmlns:xlink="http://www.w3.org/1999/xlink" x="0px" y="0px"
	 viewBox="0 0 56 56" style="enable-background:new 0 0 56 56;" xml:space="preserve">
<style type="text/css">
	.st0{fill:#8C1616;}
	.st1{fill:#AA0000;}
	.st2{fill:#FFFEFE;}
	.st3{fill:#8C1515;}
</style>
<path d="M46.2,8.19c-0.43-0.42-0.86-0.84-1.29-1.27C44.46,6.48,44,6.04,43.55,5.6c-0.48-0.47-0.96-0.94-1.44-1.42
	c-0.46-0.45-0.92-0.9-1.38-1.35c-0.49-0.48-0.99-0.97-1.48-1.45c-0.19-0.19-0.38-0.37-0.56-0.56c-0.08-0.09-0.17-0.12-0.29-0.12
	c-6.62,0-13.23,0-19.85,0c-0.03,0-0.06-0.01-0.09,0c-0.04,0.01-0.1,0.02-0.13,0.05c-0.24,0.23-0.49,0.46-0.73,0.69
	c-0.43,0.42-0.86,0.84-1.29,1.26c-0.42,0.41-0.84,0.82-1.26,1.24c-0.43,0.42-0.85,0.84-1.28,1.25c-0.43,0.42-0.86,0.84-1.29,1.26
	C11.93,7,11.39,7.54,10.84,8.07c-0.09,0.08-0.12,0.17-0.12,0.29c0,6.61,0,13.22,0,19.82c0,0.04-0.01,0.07,0,0.11
	c0.01,0.04,0.02,0.08,0.05,0.11c0.25,0.26,0.5,0.52,0.75,0.78c0.42,0.43,0.83,0.86,1.25,1.28c0.44,0.45,0.88,0.9,1.32,1.35
	c0.41,0.42,0.82,0.84,1.23,1.26c0.44,0.45,0.88,0.9,1.32,1.35c0.22,0.22,0.43,0.44,0.66,0.65c0.05,0.05,0.14,0.09,0.21,0.09
	c0.92,0.01,1.83,0,2.75,0c0.05,0,0.1,0,0.16,0c-0.02,0.09-0.04,0.17-0.06,0.25c-0.08,0.36,0.14,0.73,0.48,0.85
	c0.3,0.11,0.6,0.06,0.91,0.03c0.11-0.01,0.23-0.02,0.34-0.04c0.01,0.02,0.02,0.03,0.02,0.05c-0.07,0.05-0.13,0.12-0.2,0.16
	c-0.09,0.05-0.2,0.07-0.3,0.12c-0.31,0.14-0.59,0.3-0.7,0.64c-0.04,0.13-0.11,0.16-0.24,0.16c-3.27,0-6.53,0-9.8-0.01
	c-0.14,0-0.17,0.04-0.17,0.17c0,3.34,0,6.67,0,10.01c0,0.1,0.03,0.17,0.1,0.24c0.32,0.3,0.63,0.61,0.94,0.91
	c0.51,0.5,1.03,1.01,1.54,1.51c0.52,0.51,1.04,1.02,1.56,1.53c0.51,0.5,1.02,1,1.53,1.5c0.63,0.62,1.25,1.23,1.88,1.85
	c0.09,0.09,0.17,0.12,0.29,0.12c6.62,0,13.23,0,19.85,0c0.03,0,0.06,0.01,0.09,0c0.04-0.01,0.1-0.03,0.13-0.06
	c0.22-0.21,0.44-0.42,0.66-0.63c0.46-0.45,0.92-0.91,1.39-1.36c0.48-0.47,0.96-0.94,1.44-1.4c0.47-0.46,0.94-0.92,1.41-1.39
	c0.48-0.47,0.96-0.94,1.43-1.41c0.4-0.4,0.79-0.8,1.19-1.2c0.07-0.07,0.09-0.13,0.09-0.22c0-1.14,0-2.28,0-3.42c0-5.2,0-10.4,0-15.6
	c0-0.11-0.03-0.18-0.1-0.26c-0.4-0.4-0.79-0.8-1.18-1.2c-0.46-0.47-0.93-0.94-1.39-1.41c-0.47-0.48-0.93-0.95-1.39-1.43
	c-0.48-0.48-0.95-0.97-1.43-1.45c-0.36-0.36-0.72-0.71-1.07-1.07c-0.08-0.08-0.15-0.11-0.26-0.11c-1.78,0-3.56,0-5.34,0
	c-0.07,0-0.15-0.01-0.21-0.04c-0.13-0.06-0.24-0.14-0.36-0.22c-0.41-0.25-0.82-0.5-1.15-0.86c-0.12-0.13-0.23-0.26-0.34-0.39
	c0.12,0,0.22,0.02,0.32,0.05c0.59,0.14,1.19,0.21,1.8,0.22c0.27,0.01,0.53,0.04,0.77,0.16c0.4,0.2,0.94-0.01,1.14-0.4
	c0.11-0.22,0.13-0.45,0.12-0.67c0.48,0,0.95,0,1.41,0c2.88,0,5.75,0,8.65-0.01c0-0.03,0.01-0.05,0.01-0.08c0-3.69,0-7.37,0-11.06
	C46.23,8.29,46.22,8.25,46.2,8.19z"/>
<path class="st0" d="M46.21,19.48c-2.88,0-5.75,0-8.63,0c-0.47,0-0.94,0-1.41,0c0.02,0.22,0,0.45-0.12,0.67
	c-0.2,0.39-0.74,0.6-1.14,0.4c-0.24-0.12-0.5-0.16-0.77-0.16c-0.61-0.01-1.21-0.09-1.8-0.22c-0.1-0.02-0.2-0.04-0.32-0.05
	c0.11,0.13,0.22,0.26,0.34,0.39c0.33,0.35,0.74,0.6,1.15,0.86c0.12,0.07,0.24,0.15,0.36,0.22c0.06,0.03,0.14,0.04,0.21,0.04
	c1.78,0,3.56,0,5.34,0c0.11,0,0.18,0.03,0.26,0.11c0.35,0.36,0.71,0.72,1.07,1.07c0.48,0.48,0.95,0.96,1.43,1.45
	c0.47,0.47,0.93,0.95,1.39,1.43c0.46,0.47,0.92,0.94,1.39,1.41c0.39,0.4,0.78,0.81,1.18,1.2c0.08,0.08,0.1,0.15,0.1,0.26
	c0,5.2,0,10.4,0,15.6c0,1.14,0,2.28,0,3.42c0,0.09-0.03,0.16-0.09,0.22c-0.4,0.4-0.79,0.8-1.19,1.2c-0.48,0.47-0.95,0.94-1.43,1.41
	c-0.47,0.46-0.94,0.92-1.41,1.39c-0.48,0.47-0.96,0.94-1.44,1.4c-0.46,0.45-0.92,0.91-1.39,1.36c-0.22,0.21-0.43,0.42-0.66,0.63
	c-0.03,0.03-0.08,0.04-0.13,0.06c-0.03,0.01-0.06,0-0.09,0c-6.62,0-13.23,0-19.85,0c-0.12,0-0.21-0.04-0.29-0.12
	c-0.62-0.62-1.25-1.24-1.88-1.85c-0.51-0.5-1.02-1-1.53-1.5c-0.52-0.51-1.04-1.02-1.56-1.53c-0.51-0.5-1.02-1.01-1.54-1.51
	c-0.31-0.31-0.62-0.61-0.94-0.91c-0.07-0.07-0.1-0.14-0.1-0.24c0-3.34,0-6.67,0-10.01c0-0.13,0.03-0.17,0.17-0.17
	c3.27,0,6.53,0,9.8,0.01c0.13,0,0.2-0.03,0.24-0.16c0.11-0.34,0.4-0.51,0.7-0.64c0.1-0.04,0.2-0.07,0.3-0.12
	c0.07-0.04,0.13-0.1,0.2-0.16c-0.01-0.02-0.02-0.03-0.02-0.05c-0.11,0.01-0.23,0.03-0.34,0.04c-0.3,0.02-0.61,0.08-0.91-0.03
	c-0.34-0.13-0.56-0.5-0.48-0.85c0.02-0.08,0.04-0.16,0.06-0.25c-0.06,0-0.11,0-0.16,0c-0.92,0-1.83,0-2.75,0
	c-0.07,0-0.16-0.04-0.21-0.09c-0.23-0.21-0.44-0.43-0.66-0.65c-0.44-0.45-0.88-0.9-1.32-1.35c-0.41-0.42-0.82-0.84-1.23-1.26
	c-0.44-0.45-0.88-0.9-1.32-1.35c-0.42-0.43-0.84-0.85-1.25-1.28c-0.25-0.26-0.5-0.52-0.75-0.78c-0.02-0.03-0.04-0.07-0.05-0.11
	c-0.01-0.03,0-0.07,0-0.11c0-6.61,0-13.22,0-19.82c0-0.12,0.03-0.21,0.12-0.29c0.55-0.54,1.09-1.08,1.64-1.62
	c0.43-0.42,0.86-0.84,1.29-1.26c0.43-0.42,0.85-0.84,1.28-1.25c0.42-0.41,0.84-0.82,1.26-1.24c0.43-0.42,0.86-0.84,1.29-1.26
	c0.24-0.23,0.48-0.46,0.73-0.69c0.03-0.03,0.08-0.04,0.13-0.05c0.03-0.01,0.06,0,0.09,0c6.62,0,13.23,0,19.85,0
	c0.12,0,0.21,0.03,0.29,0.12c0.18,0.19,0.37,0.38,0.56,0.56c0.49,0.49,0.99,0.97,1.48,1.45c0.46,0.45,0.92,0.9,1.38,1.35
	c0.48,0.47,0.96,0.94,1.44,1.42c0.45,0.44,0.91,0.89,1.36,1.33c0.43,0.42,0.86,0.84,1.3,1.29C46.21,11.98,46.21,15.73,46.21,19.48
	 M21.11,35.15c-0.03,0.09-0.07,0.18-0.1,0.28c-0.06,0.19-0.02,0.26,0.18,0.27c0.15,0.01,0.29-0.01,0.44-0.02
	c0.76-0.06,1.48-0.28,2.14-0.66c0.1-0.06,0.23-0.09,0.35-0.1c0.34-0.02,0.62,0.19,0.67,0.47c0.03,0.18-0.08,0.32-0.17,0.45
	c-0.47,0.7-1.15,1.04-1.97,1.15c-0.32,0.04-0.65,0.1-0.94,0.26c-0.32,0.18-0.33,0.48-0.05,0.7c0.04,0.03,0.07,0.05,0.11,0.08
	c0.11,0.09,0.21,0.19,0.32,0.29c-0.01,0.01-0.01,0.02-0.02,0.03c-3.47,0-6.95,0-10.43,0c0,0.05,0,0.1,0,0.14c0,2.89,0,5.79,0,8.68
	c0,0.1,0.03,0.17,0.1,0.24c2.3,2.26,4.6,4.52,6.9,6.78c0.08,0.07,0.15,0.11,0.26,0.11c6.37,0,12.73,0,19.1,0
	c0.12,0,0.21-0.03,0.29-0.12c2.29-2.25,4.58-4.5,6.87-6.74c0.09-0.09,0.12-0.17,0.12-0.29c0-6.07,0-12.13,0-18.2
	c0-0.11-0.03-0.18-0.11-0.26c-1.97-2.01-3.94-4.01-5.91-6.02c-0.07-0.08-0.15-0.11-0.25-0.11c-1.56,0-3.12,0-4.68,0
	c-0.06,0-0.13-0.01-0.18-0.04c-0.44-0.27-0.88-0.54-1.32-0.82c-0.69-0.42-1.23-1-1.67-1.68c-0.14-0.22-0.23-0.46-0.21-0.73
	c0.02-0.21,0.13-0.27,0.32-0.18c0.14,0.07,0.29,0.15,0.44,0.2c0.75,0.29,1.53,0.38,2.32,0.43c0.36,0.02,0.73,0.02,1.06,0.19
	c0.11,0.06,0.21,0.07,0.31-0.01c0.11-0.08,0.16-0.19,0.12-0.32c-0.04-0.13-0.09-0.26-0.17-0.37c-0.17-0.24-0.35-0.47-0.54-0.72
	c3.5,0,6.98,0,10.47,0c0-0.05,0-0.07,0-0.1c0-3.24,0-6.48,0-9.72c0-0.06-0.04-0.14-0.08-0.18c-2.31-2.27-4.63-4.55-6.95-6.81
	c-0.05-0.05-0.14-0.08-0.21-0.08c-6.38,0-12.77,0-19.15,0c-0.07,0-0.15,0.02-0.2,0.07c-2.32,2.27-4.64,4.54-6.96,6.82
	c-0.04,0.04-0.08,0.12-0.08,0.18c0,6.39,0,12.78,0,19.17c0,0.06,0.03,0.13,0.07,0.17c1.99,2.03,3.98,4.06,5.96,6.09
	c0.06,0.07,0.13,0.09,0.22,0.09c1.22,0,2.43,0,3.65,0c0.05,0,0.09,0,0.16,0C21.4,34.55,21.26,34.76,21.11,35.15z"/>
<path class="st1" d="M46.22,19.48c-0.01-3.75-0.01-7.5-0.01-11.26c0.01,0.03,0.03,0.07,0.03,0.11c0,3.69,0,7.37,0,11.06
	C46.23,19.42,46.23,19.45,46.22,19.48z"/>
<path class="st2" d="M21.11,35.14c0.15-0.38,0.29-0.59,0.61-0.92c-0.07,0-0.11,0-0.16,0c-1.22,0-2.43,0-3.65,0
	c-0.09,0-0.16-0.03-0.22-0.09c-1.99-2.03-3.98-4.06-5.96-6.09c-0.04-0.04-0.07-0.11-0.07-0.17c0-6.39,0-12.78,0-19.17
	c0-0.06,0.04-0.14,0.08-0.18c2.32-2.27,4.64-4.55,6.96-6.82c0.05-0.05,0.13-0.07,0.2-0.07c6.38,0,12.77,0,19.15,0
	c0.07,0,0.16,0.03,0.21,0.08c2.32,2.27,4.63,4.54,6.95,6.81c0.04,0.04,0.08,0.12,0.08,0.18c0,3.24,0,6.48,0,9.72
	c0,0.03,0,0.05,0,0.1c-3.49,0-6.98,0-10.47,0c0.19,0.25,0.38,0.48,0.54,0.72c0.08,0.11,0.13,0.24,0.17,0.37
	c0.04,0.12-0.01,0.24-0.12,0.32c-0.1,0.08-0.21,0.07-0.31,0.01c-0.33-0.17-0.7-0.17-1.06-0.19c-0.79-0.05-1.57-0.15-2.32-0.43
	c-0.15-0.06-0.29-0.13-0.44-0.2c-0.19-0.09-0.3-0.03-0.32,0.18c-0.02,0.27,0.06,0.51,0.21,0.73c0.44,0.68,0.98,1.25,1.67,1.68
	c0.44,0.27,0.88,0.55,1.32,0.82c0.05,0.03,0.12,0.04,0.18,0.04c1.56,0,3.12,0,4.68,0c0.11,0,0.18,0.03,0.25,0.11
	c1.97,2.01,3.94,4.02,5.91,6.02c0.07,0.08,0.11,0.15,0.11,0.26c0,6.07,0,12.13,0,18.2c0,0.12-0.04,0.2-0.12,0.29
	c-2.29,2.24-4.58,4.49-6.87,6.74c-0.09,0.09-0.17,0.12-0.29,0.12c-6.37,0-12.73,0-19.1,0c-0.11,0-0.18-0.03-0.26-0.11
	c-2.3-2.26-4.6-4.52-6.9-6.78c-0.07-0.07-0.1-0.14-0.1-0.24c0-2.89,0-5.79,0-8.68c0-0.04,0-0.09,0-0.14c3.48,0,6.95,0,10.43,0
	c0.01-0.01,0.01-0.02,0.02-0.03c-0.11-0.1-0.21-0.19-0.32-0.29c-0.03-0.03-0.07-0.05-0.11-0.08c-0.29-0.23-0.27-0.52,0.05-0.7
	c0.29-0.16,0.61-0.22,0.94-0.26c0.82-0.11,1.5-0.45,1.97-1.15c0.09-0.13,0.2-0.27,0.17-0.45c-0.04-0.29-0.32-0.5-0.67-0.47
	c-0.12,0.01-0.25,0.04-0.35,0.1c-0.66,0.39-1.38,0.6-2.14,0.66c-0.15,0.01-0.29,0.03-0.44,0.02c-0.2-0.01-0.25-0.08-0.18-0.27
	C21.04,35.33,21.08,35.24,21.11,35.14 M30.97,15.42c-0.06,0.02-0.12,0.03-0.18,0.06c-0.22,0.08-0.27,0.23-0.11,0.4
	c0.09,0.1,0.21,0.19,0.33,0.25c0.27,0.12,0.55,0.22,0.83,0.33c0.67,0.25,1.26,0.63,1.82,1.06c0.08,0.06,0.16,0.09,0.26,0.09
	c3.44,0,6.88-0.01,10.32-0.01c0.04,0,0.09,0,0.14,0c0-0.05,0-0.1,0-0.14c0-2.78,0-5.56,0-8.33c0-0.09-0.03-0.15-0.09-0.21
	c-2.12-2.08-4.24-4.16-6.36-6.24c-0.08-0.08-0.16-0.12-0.28-0.12c-6.12,0-12.24,0-18.36,0c-0.11,0-0.18,0.03-0.26,0.1
	c-2.13,2.09-4.25,4.17-6.38,6.26c-0.05,0.05-0.08,0.13-0.08,0.19c0,6.12,0,12.23,0,18.35c0,0.07,0.03,0.15,0.08,0.2
	c1.81,1.85,3.62,3.7,5.44,5.55c0.04,0.04,0.11,0.07,0.17,0.07c1.69,0,3.37,0,5.06,0c0.04,0,0.09,0,0.13-0.02
	c0.28-0.12,0.57-0.23,0.85-0.36c0.25-0.12,0.42-0.32,0.47-0.58c0.05-0.26,0.05-0.53,0.07-0.8c0-0.03,0-0.07-0.01-0.11
	c-0.03-0.1-0.09-0.15-0.2-0.1c-0.18,0.08-0.37,0.08-0.57,0.05c-0.28-0.05-0.55-0.11-0.83-0.16c-0.43-0.08-0.86-0.09-1.26,0.14
	c-0.04,0.02-0.08,0.03-0.13,0.04c-0.16,0.05-0.24-0.02-0.2-0.18c0.03-0.11,0.07-0.22,0.12-0.32c0.33-0.65,0.87-1.09,1.49-1.42
	c0.75-0.4,1.45-0.86,2.13-1.37c0.28-0.21,0.49-0.49,0.63-0.8c0.1-0.2,0.13-0.42,0.1-0.64c-0.03-0.24-0.23-0.35-0.45-0.24
	c-0.11,0.06-0.21,0.13-0.32,0.2c-0.57,0.35-1.17,0.54-1.85,0.45c-0.19-0.03-0.38-0.06-0.57-0.08c-0.09-0.01-0.21,0.04-0.23-0.07
	c-0.02-0.08,0.03-0.17,0.06-0.26c0.01-0.04,0.04-0.07,0.07-0.1c0.22-0.25,0.45-0.49,0.76-0.63c0.22-0.1,0.43-0.21,0.65-0.32
	c0.34-0.16,0.69-0.32,0.97-0.59c0.31-0.3,0.52-0.65,0.57-1.08c0.01-0.09-0.01-0.22-0.07-0.26c-0.06-0.04-0.19-0.02-0.27,0.01
	c-0.14,0.06-0.26,0.15-0.39,0.23c-0.27,0.18-0.55,0.31-0.88,0.35c-0.23,0.03-0.45,0.05-0.68,0.05c-0.76,0.01-1.41,0.25-1.87,0.89
	c-0.07,0.1-0.17,0.18-0.27,0.25c-0.11,0.08-0.22,0.04-0.24-0.1c-0.03-0.15-0.05-0.31-0.02-0.47c0.08-0.54,0.16-1.09,0.29-1.62
	c0.18-0.75,0.59-1.36,1.25-1.77c0.49-0.31,0.98-0.61,1.47-0.91c0.54-0.33,0.99-0.77,1.36-1.28c0.12-0.17,0.22-0.37,0.3-0.56
	c0.11-0.27,0.11-0.54-0.03-0.8c-0.07-0.12-0.13-0.14-0.25-0.07c-0.08,0.05-0.15,0.11-0.22,0.17c-0.26,0.27-0.58,0.44-0.95,0.51
	c-0.42,0.08-0.84,0.2-1.27,0.12c-0.44-0.08-0.85-0.02-1.25,0.19c-0.11,0.06-0.21,0.06-0.31-0.02c-0.1-0.08-0.15-0.19-0.12-0.31
	c0.02-0.1,0.06-0.21,0.11-0.3c0.1-0.14,0.21-0.28,0.34-0.4c0.52-0.51,1.12-0.91,1.73-1.31c0.84-0.56,1.74-1.01,2.62-1.48
	c0.25-0.13,0.46-0.33,0.59-0.59c0.15-0.28,0.01-0.55-0.3-0.62c-0.19-0.04-0.38-0.01-0.55,0.07c-0.55,0.26-1.12,0.16-1.69,0.12
	c-0.25-0.01-0.28-0.13-0.13-0.33c0.23-0.3,0.51-0.52,0.85-0.68c0.33-0.15,0.66-0.29,0.99-0.45c0.28-0.13,0.46-0.35,0.52-0.65
	c0.08-0.38-0.07-0.55-0.45-0.53c-0.21,0.01-0.42,0.03-0.63,0.02c-0.22-0.01-0.28-0.13-0.17-0.31c0.09-0.15,0.2-0.29,0.33-0.42
	c0.43-0.43,0.92-0.76,1.51-0.93c0.11-0.03,0.22-0.1,0.31-0.18c0.13-0.12,0.1-0.26-0.07-0.32c-0.11-0.04-0.23-0.07-0.35-0.09
	c-0.21-0.03-0.42-0.03-0.63-0.06c-0.08-0.02-0.19-0.09-0.22-0.16c-0.02-0.05,0.04-0.17,0.1-0.22c0.18-0.16,0.37-0.29,0.56-0.44
	c0.3-0.24,0.6-0.46,0.88-0.72c0.24-0.23,0.21-0.37-0.04-0.58c-0.16-0.13-0.32-0.25-0.46-0.39c-0.05-0.05-0.1-0.16-0.08-0.22
	c0.01-0.05,0.13-0.07,0.2-0.1c0.01-0.01,0.03,0,0.04,0c0.26,0.01,0.43-0.12,0.53-0.34c0.09-0.21,0.17-0.42,0.23-0.64
	c0.1-0.37,0.18-0.75,0.27-1.12c0.02-0.08,0.05-0.17,0.16-0.16c0.01,0.02,0.02,0.03,0.02,0.05c0.09,0.42,0.18,0.84,0.27,1.26
	c0.1,0.44,0.28,0.59,0.72,0.66C29.54,6,29.63,6.04,29.66,6.1c0.02,0.04-0.02,0.14-0.07,0.19c-0.1,0.11-0.2,0.21-0.31,0.31
	c-0.26,0.23-0.19,0.59,0.16,0.7c0.13,0.04,0.28,0.05,0.42,0.09c0.09,0.03,0.22,0.06,0.25,0.13c0.03,0.06-0.03,0.19-0.09,0.25
	c-0.13,0.14-0.28,0.27-0.42,0.39c-0.21,0.17-0.24,0.31-0.1,0.54c0.03,0.06,0.07,0.12,0.12,0.16c0.25,0.22,0.51,0.42,0.76,0.64
	c0.14,0.12,0.3,0.25,0.42,0.39c0.16,0.19,0.11,0.35-0.11,0.47c-0.12,0.07-0.25,0.13-0.36,0.21c-0.27,0.19-0.24,0.32,0.05,0.46
	c0.52,0.26,0.96,0.61,1.29,1.08c0.06,0.08,0.1,0.22,0.07,0.3c-0.03,0.06-0.18,0.1-0.28,0.1c-0.2,0-0.41-0.02-0.62-0.04
	c-0.24-0.02-0.36,0.04-0.38,0.36c-0.02,0.38,0.2,0.68,0.6,0.87c0.43,0.19,0.85,0.38,1.28,0.59c0.28,0.14,0.54,0.3,0.73,0.55
	c0.21,0.26,0.13,0.52-0.2,0.58c-0.24,0.04-0.49,0.03-0.73-0.01C31.75,15.36,31.37,15.31,30.97,15.42 M35.45,25.98
	c-0.27,0.01-0.5-0.1-0.73-0.22c-0.16-0.08-0.32-0.16-0.48-0.23c-0.68-0.25-1.36-0.5-2.05-0.75c-0.18-0.06-0.35-0.15-0.53-0.18
	c-0.36-0.07-0.66,0.24-0.55,0.57c0.14,0.43,0.36,0.81,0.75,1.07c0.26,0.18,0.54,0.33,0.83,0.46c0.5,0.23,0.98,0.48,1.39,0.84
	c0.18,0.16,0.35,0.34,0.48,0.53c0.14,0.2,0.02,0.38-0.24,0.37c-0.05,0-0.1-0.01-0.14-0.03c-0.32-0.15-0.65-0.12-0.98-0.04
	c-0.16,0.03-0.33,0.06-0.49,0.07c-0.35,0.02-0.67-0.08-0.98-0.22c-0.22-0.1-0.45-0.18-0.68-0.25c-0.2-0.06-0.29,0.05-0.23,0.25
	c0.01,0.03,0.02,0.06,0.03,0.09c0.14,0.31,0.33,0.6,0.6,0.81c0.69,0.54,1.42,1.02,2.2,1.43c0.3,0.16,0.58,0.35,0.83,0.58
	c0.66,0.59,1,1.36,1.2,2.2c0.02,0.07,0.03,0.15,0.03,0.23c0,0.15-0.07,0.21-0.21,0.15c-0.15-0.06-0.3-0.14-0.43-0.24
	c-0.21-0.16-0.44-0.23-0.7-0.24c-0.16,0-0.31,0-0.47,0c-0.54,0-0.99-0.21-1.36-0.6c-0.05-0.05-0.09-0.1-0.15-0.14
	c-0.12-0.09-0.23-0.06-0.27,0.09c-0.09,0.34-0.09,0.67,0.06,1c0.12,0.27,0.36,0.4,0.62,0.52c0.58,0.25,1.15,0.51,1.71,0.79
	c0.65,0.31,1.1,0.81,1.32,1.51c0.11,0.36,0.09,0.41-0.29,0.39c-0.87-0.03-1.69-0.24-2.45-0.69c-0.24-0.15-0.6-0.12-0.82,0.06
	c-0.19,0.15-0.24,0.36-0.13,0.57c0.16,0.33,0.39,0.59,0.68,0.81c0.45,0.34,0.96,0.49,1.51,0.57c0.28,0.04,0.56,0.13,0.82,0.24
	c0.3,0.13,0.39,0.4,0.25,0.69c-0.09,0.19-0.23,0.37-0.37,0.54c-0.19,0.23-0.24,0.46-0.1,0.73c0.09,0.17,0.22,0.31,0.4,0.41
	c0.25,0.14,0.49,0.29,0.73,0.46c0.35,0.25,0.67,0.55,0.82,0.97c0.22,0.58,0.41,1.17,0.59,1.76c0.07,0.23,0.09,0.48,0.09,0.73
	c0.01,0.32-0.18,0.44-0.48,0.33c-0.2-0.08-0.4-0.18-0.58-0.3c-0.49-0.31-0.98-0.65-1.47-0.96c-0.48-0.3-0.99-0.55-1.56-0.65
	c-0.41-0.07-0.81-0.01-1.22,0.03c-0.64,0.06-1.22-0.06-1.72-0.48c-0.08-0.07-0.18-0.12-0.28-0.16c-0.14-0.06-0.26-0.01-0.31,0.14
	c-0.04,0.11-0.06,0.23-0.06,0.34c0,1.45-0.01,2.91,0,4.36c0,0.38,0.02,0.77,0.08,1.15c0.16,1.16,0.72,2.08,1.77,2.66
	c0.45,0.25,0.84,0.55,1.18,0.93c0.11,0.13,0.21,0.27,0.35,0.37c0.74,0.59,1.61,0.9,2.54,0.97c0.62,0.05,1.25,0.01,1.88,0.02
	c0.09,0,0.16-0.03,0.22-0.09c2.13-2.09,4.26-4.18,6.39-6.27c0.05-0.05,0.08-0.13,0.08-0.19c0-5.84,0-11.68,0-17.51
	c0-0.07-0.03-0.15-0.08-0.19c-1.8-1.84-3.61-3.68-5.41-5.52c-0.06-0.07-0.13-0.09-0.22-0.09c-1.12,0-2.24,0-3.36,0
	c-0.04,0-0.09,0-0.13,0c0,0.02-0.01,0.03,0,0.04c0.36,0.64,0.48,1.34,0.58,2.05C35.79,25.81,35.7,25.94,35.45,25.98 M20.37,53.36
	c0.24,0,0.47,0,0.71,0c1.04,0.01,1.89-0.39,2.54-1.19c0.29-0.35,0.54-0.73,0.78-1.12c0.27-0.44,0.58-0.84,0.95-1.19
	c0.29-0.27,0.58-0.55,0.87-0.82c0.26-0.24,0.42-0.53,0.52-0.86c0.19-0.64,0.23-1.29,0.24-1.95c0.01-1.86,0.02-3.71,0.02-5.57
	c0-0.1,0.04-0.25-0.08-0.29c-0.09-0.03-0.22,0.03-0.32,0.07c-0.07,0.02-0.13,0.08-0.19,0.13c-0.15,0.13-0.3,0.27-0.44,0.41
	c-0.24,0.25-0.52,0.42-0.84,0.53c-0.41,0.14-0.83,0.18-1.25,0.21c-0.24,0.02-0.5,0.02-0.73,0.08c-0.82,0.21-1.54,0.63-2.24,1.09
	c-0.32,0.22-0.62,0.46-0.88,0.76c-0.2,0.24-0.47,0.19-0.59-0.1c-0.02-0.04-0.03-0.08-0.04-0.11c-0.06-0.27-0.03-0.54,0.05-0.79
	c0.15-0.49,0.33-0.98,0.49-1.47c0.11-0.33,0.3-0.6,0.55-0.83c0.39-0.37,0.84-0.65,1.33-0.87c0.11-0.05,0.2-0.12,0.3-0.18
	c0-0.01-0.01-0.02-0.01-0.03c-3.18,0-6.35,0-9.54,0c0,0.04,0,0.07,0,0.1c0,2.48,0,4.96,0,7.43c0,0.06,0.04,0.14,0.09,0.19
	c2.13,2.09,4.26,4.18,6.38,6.27c0.07,0.07,0.13,0.09,0.22,0.09C19.63,53.36,19.99,53.36,20.37,53.36z"/>
<path class="st3" d="M30.98,15.42c0.39-0.11,0.77-0.06,1.15,0c0.24,0.04,0.49,0.05,0.73,0.01c0.33-0.05,0.41-0.31,0.2-0.58
	c-0.19-0.25-0.46-0.41-0.73-0.55c-0.42-0.2-0.85-0.39-1.28-0.59c-0.4-0.18-0.62-0.49-0.6-0.87c0.02-0.32,0.14-0.38,0.38-0.36
	c0.2,0.02,0.41,0.04,0.62,0.04c0.1,0,0.25-0.04,0.28-0.1c0.03-0.08-0.01-0.22-0.07-0.3c-0.34-0.47-0.78-0.83-1.29-1.08
	c-0.29-0.15-0.31-0.27-0.05-0.46c0.11-0.08,0.24-0.14,0.36-0.21c0.22-0.12,0.26-0.28,0.11-0.47c-0.12-0.15-0.27-0.27-0.42-0.39
	c-0.25-0.22-0.51-0.42-0.76-0.64c-0.05-0.04-0.09-0.1-0.12-0.16c-0.14-0.23-0.11-0.37,0.1-0.54c0.15-0.12,0.3-0.25,0.42-0.39
	c0.06-0.07,0.12-0.2,0.09-0.25c-0.03-0.07-0.16-0.11-0.25-0.13c-0.14-0.04-0.28-0.04-0.42-0.09c-0.35-0.11-0.42-0.47-0.16-0.7
	c0.11-0.1,0.22-0.2,0.31-0.31c0.04-0.05,0.09-0.14,0.07-0.19c-0.03-0.05-0.11-0.1-0.18-0.11c-0.44-0.06-0.62-0.22-0.72-0.66
	c-0.09-0.42-0.18-0.84-0.27-1.26c0-0.02-0.01-0.03-0.02-0.05c-0.12-0.01-0.14,0.08-0.16,0.16c-0.09,0.37-0.17,0.75-0.27,1.12
	c-0.06,0.22-0.14,0.43-0.23,0.64c-0.1,0.22-0.27,0.35-0.53,0.34c-0.01,0-0.03,0-0.04,0c-0.07,0.03-0.19,0.05-0.2,0.1
	c-0.02,0.06,0.03,0.17,0.08,0.22c0.14,0.14,0.3,0.26,0.46,0.39c0.25,0.21,0.28,0.36,0.04,0.58c-0.27,0.26-0.58,0.48-0.88,0.72
	c-0.18,0.15-0.38,0.28-0.56,0.44c-0.06,0.05-0.13,0.17-0.1,0.22c0.03,0.07,0.14,0.14,0.22,0.16c0.21,0.04,0.42,0.04,0.63,0.06
	c0.12,0.02,0.24,0.04,0.35,0.09c0.17,0.07,0.2,0.2,0.07,0.32c-0.09,0.08-0.2,0.15-0.31,0.18c-0.59,0.17-1.09,0.49-1.51,0.93
	c-0.12,0.13-0.24,0.27-0.33,0.42c-0.11,0.18-0.04,0.3,0.17,0.31c0.21,0.01,0.42-0.01,0.63-0.02c0.38-0.02,0.52,0.15,0.45,0.53
	c-0.06,0.31-0.24,0.52-0.52,0.65c-0.33,0.15-0.66,0.3-0.99,0.45c-0.34,0.16-0.62,0.38-0.85,0.68c-0.15,0.2-0.12,0.31,0.13,0.33
	c0.57,0.03,1.14,0.14,1.69-0.12c0.17-0.08,0.35-0.11,0.55-0.07c0.31,0.07,0.45,0.33,0.3,0.62c-0.13,0.25-0.34,0.45-0.59,0.59
	c-0.89,0.47-1.78,0.92-2.62,1.48c-0.6,0.4-1.21,0.81-1.73,1.31c-0.12,0.12-0.24,0.26-0.34,0.4c-0.06,0.08-0.09,0.19-0.11,0.3
	c-0.02,0.12,0.02,0.23,0.12,0.31c0.1,0.08,0.21,0.07,0.31,0.02c0.39-0.21,0.81-0.27,1.25-0.19c0.43,0.08,0.85-0.04,1.27-0.12
	c0.37-0.07,0.69-0.24,0.95-0.51c0.06-0.07,0.14-0.12,0.22-0.17c0.12-0.08,0.18-0.06,0.25,0.07c0.14,0.26,0.14,0.54,0.03,0.8
	c-0.08,0.2-0.18,0.39-0.3,0.56c-0.37,0.51-0.82,0.94-1.36,1.28c-0.49,0.3-0.98,0.6-1.47,0.91c-0.66,0.42-1.07,1.02-1.25,1.77
	c-0.13,0.53-0.21,1.08-0.29,1.62c-0.02,0.15,0,0.31,0.02,0.47c0.02,0.14,0.13,0.18,0.24,0.1c0.1-0.07,0.2-0.15,0.27-0.25
	c0.46-0.64,1.11-0.88,1.87-0.89c0.23,0,0.46-0.02,0.68-0.05c0.32-0.04,0.61-0.16,0.88-0.35c0.12-0.09,0.25-0.17,0.39-0.23
	c0.08-0.04,0.21-0.06,0.27-0.01c0.06,0.04,0.08,0.18,0.07,0.26c-0.05,0.43-0.26,0.78-0.57,1.08c-0.28,0.27-0.62,0.43-0.97,0.59
	c-0.22,0.1-0.43,0.21-0.65,0.32c-0.31,0.15-0.53,0.38-0.76,0.63c-0.03,0.03-0.06,0.06-0.07,0.1c-0.03,0.09-0.08,0.18-0.06,0.26
	c0.03,0.11,0.15,0.06,0.23,0.07c0.19,0.02,0.38,0.05,0.57,0.08c0.67,0.09,1.28-0.1,1.85-0.45c0.11-0.07,0.21-0.14,0.32-0.2
	c0.22-0.11,0.42,0,0.45,0.24c0.03,0.22-0.01,0.44-0.1,0.64c-0.15,0.32-0.35,0.59-0.63,0.8c-0.68,0.51-1.38,0.97-2.13,1.37
	c-0.62,0.33-1.16,0.77-1.49,1.42c-0.05,0.1-0.1,0.21-0.12,0.32c-0.04,0.17,0.03,0.23,0.2,0.18c0.04-0.01,0.09-0.02,0.13-0.04
	c0.4-0.23,0.83-0.22,1.26-0.14c0.28,0.05,0.55,0.11,0.83,0.16c0.19,0.03,0.38,0.03,0.57-0.05c0.11-0.05,0.17,0,0.2,0.1
	c0.01,0.03,0.02,0.07,0.01,0.11c-0.02,0.27-0.02,0.54-0.07,0.8c-0.05,0.27-0.22,0.47-0.47,0.58c-0.28,0.13-0.56,0.25-0.85,0.36
	c-0.04,0.02-0.09,0.02-0.13,0.02c-1.69,0-3.37,0-5.06,0c-0.06,0-0.13-0.03-0.17-0.07c-1.82-1.85-3.63-3.7-5.44-5.55
	c-0.05-0.05-0.08-0.13-0.08-0.2c0-6.12,0-12.23,0-18.35c0-0.07,0.03-0.15,0.08-0.19c2.13-2.09,4.25-4.17,6.38-6.26
	c0.08-0.08,0.15-0.1,0.26-0.1c6.12,0,12.24,0,18.36,0c0.12,0,0.2,0.04,0.28,0.12c2.12,2.08,4.24,4.16,6.36,6.24
	c0.06,0.06,0.09,0.12,0.09,0.21c0,2.78,0,5.56,0,8.33c0,0.04,0,0.09,0,0.14c-0.06,0-0.1,0-0.14,0c-3.44,0-6.88,0-10.32,0.01
	c-0.1,0-0.18-0.03-0.26-0.09c-0.56-0.43-1.16-0.81-1.82-1.06c-0.28-0.11-0.56-0.21-0.83-0.33c-0.12-0.06-0.24-0.15-0.33-0.25
	c-0.16-0.17-0.11-0.32,0.11-0.4C30.85,15.46,30.91,15.44,30.98,15.42z"/>
<path class="st3" d="M35.46,25.98c0.24-0.04,0.33-0.17,0.3-0.4c-0.11-0.71-0.23-1.41-0.58-2.05c0-0.01,0-0.02,0-0.04
	c0.04,0,0.08,0,0.13,0c1.12,0,2.24,0,3.36,0c0.09,0,0.16,0.03,0.22,0.09c1.8,1.84,3.61,3.68,5.41,5.52
	c0.05,0.05,0.08,0.13,0.08,0.19c0,5.84,0,11.68,0,17.51c0,0.07-0.04,0.15-0.08,0.19c-2.13,2.09-4.26,4.18-6.39,6.27
	c-0.07,0.06-0.13,0.09-0.22,0.09c-0.63-0.01-1.26,0.03-1.88-0.02c-0.93-0.07-1.8-0.38-2.54-0.97c-0.13-0.1-0.23-0.25-0.35-0.37
	c-0.34-0.38-0.74-0.69-1.18-0.93c-1.05-0.58-1.6-1.5-1.77-2.66c-0.05-0.38-0.07-0.77-0.08-1.15c-0.01-1.45-0.01-2.91,0-4.36
	c0-0.11,0.02-0.23,0.06-0.34c0.05-0.15,0.17-0.2,0.31-0.14c0.1,0.04,0.2,0.09,0.28,0.16c0.5,0.43,1.08,0.54,1.72,0.48
	c0.4-0.04,0.81-0.1,1.22-0.03c0.57,0.1,1.08,0.35,1.56,0.65c0.5,0.31,0.98,0.64,1.47,0.96c0.18,0.12,0.38,0.22,0.58,0.3
	c0.3,0.11,0.48-0.02,0.48-0.33c0-0.24-0.02-0.5-0.09-0.73c-0.18-0.59-0.37-1.18-0.59-1.76c-0.15-0.41-0.47-0.71-0.82-0.97
	c-0.23-0.17-0.48-0.31-0.73-0.46c-0.17-0.1-0.3-0.23-0.4-0.41c-0.14-0.27-0.09-0.5,0.1-0.73c0.14-0.16,0.28-0.34,0.37-0.54
	c0.14-0.29,0.05-0.56-0.25-0.69c-0.26-0.11-0.54-0.2-0.82-0.24c-0.55-0.08-1.06-0.23-1.51-0.57c-0.29-0.22-0.52-0.49-0.68-0.81
	c-0.1-0.21-0.05-0.43,0.13-0.57c0.22-0.18,0.58-0.21,0.82-0.06c0.75,0.46,1.58,0.66,2.45,0.69c0.38,0.01,0.41-0.03,0.29-0.39
	c-0.22-0.7-0.67-1.19-1.32-1.51c-0.57-0.27-1.14-0.53-1.71-0.79c-0.26-0.11-0.5-0.25-0.62-0.52c-0.15-0.32-0.15-0.66-0.06-1
	c0.04-0.15,0.14-0.17,0.27-0.09c0.05,0.04,0.1,0.09,0.15,0.14c0.37,0.39,0.82,0.6,1.36,0.6c0.16,0,0.31,0,0.47,0
	c0.26,0,0.49,0.08,0.7,0.24c0.13,0.1,0.28,0.18,0.43,0.24c0.14,0.06,0.21,0,0.21-0.15c0-0.08-0.01-0.15-0.03-0.23
	c-0.2-0.84-0.55-1.61-1.2-2.2c-0.25-0.22-0.54-0.42-0.83-0.58c-0.78-0.41-1.51-0.89-2.2-1.43c-0.27-0.21-0.46-0.5-0.6-0.81
	c-0.01-0.03-0.02-0.06-0.03-0.09c-0.06-0.2,0.03-0.31,0.23-0.25c0.23,0.07,0.46,0.15,0.68,0.25c0.32,0.14,0.64,0.24,0.98,0.22
	c0.16-0.01,0.33-0.04,0.49-0.07c0.33-0.07,0.66-0.11,0.98,0.04c0.04,0.02,0.1,0.03,0.14,0.03c0.25,0.01,0.37-0.17,0.24-0.37
	c-0.13-0.2-0.3-0.37-0.48-0.53c-0.41-0.36-0.9-0.61-1.39-0.84c-0.29-0.13-0.57-0.28-0.83-0.46c-0.38-0.26-0.6-0.64-0.75-1.07
	c-0.11-0.33,0.19-0.64,0.55-0.57c0.18,0.04,0.35,0.12,0.53,0.18c0.68,0.25,1.37,0.49,2.05,0.75c0.17,0.06,0.33,0.14,0.48,0.23
	C34.95,25.89,35.18,25.99,35.46,25.98z"/>
<path class="st3" d="M20.36,53.36c-0.37,0-0.73,0-1.09,0c-0.09,0-0.16-0.02-0.22-0.09c-2.13-2.09-4.26-4.18-6.38-6.27
	c-0.05-0.05-0.09-0.13-0.09-0.19c0-2.48,0-4.96,0-7.43c0-0.03,0-0.06,0-0.1c3.19,0,6.36,0,9.54,0c0,0.01,0.01,0.02,0.01,0.03
	c-0.1,0.06-0.2,0.13-0.3,0.18c-0.49,0.23-0.94,0.5-1.33,0.87c-0.24,0.24-0.44,0.51-0.55,0.83c-0.16,0.49-0.34,0.98-0.49,1.47
	c-0.08,0.26-0.11,0.53-0.05,0.79c0.01,0.04,0.02,0.08,0.04,0.11c0.12,0.29,0.38,0.34,0.59,0.1c0.25-0.3,0.55-0.55,0.88-0.76
	c0.7-0.46,1.42-0.88,2.24-1.09c0.23-0.06,0.49-0.06,0.73-0.08c0.42-0.03,0.85-0.07,1.25-0.21c0.32-0.11,0.6-0.29,0.84-0.53
	c0.14-0.14,0.29-0.28,0.44-0.41c0.06-0.05,0.12-0.1,0.19-0.13c0.1-0.04,0.23-0.09,0.32-0.07c0.12,0.03,0.08,0.18,0.08,0.29
	C27,42.53,27,44.38,26.99,46.24c-0.01,0.66-0.05,1.31-0.24,1.95c-0.1,0.33-0.26,0.62-0.52,0.86c-0.3,0.27-0.58,0.54-0.87,0.82
	c-0.37,0.35-0.68,0.75-0.95,1.19c-0.24,0.39-0.49,0.77-0.78,1.12c-0.65,0.79-1.51,1.19-2.54,1.19
	C20.84,53.36,20.61,53.36,20.36,53.36z"/>
</svg>
